<svg width="874" height="454" viewBox="0 0 874 454" fill="none" xmlns="http://www.w3.org/2000/svg">
<path d="M0 412.404H28.7934V298.759L73.3682 397.867C78.6259 409.814 85.8295 414.106 99.9467 414.106C114.064 414.106 120.986 409.861 126.252 397.867L170.831 298.759V412.447H199.629V298.947C199.629 287.874 195.19 282.519 186.058 279.754C164.187 272.927 149.51 278.832 142.87 293.596L99.1273 391.406L56.7588 293.553C50.3916 278.79 35.4422 272.884 13.5709 279.711C4.42975 282.481 0 287.836 0 298.904V412.404ZM223.561 319.872H252.346V382.51C252.077 385.915 253.439 393.903 269.212 394.146C277.26 394.274 331.322 394.146 331.826 394.146V319.56H360.674C360.802 319.56 360.645 421.258 360.649 421.693C360.807 446.774 329.521 452.223 315.105 452.645H224.189V433.273L315.267 433.269C333.797 431.306 331.612 422.103 331.612 419.001V411.448H270.415C241.942 411.192 223.813 398.763 223.587 384.468C223.566 383.188 224.201 320.486 223.57 319.867L223.561 319.872Z" fill="#00618A"/>
<path d="M382.87 412.404H465.653C475.34 412.404 484.759 410.377 492.24 406.866C504.701 401.148 510.791 393.395 510.791 383.244V362.208C510.791 353.9 503.869 346.152 490.306 340.984C483.107 338.211 474.247 336.739 465.665 336.739H430.778C419.153 336.739 413.614 333.231 412.231 325.483C411.954 324.561 411.954 323.776 411.954 322.897V309.798C411.954 309.059 411.954 308.317 412.231 307.395C413.614 301.49 416.661 299.826 426.903 298.861C427.735 298.861 428.84 298.674 429.677 298.674H511.905V279.485H431.06C419.43 279.485 413.341 280.224 407.801 281.883C390.62 287.238 383.143 295.772 383.143 310.536V327.33C383.143 340.251 397.824 351.323 422.456 353.905C425.23 354.088 427.995 354.272 430.761 354.272H460.664C461.773 354.272 462.883 354.272 463.711 354.459C472.843 355.198 476.727 356.857 479.492 360.177C481.199 361.884 481.711 363.505 481.711 365.297V382.092C481.711 384.123 480.329 386.709 477.559 388.919C475.067 391.138 470.915 392.61 465.375 392.981C464.266 392.981 463.438 393.165 462.332 393.165H382.87V412.357V412.404ZM690.409 379.003C690.409 398.75 705.081 409.823 734.706 412.037C737.47 412.251 740.24 412.373 743.011 412.404H818.044V393.211H742.456C725.569 393.211 719.198 388.966 719.198 378.815V279.524H690.405V378.994L690.409 379.003ZM529.158 380.001V311.581C529.158 294.198 541.364 283.654 565.501 280.326C568.075 279.958 570.672 279.773 573.272 279.771H627.927C630.62 279.773 633.309 279.958 635.976 280.326C660.113 283.654 672.319 294.193 672.319 311.581V380.001C672.319 394.103 667.133 401.651 655.184 406.571L683.547 432.173H650.114L627.168 411.461L604.067 412.925H573.272C568.002 412.925 562.454 412.182 556.347 410.518C537.997 405.526 529.158 395.908 529.158 380.001ZM560.239 378.294C560.239 379.22 560.517 380.142 560.794 381.256C562.501 389.209 569.948 393.647 581.278 393.647H607.439L583.412 371.958H616.844L637.755 390.873C641.618 388.817 644.157 385.668 645.01 381.627C645.288 380.705 645.288 379.779 645.288 378.853V313.249C645.288 312.511 645.288 311.543 645.01 310.659C643.303 303.265 635.852 299.011 624.756 299.011H581.33C568.527 299.011 560.248 304.558 560.248 313.249V378.346L560.239 378.294Z" fill="#E48E00"/>
<path d="M843.375 247.684C825.678 247.206 812.154 248.849 800.597 253.722C797.311 255.108 792.075 255.143 791.537 259.26C793.342 261.15 793.628 263.975 795.058 266.301C797.819 270.768 802.484 276.754 806.636 279.886C811.177 283.313 815.854 286.982 820.732 289.956C829.395 295.239 839.065 298.255 847.404 303.542C852.32 306.657 857.202 310.583 861.999 314.107C864.368 315.848 865.968 318.553 869.041 319.641V319.138C867.419 317.077 867.005 314.244 865.52 312.097L858.978 305.556C852.576 297.022 844.459 289.611 835.826 283.411C828.943 278.47 813.532 271.796 810.66 263.783L810.157 263.28C815.039 262.725 820.753 260.963 825.264 259.759C832.83 257.733 839.594 258.253 847.413 256.239L857.983 253.218V251.204C854.032 247.151 851.215 241.787 846.909 238.122C835.643 228.521 823.339 218.942 810.677 210.942C803.653 206.504 794.973 203.628 787.526 199.869C785.021 198.606 780.621 197.949 778.969 195.841C775.06 190.857 772.931 184.534 769.913 178.773C763.597 166.613 757.392 153.325 751.793 140.529C747.974 131.803 745.477 123.197 740.723 115.367C717.87 77.8009 693.268 55.1265 655.167 32.8447C647.058 28.1084 637.298 26.231 626.979 23.786L610.37 22.779C606.99 21.3709 603.474 17.232 600.298 15.2266C587.675 7.24744 555.297 -10.089 545.947 12.6664C540.045 27.0587 554.768 41.1012 560.038 48.3976C563.734 53.5179 568.471 59.2484 571.108 65.0044C572.845 68.7849 573.148 72.5782 574.633 76.5806C578.291 86.3945 581.474 97.1599 586.207 106.27C588.597 110.878 591.234 115.734 594.26 119.856C596.116 122.386 599.296 123.5 599.795 127.408C596.688 131.76 596.509 138.502 594.759 144.015C586.894 168.814 589.86 199.634 601.301 217.99C604.814 223.623 613.08 235.707 624.453 231.073C634.396 227.019 632.135 214.475 635.024 203.398C635.664 200.88 635.271 199.045 636.535 197.36V197.863L645.595 215.977C652.295 226.772 664.201 238.058 674.281 245.674C679.509 249.621 683.67 256.448 690.387 258.757V258.253H689.883C688.573 256.205 686.525 255.364 684.848 253.73C680.909 249.869 676.526 245.068 673.27 240.648C664.095 228.197 655.995 214.577 648.612 200.389C645.087 193.618 642.018 186.146 639.052 179.255C637.909 176.597 637.922 172.582 635.532 171.204C632.275 176.256 627.479 180.335 624.961 186.3C620.932 195.832 620.412 207.455 618.922 219.514C618.039 219.83 618.431 219.612 617.915 220.017C610.908 218.328 608.441 211.112 605.838 204.921C599.249 189.261 598.028 164.061 603.824 146.046C605.317 141.387 612.103 126.7 609.359 122.394C608.048 118.098 603.725 115.567 601.306 112.325C598.318 108.271 595.323 102.92 593.253 98.2352C587.859 86.0318 585.341 72.335 579.665 59.9908C576.951 54.0939 572.367 48.1288 568.595 42.9231C564.421 37.1201 559.748 32.8361 556.517 25.8555C555.365 23.3593 553.803 19.3698 555.51 16.7968C555.673 16.0576 556.044 15.3803 556.58 14.8451C557.115 14.3098 557.792 13.9388 558.532 13.7758C561.451 11.5272 569.585 14.5225 572.623 15.7898C580.689 19.1436 587.432 22.3353 594.268 26.8625C597.554 28.9959 600.87 33.2458 604.835 34.4149H609.359C616.443 36.0449 624.38 34.9269 630.995 36.9324C642.697 40.4867 653.178 46.0209 662.703 52.0287C691.714 70.3423 715.429 96.4132 731.655 127.553C734.266 132.558 735.393 137.341 737.693 142.65C742.332 153.317 748.174 164.381 752.792 174.852C757.401 185.306 761.882 195.845 768.394 204.541C771.817 209.107 785.038 211.565 791.042 214.099C795.254 215.878 802.151 217.734 806.141 220.137C813.759 224.732 821.141 230.207 828.29 235.242C831.862 237.759 842.842 243.276 843.388 247.821L843.375 247.684Z" fill="#00618A"/>
<path fill-rule="evenodd" clip-rule="evenodd" d="M618.415 55.9626C614.723 55.8944 612.116 56.3637 609.354 56.9696V57.4731H609.858C611.616 61.0915 614.723 63.4169 616.9 66.5318L621.935 77.0967L622.439 76.5932C625.554 74.3957 626.984 70.884 626.962 65.5205C625.712 64.2063 625.529 62.5593 624.445 60.9891C623.006 58.8983 620.177 57.7121 618.406 55.9541L618.415 55.9626Z" fill="#00618A"/>
<path fill-rule="evenodd" clip-rule="evenodd" d="M831.559 392.665C831.559 405.338 841.575 413.88 852.777 413.88C863.979 413.88 873.995 405.338 873.995 392.665C873.995 379.993 863.979 371.45 852.777 371.45C841.575 371.45 831.559 379.993 831.559 392.665ZM869.241 392.665C869.241 402.283 861.888 409.468 852.768 409.468C843.55 409.468 836.296 402.283 836.296 392.665C836.296 383.048 843.542 375.862 852.768 375.862C861.88 375.862 869.241 383.048 869.241 392.665ZM858.487 404.775H863.237L856.281 394.142C860.015 393.745 862.84 391.931 862.84 387.519C862.84 382.595 859.725 380.564 853.733 380.564H844.28V404.779H848.356V394.312H852.145L858.483 404.779L858.487 404.775ZM848.356 390.907V383.952H853.05C855.483 383.952 858.427 384.405 858.427 387.238C858.427 390.63 855.769 390.916 852.709 390.916H848.356V390.907Z" fill="#E48E00"/>
</svg>
