<svg width="589" height="561" viewBox="0 0 589 561" fill="none" xmlns="http://www.w3.org/2000/svg">
<g clip-path="url(#clip0_2114_96)">
<path d="M483.089 326.268C483.089 325.391 482.846 324.764 482.353 324.356C481.804 323.916 480.856 323.681 479.537 323.681H477.642V328.888H479.929C482.043 328.888 483.087 328.011 483.087 326.268H483.089ZM486.044 337.124H483.438L481.775 333.461C480.932 331.625 480.029 330.707 479.045 330.707H477.642V337.124H475.494V321.852H479.797C481.708 321.852 483.146 322.267 484.13 323.13C484.967 323.873 485.384 324.824 485.384 326.007C485.384 327.06 485.043 327.946 484.357 328.68C483.689 329.421 482.727 329.923 481.5 330.182V330.247C482.351 330.447 483.203 331.382 484.032 333.068L486.044 337.132V337.124ZM490.802 329.639C490.802 326.634 489.777 324.097 487.73 322.085C485.676 320.075 483.17 319.065 480.215 319.065C477.164 319.065 474.626 320.075 472.614 322.103C470.601 324.14 469.598 326.66 469.598 329.639C469.598 332.686 470.644 335.231 472.714 337.259C474.761 339.285 477.266 340.287 480.213 340.287C483.146 340.287 485.649 339.277 487.714 337.224C489.777 335.204 490.804 332.668 490.804 329.639H490.802ZM492.248 329.572C492.248 332.945 491.088 335.775 488.758 338.051C486.428 340.346 483.571 341.489 480.156 341.489C476.715 341.489 473.858 340.363 471.587 338.151C469.314 335.906 468.187 333.086 468.187 329.664C468.187 326.317 469.341 323.505 471.644 321.195C473.95 318.89 476.823 317.741 480.256 317.741C483.622 317.741 486.444 318.843 488.731 321.036C491.08 323.289 492.248 326.125 492.248 329.572ZM165.591 372.159H158.182V329.797C158.182 326.45 158.403 322.379 158.795 317.573H158.632C157.937 320.383 157.302 322.42 156.743 323.681L135.212 372.159H131.603L110.03 324.032C109.423 322.687 108.786 320.526 108.143 317.571H107.984C108.208 320.102 108.337 324.199 108.337 329.88V372.159H101.195V309.074H110.967L130.335 353.061C131.797 356.375 132.741 358.897 133.2 360.616H133.507C134.769 357.167 135.769 354.582 136.529 352.878L156.316 309.074H165.587V372.157L165.591 372.159ZM188.376 372.157H181.177V327.109H188.376V372.157ZM189.622 310.96C189.622 312.286 189.152 313.396 188.227 314.306C187.316 315.216 186.189 315.674 184.869 315.674C183.583 315.674 182.464 315.235 181.545 314.357C180.626 313.472 180.177 312.345 180.177 310.96C180.177 309.658 180.63 308.548 181.545 307.648C181.98 307.213 182.499 306.87 183.071 306.641C183.642 306.411 184.254 306.299 184.869 306.311C186.189 306.311 187.316 306.746 188.227 307.648C189.154 308.548 189.622 309.658 189.622 310.96ZM233.367 370.072C229.91 372.192 225.782 373.243 221.014 373.243C214.55 373.243 209.347 371.1 205.371 366.817C201.511 362.662 199.567 357.296 199.567 350.719C199.567 343.342 201.681 337.367 205.939 332.827C210.174 328.278 215.87 326.009 223.036 326.009C226.953 326.009 230.428 326.776 233.467 328.295V335.698C230.102 333.337 226.544 332.168 222.725 332.168C218.132 332.168 214.399 333.77 211.501 336.967C208.487 340.238 206.958 344.611 206.958 350.068C206.958 355.31 208.352 359.457 211.126 362.519C213.907 365.566 217.608 367.092 222.276 367.092C226.217 367.092 229.91 365.799 233.365 363.221L233.367 370.072ZM267.802 334.418C266.532 333.441 264.702 332.966 262.288 332.966C259.358 332.966 256.893 334.276 254.898 336.92C252.635 339.875 251.508 343.964 251.508 349.188V372.155H244.291V327.107H251.508V336.396H251.681C252.743 333.106 254.379 330.578 256.566 328.784C258.612 327.148 260.926 326.321 263.473 326.321C265.395 326.321 266.822 326.529 267.8 326.936V334.414L267.802 334.418ZM308.019 349.715C308.019 343.948 306.716 339.542 304.11 336.52C301.58 333.616 298.045 332.164 293.495 332.164C289.01 332.164 285.41 333.633 282.72 336.571C279.874 339.708 278.452 344.14 278.452 349.89C278.452 355.282 279.806 359.512 282.537 362.532C285.253 365.57 288.908 367.088 293.495 367.088C298.239 367.088 301.872 365.546 304.359 362.475C306.8 359.471 308.019 355.222 308.019 349.715ZM315.418 349.46C315.418 356.639 313.39 362.405 309.346 366.727C305.288 371.068 299.826 373.237 292.96 373.237C286.196 373.237 280.809 371.068 276.859 366.727C272.991 362.546 271.045 357.022 271.045 350.153C271.045 342.318 273.243 336.275 277.652 331.986C281.728 328.007 287.18 326.003 294.014 326.003C300.736 326.003 305.989 328.097 309.773 332.245C313.523 336.416 315.418 342.158 315.418 349.46ZM351.205 360.105C351.205 363.793 349.826 366.848 347.061 369.284C344.047 371.921 339.905 373.241 334.694 373.241C330.426 373.241 326.684 372.347 323.511 370.527V362.775C327.044 365.646 330.944 367.09 335.229 367.09C340.941 367.09 343.806 364.989 343.806 360.797C343.806 359.036 343.177 357.575 341.909 356.451C340.641 355.298 338.176 353.92 334.51 352.308C330.734 350.658 328.044 348.964 326.46 347.203C324.554 345.115 323.595 342.405 323.595 339.067C323.595 335.327 325.089 332.215 328.046 329.735C331.01 327.25 334.818 326.005 339.495 326.005C343.079 326.005 346.285 326.707 349.134 328.117V335.378C346.161 333.233 342.762 332.164 338.903 332.164C336.513 332.164 334.594 332.759 333.164 333.919C331.72 335.102 330.993 336.612 330.993 338.457C330.993 340.453 331.602 342.003 332.807 343.113C333.875 344.14 336.146 345.393 339.57 346.852C343.42 348.464 346.201 350.133 347.896 351.843C350.094 354.006 351.205 356.759 351.205 360.105ZM395.306 349.715C395.306 343.948 394.003 339.542 391.389 336.52C388.867 333.616 385.323 332.164 380.782 332.164C376.297 332.164 372.697 333.633 369.991 336.571C367.152 339.708 365.739 344.14 365.739 349.89C365.739 355.282 367.093 359.512 369.799 362.532C372.546 365.57 376.205 367.088 380.782 367.088C385.534 367.088 389.159 365.546 391.646 362.475C394.084 359.471 395.306 355.222 395.306 349.715ZM402.721 349.46C402.721 356.639 400.674 362.405 396.625 366.727C392.581 371.068 387.121 373.237 380.255 373.237C373.481 373.237 368.094 371.068 364.144 366.727C360.278 362.546 358.332 357.022 358.332 350.153C358.332 342.318 360.544 336.275 364.928 331.986C369.004 328.007 374.467 326.003 381.306 326.003C388.031 326.003 393.274 328.097 397.052 332.245C400.809 336.416 402.721 342.158 402.721 349.46ZM434.517 311.803C433.098 311.017 431.522 310.617 429.724 310.617C424.672 310.617 422.166 313.796 422.166 320.165V327.107H432.731V333.217H422.166V372.155H414.941V333.215H407.275V327.105H414.941V319.804C414.941 314.845 416.463 310.956 419.552 308.152C422.199 305.715 425.44 304.505 429.289 304.505C431.522 304.505 433.257 304.773 434.517 305.291V311.803ZM463 371.702C461.297 372.68 459.024 373.163 456.218 373.163C448.351 373.163 444.418 368.731 444.418 359.869V333.223H436.684V327.105H444.418V316.114C446.721 315.388 449.119 314.596 451.649 313.778V327.105H463V333.223H451.649V358.642C451.649 361.662 452.143 363.825 453.177 365.076C454.222 366.37 455.926 367.005 458.331 367.005C460.126 367.005 461.68 366.523 463 365.552V371.702Z" fill="black"/>
<path d="M72.9056 547.973C72.9056 551.503 71.6456 554.556 69.099 557.135C66.5585 559.706 63.4769 561 59.8602 561C56.3272 561 53.3211 559.706 50.8583 557.135C48.3934 554.556 47.166 551.503 47.166 547.973C47.166 544.341 48.3934 541.28 50.8583 538.743C53.3211 536.197 56.3272 534.938 59.8602 534.938C63.4769 534.938 66.5585 536.215 69.099 538.794C71.6456 541.372 72.9056 544.435 72.9056 547.973ZM234.477 558.347H210.943L125.512 426.517C123.457 423.23 121.723 419.753 120.333 416.134H119.631C120.239 419.664 120.55 427.241 120.55 438.85V558.347H101.149V392.951H126.329L209.205 522.704C212.505 527.853 214.759 531.54 215.903 533.762H216.364C215.595 529.004 215.194 520.892 215.194 509.442V392.951H234.479L234.477 558.347ZM358.855 558.347H271.128V392.951H355.047V410.478H290.514V465.496H350.313V483.031H290.512V540.813H358.853L358.855 558.347ZM491.922 410.48H444.243V558.349H424.848V410.48H377.08V392.945H491.924L491.922 410.48Z" fill="black"/>
<path d="M227.899 107.278C246.613 164.467 253.703 266.489 308.434 266.489C312.6 266.489 316.811 266.081 321.036 265.277C271.285 253.686 265.387 152.775 235.03 100.517C232.608 102.724 230.232 104.978 227.899 107.278Z" fill="url(#paint0_linear_2114_96)"/>
<path d="M235.03 100.517C265.389 152.774 271.285 253.686 321.037 265.277C324.945 264.56 328.862 263.475 332.787 262.106C288.131 240.245 275.788 142.251 241.31 95.0767C239.182 96.8501 237.088 98.6645 235.03 100.519" fill="url(#paint1_linear_2114_96)"/>
<path d="M278.771 69.4368C274.613 69.4368 270.394 69.8449 266.16 70.6489C255.086 72.7344 243.837 77.4992 232.495 84.7086C235.593 87.7634 238.54 91.2589 241.313 95.0748C252.847 85.5105 264.308 78.444 275.724 74.1954C279.891 72.6375 284.185 71.4447 288.559 70.6305C285.359 69.8261 282.071 69.4251 278.771 69.4368Z" fill="#14559A"/>
<path d="M367.647 241.953C372.405 238.155 376.987 234.142 381.379 229.928C362.362 173.003 355.555 69.5225 300.441 69.5225C296.5 69.5225 292.524 69.8898 288.556 70.6244C338.759 83.1006 345.189 192.24 367.649 241.953" fill="url(#paint2_linear_2114_96)"/>
<path d="M288.558 70.6265C285.357 69.8232 282.069 69.4228 278.77 69.4348L300.443 69.5144C296.502 69.5144 292.526 69.8838 288.558 70.6265Z" fill="#3092C4"/>
<path d="M366.685 254.045C364.531 251.993 362.484 249.74 360.471 247.336C351.199 253.894 341.965 258.869 332.787 262.106C336.063 263.714 339.532 264.895 343.108 265.62C346.003 266.205 348.95 266.497 351.904 266.489C362.201 266.489 370.345 265.271 377.276 261.949C373.459 259.888 369.959 257.214 366.685 254.045Z" fill="#1969BC"/>
<path d="M275.721 74.2037C320.685 97.7032 324.594 204.124 360.473 247.336C362.915 245.612 365.305 243.817 367.641 241.953C345.181 192.24 338.759 83.0926 288.566 70.6245C284.19 71.4477 279.892 72.6451 275.721 74.2037Z" fill="url(#paint3_linear_2114_96)"/>
<path d="M241.31 95.0769C275.786 142.251 288.131 240.243 332.787 262.106C341.966 258.869 351.203 253.894 360.473 247.336C324.594 204.124 320.685 97.7031 275.72 74.2036C264.304 78.444 252.844 85.5106 241.31 95.0748" fill="url(#paint4_linear_2114_96)"/>
<path d="M205.839 105.9C200.435 118.109 194.915 134.156 188.241 155.103C201.513 136.419 214.743 120.319 227.898 107.28C226.087 101.713 224.141 96.5809 222.043 92.0059C216.396 96.3428 210.987 100.982 205.841 105.902" fill="url(#paint5_linear_2114_96)"/>
<path d="M226.835 88.4834C225.22 89.6316 223.624 90.8058 222.048 92.0055C224.145 96.5784 226.083 101.711 227.895 107.277C230.232 104.982 232.609 102.728 235.026 100.517C232.479 96.1438 229.773 92.1055 226.835 88.4834Z" fill="#2B74B1"/>
<path d="M232.494 84.7105C230.58 85.9262 228.692 87.1835 226.833 88.4816C229.774 92.1036 232.48 96.142 235.034 100.523C237.089 98.6617 239.183 96.8451 241.316 95.0747C238.543 91.2608 235.594 87.7633 232.494 84.7085" fill="#125A9E"/>
<path d="M539.201 65.082C513.77 163.082 460.653 241.794 416.119 261.638H416.038C415.227 262.006 414.424 262.34 413.632 262.665C413.522 262.732 413.422 262.74 413.338 262.779C413.105 262.873 412.889 262.946 412.654 263.04C412.544 263.106 412.446 263.128 412.346 263.167C411.97 263.301 411.602 263.414 411.235 263.561C411.075 263.628 410.926 263.669 410.775 263.722C410.595 263.791 410.41 263.851 410.224 263.901C410.056 263.967 409.881 264.016 409.689 264.089C409.529 264.154 409.362 264.183 409.213 264.248C408.886 264.342 408.588 264.422 408.261 264.534C408.126 264.534 408.002 264.607 407.861 264.644C407.659 264.709 407.432 264.756 407.216 264.818C407.066 264.883 406.942 264.905 406.783 264.938C406.558 265.003 406.307 265.064 406.08 265.118L405.229 265.305C407.268 266.057 409.426 266.435 411.6 266.424C453.828 266.424 496.404 190.807 566.853 65.0596H539.191L539.201 65.082Z" fill="url(#paint6_linear_2114_96)"/>
<path d="M179.072 73.4139C179.099 73.4139 179.133 73.3486 179.148 73.3486C179.182 73.3486 179.233 73.3486 179.25 73.2833H179.303C179.536 73.2017 179.752 73.1099 179.987 73.0221C180.048 73.0221 180.079 73.0221 180.122 72.9568C180.181 72.9568 180.238 72.8895 180.297 72.8813C180.547 72.8018 180.798 72.7079 181.033 72.6222H181.071C181.631 72.4548 182.15 72.2467 182.691 72.0529C182.768 72.0529 182.842 71.9876 182.934 71.9876C183.159 71.9141 183.393 71.8345 183.628 71.7815C183.736 71.7141 183.845 71.7141 183.945 71.6794C184.186 71.608 184.421 71.5264 184.645 71.4733C184.747 71.4733 184.837 71.406 184.913 71.3999C185.689 71.1856 186.459 70.9856 187.235 70.7999C187.343 70.7999 187.435 70.7326 187.551 70.7265C187.776 70.6612 187.986 70.6244 188.229 70.5918C188.329 70.5265 188.446 70.5265 188.562 70.4918C188.787 70.4265 189.005 70.4183 189.248 70.3653H189.406C189.875 70.2694 190.351 70.1918 190.819 70.1041H191.103C191.327 70.0388 191.527 70.0306 191.754 69.9898C191.877 69.9898 192.003 69.9245 192.122 69.9245C192.33 69.9245 192.538 69.8572 192.747 69.8306C192.857 69.8306 192.963 69.8306 193.09 69.7633C193.582 69.698 194.09 69.6715 194.609 69.6307C193.116 69.4807 191.617 69.4024 190.116 69.396C142.562 69.396 77.0409 157.564 47.5273 271.744H53.2148C62.6599 254.913 71.1451 238.99 78.9054 224.043C99.5743 143.168 141.676 88.0144 179.074 73.4017" fill="url(#paint7_linear_2114_96)"/>
<path d="M205.841 105.9C210.987 100.979 216.396 96.3404 222.043 92.0035C220.894 89.4507 219.606 86.9629 218.184 84.5513C213.834 89.8262 209.858 96.7867 205.841 105.9Z" fill="#0D82CA"/>
<path d="M209.748 74.083C212.854 76.6868 215.636 80.266 218.182 84.5574C218.985 83.5718 219.795 82.6617 220.639 81.8108C217.106 78.5152 213.287 75.8114 209.146 73.7749C209.313 73.8667 209.48 73.9422 209.654 74.0157C209.654 74.0157 209.719 74.083 209.748 74.083Z" fill="#0D82CA"/>
<path d="M78.9014 224.053C122.265 140.558 142.809 87.7142 179.072 73.4097C141.682 88.0326 99.5723 143.186 78.9034 224.053" fill="url(#paint8_linear_2114_96)"/>
<path d="M220.634 81.8086C219.791 82.6677 218.99 83.5696 218.18 84.5552C219.603 86.967 220.894 89.4541 222.048 92.0055C223.623 90.8064 225.219 89.633 226.832 88.4854C224.925 86.1179 222.854 83.8868 220.634 81.8086Z" fill="#127BCA"/>
<path d="M98.5881 271.378C98.3206 271.445 98.053 271.445 97.8019 271.472H97.6528C97.4261 271.472 97.1912 271.539 96.9829 271.539H96.8747C96.3315 271.605 95.7964 271.605 95.2798 271.645H95.1123C139.001 270.419 159.061 248.462 169.019 216.617C176.585 192.474 182.797 172.136 188.244 155.07C169.86 180.925 151.395 211.744 132.829 246.269C123.876 262.908 110.263 269.858 98.586 271.348" fill="url(#paint9_linear_2114_96)"/>
<path d="M98.588 271.362C110.263 269.876 123.876 262.934 132.829 246.283C151.395 211.768 169.87 180.941 188.233 155.087C194.915 134.13 200.429 118.091 205.841 105.882C169.235 140.698 132.486 198.59 98.5859 271.346" fill="url(#paint10_linear_2114_96)"/>
<path d="M78.9015 224.055C71.1413 239 62.656 254.923 53.2109 271.756H69.7546C71.8439 255.689 74.8984 239.763 78.9015 224.063" fill="#05A1E6"/>
<path d="M193.088 69.8059C192.953 69.8059 192.853 69.8712 192.737 69.8712C192.537 69.9385 192.328 69.9385 192.118 69.9589C191.996 69.9589 191.877 69.9589 191.75 70.0263C191.526 70.0916 191.318 70.0977 191.099 70.1406C190.999 70.1406 190.899 70.1406 190.815 70.2059C190.339 70.2854 189.872 70.3732 189.406 70.4528H189.247C189.004 70.5201 188.785 70.5548 188.561 70.5874C188.444 70.6527 188.328 70.6527 188.217 70.6793C187.993 70.7466 187.768 70.7731 187.55 70.814C187.433 70.8793 187.341 70.8793 187.233 70.8854C186.457 71.0731 185.687 71.2731 184.911 71.4873C184.83 71.4873 184.744 71.5526 184.644 71.5669C184.411 71.6322 184.184 71.6996 183.941 71.773C183.841 71.8404 183.725 71.8404 183.625 71.8669C183.392 71.9313 183.16 72 182.93 72.073C182.84 72.073 182.765 72.1383 182.681 72.1383C182.146 72.3383 181.619 72.5403 181.068 72.7056C180.835 72.779 180.584 72.8729 180.333 72.9607C180.233 73.026 180.143 73.0423 180.026 73.0872C179.791 73.1606 179.557 73.2545 179.34 73.3402C179.258 73.4075 179.173 73.4137 179.116 73.4484C142.853 87.7529 122.306 140.594 78.9447 224.089C74.938 239.789 71.8841 255.716 69.7998 271.784H72.1218C78.6608 271.784 80.5069 271.717 88.0303 271.717H95.3229C95.8396 271.651 96.3747 271.651 96.9158 271.609H97.0179C97.2426 271.609 97.4672 271.543 97.6857 271.543H97.845C98.086 271.543 98.3617 271.478 98.6292 271.449C132.529 198.694 169.276 140.802 205.884 105.986C209.907 96.8744 213.875 89.9139 218.219 84.6472C215.679 80.3578 212.897 76.7705 209.791 74.1667C206.685 71.5629 209.707 74.1667 209.701 74.0993C209.524 74.0279 209.358 73.9401 209.182 73.8544C209.007 73.7585 208.856 73.6851 208.672 73.5932C208.501 73.5214 208.334 73.441 208.172 73.3525C207.955 73.2851 207.78 73.1912 207.588 73.1055C207.428 73.0382 207.287 72.9709 207.128 72.9056C206.805 72.7801 206.485 72.6461 206.168 72.5036C206.025 72.4383 205.893 72.4015 205.76 72.3505C205.517 72.2621 205.276 72.1669 205.039 72.0648C204.923 71.9975 204.79 71.9832 204.655 71.9363C204.314 71.822 203.979 71.7016 203.662 71.5955H203.579C203.195 71.469 202.819 71.3751 202.427 71.269C202.335 71.2017 202.26 71.2017 202.168 71.1874C201.825 71.0956 201.524 71.0037 201.2 70.916C201.118 70.916 201.04 70.8486 200.975 70.8486C200.176 70.6442 199.37 70.4686 198.559 70.3222C198.477 70.3222 198.394 70.2548 198.31 70.2548C197.964 70.1862 197.616 70.1304 197.266 70.0875C197.181 70.0222 197.132 70.0222 197.058 70.0222C196.647 69.9592 196.234 69.9055 195.821 69.861H195.604C195.269 69.7957 194.961 69.7896 194.652 69.7549C194.126 69.8202 193.625 69.8487 193.131 69.8957" fill="url(#paint11_linear_2114_96)"/>
<path d="M439.864 119.335C431.522 146.041 424.764 168.071 418.885 186.197C441.778 154.719 464.327 115.119 485.801 69.4224C460.753 77.2827 447.389 95.2767 439.864 119.335Z" fill="url(#paint12_linear_2114_96)"/>
<path d="M419.612 259.969C418.444 260.565 417.274 261.13 416.12 261.638C460.654 241.794 513.771 163.082 539.202 65.082H534.048C475.621 169.373 456.829 239.19 419.612 259.969Z" fill="url(#paint13_linear_2114_96)"/>
<path d="M390.534 251.209C400.222 239.392 408.115 219.304 418.889 186.197C406.461 203.257 393.95 217.918 381.43 229.878C381.43 229.944 381.43 229.944 381.364 229.984C384.097 238.163 387.095 245.381 390.509 251.207" fill="#079AE1"/>
<path d="M390.533 251.209C387.235 255.229 383.743 258.294 379.861 260.563C379.007 261.057 378.148 261.522 377.271 261.951C381.485 264.231 386.097 265.683 390.858 266.23C391.593 266.303 392.32 266.371 393.08 266.424H393.215C393.556 266.424 393.917 266.424 394.285 266.489H397.908C398.04 266.489 398.179 266.489 398.314 266.424C398.573 266.424 398.849 266.424 399.115 266.356H399.511C399.784 266.356 400.085 266.291 400.379 266.262H400.446C400.532 266.262 400.626 266.197 400.712 266.197C401.018 266.13 401.341 266.103 401.641 266.056H401.914C402.253 265.991 402.607 265.948 402.956 265.883H403.125C403.826 265.748 404.51 265.618 405.204 265.442C399.458 263.34 394.646 258.382 390.505 251.321" fill="#1969BC"/>
<path d="M308.434 266.489C312.602 266.489 316.811 266.08 321.038 265.27C324.947 264.562 328.864 263.475 332.789 262.107C336.062 263.714 339.528 264.895 343.102 265.621C345.999 266.206 348.949 266.497 351.905 266.489H308.434Z" fill="#1E5CB3"/>
<path d="M351.906 266.489C362.196 266.489 370.346 265.27 377.269 261.948C381.484 264.23 386.096 265.684 390.858 266.231C391.593 266.303 392.32 266.37 393.08 266.423H393.215C393.556 266.423 393.917 266.423 394.285 266.491H395.533H351.877L351.906 266.489Z" fill="#1E5CB3"/>
<path d="M395.558 266.489H397.939C398.082 266.489 398.212 266.489 398.347 266.423C398.607 266.423 398.882 266.423 399.158 266.356H399.552C399.826 266.356 400.126 266.291 400.412 266.264H400.485C400.573 266.264 400.659 266.199 400.747 266.199C401.053 266.132 401.374 266.105 401.674 266.056C401.774 266.056 401.854 266.056 401.96 265.991C402.301 265.926 402.654 265.891 403.005 265.826H403.173C403.873 265.691 404.557 265.558 405.252 265.385C407.291 266.136 409.45 266.515 411.623 266.503L395.572 266.568L395.558 266.489Z" fill="#1D60B5"/>
<path d="M381.391 229.987V229.919C377 234.134 372.418 238.147 367.661 241.945C365.322 243.807 362.929 245.602 360.487 247.328C362.499 249.732 364.547 251.984 366.702 254.039C369.975 257.208 373.474 259.879 377.29 261.94C378.16 261.512 379.028 261.047 379.872 260.555C383.764 258.286 387.254 255.223 390.552 251.201C387.138 245.375 384.14 238.157 381.407 229.979" fill="#175FAB"/>
<path d="M517.729 65.082H491.791C490.39 65.1494 489.028 65.1963 487.684 65.282C487.049 66.6431 486.397 68.0042 485.77 69.3734C464.299 115.071 441.749 154.67 418.857 186.149C408.09 219.253 400.191 239.341 390.503 251.158C394.644 258.218 399.464 263.183 405.192 265.287C405.36 265.22 405.495 265.22 405.644 265.185H405.738C405.838 265.185 405.946 265.12 406.054 265.12C406.287 265.052 406.538 265.011 406.773 264.94C406.922 264.873 407.047 264.867 407.198 264.818C407.416 264.752 407.641 264.705 407.841 264.652C407.976 264.585 408.109 264.565 408.241 264.538C408.576 264.43 408.876 264.35 409.195 264.25C409.344 264.185 409.503 264.128 409.671 264.089C409.855 264.024 410.038 263.977 410.206 263.897C410.398 263.83 410.59 263.795 410.757 263.724C410.906 263.656 411.064 263.616 411.207 263.556C411.582 263.422 411.95 263.31 412.326 263.163C412.428 263.163 412.528 263.069 412.636 263.048C412.861 262.955 413.096 262.881 413.32 262.781C413.402 262.714 413.504 262.708 413.612 262.673C414.398 262.346 415.207 262.012 416.018 261.646H416.102C417.278 261.123 418.44 260.566 419.586 259.977C456.808 239.198 475.603 169.381 534.029 65.0902H517.71L517.729 65.082Z" fill="url(#paint14_linear_2114_96)"/>
<path d="M194.611 69.665C194.703 69.665 194.785 69.665 194.877 69.7303C195.102 69.7303 195.326 69.7303 195.553 69.8037H195.777C196.188 69.869 196.598 69.9057 197.015 69.9649C197.091 69.9649 197.158 69.9649 197.223 70.0302C197.566 70.0955 197.918 70.1527 198.267 70.2037C198.345 70.2037 198.443 70.271 198.526 70.271C199.329 70.4302 200.148 70.5975 200.932 70.8036C201.008 70.8036 201.083 70.871 201.148 70.871C201.483 70.9505 201.784 71.0505 202.118 71.1444C202.221 71.1444 202.294 71.2097 202.384 71.226C202.778 71.326 203.146 71.426 203.53 71.5525C203.546 71.5525 203.57 71.5525 203.613 71.6178C203.94 71.7178 204.273 71.8443 204.616 71.9586C204.751 72.0239 204.875 72.0525 205 72.0851C205.235 72.1871 205.494 72.2851 205.719 72.379C205.854 72.379 205.984 72.4728 206.127 72.5218C206.436 72.6606 206.76 72.7871 207.079 72.9197C207.246 72.987 207.387 73.0626 207.549 73.1217C207.732 73.2156 207.922 73.3013 208.122 73.3666C208.29 73.4482 208.474 73.5339 208.633 73.6074C208.809 73.7033 208.974 73.7747 209.144 73.8686C213.285 75.9051 217.102 78.6171 220.635 81.9065C221.9 80.5754 223.262 79.3396 224.709 78.2089C216.983 72.732 208.233 69.6099 198.134 69.6099C196.966 69.6099 195.796 69.6772 194.609 69.7649" fill="#7DCBEC"/>
<path d="M220.635 81.809C222.854 83.8872 224.925 86.1183 226.833 88.4858C228.69 87.1833 230.577 85.9246 232.494 84.7107C230.09 82.2919 227.482 80.0834 224.701 78.1094C223.254 79.2378 221.894 80.4739 220.633 81.8069" fill="#5EC5ED"/>
<path d="M194.607 69.6633C195.792 69.5633 196.962 69.5204 198.132 69.5204C208.228 69.5204 216.981 72.6425 224.707 78.1113C232.859 71.6835 242.713 69.4388 256.401 69.4388H190.112C191.644 69.4388 193.137 69.5306 194.607 69.6633Z" fill="url(#paint15_linear_2114_96)"/>
<path d="M256.402 69.4386C242.713 69.4386 232.859 71.6833 224.707 78.1112C227.484 80.0868 230.089 82.2945 232.492 84.7104C243.84 77.501 255.082 72.726 266.167 70.6405C270.321 69.8512 274.539 69.4489 278.768 69.4386H256.402Z" fill="url(#paint16_linear_2114_96)"/>
<path d="M418.885 186.214C424.773 168.073 431.514 146.049 439.872 119.335C447.408 95.2665 460.744 77.2746 485.791 69.4224C486.452 68.0776 487.077 66.692 487.721 65.333C446.889 67.7776 427.805 88.5325 418.201 119.268C401.406 172.927 391.232 207.711 381.436 229.876C393.948 217.927 406.458 203.255 418.885 186.214Z" fill="url(#paint17_linear_2114_96)"/>
<path d="M478.79 252.194H474.163V266.566H472.276V252.194H467.63V250.484H478.788L478.79 252.194ZM497.736 266.562H495.857V255.763C495.857 254.913 495.922 253.87 496.01 252.641C495.816 253.376 495.657 253.886 495.51 254.213L490.031 266.562H489.112L483.618 254.304C483.455 253.964 483.295 253.411 483.122 252.643H483.056C483.122 253.29 483.144 254.337 483.144 255.79V266.564H481.339V250.482H483.83L488.764 261.706C489.138 262.548 489.373 263.199 489.491 263.634H489.565C489.892 262.748 490.157 262.089 490.341 261.655L495.377 250.482H497.748V266.562H497.736Z" fill="black"/>
</g>
<defs>
<linearGradient id="paint0_linear_2114_96" x1="12573.2" y1="-8804.43" x2="12573.2" y2="59247" gradientUnits="userSpaceOnUse">
<stop stop-color="#0994DC"/>
<stop offset="0.35" stop-color="#66CEF5"/>
<stop offset="0.846" stop-color="#127BCA"/>
<stop offset="1" stop-color="#127BCA"/>
</linearGradient>
<linearGradient id="paint1_linear_2114_96" x1="13193.4" y1="-9036.72" x2="13193.4" y2="60747.9" gradientUnits="userSpaceOnUse">
<stop stop-color="#0E76BC"/>
<stop offset="0.36" stop-color="#36AEE8"/>
<stop offset="0.846" stop-color="#00ADEF"/>
<stop offset="1" stop-color="#00ADEF"/>
</linearGradient>
<linearGradient id="paint2_linear_2114_96" x1="12592.4" y1="52651.5" x2="12592.4" y2="-2876.19" gradientUnits="userSpaceOnUse">
<stop stop-color="#1C63B7"/>
<stop offset="0.5" stop-color="#33BDF2"/>
<stop offset="1" stop-color="#33BDF2" stop-opacity="0.42"/>
</linearGradient>
<linearGradient id="paint3_linear_2114_96" x1="12460.4" y1="-9410.05" x2="12460.4" y2="63045.3" gradientUnits="userSpaceOnUse">
<stop stop-color="#166AB8"/>
<stop offset="0.4" stop-color="#36AEE8"/>
<stop offset="0.846" stop-color="#0798DD"/>
<stop offset="1" stop-color="#0798DD"/>
</linearGradient>
<linearGradient id="paint4_linear_2114_96" x1="16036.5" y1="-10010" x2="16036.5" y2="67036.9" gradientUnits="userSpaceOnUse">
<stop stop-color="#124379"/>
<stop offset="0.39" stop-color="#1487CB"/>
<stop offset="0.78" stop-color="#165197"/>
<stop offset="1" stop-color="#165197"/>
</linearGradient>
<linearGradient id="paint5_linear_2114_96" x1="188.241" y1="8765.52" x2="227.898" y2="8765.52" gradientUnits="userSpaceOnUse">
<stop stop-color="#33BDF2" stop-opacity="0.698"/>
<stop offset="1" stop-color="#1DACD8"/>
</linearGradient>
<linearGradient id="paint6_linear_2114_96" x1="21833.4" y1="52482.3" x2="21833.4" y2="-1609.55" gradientUnits="userSpaceOnUse">
<stop stop-color="#136AB4"/>
<stop offset="0.6" stop-color="#59CAF5" stop-opacity="0.549"/>
<stop offset="1" stop-color="#59CAF5" stop-opacity="0.235"/>
</linearGradient>
<linearGradient id="paint7_linear_2114_96" x1="47.1374" y1="27884.1" x2="39039.6" y2="27884.1" gradientUnits="userSpaceOnUse">
<stop stop-color="#05A1E6" stop-opacity="0.247"/>
<stop offset="1" stop-color="#05A1E6"/>
</linearGradient>
<linearGradient id="paint8_linear_2114_96" x1="13356.4" y1="51557.7" x2="13356.4" y2="-3828.27" gradientUnits="userSpaceOnUse">
<stop stop-color="#318ED5"/>
<stop offset="1" stop-color="#38A7E4"/>
</linearGradient>
<linearGradient id="paint9_linear_2114_96" x1="12439.8" y1="29383.6" x2="12439.8" y2="-24453.6" gradientUnits="userSpaceOnUse">
<stop stop-color="#05A1E6"/>
<stop offset="1" stop-color="#05A1E6" stop-opacity="0.549"/>
</linearGradient>
<linearGradient id="paint10_linear_2114_96" x1="14315.7" y1="45604.2" x2="14315.7" y2="110.432" gradientUnits="userSpaceOnUse">
<stop stop-color="#1959A6"/>
<stop offset="0.5" stop-color="#05A1E6"/>
<stop offset="0.918" stop-color="#7EC5EA"/>
<stop offset="1" stop-color="#7EC5EA"/>
</linearGradient>
<linearGradient id="paint11_linear_2114_96" x1="23601" y1="52594.5" x2="8695.35" y2="5319.28" gradientUnits="userSpaceOnUse">
<stop stop-color="#165096"/>
<stop offset="1" stop-color="#0D82CA"/>
</linearGradient>
<linearGradient id="paint12_linear_2114_96" x1="9287.98" y1="24788.7" x2="9287.98" y2="-989.681" gradientUnits="userSpaceOnUse">
<stop stop-color="#05A1E6"/>
<stop offset="0.874" stop-color="#0495D6"/>
<stop offset="1" stop-color="#0495D6"/>
</linearGradient>
<linearGradient id="paint13_linear_2114_96" x1="21711.4" y1="-2183.41" x2="-1600.01" y2="51533.5" gradientUnits="userSpaceOnUse">
<stop stop-color="#38A7E4" stop-opacity="0.329"/>
<stop offset="0.962" stop-color="#0E88D3"/>
<stop offset="1" stop-color="#0E88D3"/>
</linearGradient>
<linearGradient id="paint14_linear_2114_96" x1="19421.9" y1="-97.8372" x2="19421.9" y2="56141.2" gradientUnits="userSpaceOnUse">
<stop stop-color="#168CD4"/>
<stop offset="0.5" stop-color="#1C87CC"/>
<stop offset="1" stop-color="#154B8D"/>
</linearGradient>
<linearGradient id="paint15_linear_2114_96" x1="3120.36" y1="-4823.07" x2="3353.79" y2="1039.54" gradientUnits="userSpaceOnUse">
<stop stop-color="#97D6EE"/>
<stop offset="0.703" stop-color="#55C1EA"/>
<stop offset="1" stop-color="#55C1EA"/>
</linearGradient>
<linearGradient id="paint16_linear_2114_96" x1="1212.17" y1="-179.797" x2="2254.99" y2="-6318.17" gradientUnits="userSpaceOnUse">
<stop stop-color="#7ACCEC"/>
<stop offset="1" stop-color="#3FB7ED"/>
</linearGradient>
<linearGradient id="paint17_linear_2114_96" x1="14469.1" y1="2943.71" x2="14469.1" y2="57950.1" gradientUnits="userSpaceOnUse">
<stop stop-color="#1DA7E7"/>
<stop offset="1" stop-color="#37ABE7" stop-opacity="0"/>
</linearGradient>
<clipPath id="clip0_2114_96">
<rect width="589" height="561" fill="white"/>
</clipPath>
</defs>
</svg>
