<svg width="953" height="272" viewBox="0 0 953 272" fill="none" xmlns="http://www.w3.org/2000/svg">
<path d="M136.28 4.09L217.95 4L80.9298 140.95L45.2198 176.46L4.58984 135.78L136.28 4.09ZM135.52 126.37C136.58 124.97 138.53 125.66 140.01 125.48L217.88 125.5L146.91 196.4L106.07 155.81L135.52 126.37Z" fill="#44D1FD"/>
<path opacity="0.54" d="M332.74 61.21L421.77 61.24L421.76 78.77C398.47 78.77 375.17 78.7 351.87 78.8C350.09 79.39 350.93 81.62 350.73 82.99L350.8 130.14C351.39 131.91 353.63 131.06 355.01 131.28L414.77 131.25V148.76C396.19 148.75 377.62 148.75 359.04 148.76C356.28 148.75 353.49 148.58 350.76 149.05L350.55 215.61C344.56 215.37 338.58 215.59 332.59 215.46L332.58 64.04L332.74 61.21ZM443.36 61.24H461.64L461.65 166L461.45 215.33C455.5 215.22 449.55 215.19 443.61 215.35C443.15 212.91 443.34 210.43 443.34 207.97L443.36 61.24ZM622.28 74.23L640.62 74.24L640.65 105.24C649.62 105.46 658.64 104.84 667.59 105.55C667.34 111.11 667.55 116.67 667.45 122.23C658.53 122.25 649.62 122.32 640.71 122.19L640.64 183.93C640.83 189.65 642.05 196.56 647.61 199.51C653.96 203.12 661.76 201.42 667.77 197.94V215.9C661.15 218.9 653.6 219.26 646.49 218.29C636.47 216.76 626.87 209.93 623.84 200C621.83 194.56 622.29 188.69 622.25 183.01L622.21 122.88L621.76 122.37C615.43 122.03 609.08 122.42 602.74 122.2C602.78 116.54 602.52 110.88 602.88 105.23C609.32 105.12 615.79 105.52 622.22 105.03L622.28 74.23ZM699.76 74.17C705.86 74.38 711.96 74.1 718.05 74.31L718.47 74.77C718.7 84.95 718.16 95.16 718.71 105.32C727.4 105.16 736.09 105.29 744.77 105.24L744.83 122.1C736.09 122.43 727.32 122.23 718.58 122.18L718.48 184.99C718.47 190.46 720.05 196.93 725.34 199.62C731.83 203.16 739.7 201.34 745.73 197.72L745.71 215.78C739.28 218.68 732.03 219.24 725.09 218.44C716.08 217.24 707.26 212.15 703.03 203.9C700.99 199.58 699.85 194.8 699.66 190.03V122.25C693.33 122.24 687.01 122.27 680.69 122.25L680.73 105.18C686.96 105.35 693.19 105.13 699.42 105.34C700.08 94.98 699.37 84.55 699.76 74.17ZM788.78 105.82C801.44 100.57 816.05 100.47 828.98 104.87C843.79 109.98 855.25 122.9 859.45 137.89C862.2 146.2 862.09 155.03 861.7 163.67L774.65 163.76C775.37 173.03 778.14 182.48 784.58 189.44C793.73 200.11 809.48 204.07 822.78 199.88C832.11 197.13 839.39 189.95 844.18 181.7C849.48 184.07 854.63 186.77 859.91 189.2C852.69 202.96 839.56 213.89 824.13 216.85C811.46 219.22 797.6 219.28 785.98 213.02C770.9 205.53 760.52 190.28 757.56 173.88C755.41 161.28 756.08 147.95 760.82 135.99C765.79 122.86 775.84 111.49 788.78 105.82ZM795.67 121.63C785.02 126.55 778.16 137.48 776.02 148.76L842.78 148.55C841.72 141.18 839.1 133.69 833.7 128.36C824.24 118.22 808.07 116.24 795.67 121.63ZM901.33 123.08C908.3 106.15 929.71 97.26 946.64 104.35V124.11C939.53 121.31 931.56 119.58 924.05 121.79C913.79 124.84 906.2 133.99 903.29 144.06C901.29 150.86 902.04 157.96 902.12 164.93C901.34 173.95 902.51 182.98 901.92 192C902.4 199.79 901.5 207.58 902.16 215.38C895.94 215.68 889.72 215.36 883.51 215.57C883.15 192.06 883.46 168.54 883.36 145.02L883.5 105.43C889.33 105.59 895.17 105.41 901.01 105.55C901.54 111.39 900.36 117.26 901.33 123.08ZM487.86 105.21C494.06 105.47 500.31 104.84 506.48 105.54L506.39 171.08C506.33 179.09 507.47 187.84 513.01 194.06C520.16 201.98 532.27 203.43 542.05 200.3C555.12 195.62 564.24 181.78 563.71 167.94L563.91 105.21L582.58 105.25L582.47 215.3C576.55 215.2 570.64 215.3 564.73 215.23L564.66 199.57C560.83 204.38 556.81 209.25 551.32 212.28C540.08 219.37 525.82 220.31 513.23 216.68C505.11 214.23 498.04 208.54 493.97 201.1C489.14 192.92 487.92 183.25 487.64 173.93L487.86 105.21Z" fill="black"/>
<path d="M65.3604 196.47L106.07 155.81L146.91 196.4L147.08 196.58L106.08 237.2L65.3604 196.47Z" fill="#1FBCFD"/>
<path d="M106.08 237.2L147.08 196.58L217.91 267.48C191.23 267.54 164.56 267.46 137.89 267.52C136.37 267.86 135.43 266.47 134.46 265.61L106.08 237.2Z" fill="#08589C"/>
</svg>
