<svg width="1296" height="218" viewBox="0 0 1296 218" fill="none" xmlns="http://www.w3.org/2000/svg">
<path d="M163.641 0L217.522 21.7516V196.242L163.139 218L76.6275 131.987L21.7534 174.503L0 163.627V54.3728L21.7534 43.9936L76.6275 87.0002L163.641 0ZM21.7534 76.6209V142.863L54.3836 109.248L21.7534 76.6209ZM106.787 109.248L163.145 153.744V64.7521L106.787 109.248Z" fill="#68217A"/>
<path d="M396.558 43.1641L347.879 174.606H330.922L283.255 43.1641H300.4L336.791 147.38C337.947 150.747 338.838 154.623 339.449 159.025H339.819C340.309 155.361 341.314 151.413 342.847 147.205L379.97 43.1641H396.558Z" fill="#68217A"/>
<path d="M415.495 56.9098C412.806 56.9098 410.511 55.9954 408.622 54.1606C406.726 52.3258 405.781 50.0004 405.781 47.1967C405.781 44.393 406.726 42.0495 408.622 40.1844C410.517 38.3193 412.806 37.3867 415.495 37.3867C418.245 37.3867 420.582 38.3193 422.508 40.1844C424.428 42.0556 425.397 44.3869 425.397 47.1967C425.397 49.8854 424.434 52.1744 422.508 54.0758C420.582 55.9652 418.245 56.9098 415.495 56.9098ZM422.829 174.606H407.798V80.7445H422.829V174.606Z" fill="#68217A"/>
<path d="M441.948 171.209V155.077C450.136 161.132 459.148 164.154 468.989 164.154C482.191 164.154 488.792 159.752 488.792 150.953C488.792 148.446 488.229 146.32 487.096 144.582C485.964 142.838 484.438 141.294 482.512 139.95C480.586 138.606 478.327 137.401 475.729 136.329C473.131 135.257 470.333 134.143 467.341 132.98C463.181 131.333 459.535 129.668 456.386 127.984C453.237 126.307 450.614 124.411 448.501 122.304C446.393 120.197 444.807 117.799 443.735 115.11C442.669 112.427 442.13 109.279 442.13 105.669C442.13 101.267 443.141 97.3733 445.158 93.9822C447.175 90.585 449.864 87.751 453.225 85.456C456.586 83.167 460.419 81.4411 464.731 80.2785C469.037 79.1219 473.482 78.5405 478.067 78.5405C486.194 78.5405 493.467 79.9454 499.887 82.7552V97.9728C492.977 93.4493 485.037 91.1906 476.05 91.1906C473.24 91.1906 470.702 91.5115 468.444 92.1534C466.179 92.7892 464.241 93.6976 462.624 94.8542C461.007 96.0108 459.753 97.4096 458.869 99.0204C457.985 100.643 457.537 102.43 457.537 104.386C457.537 106.826 457.979 108.873 458.869 110.532C459.753 112.173 461.049 113.645 462.763 114.934C464.471 116.212 466.548 117.375 468.995 118.41C471.435 119.452 474.221 120.578 477.334 121.807C481.488 123.4 485.219 125.029 488.519 126.712C491.82 128.396 494.63 130.291 496.956 132.393C499.275 134.506 501.068 136.934 502.321 139.677C503.575 142.433 504.199 145.697 504.199 149.487C504.199 154.132 503.175 158.165 501.128 161.586C499.081 165.008 496.344 167.848 492.928 170.107C489.507 172.371 485.564 174.049 481.101 175.151C476.637 176.253 471.962 176.798 467.075 176.798C457.409 176.804 449.034 174.945 441.948 171.209Z" fill="#68217A"/>
<path d="M597.559 174.606H582.528V159.757H582.158C575.927 171.124 566.267 176.804 553.192 176.804C530.827 176.804 519.642 163.482 519.642 136.837V80.7385H534.582V134.451C534.582 154.253 542.158 164.148 557.316 164.148C564.65 164.148 570.688 161.447 575.424 156.033C580.16 150.626 582.528 143.553 582.528 134.815V80.7324H597.559V174.606Z" fill="#68217A"/>
<path d="M689.466 174.606H674.435V159.939H674.066C667.525 171.178 657.902 176.804 645.19 176.804C635.84 176.804 628.524 174.333 623.237 169.374C617.95 164.433 615.304 157.862 615.304 149.669C615.304 132.132 625.629 121.929 646.287 119.052L674.429 115.11C674.429 99.1658 667.979 91.1906 655.086 91.1906C643.779 91.1906 633.575 95.0419 624.473 102.739V87.3392C633.696 81.4714 644.331 78.5405 656.376 78.5405C678.438 78.5405 689.466 90.2156 689.466 113.554V174.606ZM674.429 127.124L651.786 130.243C644.821 131.218 639.564 132.944 636.022 135.42C632.479 137.891 630.704 142.281 630.704 148.573C630.704 153.157 632.339 156.899 635.61 159.8C638.88 162.701 643.234 164.154 648.673 164.154C656.128 164.154 662.293 161.538 667.138 156.318C672.001 151.092 674.429 144.479 674.429 136.474V127.124Z" fill="#68217A"/>
<path d="M727.189 174.606H712.158V35.6489H727.189V174.606Z" fill="#68217A"/>
<path d="M774.16 169.289V151.141C776.231 152.975 778.726 154.623 781.627 156.088C784.528 157.553 787.58 158.789 790.796 159.8C794 160.805 797.228 161.586 800.468 162.137C803.708 162.689 806.699 162.967 809.449 162.967C818.915 162.967 825.994 161.211 830.669 157.693C835.345 154.18 837.682 149.124 837.682 142.524C837.682 138.981 836.901 135.893 835.345 133.271C833.782 130.636 831.632 128.245 828.883 126.077C826.133 123.909 822.881 121.832 819.12 119.845C815.366 117.859 811.314 115.764 806.972 113.566C802.394 111.241 798.112 108.891 794.139 106.511C790.166 104.119 786.714 101.497 783.783 98.6208C780.852 95.7504 778.545 92.4986 776.861 88.8653C775.178 85.2259 774.336 80.9628 774.336 76.082C774.336 70.093 775.65 64.8792 778.278 60.4526C780.907 56.026 784.359 52.3684 788.634 49.492C792.916 46.6217 797.791 44.4841 803.26 43.0792C808.728 41.6743 814.3 40.9658 819.992 40.9658C832.946 40.9658 842.382 42.5221 848.317 45.6407V62.9596C840.553 57.5823 830.591 54.8936 818.43 54.8936C815.069 54.8936 811.708 55.2509 808.347 55.9473C804.98 56.6497 801.988 57.8003 799.366 59.3808C796.737 60.9734 794.599 63.0202 792.946 65.5272C791.293 68.0342 790.469 71.0862 790.469 74.6953C790.469 78.0561 791.099 80.9567 792.353 83.4032C793.606 85.8435 795.453 88.072 797.9 90.0885C800.341 92.105 803.326 94.0609 806.839 95.9563C810.357 97.8517 814.403 99.9288 818.987 102.187C823.687 104.513 828.156 106.953 832.371 109.521C836.586 112.088 840.286 114.934 843.466 118.041C846.633 121.166 849.159 124.611 851.024 128.402C852.895 132.193 853.822 136.529 853.822 141.415C853.822 147.889 852.55 153.381 850.019 157.868C847.481 162.362 844.059 166.013 839.753 168.829C835.442 171.639 830.482 173.673 824.856 174.921C819.229 176.174 813.307 176.804 807.069 176.804C804.986 176.804 802.418 176.634 799.372 176.301C796.313 175.962 793.194 175.472 790.021 174.836C786.848 174.194 783.838 173.401 780.991 172.45C778.145 171.505 775.862 170.446 774.16 169.289Z" fill="#68217A"/>
<path d="M912.693 173.691C909.15 175.647 904.475 176.622 898.673 176.622C882.231 176.622 874.019 167.454 874.019 149.124V93.5761H857.886V80.7444H874.019V57.8302L889.05 52.9736V80.7444H912.693V93.5761H889.05V146.465C889.05 152.757 890.116 157.244 892.254 159.939C894.392 162.634 897.935 163.972 902.888 163.972C906.673 163.972 909.95 162.93 912.693 160.853V173.691Z" fill="#68217A"/>
<path d="M1005.85 174.606H990.823V159.757H990.453C984.221 171.124 974.568 176.804 961.487 176.804C939.122 176.804 927.942 163.482 927.942 136.837V80.7385H942.883V134.451C942.883 154.253 950.459 164.148 965.617 164.148C972.951 164.148 978.983 161.447 983.725 156.033C988.455 150.626 990.823 143.553 990.823 134.815V80.7324H1005.85V174.606Z" fill="#68217A"/>
<path d="M1113.5 174.606H1098.47V158.655H1098.1C1091.14 170.754 1080.37 176.804 1065.83 176.804C1054.04 176.804 1044.61 172.607 1037.55 164.202C1030.5 155.797 1026.96 144.358 1026.96 129.873C1026.96 114.353 1030.88 101.915 1038.7 92.5711C1046.52 83.2153 1056.94 78.5465 1069.96 78.5465C1082.86 78.5465 1092.24 83.621 1098.1 93.7641H1098.47V35.6489H1113.5V174.606ZM1098.47 132.168V118.325C1098.47 110.75 1095.96 104.331 1090.95 99.0748C1085.94 93.8186 1079.59 91.1905 1071.89 91.1905C1062.72 91.1905 1055.51 94.5513 1050.26 101.273C1045 107.995 1042.37 117.284 1042.37 129.141C1042.37 139.956 1044.89 148.494 1049.94 154.756C1054.97 161.023 1061.74 164.154 1070.24 164.154C1078.62 164.154 1085.41 161.132 1090.64 155.077C1095.85 149.033 1098.47 141.397 1098.47 132.168Z" fill="#68217A"/>
<path d="M1148.82 56.9098C1146.13 56.9098 1143.84 55.9954 1141.95 54.1606C1140.05 52.3258 1139.1 50.0004 1139.1 47.1967C1139.1 44.393 1140.04 42.0495 1141.95 40.1844C1143.84 38.3193 1146.12 37.3867 1148.82 37.3867C1151.57 37.3867 1153.91 38.3193 1155.83 40.1844C1157.75 42.0556 1158.72 44.3869 1158.72 47.1967C1158.72 49.8854 1157.76 52.1744 1155.83 54.0758C1153.91 55.9652 1151.57 56.9098 1148.82 56.9098ZM1156.15 174.606H1141.12V80.7445H1156.15V174.606Z" fill="#68217A"/>
<path d="M1223.01 176.804C1209.13 176.804 1198.06 172.42 1189.77 163.651C1181.49 154.883 1177.35 143.256 1177.35 128.771C1177.35 113.003 1181.66 100.692 1190.28 91.8325C1198.9 82.9671 1210.54 78.5405 1225.21 78.5405C1239.21 78.5405 1250.13 82.846 1257.97 91.4691C1265.83 100.08 1269.75 112.034 1269.75 127.306C1269.75 142.281 1265.53 154.271 1257.06 163.282C1248.59 172.299 1237.24 176.804 1223.01 176.804ZM1224.11 91.1966C1214.44 91.1966 1206.81 94.4848 1201.19 101.049C1195.57 107.619 1192.75 116.678 1192.75 128.226C1192.75 139.35 1195.6 148.113 1201.28 154.538C1206.96 160.951 1214.57 164.16 1224.11 164.16C1233.82 164.16 1241.3 161.011 1246.52 154.713C1251.74 148.422 1254.35 139.465 1254.35 127.857C1254.35 116.121 1251.74 107.08 1246.52 100.728C1241.3 94.3698 1233.82 91.1966 1224.11 91.1966Z" fill="#68217A"/>
</svg>
