<svg width="1288" height="371" viewBox="0 0 1288 371" fill="none" xmlns="http://www.w3.org/2000/svg">
<g clip-path="url(#clip0_2114_137)">
<path d="M221.628 351.187C283.177 340.316 334.012 331.321 334.596 331.197L335.658 330.972L277.55 261.866C245.59 223.858 219.441 192.613 219.441 192.432C219.441 192.091 279.443 26.8885 279.78 26.3008C279.893 26.1043 320.726 96.589 378.762 197.16C433.096 291.317 477.892 368.95 478.309 369.677L479.066 371L294.393 370.976L109.721 370.952L221.628 351.187ZM929.825 334.474C901.714 332.672 885.365 316.668 881.033 286.712C879.88 278.743 879.876 278.536 879.758 226.803L879.644 176.733H892.085H904.526L904.624 225.163C904.712 268.812 904.767 273.93 905.185 277C906.879 289.462 910.251 297.842 915.992 303.857C920.587 308.671 925.966 311.49 933.412 312.986C936.925 313.691 946.918 313.693 950.121 312.989C957.67 311.328 963.72 308.043 969.057 302.709C975.141 296.629 979.641 288.003 981.819 278.248L982.552 274.96L982.634 226.12L982.716 177.281H995.417H1008.12V254.058V330.836H995.548H982.978V318.654C982.978 310.377 982.887 306.503 982.695 306.567C982.539 306.619 981.893 307.606 981.26 308.762C976.928 316.661 969.71 323.884 961.802 328.236C952.322 333.453 942.815 335.307 929.825 334.474ZM1215.15 334.35C1205.23 333.604 1194.78 330.193 1186.24 324.912C1168.24 313.78 1157.59 295.43 1154.47 270.178C1153.39 261.44 1153.26 249.702 1154.16 242.277C1156.18 225.686 1162.7 209.4 1171.98 197.772C1174.36 194.791 1179.76 189.392 1182.74 187.013C1190.79 180.586 1200.21 176.092 1210.21 173.906C1216.03 172.632 1226.29 172.033 1232.48 172.607C1248.03 174.047 1262.28 181.366 1271.96 192.885C1281.8 204.589 1287.21 220.942 1287.9 241.079C1288.01 244.235 1288.03 249.768 1287.96 253.374L1287.82 259.932L1233.37 260.001L1178.92 260.07V262.499C1178.92 269.895 1180.72 278.319 1183.82 285.485C1186.51 291.666 1191.12 298.415 1194.9 301.681C1202.65 308.377 1212.13 312.385 1222.5 313.35C1226.35 313.707 1236.16 313.331 1240.54 312.657C1253.05 310.735 1264.94 305.83 1274.55 298.631C1275.68 297.784 1276.76 296.993 1276.95 296.873C1277.23 296.697 1277.3 298.91 1277.29 308.212L1277.28 319.769L1274.71 321.36C1263.84 328.078 1251.4 332.392 1238.22 334.007C1234.29 334.489 1219.85 334.704 1215.15 334.35ZM1262.54 236.873C1262.54 224.485 1257.32 210.723 1249.93 203.636C1244.66 198.579 1238.28 195.488 1230.7 194.315C1227.12 193.76 1219.56 193.974 1215.78 194.737C1207.79 196.352 1201.18 199.864 1195.42 205.559C1189.35 211.553 1184.8 218.834 1181.94 227.128C1180.91 230.111 1179.71 235.008 1179.33 237.732L1179.16 239.03H1220.85H1262.54V236.873ZM523.93 330.494C523.993 330.306 542.483 281.74 565.019 222.569L605.992 114.985L619.157 114.985L632.322 114.984L633.414 117.784C636.752 126.343 715.439 330.602 715.439 330.708C715.439 330.778 709.137 330.834 701.434 330.833L687.428 330.83L676.087 300.641L664.746 270.452L619.082 270.451L573.418 270.451L573.021 271.475C572.803 272.039 567.958 285.623 562.254 301.662L551.883 330.825L537.848 330.83C526.739 330.834 523.838 330.764 523.93 330.494ZM656.411 247.413C656.411 247.365 648.779 226.678 639.451 201.442C622 154.23 621.024 151.389 619.645 143.809C618.999 140.255 618.671 140.156 618.288 143.399C618.013 145.718 616.824 150.905 615.907 153.782C615.452 155.21 607.593 176.775 598.443 201.705C589.293 226.635 581.807 247.138 581.807 247.266C581.807 247.395 598.593 247.5 619.109 247.5C639.625 247.5 656.411 247.461 656.411 247.413ZM723.911 326.903V322.971L769.406 260.44L814.902 197.909L773.71 197.772L732.519 197.636L732.448 187.185L732.376 176.733H791.954H851.531V180.263V183.793L806.031 246.666C781.005 281.245 760.53 309.596 760.53 309.667C760.53 309.738 780.759 309.797 805.484 309.797H850.438V320.316V330.835H787.175H723.911V326.903ZM1057.76 330.653C1057.66 330.553 1057.58 295.88 1057.58 253.602V176.733H1070.02H1082.45V192.581C1082.45 201.297 1082.56 208.428 1082.69 208.428C1082.82 208.428 1083.42 207.001 1084.03 205.258C1086.83 197.267 1091.67 189.801 1097.92 183.867C1103.55 178.521 1109.98 175.324 1117.57 174.101C1119.7 173.757 1121.5 173.691 1125.76 173.802C1131.12 173.942 1133.92 174.333 1137.17 175.397L1138.2 175.732V188.636V201.541L1135.26 200.07C1130.07 197.473 1124.95 196.445 1118.8 196.765C1114.79 196.974 1112.16 197.488 1108.96 198.69C1102.37 201.162 1097.02 205.527 1093.29 211.484C1087.88 220.109 1084.03 231.194 1082.89 241.383C1082.68 243.212 1082.56 258.103 1082.52 287.46L1082.45 330.835H1070.2C1063.46 330.835 1057.86 330.753 1057.76 330.653ZM0 330.113C0 330.016 27.3803 282.494 60.8451 224.509L121.69 119.082L192.598 59.586C231.597 26.8634 263.611 0.0502448 263.739 0.00134413C263.868 -0.0475468 263.355 1.24346 262.599 2.87026C261.844 4.49706 227.196 78.801 185.603 167.99L109.981 330.152L54.9903 330.221C24.7457 330.259 0 330.21 0 330.113Z" fill="#0089D6"/>
</g>
<defs>
<clipPath id="clip0_2114_137">
<rect width="1288" height="371" fill="white"/>
</clipPath>
</defs>
</svg>
