<svg width="456" height="456" viewBox="0 0 456 456" fill="none" xmlns="http://www.w3.org/2000/svg">
<g clip-path="url(#clip0_2114_74)">
<path d="M456 0H0V456H456V0Z" fill="#512BD4"/>
<path d="M81.2733 291.333C78.0491 291.333 75.3085 290.259 73.0515 288.11C70.7945 285.906 69.666 283.289 69.666 280.259C69.666 277.173 70.7945 274.529 73.0515 272.325C75.3085 270.121 78.0491 269.019 81.2733 269.019C84.5513 269.019 87.3188 270.121 89.5758 272.325C91.8865 274.529 93.0419 277.173 93.0419 280.259C93.0419 283.289 91.8865 285.906 89.5758 288.11C87.3188 290.259 84.5513 291.333 81.2733 291.333Z" fill="white"/>
<path d="M210.167 289.515H189.209L133.994 202.406C132.597 200.202 131.441 197.915 130.528 195.546H130.044C130.474 198.081 130.689 203.508 130.689 211.827V289.515H112.149V171H134.477L187.839 256.043C190.096 259.57 191.547 261.994 192.192 263.316H192.514C191.977 260.176 191.708 254.859 191.708 247.365V171H210.167V289.515Z" fill="white"/>
<path d="M300.449 289.515H235.561V171H297.87V187.695H254.746V221.249H294.485V237.861H254.746V272.903H300.449V289.515Z" fill="white"/>
<path d="M392.667 187.695H359.457V289.515H340.272V187.695H307.143V171H392.667V187.695Z" fill="white"/>
</g>
<defs>
<clipPath id="clip0_2114_74">
<rect width="456" height="456" fill="white"/>
</clipPath>
</defs>
</svg>
