<svg width="712" height="384" viewBox="0 0 712 384" fill="none" xmlns="http://www.w3.org/2000/svg">
<g clip-path="url(#clip0_2114_28)">
<mask id="mask0_2114_28" style="mask-type:luminance" maskUnits="userSpaceOnUse" x="10" y="10" width="692" height="364">
<path d="M10 191.799C10 292.203 164.734 373.598 355.6 373.598C546.466 373.598 701.201 292.203 701.201 191.799C701.201 91.3964 546.466 10.0002 355.6 10.0002C164.734 10.0002 10 91.3964 10 191.799Z" fill="white"/>
</mask>
<g mask="url(#mask0_2114_28)">
<path d="M10 191.799C10 292.203 164.734 373.598 355.6 373.598C546.466 373.598 701.201 292.203 701.201 191.799C701.201 91.3964 546.466 10.0002 355.6 10.0002C164.734 10.0002 10 91.3964 10 191.799Z" fill="url(#paint0_radial_2114_28)"/>
</g>
<mask id="mask1_2114_28" style="mask-type:luminance" maskUnits="userSpaceOnUse" x="-5" y="-11" width="721" height="406">
<path d="M-4.40039 -10.7012H715.6V394.299H-4.40039V-10.7012Z" fill="white"/>
</mask>
<g mask="url(#mask1_2114_28)">
<path d="M355.6 360.1C539.011 360.1 687.7 284.748 687.7 191.798C687.7 98.8496 539.011 23.4971 355.6 23.4971C172.189 23.4971 23.5 98.8496 23.5 191.798C23.5 284.748 172.189 360.1 355.6 360.1Z" fill="#777BB3"/>
</g>
<mask id="mask2_2114_28" style="mask-type:luminance" maskUnits="userSpaceOnUse" x="-5" y="-11" width="721" height="406">
<path d="M-4.40039 -10.7012H715.6V394.299H-4.40039V-10.7012Z" fill="white"/>
</mask>
<g mask="url(#mask2_2114_28)">
<path d="M197.767 212.666C212.848 212.666 224.107 209.885 231.231 204.402C238.278 198.976 243.146 189.575 245.697 176.461C248.076 164.203 247.17 155.645 243.005 151.026C238.746 146.308 229.538 143.916 215.638 143.916H191.537L178.176 212.666H197.767ZM118.938 297.353C117.82 297.353 116.757 296.853 116.046 295.988C115.333 295.125 115.045 293.987 115.258 292.888L150.668 110.7C151.011 108.938 152.555 107.666 154.35 107.666H230.667C254.652 107.666 272.505 114.178 283.726 127.025C295.007 139.938 298.491 157.99 294.08 180.676C292.285 189.918 289.197 198.502 284.903 206.187C280.605 213.881 274.923 221 268.015 227.35C259.745 235.09 250.385 240.702 240.22 244.005C230.216 247.263 217.368 248.916 202.035 248.916H171.132L162.307 294.318C161.965 296.081 160.422 297.353 158.627 297.353H118.938Z" fill="black"/>
<path d="M194.629 147.665H215.639C232.415 147.665 238.242 151.346 240.222 153.54C243.507 157.183 244.127 164.863 242.016 175.749C239.644 187.936 235.246 196.578 228.944 201.43C222.491 206.398 212.001 208.915 197.767 208.915H182.725L194.629 147.665ZM230.667 103.915H154.349C150.759 103.915 147.672 106.46 146.987 109.984L111.577 292.173C111.15 294.371 111.727 296.645 113.151 298.374C114.576 300.103 116.699 301.103 118.939 301.103H158.626C162.217 301.103 165.304 298.558 165.989 295.034L174.224 252.665H202.035C217.762 252.665 231.002 250.95 241.384 247.569C252.06 244.1 261.882 238.219 270.576 230.089C277.766 223.474 283.689 216.049 288.176 208.018C292.665 199.984 295.89 191.025 297.761 181.39C302.405 157.51 298.632 138.388 286.55 124.558C274.585 110.86 255.782 103.915 230.667 103.915ZM173.626 216.415H197.767C213.769 216.415 225.687 213.401 233.519 207.373C241.351 201.343 246.634 191.279 249.379 177.176C252.005 163.636 250.809 154.081 245.79 148.515C240.765 142.949 230.716 140.165 215.639 140.165H188.446L173.626 216.415ZM230.667 111.415C253.626 111.415 270.375 117.44 280.902 129.491C291.429 141.543 294.599 158.364 290.399 179.96C288.67 188.856 285.746 196.99 281.63 204.359C277.509 211.733 272.127 218.475 265.477 224.589C257.552 232.005 248.749 237.29 239.061 240.438C229.374 243.594 217.035 245.165 202.035 245.165H168.04L158.626 293.603H118.939L154.349 111.415H230.667Z" fill="white"/>
<path d="M385.078 248.916C383.958 248.916 382.897 248.416 382.186 247.551C381.472 246.687 381.183 245.551 381.397 244.451L397.061 163.84C398.551 156.173 398.183 150.671 396.027 148.346C394.707 146.925 390.742 144.541 379.018 144.541H350.641L330.947 245.881C330.605 247.643 329.061 248.916 327.266 248.916H287.891C286.771 248.916 285.71 248.416 284.997 247.551C284.285 246.687 283.996 245.55 284.21 244.451L319.62 62.262C319.962 60.5008 321.506 59.2283 323.301 59.2283H362.676C363.796 59.2283 364.857 59.7283 365.57 60.592C366.282 61.457 366.571 62.5933 366.357 63.6933L357.812 107.666H388.34C411.596 107.666 427.366 111.766 436.551 120.201C445.913 128.806 448.835 142.565 445.235 161.1L428.76 245.881C428.417 247.643 426.875 248.916 425.078 248.916H385.078Z" fill="black"/>
<path d="M362.675 55.4775H323.3C319.709 55.4775 316.623 58.0225 315.938 61.5463L280.528 243.735C280.1 245.934 280.678 248.208 282.103 249.936C283.528 251.665 285.65 252.665 287.89 252.665H327.265C330.855 252.665 333.943 250.12 334.628 246.596L353.731 148.29H379.018C390.721 148.29 393.178 150.79 393.276 150.898C393.986 151.661 394.92 155.199 393.379 163.124L377.715 243.735C377.288 245.934 377.865 248.208 379.29 249.936C380.715 251.665 382.838 252.665 385.078 252.665H425.078C428.668 252.665 431.755 250.12 432.44 246.596L448.914 161.815C452.78 141.914 449.473 126.985 439.088 117.44C429.178 108.339 412.578 103.915 388.339 103.915H362.359L370.038 64.4088C370.464 62.21 369.888 59.935 368.463 58.2075C367.038 56.4788 364.915 55.4775 362.675 55.4775ZM362.675 62.9775L353.261 111.415H388.339C410.41 111.415 425.634 115.268 434.013 122.963C442.391 130.663 444.901 143.139 441.553 160.385L425.078 245.165H385.078L400.741 164.555C402.524 155.385 401.869 149.13 398.774 145.795C395.678 142.46 389.091 140.79 379.018 140.79H347.548L327.265 245.165H287.89L323.3 62.9775H362.675Z" fill="white"/>
<path d="M507.537 212.666C522.618 212.666 533.877 209.885 541 204.402C548.048 198.977 552.915 189.576 555.468 176.461C557.847 164.203 556.94 155.645 552.774 151.026C548.515 146.308 539.308 143.916 525.408 143.916H501.307L487.945 212.666H507.537ZM428.709 297.353C427.59 297.353 426.528 296.853 425.817 295.988C425.104 295.125 424.814 293.987 425.028 292.888L460.438 110.7C460.782 108.938 462.324 107.666 464.12 107.666H540.437C564.423 107.666 582.274 114.178 593.497 127.025C604.778 139.937 608.26 157.988 603.85 180.676C602.053 189.918 598.967 198.502 594.673 206.187C590.374 213.881 584.693 221 577.784 227.35C569.514 235.09 560.154 240.702 549.989 244.005C539.985 247.263 527.138 248.916 511.804 248.916H480.9L472.079 294.318C471.735 296.081 470.193 297.353 468.397 297.353H428.709Z" fill="black"/>
<path d="M504.398 147.665H525.408C542.184 147.665 548.012 151.346 549.992 153.54C553.278 157.183 553.898 164.863 551.785 175.748C549.413 187.936 545.014 196.578 538.713 201.43C532.26 206.398 521.77 208.915 507.537 208.915H492.495L504.398 147.665ZM540.437 103.915H464.119C460.529 103.915 457.443 106.46 456.758 109.984L421.348 292.173C420.92 294.371 421.498 296.645 422.922 298.374C424.347 300.103 426.469 301.103 428.709 301.103H468.397C471.987 301.103 475.074 298.558 475.759 295.034L483.993 252.665H511.804C527.532 252.665 540.772 250.95 551.153 247.569C561.829 244.1 571.654 238.218 580.348 230.086C587.538 223.473 593.458 216.049 597.945 208.018C602.434 199.984 605.659 191.025 607.53 181.39C612.174 157.509 608.402 138.386 596.319 124.556C584.354 110.86 565.553 103.915 540.437 103.915ZM483.397 216.415H507.537C523.538 216.415 535.457 213.401 543.288 207.373C551.122 201.343 556.403 191.279 559.148 177.176C561.775 163.636 560.579 154.081 555.559 148.515C550.534 142.949 540.485 140.165 525.408 140.165H498.215L483.397 216.415ZM540.437 111.415C563.395 111.415 580.144 117.44 590.672 129.491C601.199 141.543 604.368 158.364 600.168 179.96C598.439 188.856 595.515 196.99 591.399 204.359C587.278 211.733 581.897 218.475 575.247 224.589C567.322 232.005 558.518 237.29 548.83 240.438C539.143 243.594 526.804 245.165 511.804 245.165H477.809L468.397 293.603H428.709L464.119 111.415H540.437Z" fill="white"/>
</g>
</g>
<defs>
<radialGradient id="paint0_radial_2114_28" cx="0" cy="0" r="1" gradientUnits="userSpaceOnUse" gradientTransform="translate(217.5 73.915) scale(453.822 453.822)">
<stop stop-color="#AEB2D5"/>
<stop offset="0.3" stop-color="#AEB2D5"/>
<stop offset="0.75" stop-color="#484C89"/>
<stop offset="1" stop-color="#484C89"/>
</radialGradient>
<clipPath id="clip0_2114_28">
<rect width="711.201" height="383.598" fill="white"/>
</clipPath>
</defs>
</svg>
