<svg width="704" height="792" viewBox="0 0 704 792" fill="none" xmlns="http://www.w3.org/2000/svg">
<path d="M702.815 232.244C702.809 218.962 699.969 207.225 694.224 197.151C688.581 187.246 680.13 178.944 668.794 172.379C575.226 118.427 481.566 64.6398 388.028 10.6325C362.81 -3.92597 338.36 -3.39522 313.33 11.3723C276.086 33.3365 89.6225 140.166 34.0588 172.349C11.176 185.596 0.04125 205.869 0.03575 232.219C0 340.721 0.03575 449.219 0 557.723C0 570.714 2.72525 582.223 8.217 592.145C13.8627 602.35 22.4317 610.881 34.0285 617.593C89.595 649.777 276.083 756.598 313.318 778.567C338.36 793.343 362.81 793.871 388.036 779.307C481.577 725.297 575.242 671.513 668.825 617.56C680.421 610.85 688.991 602.314 694.636 592.117C700.12 582.195 702.851 570.687 702.851 557.693C702.851 557.693 702.851 340.748 702.815 232.244Z" fill="#A179DC"/>
<path d="M352.5 393.914L8.2168 592.145C13.8625 602.35 22.4315 610.88 34.0283 617.593C89.5948 649.776 276.083 756.597 313.318 778.567C338.36 793.343 362.81 793.871 388.036 779.307C481.577 725.297 575.242 671.512 668.825 617.56C680.421 610.85 688.99 602.314 694.636 592.117L352.5 393.914Z" fill="#280068"/>
<path d="M702.815 232.244C702.81 218.962 699.969 207.225 694.224 197.151L352.501 393.914L694.637 592.117C700.12 582.195 702.845 570.687 702.851 557.693C702.851 557.693 702.851 340.748 702.815 232.244Z" fill="#390091"/>
<path d="M555.204 319.809V356.861H592.257V319.809H610.783V356.861H647.836V375.388H610.783V412.44H647.836V430.966H610.783V468.019H592.257V430.966H555.204V468.019H536.678V430.966H499.625V412.44H536.678V375.388H499.625V356.861H536.678V319.809H555.204ZM592.257 375.388H555.204V412.44H592.257V375.388Z" fill="white"/>
<path d="M353.256 133.721C449.902 133.721 534.281 186.208 579.476 264.225L579.035 263.474L465.327 328.947C442.923 291.015 401.853 265.416 354.74 264.889L353.256 264.881C281.411 264.881 223.165 323.124 223.165 394.97C223.165 418.465 229.429 440.488 240.322 459.511C262.746 498.658 304.9 525.061 353.256 525.061C401.912 525.061 444.306 498.322 466.616 458.757L466.074 459.706L579.611 525.481C534.912 602.837 451.689 655.162 356.167 656.205L353.256 656.221C256.306 656.221 171.687 603.411 126.606 524.981C104.597 486.693 92.0049 442.304 92.0049 394.97C92.0049 250.688 208.969 133.721 353.256 133.721Z" fill="white"/>
</svg>
