<svg width="204" height="203" viewBox="0 0 204 203" fill="none" xmlns="http://www.w3.org/2000/svg">
<path d="M190.535 132.778C170.761 178.997 118.563 198.85 77.6661 195.465C66.4994 194.541 44.0319 192.681 26.489 176.091C-7.20079 144.232 -2.01221 77.637 30.2386 38.4294C34.3919 33.3803 63.14 -0.448279 107.939 0.00450354C140.738 0.336072 163.759 18.8638 166.558 21.172C170.095 24.0879 177.894 31.0169 184.924 42.0095C201.44 67.838 202.892 103.895 190.535 132.778Z" fill="#E3BEFF"/>
<path d="M85.6283 157.809L81.2346 188.13H132.209L125.57 157.809H85.6283Z" fill="#450375"/>
<path d="M0 60.7247V150.972C0 158.396 5.91601 164.467 13.3376 164.658C46.3002 165.508 161.587 167.569 192.966 167.107C198.359 167.027 202.728 162.711 202.883 157.32C203.488 136.354 204.471 85.9392 200.834 62.5333C200.068 57.6043 195.908 53.9185 190.922 53.759C163.304 52.8755 41.0918 50.07 9.72833 50.7743C4.31921 50.8957 0 55.3142 0 60.7247Z" fill="#6A0DAD"/>
<path d="M5.66284 60.2854V146.026C5.66284 150.361 9.14229 153.893 13.4764 153.957L188.452 156.119C192.748 156.183 196.271 152.726 196.287 148.429L196.579 63.4543C196.591 60.3816 194.143 57.8639 191.071 57.7891L11.9288 54.17C8.49317 54.0864 5.66284 56.8487 5.66284 60.2854Z" fill="url(#paint0_linear_2110_813)"/>
<path d="M197.604 159.633C197.603 159.633 197.601 159.633 197.6 159.633L5.65865 156.363C5.52465 156.36 5.41796 156.25 5.4202 156.116C5.42244 155.982 5.5344 155.88 5.66696 155.878L197.608 159.148C197.742 159.15 197.849 159.261 197.846 159.395C197.844 159.527 197.736 159.633 197.604 159.633Z" fill="#91B3FA"/>
<path d="M103.527 163.627C102.292 163.627 101.287 162.623 101.287 161.388C101.287 160.153 102.292 159.148 103.527 159.148C104.762 159.148 105.766 160.153 105.766 161.388C105.766 162.623 104.762 163.627 103.527 163.627ZM103.527 159.633C102.559 159.633 101.772 160.42 101.772 161.388C101.772 162.355 102.559 163.142 103.527 163.142C104.494 163.142 105.281 162.355 105.281 161.388C105.281 160.42 104.494 159.633 103.527 159.633Z" fill="#91B3FA"/>
<path d="M143.189 196.192H68.5844C66.5577 196.192 65.0356 194.749 65.4275 193.2L66.3848 189.414C66.6727 188.275 67.9253 187.439 69.413 187.393L141.335 185.148C142.889 185.1 144.265 185.925 144.604 187.108L146.33 193.139C146.778 194.705 145.249 196.192 143.189 196.192Z" fill="#6A0DAD"/>
<path d="M108.745 188.418C108.613 188.418 108.505 188.311 108.503 188.179C108.501 188.045 108.608 187.934 108.742 187.932L111.824 187.887C111.953 187.888 112.068 187.993 112.07 188.127C112.072 188.261 111.965 188.371 111.831 188.373L108.749 188.418C108.748 188.418 108.747 188.418 108.745 188.418Z" fill="#91B3FA"/>
<path d="M68.1895 194.104C68.1767 194.104 68.1638 194.103 68.1509 194.101C68.0185 194.08 67.9284 193.956 67.9496 193.824L68.3894 191.07C68.6255 189.591 69.8842 188.501 71.3823 188.479L104.071 188.001C104.072 188.001 104.074 188.001 104.075 188.001C104.207 188.001 104.315 188.107 104.317 188.24C104.319 188.374 104.212 188.484 104.078 188.486L71.3894 188.964C70.1277 188.983 69.0674 189.9 68.8684 191.146L68.4286 193.9C68.4096 194.019 68.3066 194.104 68.1895 194.104Z" fill="#91B3FA"/>
<path d="M155.051 155.816L37.7263 154.183V27.8356C37.7263 25.1558 39.8988 22.9834 42.5786 22.9834H150.621C153.129 22.9834 155.162 25.0163 155.162 27.524L155.051 155.816Z" fill="#91B3FA"/>
<path d="M151.287 155.784L41.1965 154.233V31.1835C41.1965 28.5274 43.3231 26.3743 45.9463 26.3743H146.842C149.297 26.3743 151.287 28.3892 151.287 30.8746L151.287 155.784Z" fill="#BDD0FB"/>
<g opacity="0.75">
<path opacity="0.76" d="M141.65 104.748H53.215C52.8648 104.748 52.5808 104.464 52.5808 104.113V61.9923C52.5808 61.642 52.8647 61.3581 53.215 61.3581H141.65C142 61.3581 142.284 61.642 142.284 61.9923V104.113C142.284 104.464 142 104.748 141.65 104.748Z" fill="white"/>
<path opacity="0.76" d="M146.169 122.16H47.0706C46.8962 122.16 46.7549 122.019 46.7549 121.844V112.87C46.7549 112.696 46.8963 112.555 47.0706 112.555H146.169C146.343 112.555 146.485 112.696 146.485 112.87V121.844C146.485 122.019 146.343 122.16 146.169 122.16Z" fill="white"/>
<path opacity="0.76" d="M145.785 138.078H47.0635C46.7852 138.078 46.5596 137.852 46.5596 137.574V128.976C46.5596 128.698 46.7852 128.472 47.0635 128.472H145.785C146.064 128.472 146.289 128.698 146.289 128.976V137.574C146.289 137.852 146.064 138.078 145.785 138.078Z" fill="white"/>
<path opacity="0.76" d="M145.937 152.927H47.3597C47.0414 152.927 46.7834 152.669 46.7834 152.351V143.898C46.7834 143.58 47.0415 143.322 47.3597 143.322H145.937C146.255 143.322 146.513 143.58 146.513 143.898V152.351C146.513 152.67 146.255 152.927 145.937 152.927Z" fill="white"/>
</g>
<path d="M11.6421 108.453C11.6421 108.453 24.2313 141.655 28.2087 148.562C32.8256 156.58 46.3095 151.471 45.6386 144.761C44.9676 138.051 29.2137 110.317 29.2137 110.317L11.6421 108.453Z" fill="#8D23DA"/>
<path d="M28.6525 84.2677L106.899 57.1384L106.077 130.554L26.5142 112.802L28.6525 84.2677Z" fill="#CD8AFF"/>
<path d="M106.973 131.789C111.218 131.789 114.66 114.897 114.66 94.0595C114.66 73.2223 111.218 56.3304 106.973 56.3304C102.727 56.3304 99.2852 73.2223 99.2852 94.0595C99.2852 114.897 102.727 131.789 106.973 131.789Z" fill="#7D97F4"/>
<path d="M107.556 129.208C106.861 128.502 105.348 125.776 104.05 118.727C102.796 111.914 102.105 103.078 102.105 93.8465C102.105 84.6146 102.796 75.7787 104.05 68.9665C105.348 61.9173 106.861 59.1913 107.556 58.4846C108.251 59.1913 109.764 61.9173 111.062 68.9665C112.316 75.7787 113.007 84.6146 113.007 93.8465C113.007 103.078 112.316 111.914 111.062 118.727C109.764 125.776 108.251 128.502 107.556 129.208Z" fill="#A64DE9"/>
<mask id="mask0_2110_813" style="mask-type:luminance" maskUnits="userSpaceOnUse" x="110" y="59" width="21" height="71">
<path d="M115.451 129.724C114.756 129.017 113.242 126.291 111.945 119.242C110.691 112.43 110 103.594 110 94.362C110 85.1301 110.691 76.2942 111.945 69.4819C113.242 62.4327 114.756 59.7067 115.451 59C116.146 59.7067 117.659 62.4327 118.957 69.4819C120.211 76.2942 130.107 85.1301 130.107 94.362C130.107 103.594 120.211 112.43 118.957 119.242C117.659 126.291 116.146 129.017 115.451 129.724Z" fill="white"/>
</mask>
<g mask="url(#mask0_2110_813)">
<path d="M117.409 93.5655C117.409 99.9762 113.956 105.173 107.121 105.173C100.286 105.173 94.7449 99.9762 94.7449 93.5655C94.7449 87.155 100.286 81.9582 107.121 81.9582C113.956 81.9582 117.409 87.155 117.409 93.5655Z" fill="#8D23DA"/>
</g>
<path d="M16.0325 82.6895C19.7133 82.262 24.9916 82.1082 30.6985 83.4152C28.8183 93.237 29.102 103.474 31.2766 114.075H15.1801C12.6137 114.075 10.4254 112.211 10.0252 109.676C9.22299 104.594 8.24222 96.0542 9.288 89.1951C9.81273 85.7528 12.5736 83.0912 16.0325 82.6895Z" fill="#8D23DA"/>
<path d="M25.6927 90.2119H13.1516C12.7259 90.2119 12.3504 89.9887 12.1469 89.6147C11.9435 89.2408 11.9602 88.8041 12.1914 88.4468C12.2882 88.2974 12.4879 88.2553 12.6373 88.3513C12.7868 88.4481 12.8297 88.6478 12.7329 88.7975C12.6321 88.9532 12.6249 89.1435 12.7134 89.3066C12.8022 89.4696 12.966 89.5669 13.1516 89.5669H25.6928C25.9678 89.5669 26.1915 89.3433 26.1915 89.0683V88.1758C26.1915 87.9008 25.9678 87.6771 25.6928 87.6771H13.0586C12.8805 87.6771 12.7361 87.5327 12.7361 87.3547C12.7361 87.1767 12.8805 87.0322 13.0586 87.0322H25.6927C26.3234 87.0322 26.8365 87.5454 26.8365 88.1758V89.0683C26.8365 89.6988 26.3234 90.2119 25.6927 90.2119Z" fill="#91B3FA"/>
<path d="M24.5747 95.766H12.0335C11.6078 95.766 11.2322 95.5429 11.0287 95.1689C10.8254 94.795 10.842 94.3583 11.0732 94.001C11.17 93.8517 11.3698 93.8095 11.5191 93.9054C11.6686 94.0022 11.7114 94.2019 11.6146 94.3516C11.5139 94.5074 11.5067 94.6976 11.5952 94.8607C11.6839 95.0236 11.8478 95.121 12.0334 95.121H24.5746C24.8496 95.121 25.0733 94.8975 25.0733 94.6224V93.7302C25.0733 93.4552 24.8496 93.2313 24.5746 93.2313H11.9404C11.7623 93.2313 11.618 93.0868 11.618 92.9088C11.618 92.7308 11.7623 92.5864 11.9404 92.5864H24.5746C25.2052 92.5864 25.7183 93.0995 25.7183 93.7302V94.6224C25.7183 95.2529 25.2053 95.766 24.5747 95.766Z" fill="#91B3FA"/>
<path d="M40.0222 82.2806C39.8855 82.2806 39.7586 82.193 39.715 82.0559C39.6609 81.8861 39.7548 81.7048 39.9244 81.6507L99.1873 62.7922C99.3569 62.7382 99.5383 62.8321 99.5924 63.0018C99.6465 63.1716 99.5526 63.3528 99.383 63.4069L40.1201 82.2655C40.0875 82.2757 40.0546 82.2806 40.0222 82.2806Z" fill="#BDD0FB"/>
<path d="M32.008 85.5566C31.8809 85.5566 31.7604 85.481 31.7094 85.3561C31.642 85.1913 31.721 85.003 31.8859 84.9356L34.936 83.6889C35.1007 83.6211 35.2891 83.7007 35.3565 83.8655C35.4239 84.0302 35.3448 84.2185 35.1799 84.2859L32.1299 85.5326C32.09 85.5491 32.0486 85.5566 32.008 85.5566Z" fill="#BDD0FB"/>
<path d="M25.6927 102.271H13.1516C12.7259 102.271 12.3504 102.048 12.147 101.674C11.9436 101.3 11.9601 100.863 12.1914 100.506C12.2882 100.356 12.4879 100.314 12.6373 100.41C12.7869 100.507 12.8297 100.707 12.7329 100.856C12.632 101.012 12.6248 101.203 12.7135 101.366C12.8022 101.529 12.966 101.626 13.1516 101.626H25.6928C25.9678 101.626 26.1915 101.402 26.1915 101.127V100.235C26.1915 99.9599 25.9678 99.7363 25.6928 99.7363H13.0585C12.8804 99.7363 12.7361 99.5919 12.7361 99.4138C12.7361 99.2357 12.8804 99.0913 13.0585 99.0913H25.6927C26.3234 99.0913 26.8364 99.6045 26.8364 100.235V101.127C26.8364 101.758 26.3234 102.271 25.6927 102.271Z" fill="#91B3FA"/>
<path d="M26.867 109.491H14.3259C13.9003 109.491 13.5247 109.268 13.3213 108.894C13.1179 108.52 13.1345 108.083 13.3657 107.726C13.4626 107.576 13.6622 107.534 13.8116 107.63C13.9611 107.727 14.0039 107.927 13.9071 108.076C13.8063 108.232 13.799 108.423 13.8878 108.586C13.9765 108.749 14.1403 108.846 14.3259 108.846H26.867C27.1421 108.846 27.3658 108.623 27.3658 108.348V107.455C27.3658 107.18 27.1421 106.956 26.867 106.956H14.2329C14.0548 106.956 13.9104 106.812 13.9104 106.634C13.9104 106.456 14.0548 106.312 14.2329 106.312H26.867C27.4978 106.312 28.0108 106.825 28.0108 107.455V108.348C28.0108 108.978 27.4978 109.491 26.867 109.491Z" fill="#91B3FA"/>
<path d="M38.0679 148.747C37.49 148.747 36.906 148.685 36.3232 148.558C33.7735 148.002 31.6977 146.321 30.6283 143.945L20.6086 121.685C20.5354 121.523 20.6079 121.332 20.7703 121.259C20.9327 121.186 21.1237 121.258 21.1967 121.421L31.2164 143.68C32.2012 145.868 34.1126 147.416 36.4606 147.927C38.7682 148.431 41.1033 147.833 42.8675 146.289C42.9621 146.207 43.0571 146.122 43.1525 146.035C43.284 145.914 43.4879 145.923 43.6081 146.055C43.7283 146.187 43.7191 146.391 43.5876 146.511C43.4886 146.601 43.3902 146.689 43.2921 146.775C41.8184 148.064 39.9785 148.747 38.0679 148.747Z" fill="#91B3FA"/>
<path d="M19.4213 118.584C19.2982 118.584 19.1808 118.513 19.127 118.394L18.0092 115.911C17.9361 115.748 18.0085 115.558 18.1709 115.484C18.3332 115.411 18.5243 115.484 18.5973 115.646L19.7151 118.129C19.7883 118.292 19.7158 118.482 19.5535 118.556C19.5105 118.575 19.4655 118.584 19.4213 118.584Z" fill="#91B3FA"/>
<path d="M115.577 93.2314C115.409 93.2314 115.268 93.1016 115.256 92.9318C115.033 89.7907 113.944 87.4489 112.02 85.9715C108.692 83.4167 103.944 84.2946 103.896 84.3041C103.72 84.3375 103.552 84.2235 103.519 84.0486C103.485 83.8737 103.599 83.7044 103.774 83.6709C103.98 83.6312 108.857 82.7305 112.413 85.4599C114.49 87.0544 115.663 89.5531 115.899 92.886C115.912 93.0636 115.778 93.2179 115.6 93.2305C115.592 93.2312 115.585 93.2314 115.577 93.2314Z" fill="#BDD0FB"/>
<path d="M75.1362 33.2548H79.205C80.863 33.2548 82.07 33.5765 82.8264 34.22C83.5826 34.8637 83.9608 35.8873 83.9608 37.2907C83.9608 38.2143 83.7608 38.9868 83.3609 39.6086C82.9608 40.2303 82.4156 40.6067 81.7248 40.7376V40.8467C82.6264 41.0722 83.2772 41.494 83.6773 42.112C84.0772 42.7301 84.2772 43.5518 84.2772 44.5772C84.2772 46.0244 83.89 47.1569 83.1155 47.9751C82.3411 48.7932 81.2812 49.2022 79.9359 49.2022H75.1364V33.2548H75.1362ZM77.9287 39.6686H79.2922C79.9175 39.6686 80.3575 39.5015 80.612 39.1669C80.8664 38.8325 80.9937 38.3343 80.9937 37.6725C80.9937 37.0109 80.8482 36.5363 80.5574 36.249C80.2665 35.9619 79.8084 35.8181 79.183 35.8181H77.9287V39.6686ZM77.9287 42.1447V46.606H79.4231C80.0411 46.606 80.5011 46.4171 80.8029 46.0389C81.1046 45.6608 81.2556 45.0753 81.2556 44.2827C81.2556 42.8575 80.6301 42.1447 79.3794 42.1447L77.9287 42.1447Z" fill="#8D23DA"/>
<path d="M86.4585 49.2022V33.2548H89.4255V46.606H93.5378V49.2022H86.4585Z" fill="#8D23DA"/>
<path d="M106.409 41.2067C106.409 43.8464 105.915 45.8753 104.926 47.2933C103.937 48.7113 102.522 49.4203 100.683 49.4203C98.8355 49.4203 97.4173 48.7132 96.4285 47.2988C95.4395 45.8844 94.9451 43.8463 94.9451 41.1848C94.9451 38.5451 95.4395 36.5216 96.4285 35.1146C97.4174 33.7074 98.8428 33.0039 100.704 33.0039C102.544 33.0039 103.955 33.7112 104.937 35.1256C105.918 36.5399 106.409 38.567 106.409 41.2067ZM97.9774 41.2067C97.9774 43.0247 98.2064 44.41 98.6646 45.3625C99.1227 46.3153 99.7952 46.7915 100.683 46.7915C102.471 46.7915 103.366 44.9299 103.366 41.2066C103.366 37.4834 102.479 35.6218 100.704 35.6218C99.8026 35.6218 99.1227 36.0962 98.6646 37.0451C98.2064 37.9943 97.9774 39.3814 97.9774 41.2067Z" fill="#8D23DA"/>
<path d="M113.554 40.3558H118.43V48.5368C117.048 49.1258 115.579 49.4202 114.023 49.4202C112.169 49.4202 110.741 48.715 109.742 47.3041C108.742 45.8935 108.242 43.861 108.242 41.2066C108.242 38.647 108.814 36.6435 109.96 35.1963C111.105 33.7493 112.707 33.0257 114.765 33.0257C116.037 33.0257 117.252 33.3528 118.408 34.0074L117.47 36.4289C116.568 35.9053 115.725 35.6435 114.939 35.6435C113.812 35.6435 112.919 36.1471 112.261 37.1542C111.603 38.1615 111.274 39.534 111.274 41.272C111.274 43.0609 111.512 44.4318 111.988 45.3843C112.465 46.3371 113.157 46.8132 114.066 46.8132C114.546 46.8132 115.034 46.7516 115.528 46.6278V42.9737H113.554V40.3558Z" fill="#8D23DA"/>
<path d="M147.185 74.1379L128.268 75.2117C126.685 75.3016 125.322 74.1038 125.208 72.5218L123.63 50.5767C123.51 48.8959 124.841 47.4656 126.526 47.4656H147.021C148.624 47.4656 149.924 48.7653 149.924 50.3685V71.2398C149.924 72.7791 148.722 74.0507 147.185 74.1379Z" fill="#7D97F4"/>
<path d="M136.773 72.595C135.818 72.595 134.952 72.1069 134.457 71.2892C131.667 66.6809 128.342 60.6113 128.342 57.8663C128.342 53.5768 132.124 50.0871 136.773 50.0871C141.422 50.0871 145.204 53.5768 145.204 57.8663C145.204 60.6115 141.879 66.681 139.09 71.2894C138.595 72.107 137.729 72.595 136.773 72.595ZM136.773 51.1659C132.719 51.1659 129.421 54.1718 129.421 57.8663C129.421 59.7856 131.593 64.4745 135.38 70.7306C135.678 71.2224 136.199 71.516 136.773 71.516C137.348 71.516 137.869 71.2224 138.167 70.7305C141.954 64.4745 144.125 59.7857 144.125 57.8663C144.125 54.1718 140.827 51.1659 136.773 51.1659Z" fill="white"/>
<path d="M136.12 63.2979C133.238 63.2979 130.893 60.9531 130.893 58.0707C130.893 57.7727 131.134 57.5312 131.432 57.5312C131.73 57.5312 131.972 57.7727 131.972 58.0707C131.972 60.3582 133.832 62.2191 136.12 62.2191C138.407 62.2191 140.268 60.3582 140.268 58.0707C140.268 55.7832 138.407 53.9223 136.12 53.9223C134.797 53.9223 133.584 54.5312 132.792 55.5931C132.614 55.832 132.276 55.8813 132.037 55.7031C131.798 55.5248 131.749 55.1868 131.927 54.948C132.91 53.6301 134.478 52.8434 136.12 52.8434C139.002 52.8434 141.347 55.1884 141.347 58.0708C141.347 60.9532 139.002 63.2979 136.12 63.2979Z" fill="white"/>
<path d="M191.376 88.3507L168.303 87.9709C166.647 87.9437 165.35 86.5385 165.454 84.8855L166.972 60.8427C167.059 59.4589 168.113 58.33 169.488 58.1479L195.467 54.7068C197.391 54.4518 199.019 56.1221 198.715 58.0398L194.29 85.9035C194.064 87.3311 192.821 88.3745 191.376 88.3507Z" fill="#7D97F4"/>
<g opacity="0.9">
<path d="M180.849 81.9332C175.845 81.9332 171.774 77.8625 171.774 72.8591C171.774 67.8557 175.845 63.785 180.849 63.785C185.852 63.785 189.923 67.8557 189.923 72.8591C189.923 77.8625 185.852 81.9332 180.849 81.9332ZM180.849 65.3056C176.684 65.3056 173.295 68.694 173.295 72.859C173.295 77.0241 176.684 80.4125 180.849 80.4125C185.014 80.4125 188.402 77.0241 188.402 72.859C188.402 68.6941 185.014 65.3056 180.849 65.3056Z" fill="white"/>
<path fill-rule="evenodd" clip-rule="evenodd" d="M178.006 76.3536V69.83C178.006 69.1329 178.765 68.7009 179.364 69.0565L184.861 72.3183C185.448 72.6667 185.448 73.5168 184.861 73.8652L179.364 77.127C178.765 77.4827 178.006 77.0507 178.006 76.3536Z" fill="white"/>
</g>
<path d="M136.654 122.956L122.796 124.416C121.082 124.597 119.589 123.253 119.589 121.529V105.534C119.589 104.09 120.65 102.866 122.079 102.661L135.936 100.665C137.686 100.413 139.253 101.771 139.253 103.538V120.069C139.253 121.555 138.132 122.801 136.654 122.956Z" fill="#7D97F4"/>
<path d="M128.304 117.651C126.746 117.651 125.126 116.977 124.646 115.974C124.097 114.826 125.191 114.008 125.539 113.784C126.596 113.107 127.535 112.874 128.332 113.093C129.16 113.321 129.496 113.95 129.532 114.021L128.456 114.56L128.463 114.573C128.457 114.563 128.321 114.329 127.99 114.247C127.679 114.17 127.114 114.204 126.188 114.797C125.797 115.048 125.643 115.27 125.731 115.455C126.041 116.103 127.951 116.762 129.359 116.292C129.828 116.136 130.235 114.77 129.84 111.435C129.552 108.997 128.971 106.625 128.965 106.602C128.911 106.382 128.985 106.151 129.155 106.003C129.327 105.855 129.566 105.815 129.775 105.9C129.918 105.958 133.285 107.352 134.2 109.983C134.615 111.177 134.466 112.419 133.755 113.673C133.591 113.962 133.224 114.063 132.935 113.9C132.646 113.736 132.545 113.369 132.708 113.08C133.248 112.128 133.364 111.245 133.065 110.381C132.621 109.101 131.354 108.141 130.417 107.581C130.613 108.524 130.868 109.887 131.035 111.293C131.478 115.04 131.067 116.991 129.739 117.434C129.293 117.582 128.802 117.651 128.304 117.651Z" fill="white"/>
<path d="M180.913 51.1176H159.95C158.346 51.1176 157.047 49.8179 157.047 48.2147V27.1957C157.047 25.6832 158.208 24.4243 159.716 24.3023L182.05 22.4946C183.81 22.3522 185.288 23.8001 185.182 25.5622L183.81 48.3888C183.718 49.9216 182.448 51.1176 180.913 51.1176Z" fill="#7D97F4"/>
<path d="M175.968 31.7483C174.438 30.2441 172.051 30.6966 170.408 32.0762C170.172 32.2739 169.831 32.2762 169.592 32.0825C167.927 30.732 165.542 30.3208 164.038 31.851C162.405 33.5125 162.428 36.1831 164.089 37.8162L169.649 43.2805C169.901 43.5287 170.307 43.5252 170.555 43.2726L176.02 37.7135C177.653 36.0521 177.63 33.3814 175.968 31.7483Z" fill="white"/>
<path d="M163.741 91.3459C165.388 85.6009 162.067 79.6077 156.322 77.9598C150.577 76.312 144.583 79.6334 142.936 85.3785C141.288 91.1236 144.609 97.1167 150.354 98.7646C156.099 100.412 162.093 97.091 163.741 91.3459Z" fill="#7D97F4"/>
<path d="M150.716 84.7554C150.716 84.4765 150.49 84.2503 150.211 84.2503H148.379C148.1 84.2503 147.874 84.4764 147.874 84.7554V92.7477C147.874 93.0266 148.1 93.2528 148.379 93.2528H150.211C150.49 93.2528 150.716 93.0267 150.716 92.7477V84.7554Z" fill="white"/>
<path d="M156.921 84.2503H155.139V82.0949C155.139 81.3945 154.726 80.9336 154.025 80.9336H153.981C153.28 80.9336 152.712 81.448 152.712 82.1484L152.086 84.3096C151.807 84.3096 151.348 84.509 151.348 84.7879V93.0726C151.348 93.3516 152.041 93.7266 152.319 93.7266H152.712H156.921C157.969 93.7266 158.771 92.7282 158.771 91.6804V86.18C158.771 85.1324 157.969 84.2503 156.921 84.2503Z" fill="white"/>
<path d="M177.051 196.501C177.051 196.501 177.418 198.469 177.608 200.419C177.682 201.181 177.1 201.849 176.335 201.888C173.737 202.021 168.18 202.285 166.184 202.215C165.884 202.204 165.685 201.899 165.793 201.619C165.884 201.385 166.062 201.194 166.289 201.087L175.432 196.778L177.051 196.501Z" fill="url(#paint1_linear_2110_813)"/>
<path d="M177.326 195.34L177.068 197.701C177.068 197.701 175.467 198.465 174.36 197.632L175.001 194.998L177.326 195.34Z" fill="url(#paint2_linear_2110_813)"/>
<path d="M176.692 151.005C176.819 151.62 177.634 181.731 174.544 195.258C174.493 195.479 174.607 195.705 174.818 195.789C175.313 195.986 176.284 196.269 177.445 196.297C177.804 196.305 178.124 196.069 178.222 195.723C179.112 192.583 183.372 176.852 183.804 161.859C184.287 145.107 183.799 161.289 183.799 161.289L183.323 150.941L176.692 151.005Z" fill="#9420E8"/>
<path d="M187.625 197.429C187.625 197.429 188.189 198.419 188.751 201.058C188.852 201.535 188.523 201.995 188.038 202.048C187.181 202.14 185.861 202.261 184.802 202.264C184.314 202.265 183.929 201.844 183.984 201.359C184.092 200.393 184.442 198.806 185.558 197.56L187.625 197.429Z" fill="url(#paint3_linear_2110_813)"/>
<path d="M188.083 194.391L187.463 197.963C187.463 197.963 186.821 198.45 185.539 198.114L185.815 194.274L188.083 194.391Z" fill="url(#paint4_linear_2110_813)"/>
<path d="M189.443 151.808C192.227 167.673 189.246 191.086 188.209 195.673C188.146 195.954 187.922 196.171 187.638 196.221C187.157 196.305 186.363 196.378 185.578 196.158C185.308 196.082 185.116 195.841 185.102 195.56C184.922 191.862 184.966 169.144 182.427 160.191C182.299 159.737 182.017 159.343 181.63 159.073L176.836 155.734L176.419 150.265L189.443 151.808Z" fill="#9420E8"/>
<path d="M172.379 121.86C180.268 121.655 188.995 123.774 188.995 123.774C191.478 137.475 189.688 153.322 189.688 153.322C183.595 154.982 176.68 152.467 176.68 152.467C175.61 146.74 170.719 130.642 170.719 130.642C166.859 130.201 163.673 129.119 161.043 127.673C163.016 125.342 163.929 122.39 164.32 120.647C167.118 121.487 169.946 121.924 172.379 121.86Z" fill="#CD8AFF"/>
<path d="M148.961 110.461C149.728 109.517 150.713 109.95 150.713 109.95C151.921 114.844 158.047 118.763 164.32 120.647C163.928 122.39 163.016 125.342 161.043 127.673C150.607 121.936 148.961 110.461 148.961 110.461Z" fill="url(#paint5_linear_2110_813)"/>
<path d="M149.152 110.697C149.073 110.955 150.016 111.339 150.559 110.279C150.573 109.774 150.86 107.606 150.554 107.197C148.925 105.019 145.78 102.3 145.78 102.3C145.258 102.825 145.697 103.332 145.697 103.332L147.225 104.893C146.914 105.468 146.533 105.955 146.359 106.648C146.227 107.173 146.316 107.732 146.585 108.206C146.855 108.682 147.223 109.3 147.57 109.784C148.227 110.699 149.152 110.697 149.152 110.697Z" fill="url(#paint6_linear_2110_813)"/>
<path d="M147.897 105.91L149.286 107.065L149.73 108.224L148.514 109.6C148.514 109.6 148.079 107.295 147.767 106.798C147.455 106.302 147.612 106.059 147.897 105.91Z" fill="url(#paint7_linear_2110_813)"/>
<path d="M186.041 131.442L188.995 123.773C188.995 123.773 196.413 128.711 197.685 135.048C196.294 135.164 193.763 135.55 191.295 136.826C190.721 133.834 186.041 131.442 186.041 131.442Z" fill="#CD8AFF"/>
<path d="M179.669 138.693C179.669 138.693 187.989 143.291 190.742 139.271C191.314 138.436 191.445 137.611 191.295 136.827C193.763 135.551 196.294 135.164 197.685 135.048C198.069 136.959 197.895 138.996 196.79 141.065C191.985 150.058 178.594 140.744 178.594 140.744L179.669 138.693Z" fill="url(#paint8_linear_2110_813)"/>
<path d="M180.31 115.378L182.89 122.615C182.932 122.734 182.884 122.868 182.773 122.931C182.093 123.316 179.638 124.433 176.648 122.577C176.337 122.384 176.123 122.066 176.073 121.703L175.2 115.427L180.31 115.378Z" fill="url(#paint9_linear_2110_813)"/>
<path d="M174.783 108.707C174.783 108.707 172.076 113.923 172.449 116.016C172.823 118.109 176.238 117.925 179.205 116.194L181.237 110.571L174.783 108.707Z" fill="url(#paint10_linear_2110_813)"/>
<path d="M179.047 113.444C178.925 113.391 178.879 113.243 178.951 113.132C179.168 112.792 179.576 112.1 179.702 111.496C179.702 111.496 180.195 111.174 178.434 110.77C176.673 110.366 174.046 109.738 173.481 108.248C172.931 106.795 174.306 103.115 176.585 106.015C176.672 106.125 176.84 106.126 176.924 106.014C177.288 105.53 178.249 104.524 179.602 105.116C180.867 105.669 181.018 106.591 181.005 107.057C181.001 107.194 181.125 107.299 181.259 107.272C181.895 107.145 183.423 107.026 184.152 108.588C184.752 109.874 184.377 110.609 184.033 110.97C183.921 111.087 183.972 111.278 184.127 111.324C184.547 111.448 185.092 111.798 185.047 112.779C184.985 114.137 183.467 114.032 183.035 113.974C182.964 113.964 182.893 113.989 182.846 114.043C182.479 114.456 180.828 116.212 179.024 116.438C178.868 116.458 178.746 116.305 178.795 116.156L179.555 113.877C179.59 113.771 179.539 113.656 179.436 113.612L179.047 113.444Z" fill="url(#paint11_linear_2110_813)"/>
<path d="M178.736 113.769C178.736 113.769 180.686 112.404 180.84 113.537C180.995 114.669 179.089 115.196 178.138 114.782L178.736 113.769Z" fill="url(#paint12_linear_2110_813)"/>
<path d="M181.37 145.959L176.838 130.133C176.786 129.953 176.633 129.822 176.448 129.8C175.626 129.705 173.247 129.436 170.5 129.203C167.191 128.923 163.349 128.697 161.052 128.89C160.726 128.917 160.529 129.262 160.674 129.556C161.98 132.198 167.351 142.943 170.04 146.464C170.13 146.58 170.267 146.649 170.414 146.647L180.929 146.549C181.235 146.547 181.454 146.253 181.37 145.959Z" fill="url(#paint13_linear_2110_813)"/>
<path d="M180.275 142.135C180.275 142.135 180.906 139.539 180.651 138.618C180.397 137.698 179.903 136.513 178.259 136.777C176.614 137.04 174.674 137.732 174.674 137.732C174.674 137.732 174.772 138.932 176.022 138.545L175.247 139.145C175.247 139.145 175.358 140.105 176.414 139.592L175.693 140.387C175.693 140.387 176.146 141.176 176.923 140.67C177.7 140.164 178.072 142.448 180.275 142.135Z" fill="url(#paint14_linear_2110_813)"/>
<path d="M170.802 133.928C170.802 134.662 170.207 135.258 169.472 135.258C168.737 135.258 168.142 134.663 168.142 133.928C168.142 133.193 168.737 132.597 169.472 132.597C170.207 132.597 170.802 133.193 170.802 133.928Z" fill="#7D97F4"/>
<path d="M176.326 134.804L176.663 134.705L175.74 131.575C175.59 131.066 175.179 130.683 174.668 130.577C171.743 129.966 164.041 129.841 163.714 129.836L163.709 130.188C163.788 130.189 171.704 130.317 174.596 130.92C174.981 131.001 175.29 131.29 175.403 131.674L176.326 134.804Z" fill="#91B3FA"/>
<defs>
<linearGradient id="paint0_linear_2110_813" x1="201.69" y1="160.524" x2="12.3654" y2="56.7643" gradientUnits="userSpaceOnUse">
<stop stop-color="#FE7062"/>
<stop offset="1" stop-color="#FF928E"/>
</linearGradient>
<linearGradient id="paint1_linear_2110_813" x1="166.396" y1="193.877" x2="200.37" y2="230.135" gradientUnits="userSpaceOnUse">
<stop stop-color="#09005D"/>
<stop offset="1" stop-color="#1A0F91"/>
</linearGradient>
<linearGradient id="paint2_linear_2110_813" x1="177.336" y1="196.49" x2="174.35" y2="196.518" gradientUnits="userSpaceOnUse">
<stop stop-color="#FEBBBA"/>
<stop offset="1" stop-color="#FF928E"/>
</linearGradient>
<linearGradient id="paint3_linear_2110_813" x1="173.874" y1="186.869" x2="207.85" y2="223.128" gradientUnits="userSpaceOnUse">
<stop stop-color="#09005D"/>
<stop offset="1" stop-color="#1A0F91"/>
</linearGradient>
<linearGradient id="paint4_linear_2110_813" x1="188.1" y1="196.234" x2="185.521" y2="196.259" gradientUnits="userSpaceOnUse">
<stop stop-color="#FEBBBA"/>
<stop offset="1" stop-color="#FF928E"/>
</linearGradient>
<linearGradient id="paint5_linear_2110_813" x1="164.301" y1="118.679" x2="149.041" y2="118.824" gradientUnits="userSpaceOnUse">
<stop stop-color="#FEBBBA"/>
<stop offset="1" stop-color="#FF928E"/>
</linearGradient>
<linearGradient id="paint6_linear_2110_813" x1="152.015" y1="114.74" x2="146.36" y2="103.184" gradientUnits="userSpaceOnUse">
<stop stop-color="#FEBBBA"/>
<stop offset="1" stop-color="#FF928E"/>
</linearGradient>
<linearGradient id="paint7_linear_2110_813" x1="149.016" y1="108.507" x2="144.681" y2="101.978" gradientUnits="userSpaceOnUse">
<stop stop-color="#FEBBBA"/>
<stop offset="1" stop-color="#FF928E"/>
</linearGradient>
<linearGradient id="paint8_linear_2110_813" x1="197.9" y1="139.976" x2="178.588" y2="140.16" gradientUnits="userSpaceOnUse">
<stop stop-color="#FEBBBA"/>
<stop offset="1" stop-color="#FF928E"/>
</linearGradient>
<linearGradient id="paint9_linear_2110_813" x1="183.998" y1="130.033" x2="176.622" y2="115.526" gradientUnits="userSpaceOnUse">
<stop stop-color="#FEBBBA"/>
<stop offset="1" stop-color="#FF928E"/>
</linearGradient>
<linearGradient id="paint10_linear_2110_813" x1="322.454" y1="-714.944" x2="324.795" y2="-728.254" gradientUnits="userSpaceOnUse">
<stop stop-color="#FEBBBA"/>
<stop offset="1" stop-color="#FF928E"/>
</linearGradient>
<linearGradient id="paint11_linear_2110_813" x1="186.116" y1="104.065" x2="175.352" y2="112.734" gradientUnits="userSpaceOnUse">
<stop stop-color="#09005D"/>
<stop offset="1" stop-color="#1A0F91"/>
</linearGradient>
<linearGradient id="paint12_linear_2110_813" x1="325.277" y1="-714.447" x2="327.618" y2="-727.757" gradientUnits="userSpaceOnUse">
<stop stop-color="#FEBBBA"/>
<stop offset="1" stop-color="#FF928E"/>
</linearGradient>
<linearGradient id="paint13_linear_2110_813" x1="173.41" y1="127.706" x2="162.754" y2="172.107" gradientUnits="userSpaceOnUse">
<stop stop-color="#09005D"/>
<stop offset="1" stop-color="#1A0F91"/>
</linearGradient>
<linearGradient id="paint14_linear_2110_813" x1="180.712" y1="139.452" x2="174.674" y2="139.452" gradientUnits="userSpaceOnUse">
<stop stop-color="#FEBBBA"/>
<stop offset="1" stop-color="#FF928E"/>
</linearGradient>
</defs>
</svg>
