<svg width="315" height="285" viewBox="0 0 315 285" fill="none" xmlns="http://www.w3.org/2000/svg">
<path opacity="0.5" d="M184.144 179.03C182.812 178.829 181.551 178.433 180.507 177.83C177.379 176.024 177.379 173.096 180.507 171.29C183.635 169.484 188.706 169.484 191.835 171.29C192.879 171.893 193.566 172.621 193.913 173.39L215.557 160.894L169.504 134.305C165.635 132.071 159.362 132.071 155.493 134.305L109.441 160.893L130.649 173.138C129.829 173.36 129.058 173.661 128.381 174.052C125.253 175.858 125.253 178.786 128.381 180.592C131.509 182.398 136.581 182.398 139.709 180.592C140.386 180.201 140.907 179.756 141.291 179.282L162.499 191.527L184.144 179.03Z" fill="#C277F8"/>
<path opacity="0.5" d="M287.21 207.091L241.157 180.502L219.513 192.998C219.166 192.229 218.478 191.501 217.435 190.898C214.307 189.092 209.236 189.092 206.108 190.898C202.98 192.704 202.98 195.632 206.108 197.438C207.152 198.04 208.413 198.437 209.745 198.638L188.101 211.134L210.382 224C210.501 222.916 211.269 221.852 212.704 221.024C215.832 219.218 220.903 219.218 224.031 221.024C227.159 222.83 227.159 225.758 224.031 227.564C222.596 228.392 220.753 228.836 218.876 228.904L241.158 241.769L287.21 215.181C291.079 212.947 291.079 209.325 287.21 207.091Z" fill="#C277F8"/>
<path opacity="0.5" d="M118.343 225.579C117.321 224.989 116.09 224.595 114.788 224.391L136.401 211.913L115.193 199.668C114.809 200.141 114.288 200.587 113.611 200.978C110.483 202.784 105.412 202.784 102.283 200.978C99.1551 199.172 99.1551 196.244 102.283 194.438C102.96 194.047 103.731 193.746 104.551 193.524L83.342 181.279L37.2901 207.867C33.4211 210.101 33.4211 213.723 37.2901 215.957L83.343 242.546L104.956 230.068C105.31 230.819 105.992 231.53 107.014 232.12C110.142 233.926 115.214 233.926 118.341 232.12C121.471 230.313 121.471 227.385 118.343 225.579Z" fill="#C277F8"/>
<path opacity="0.5" d="M191.608 245.899C193.383 245.834 195.127 245.415 196.484 244.631C199.442 242.923 199.442 240.154 196.484 238.446C193.525 236.738 188.729 236.738 185.77 238.446C184.413 239.229 183.686 240.236 183.574 241.261L162.499 229.093L142.057 240.895C143.288 241.088 144.452 241.461 145.419 242.019C148.378 243.727 148.378 246.497 145.419 248.205C142.461 249.913 137.664 249.913 134.705 248.205C133.738 247.647 133.093 246.975 132.758 246.264L112.316 258.066L155.874 283.214C159.534 285.327 165.467 285.327 169.126 283.214L212.683 258.067L191.608 245.899Z" fill="#C277F8"/>
<path d="M212.374 125.342L170.984 101.446C166.297 98.74 158.699 98.74 154.013 101.446L110.598 126.512L98.235 121.463V133.651L118.349 145.264V153.365C118.264 154.859 119.2 156.369 121.175 157.51C124.964 159.697 131.106 159.697 134.895 157.51C135.715 157.036 136.347 156.497 136.812 155.924L162.5 170.755L188.716 155.619V144.791C191.938 144.306 195.506 144.787 198.031 146.244C199.295 146.974 200.127 147.856 200.548 148.788L226.764 133.652V121.464L212.374 125.342Z" fill="#6A0DAD"/>
<path d="M186.27 144.361L185.846 144.938L186.084 144.948L162.5 158.564L136.812 143.733C136.347 144.306 135.716 144.846 134.895 145.319C131.106 147.506 124.964 147.506 121.175 145.319C119.642 144.434 118.74 143.325 118.448 142.175C118.018 143.867 118.92 145.65 121.175 146.953C124.964 149.14 131.106 149.14 134.895 146.953C135.715 146.479 136.347 145.94 136.812 145.367L162.5 160.198L188.716 145.062V143.429L186.27 144.361Z" fill="white"/>
<path d="M188.716 143.429C187.103 143.186 185.575 142.706 184.311 141.976C180.522 139.788 180.522 136.242 184.311 134.055C188.099 131.868 194.242 131.868 198.031 134.055C199.295 134.785 200.127 135.667 200.548 136.598L226.764 121.462L170.984 89.257C166.297 86.551 158.699 86.551 154.013 89.257L98.234 121.461L123.922 136.292C122.929 136.561 121.995 136.925 121.175 137.399C117.386 139.586 117.386 143.133 121.175 145.32C124.964 147.507 131.106 147.508 134.895 145.32C135.715 144.846 136.347 144.307 136.812 143.734L162.5 158.565L188.716 143.429Z" fill="#8C26D7"/>
<path d="M123.922 136.292L98.234 121.461V123.094L122.175 136.917C122.731 136.675 123.309 136.458 123.922 136.292Z" fill="white"/>
<path d="M200.548 136.598C200.127 135.666 199.295 134.784 198.031 134.055C194.242 131.868 188.099 131.868 184.311 134.055C182.056 135.357 181.154 137.14 181.584 138.832C181.876 137.682 182.778 136.573 184.311 135.688C188.099 133.5 194.242 133.501 198.031 135.688C199.295 136.418 200.127 137.3 200.548 138.231L226.764 123.095V121.462L200.548 136.598Z" fill="white"/>
<path d="M291.529 174.544L241.59 145.712L215.374 160.848C214.953 159.917 214.121 159.034 212.857 158.304C211.532 157.539 209.918 157.048 208.219 156.818C207.375 155.718 204.55 152.345 204.269 152.265C203.939 152.171 196.301 149.963 196.301 149.963V162.199C196.271 163.655 197.214 165.115 199.137 166.226C200.401 166.956 201.929 167.437 203.542 167.679L190.351 175.295L177.325 170.628V182.816L204.313 198.397C204.457 197.085 205.388 195.796 207.125 194.793C209.177 193.609 211.918 193.071 214.603 193.17V204.338L241.592 219.92L297.371 187.716C299.767 186.333 300.93 184.51 300.876 182.698L300.881 182.701V170.754L291.529 174.544Z" fill="#396CAA"/>
<path d="M204.315 176.735V198.392C204.461 197.081 205.391 195.794 207.126 194.792C210.915 192.605 217.057 192.605 220.846 194.792C221.66 195.262 222.288 195.796 222.752 196.365C224.771 195.732 226.891 195.373 229.053 195.263V176.735H204.315Z" fill="#173D7A"/>
<path d="M241.59 145.712L241.397 145.823V219.806L241.592 219.919L297.371 187.715C299.767 186.332 300.93 184.509 300.876 182.697L300.881 182.7V170.753L291.529 174.544L241.59 145.712Z" fill="#173D7A"/>
<path d="M214.604 195.676V192.149L217.658 193.913L214.604 195.676Z" fill="#396CAA"/>
<path d="M300.792 171.445C300.487 172.937 299.353 174.383 297.37 175.527L241.591 207.731L218.066 194.149C218.04 193.779 217.931 193.033 217.931 193.033L214.602 192.149V193.782L241.59 209.364L297.369 177.16C300.074 175.599 301.208 173.479 300.792 171.445Z" fill="white"/>
<path d="M297.37 165.729L241.59 133.524L215.374 148.66C214.953 147.728 214.121 146.846 212.857 146.117C209.068 143.929 202.925 143.929 199.137 146.117C195.348 148.304 195.348 151.851 199.137 154.038C200.401 154.768 201.929 155.248 203.542 155.491L177.326 170.627L204.314 186.209C204.458 184.896 205.389 183.607 207.126 182.604C210.915 180.417 217.057 180.417 220.846 182.604C224.635 184.792 224.635 188.338 220.846 190.525C219.108 191.528 216.876 192.065 214.602 192.148L241.59 207.73L297.369 175.526C302.057 172.822 302.057 168.435 297.37 165.729Z" fill="#D4ECFF"/>
<path d="M199.137 155.671C199.852 156.084 200.658 156.409 201.511 156.664L203.543 155.491C201.93 155.248 200.402 154.767 199.138 154.038C197.605 153.153 196.703 152.044 196.411 150.894C195.98 152.586 196.882 154.369 199.137 155.671Z" fill="white"/>
<path d="M223.574 187.382C224.004 185.69 223.102 183.907 220.847 182.605C217.058 180.418 210.915 180.418 207.127 182.605C205.39 183.608 204.459 184.897 204.315 186.21L177.327 170.628V172.261L204.315 187.843C204.459 186.53 205.39 185.241 207.127 184.238C210.916 182.051 217.058 182.051 220.847 184.238C222.38 185.123 223.282 186.232 223.574 187.382Z" fill="white"/>
<path d="M147.423 182.815V170.627L134.614 175.419L121.735 167.983C121.27 168.557 120.638 169.096 119.818 169.569C116.029 171.757 109.887 171.757 106.098 169.569C102.396 167.432 102.321 164.001 105.853 161.804L108.845 163.478V148.353H99.575L98.6561 154.658L83.157 145.709L33.816 174.196L23.863 170.625V182.812C23.863 184.585 25.035 186.358 27.378 187.71L83.158 219.915L109.336 204.801C109.765 205.711 110.591 206.572 111.829 207.287C115.618 209.474 121.76 209.474 125.549 207.287C127.516 206.151 128.452 204.65 128.377 203.162V193.808L147.423 182.815Z" fill="#173D7A"/>
<path d="M83.157 145.711L33.816 174.198L23.863 170.627V182.814C23.863 184.587 25.035 186.36 27.378 187.712L83.158 219.917V145.711H83.157Z" fill="#396CAA"/>
<path d="M106.635 148.411L106.316 149.236L106.392 149.31C106.293 149.36 106.192 149.407 106.098 149.462C103.843 150.764 102.941 152.547 103.371 154.239C103.663 153.089 104.565 151.98 106.098 151.095C106.918 150.621 107.852 150.257 108.845 149.988V148.355L106.635 148.411Z" fill="white"/>
<path d="M125.55 187.18C124.312 186.465 122.821 185.989 121.245 185.741L147.423 170.627L121.735 155.796C121.27 156.369 120.638 156.909 119.818 157.382C116.029 159.569 109.887 159.569 106.098 157.382C102.309 155.195 102.309 151.648 106.098 149.461C106.918 148.987 107.852 148.623 108.845 148.354L83.157 133.523L27.378 165.727C22.692 168.433 22.692 172.819 27.378 175.525L83.158 207.73L109.336 192.616C109.765 193.526 110.591 194.387 111.829 195.102C115.618 197.29 121.76 197.29 125.549 195.102C129.338 192.914 129.338 189.368 125.55 187.18Z" fill="#5793CE"/>
<path d="M125.55 195.102C121.761 197.289 115.619 197.289 111.83 195.102C110.592 194.387 109.766 193.526 109.337 192.616L83.159 207.73L27.379 175.525C25.397 174.38 24.262 172.934 23.957 171.442C23.541 173.477 24.675 175.597 27.379 177.158L83.159 209.363L109.337 194.249C109.766 195.159 110.592 196.02 111.83 196.735C115.619 198.922 121.761 198.922 125.55 196.735C127.805 195.433 128.707 193.65 128.277 191.958C127.985 193.108 127.083 194.216 125.55 195.102Z" fill="white"/>
<path d="M121.244 185.741C121.939 185.85 122.612 186.012 123.26 186.211L147.423 172.261V170.628L121.244 185.741Z" fill="white"/>
<path d="M214.231 224.995L199.777 216.65C202.05 216.567 204.283 216.03 206.021 215.026C207.606 214.111 208.519 212.957 208.777 211.765L208.86 211.821V211.091C208.86 211.075 208.86 211.058 208.86 211.041V198.824L196.636 203.576L199.448 205.473C196.87 205.429 194.268 205.97 192.301 207.106C190.564 208.109 189.633 209.398 189.489 210.711L162.501 195.129L146.643 204.285L144.997 198.787L136.323 198.056V211.603L138.973 210.93C139.557 211.144 140.118 211.388 140.628 211.683C144.417 213.87 144.417 217.417 140.628 219.604C136.84 221.791 130.697 221.791 126.908 219.604C125.67 218.889 124.844 218.028 124.415 217.118L109.925 225.484L98.2371 220.045V232.233L154.017 264.438C158.703 267.144 166.302 267.144 170.988 264.438L226.767 232.234V220.046L214.231 224.995Z" fill="#6A0DAD"/>
<path d="M140.627 199.493C140.033 199.15 139.369 198.878 138.676 198.646L138.439 198.184L136.322 198.054V199.687C137.898 199.935 139.389 200.411 140.627 201.126C142.16 202.011 143.062 203.12 143.354 204.27C143.784 202.579 142.883 200.796 140.627 199.493Z" fill="white"/>
<path d="M199.777 204.462C202.05 204.379 204.283 203.841 206.021 202.838C209.809 200.651 209.809 197.104 206.021 194.917C202.232 192.729 196.09 192.729 192.301 194.917C190.564 195.92 189.633 197.209 189.489 198.522L162.501 182.94L136.323 198.054C137.899 198.302 139.39 198.778 140.628 199.493C144.417 201.681 144.417 205.227 140.628 207.414C136.84 209.601 130.697 209.601 126.908 207.414C125.67 206.699 124.844 205.838 124.415 204.928L98.2371 220.042L154.017 252.247C158.704 254.953 166.302 254.953 170.988 252.247L226.767 220.043L199.777 204.462Z" fill="#8C26D7"/>
<path d="M208.748 199.695C208.456 200.845 207.554 201.954 206.021 202.839C204.283 203.842 202.051 204.379 199.777 204.463L202.152 205.834C203.566 205.572 204.897 205.121 206.02 204.473C208.276 203.17 209.178 201.387 208.748 199.695Z" fill="white"/>
<path d="M170.987 252.248C166.301 254.954 158.702 254.954 154.016 252.248L98.2361 220.043V221.676L154.016 253.881C158.702 256.587 166.301 256.587 170.987 253.881L226.766 221.677V220.044L170.987 252.248Z" fill="white"/>
<path d="M83.519 188.531C97.7177 188.531 109.228 181.886 109.228 173.688C109.228 165.49 97.7177 158.845 83.519 158.845C69.3204 158.845 57.8101 165.49 57.8101 173.688C57.8101 181.886 69.3204 188.531 83.519 188.531Z" fill="#396CAA"/>
<path d="M71.214 21.748C71.214 21.748 71.774 33.287 72.652 41.042C73.53 48.797 92.206 35.086 92.206 35.086V26.257L71.214 21.748Z" fill="#8F20DF"/>
<path d="M81.161 165.313C81.442 166.014 86.281 171.905 91.119 173.378C93.223 174.018 94.638 174.102 95.564 173.992C96.494 173.881 97.069 172.922 96.755 172.04C95.922 169.696 93.535 164.813 87.471 161.807C79.267 157.739 81.161 165.313 81.161 165.313Z" fill="#173D7A"/>
<path d="M79.548 167.576C79.548 167.576 81.371 171.854 81.932 175.431C82.274 177.613 81.077 180.447 80.091 182.326C79.479 183.492 77.928 183.754 76.953 182.869C75.371 181.434 73.358 178.941 73.025 175.361C72.464 169.33 73.025 168.278 73.025 168.278L79.548 167.576Z" fill="#173D7A"/>
<path d="M67.891 94.679C67.891 94.679 67.26 102.287 67.891 110.702C68.522 119.118 70.782 158.474 71.202 167.942C71.202 167.942 70.992 170.809 76.541 170.177C82.09 169.546 81.6431 166.364 81.6431 166.364C81.6431 166.364 89.4361 166.259 89.6821 161.665C89.9281 157.071 97.6641 106.811 97.6641 88.742L67.891 94.679Z" fill="#D4ECFF"/>
<path d="M100.546 55.342L104.364 61.256L117.488 77.109C117.488 77.109 117.037 78.58 115.403 78.965C114.127 79.266 103.088 68.734 98.3211 64.113C97.0541 62.885 96.8441 60.931 97.8181 59.461L100.546 55.342Z" fill="#FFC2B0"/>
<path d="M93.098 31.068C93.098 31.068 99.163 30.911 101.275 39.677C103.386 48.443 105.038 59.418 103.201 60.33C97.689 63.068 94.2 59.864 94.2 59.864L93.098 31.068Z" fill="#5793CE"/>
<path d="M94.9131 31.441C93.8781 31.009 92.7171 30.951 91.6391 31.261C86.4721 32.745 67.0431 38.447 63.8411 41.184C60.1421 44.346 69.389 62.115 69.256 67.941C69.123 73.767 68.4661 80.635 67.9511 86.968C67.4371 93.301 66.7401 96.774 71.9201 99.466C77.1001 102.158 85.9451 102.283 92.5651 97.238C99.1861 92.193 97.9851 88.741 97.7091 85.079C97.4341 81.417 95.1791 65.577 95.3741 61.081C95.3741 61.081 97.7071 59.363 99.4351 56.415C101.163 53.468 98.1111 48.051 96.8441 44.529C95.5771 41.007 97.5591 36.98 97.1671 34.106C96.9651 32.627 96.0201 31.903 94.9131 31.441Z" fill="#5793CE"/>
<path d="M80.062 43.411L82.27 45.943C82.557 46.272 82.686 46.709 82.624 47.141L80.694 60.623C80.64 61.001 80.735 61.385 80.958 61.695L85.68 68.231C85.889 68.521 86.338 68.455 86.456 68.117L89.348 59.802C89.458 59.487 89.457 59.144 89.347 58.83L84.991 46.419C84.896 46.147 84.881 45.854 84.948 45.574L85.722 42.336L80.062 43.411Z" fill="white"/>
<path d="M88.702 37.499C89.112 40.699 86.176 43.712 82.145 44.228C78.114 44.744 74.513 42.569 74.103 39.369C73.693 36.169 76.629 33.156 80.66 32.639C84.691 32.122 88.292 34.298 88.702 37.499Z" fill="white"/>
<path d="M86.619 37.765C86.912 40.052 84.8141 42.206 81.9321 42.575C79.0511 42.944 76.477 41.389 76.184 39.102C75.891 36.815 77.9891 34.661 80.8711 34.292C83.7531 33.923 86.326 35.478 86.619 37.765Z" fill="#FFC2B0"/>
<path d="M83.756 30.255C83.756 30.255 80.249 27.37 79.56 28.831C78.871 30.292 78.303 36.561 78.303 36.561L85.268 38.432L84.211 32.08C84.211 32.08 85.605 30.899 83.756 30.255Z" fill="#FFC2B0"/>
<path d="M94.6411 23.385C94.3021 29.118 89.3801 33.492 83.6461 33.153C77.9131 32.814 73.5391 27.892 73.8781 22.159C74.2171 16.426 79.1391 12.052 84.8731 12.391C90.6071 12.729 94.9801 17.651 94.6411 23.385Z" fill="#FFC2B0"/>
<path d="M79.074 30.649C79.012 30.976 78.953 31.327 78.897 31.686C79.597 35.304 85.011 36.888 85.011 36.888L84.211 32.081C84.211 32.081 84.867 31.524 84.681 30.967C82.542 30.292 79.845 29.694 79.074 30.649Z" fill="#EA9C92"/>
<path d="M94.6411 23.385C94.3021 29.118 89.3801 33.492 83.6461 33.153C77.9131 32.814 73.5391 27.892 73.8781 22.159C74.2171 16.426 79.1391 12.052 84.8731 12.391C90.6071 12.729 94.9801 17.651 94.6411 23.385Z" fill="#FFC2B0"/>
<path d="M58.637 66.792L59.801 94.621L63.87 95.041L66.518 69.989L58.637 66.792Z" fill="#FFC2B0"/>
<path d="M72.007 64.466C71.787 63.497 70.006 62.7 69.734 61.437C68.337 54.954 68.001 45.395 68.001 45.395L66.864 58.453C68.176 62.326 69.302 65.881 69.255 67.941C69.177 71.36 68.917 75.14 68.612 78.959V78.971C68.614 78.971 73.354 70.408 72.007 64.466Z" fill="#396CAA"/>
<path d="M64.618 40.613C64.618 40.613 61.365 41.856 59.524 51.849C57.683 61.842 56.306 71.851 59.588 73.141C62.871 74.431 65.613 75.401 66.578 72.728C67.543 70.055 68.141 57.177 68.262 52.545C68.383 47.914 68.56 41.528 64.618 40.613Z" fill="#5793CE"/>
<path d="M116.515 75.949C116.515 75.949 118.277 76.596 119.55 77.984C120.595 79.122 121.167 80.087 121.624 80.768C122.637 82.28 123.492 85.547 122.874 85.954C122.256 86.361 118.722 80.483 118.152 81.85C117.582 83.217 118.157 84.481 117.426 84.501C116.695 84.521 114.156 78.593 112.158 76.754C110.162 74.917 116.515 75.949 116.515 75.949Z" fill="#FFC2B0"/>
<path d="M81.6431 166.365C81.6431 166.365 82.6091 166.351 83.8701 166.134L85.3961 104.956L81.6431 166.365Z" fill="#396CAA"/>
<path d="M75.7541 133.318L73.5891 130.492L50.8241 117.311C50.0941 116.888 49.5041 115.756 49.5051 114.783L49.5251 96.145L48.2161 94.436L49.446 93.724L49.4471 93.726C49.6831 93.574 49.9951 93.578 50.3401 93.777L76.14 108.714C76.87 109.137 77.461 110.269 77.459 111.242L77.437 131.54C77.436 132.088 77.248 132.469 76.954 132.622L75.7541 133.318Z" fill="#396CAA"/>
<path d="M60.011 122.63L58.394 121.694L49.5161 106.273L49.5251 96.145L48.2161 94.436L49.446 93.724L49.4471 93.726C49.6831 93.574 49.9951 93.578 50.3401 93.777L76.14 108.714C76.526 108.937 76.8711 109.359 77.1131 109.851L60.011 122.63Z" fill="#396CAA"/>
<path d="M48.7971 95.194L48.2161 94.436L49.446 93.724L49.4471 93.726C49.6831 93.574 49.9951 93.578 50.3401 93.777L50.795 94.04L48.7971 95.194Z" fill="#396CAA"/>
<path d="M76.374 108.879C76.947 109.348 77.391 110.234 77.452 111.052L74.931 112.508L73.723 110.41L76.374 108.879Z" fill="#396CAA"/>
<path d="M74.911 109.426L49.111 94.488C48.381 94.065 47.788 94.512 47.787 95.486L47.765 115.784C47.764 116.758 48.354 117.89 49.084 118.312L74.884 133.25C75.614 133.673 76.207 133.226 76.208 132.252L76.23 111.954C76.231 110.98 75.641 109.848 74.911 109.426Z" fill="#D4ECFF"/>
<path d="M75.3 109.192L49.5 94.254C49.07 94.005 48.691 94.064 48.449 94.35C48.644 94.311 48.869 94.347 49.111 94.488L74.9109 109.426C75.6409 109.849 76.2319 110.98 76.2299 111.954L76.208 132.252C76.207 132.652 76.104 132.956 75.935 133.154C76.328 133.076 76.596 132.668 76.597 132.018L76.619 111.72C76.621 110.747 76.03 109.615 75.3 109.192Z" fill="white"/>
<path d="M69.6111 123.984L68.3821 123.275V112.718L69.6111 113.427V123.984Z" fill="white"/>
<path d="M66.74 122.327L65.511 121.617V111.06L66.74 111.77V122.327Z" fill="white"/>
<path d="M63.869 120.669L62.64 119.96V109.403L63.869 110.112V120.669Z" fill="white"/>
<path d="M59.8341 94.388C59.8341 94.388 58.7581 100.884 58.9201 102.964C59.0821 105.045 60.1951 108.476 61.0411 108.403C61.8871 108.33 61.0691 100.037 62.5531 100.863C64.0371 101.689 64.1931 103.106 64.8651 102.606C65.5371 102.105 63.6931 95.016 64.1851 91.942C64.6771 88.869 59.8341 94.388 59.8341 94.388Z" fill="#FFC2B0"/>
<path d="M88.254 23.68C93.471 25.533 94.486 24.402 94.536 24.342C94.584 24.027 94.622 23.709 94.641 23.385C94.709 22.233 94.579 21.118 94.294 20.062L80.76 18.235C80.76 18.235 82.897 21.777 88.254 23.68Z" fill="#EA9C92"/>
<path d="M95.016 13.024C93.787 11.97 89.35 6.75999 81.402 7.98899C76.435 8.75699 72.248 12.146 71.319 19.876C70.693 25.084 72.605 30.214 76.126 34.006C76.317 33.918 76.514 33.837 76.691 33.72C78.682 32.41 78.896 31.69 78.896 31.683L79.336 27.739C79.322 27.179 78.903 26.681 78.345 26.646C77.913 26.619 77.388 26.411 76.889 25.758C75.747 24.265 76.274 21.938 78.557 21.85C79.75 21.804 80.212 21.159 80.381 20.553C80.528 20.026 81.084 19.733 81.599 19.919C84.196 20.859 90.597 22.885 94.716 21.718C99.984 20.226 96.245 14.078 95.016 13.024Z" fill="#6A0DAD"/>
<path d="M89.09 28.377L92.271 27.503C92.271 27.503 90.752 29.892 88.535 30.501C86.318 31.11 85.973 29.233 85.973 29.233L89.09 28.377Z" fill="white"/>
<path d="M65.242 102.405L62.532 100.853L63.55 102.515L64.92 103.021L65.242 102.405Z" fill="#396CAA"/>
<path d="M78.187 26.016C78.187 26.611 77.704 27.094 77.109 27.094C76.514 27.094 76.031 26.611 76.031 26.016C76.031 25.42 76.514 24.938 77.109 24.938C77.704 24.938 78.187 25.42 78.187 26.016Z" fill="white"/>
<path d="M241.211 184.77C255.163 184.77 266.473 178.24 266.473 170.185C266.473 162.13 255.163 155.6 241.211 155.6C227.259 155.6 215.949 162.13 215.949 170.185C215.949 178.24 227.259 184.77 241.211 184.77Z" fill="#699DD1"/>
<path d="M242.694 162.501C242.412 163.205 237.553 169.121 232.693 170.6C230.58 171.243 229.16 171.327 228.229 171.216C227.295 171.105 226.717 170.142 227.032 169.255C227.868 166.901 230.265 161.997 236.355 158.978C244.595 154.894 242.694 162.501 242.694 162.501Z" fill="#173D7A"/>
<path d="M244.314 164.773C244.314 164.773 242.483 169.069 241.919 172.661C241.575 174.852 242.778 177.698 243.768 179.585C244.383 180.756 245.94 181.019 246.919 180.13C248.507 178.689 250.529 176.185 250.864 172.59C251.427 166.533 250.864 165.477 250.864 165.477L244.314 164.773Z" fill="#173D7A"/>
<path d="M256.02 91.565C256.02 91.565 256.654 99.205 256.02 107.657C255.386 116.109 253.117 155.633 252.694 165.142C252.694 165.142 252.905 168.021 247.333 167.387C241.76 166.753 242.209 163.557 242.209 163.557C242.209 163.557 234.382 163.451 234.136 158.838C233.89 154.225 226.12 103.75 226.12 85.603L256.02 91.565Z" fill="#D4ECFF"/>
<path d="M242.209 163.557C242.209 163.557 241.239 163.543 239.973 163.325L238.441 101.885L242.209 163.557Z" fill="#396CAA"/>
<path d="M247.743 35.501C260.386 40.743 260.133 48.216 260.133 48.216C260.133 48.216 257.656 75.615 258.502 93.913C258.855 101.562 217.86 102.146 223.974 81.738C231.183 57.676 228.481 38.196 231.855 35.258C235.229 32.32 244.473 34.145 247.743 35.501Z" fill="#5793CE"/>
<path d="M251.811 42.1279C251.15 44.6949 247.786 46.0479 244.299 45.1489C240.811 44.2509 238.52 41.4409 239.181 38.8739C239.842 36.3069 243.206 34.9539 246.693 35.8529C250.181 36.7509 252.472 39.5609 251.811 42.1279Z" fill="#FFC2B0"/>
<path d="M246.429 46.218C245.673 46.218 244.889 46.122 244.1 45.919C240.194 44.912 237.642 41.663 238.411 38.676C238.796 37.184 239.921 35.994 241.58 35.327C243.154 34.694 245.039 34.606 246.891 35.084C248.741 35.561 250.35 36.547 251.423 37.862C252.554 39.248 252.964 40.833 252.58 42.326C251.967 44.71 249.419 46.218 246.429 46.218ZM244.533 36.368C243.693 36.368 242.89 36.513 242.174 36.802C240.995 37.276 240.206 38.082 239.951 39.073C239.4 41.212 241.439 43.593 244.497 44.381C247.555 45.169 250.492 44.07 251.042 41.931C251.298 40.94 250.996 39.852 250.193 38.868C249.333 37.813 248.019 37.016 246.495 36.625C245.836 36.453 245.174 36.368 244.533 36.368Z" fill="white"/>
<path d="M242.674 34.931C242.674 34.931 242.783 35.438 242.564 39.445C242.495 40.704 246.905 41.881 248.045 40.741C249.185 39.601 248.729 38.415 249.003 34.129C249.277 29.843 242.674 34.931 242.674 34.931Z" fill="#FFC2B0"/>
<path d="M249.003 34.128C249.003 34.128 247.917 38.102 242.563 39.627L242.644 36.015L249.003 34.128Z" fill="#EA9C92"/>
<path d="M252.395 24.0299C253.74 29.2339 250.613 34.5429 245.409 35.8879C240.205 37.2329 234.896 34.1059 233.551 28.9019C232.206 23.6979 235.333 18.3889 240.537 17.0439C245.741 15.6989 251.05 18.8259 252.395 24.0299Z" fill="#FFC2B0"/>
<path d="M245.208 26.823C245.208 26.823 239.85 29.118 236.14 29.145C232.43 29.171 233.248 26.064 233.248 26.064L244.261 24.472L245.208 26.823Z" fill="#EA9C92"/>
<path d="M235.034 27.428C235.034 27.428 239.702 25.447 243.796 26.273C244.758 26.467 245.651 26.982 246.27 27.744C246.473 27.993 246.728 28.22 247.019 28.286C247.745 28.45 248.934 25.438 250.345 25.369C251.756 25.3 252.698 26.3 251.541 28.152C250.384 30.004 250.775 32.078 251.307 32.375C251.84 32.672 257.487 28.347 252.505 18.479C247.523 8.60997 234.869 13.926 232.901 15.926C232.901 15.926 230.828 17.732 229.142 16.125C229.142 16.125 227.252 30.282 235.034 27.428Z" fill="#6A0DAD"/>
<path d="M225.67 33.257L218.871 30.326C218.092 29.99 217.49 29.342 217.214 28.54L210.501 9.08496L207.39 9.62596L212.817 33.836C213.07 34.966 213.792 35.935 214.801 36.503L226.121 42.86L225.67 33.257Z" fill="#FFC2B0"/>
<path d="M296.402 36.421L297.962 35.705C299.291 35.095 300.502 34.258 301.543 33.231L302.629 32.159C303.241 31.554 303.424 30.638 303.09 29.845C302.829 29.226 302.098 28.957 301.498 29.26L298.24 30.905C298.24 30.905 298.75 29.463 298.505 29.088C298.26 28.713 295.739 31.496 294.573 33.469C293.406 35.444 296.402 36.421 296.402 36.421Z" fill="#FFC2B0"/>
<path d="M269.27 44.203L275.085 43.553C276.46 43.399 277.79 42.969 278.994 42.287L294.572 33.47L296.403 36.421L280.475 48.718C279.983 49.098 279.445 49.414 278.874 49.658L269.375 53.719L269.27 44.203Z" fill="#FFC2B0"/>
<path d="M207.39 9.62598L206.797 8.94098C206.114 8.15298 205.67 7.18498 205.519 6.15398L205.103 3.31698C204.974 2.43398 205.319 1.53598 206.036 1.00598C206.062 0.986977 206.088 0.967977 206.115 0.949977C206.868 0.429977 207.919 0.805981 208.269 1.65198L209.667 5.03298C209.667 5.03298 209.226 3.28198 209.791 3.08798C210.205 2.94598 210.991 5.11798 210.526 6.32598C210.062 7.53398 210.499 9.08498 210.499 9.08498L207.39 9.62598Z" fill="#FFC2B0"/>
<path d="M239.112 33.167L236.599 32.477C236.599 32.477 237.799 34.364 239.55 34.845C241.301 35.326 241.574 33.844 241.574 33.844L239.112 33.167Z" fill="white"/>
<path d="M235.343 33.8609C235.343 33.8609 223.987 31.617 220.519 30.563C217.051 29.509 215.603 39.035 215.866 41.449C216.129 43.863 227.938 46.557 229.343 50.697C230.747 54.838 235.343 33.8609 235.343 33.8609Z" fill="#5793CE"/>
<path d="M252.707 38.041C252.707 38.041 261.008 41.603 274.897 43.338C275.462 43.409 275.946 43.782 276.133 44.32C276.668 45.858 277.582 49.216 276.868 52.67C276.574 54.094 275.284 55.0929 273.83 55.0829C269.482 55.0529 260.124 55.47 258.605 59.535C256.616 64.861 252.707 38.041 252.707 38.041Z" fill="#5793CE"/>
<path d="M247.824 45.529L245.548 48C245.253 48.321 245.112 48.754 245.162 49.188L246.727 62.718C246.771 63.097 246.666 63.479 246.434 63.782L241.537 70.188C241.32 70.472 240.873 70.394 240.765 70.053L238.099 61.663C237.998 61.345 238.008 61.003 238.127 60.691L242.817 48.403C242.92 48.134 242.943 47.841 242.883 47.56L242.197 44.302L247.824 45.529Z" fill="white"/>
<path d="M272.686 52.565C270.202 52.854 264.104 53.379 259.415 53.77C256.728 53.994 254.943 56.585 255.623 59.194C258.122 68.792 254.813 84.222 255.41 89.445C256.124 95.694 252.338 98.111 252.317 98.123C256.057 97.315 258.591 95.839 258.502 93.913C257.983 82.674 258.717 68.011 259.36 58.363C262.091 55.382 270.011 55.053 273.879 55.084C275.354 55.096 276.596 54.039 276.885 52.593C277.244 50.793 277.161 49.031 276.928 47.535C276.929 47.631 276.926 52.072 272.686 52.565Z" fill="#396CAA"/>
<path d="M165.848 238.669C182.362 238.669 195.75 230.94 195.75 221.405C195.75 211.87 182.362 204.141 165.848 204.141C149.334 204.141 135.946 211.87 135.946 221.405C135.946 230.94 149.334 238.669 165.848 238.669Z" fill="#C472FF"/>
<path d="M147.526 212.255C145.443 213.145 144.132 215.467 144.305 217.963C144.387 219.141 144.529 220.238 144.775 220.754C145.438 222.145 147.61 224.055 151.078 222.685C154.545 221.315 162.246 214.079 162.535 209.343C163.07 200.544 153.01 209.913 147.526 212.255Z" fill="#173D7A"/>
<path d="M167.898 226.806C167.898 226.806 167.066 231.879 167.47 232.808C167.874 233.738 170.287 235.722 173.852 235.293C177.417 234.864 187.675 231.327 189.959 224.567C193.5 214.087 170.159 225.353 170.159 225.353L167.898 226.806Z" fill="#173D7A"/>
<path d="M177.921 145.717L178.715 224.901C178.632 227.655 176.828 229.981 174.402 230.39C174.102 230.441 173.781 230.482 173.438 230.512C170.981 230.727 169.551 229.673 168.734 228.566C168.073 227.669 167.725 226.532 167.675 225.369L166.664 191.566L161.617 161.343L154.635 214.834C154.523 216.281 153.83 217.618 152.716 218.356C151.946 218.865 150.902 219.261 149.533 219.219C147.535 219.159 146.147 218.089 145.3 217.135C144.629 216.378 144.275 215.339 144.289 214.271L147.057 182.086L148.087 141.034L177.921 145.717Z" fill="#D4ECFF"/>
<path d="M167.667 74.839L166.415 82.054C166.415 82.054 166.368 84.516 169.117 85.198C171.866 85.88 172.716 84.105 172.716 84.105L173.959 75.979L167.667 74.839Z" fill="#FFC2B0"/>
<path d="M182.868 70.7213C184.74 64.5153 181.778 58.1331 176.252 56.4664C170.727 54.7996 164.73 58.4794 162.858 64.6854C160.986 70.8914 163.948 77.2736 169.473 78.9404C174.999 80.6072 180.996 76.9274 182.868 70.7213Z" fill="#FFC2B0"/>
<path d="M167.994 82.186C167.804 82.109 156.332 74.722 152.091 82.452C145.177 95.056 150.234 109.507 147.767 140.884C147.354 146.135 154.833 149.334 158.369 151.354C161.515 153.151 165.036 154.252 168.659 154.281C172.244 154.31 179.118 151.123 178.868 146.437C177.72 124.883 179.626 106.714 181.386 89.085C181.386 89.085 179.186 86.717 167.994 82.186Z" fill="#5793CE"/>
<path d="M161.617 161.344L154.635 214.835C154.523 216.282 153.83 217.619 152.716 218.357C152.534 218.477 152.333 218.59 152.12 218.694C153.569 217.607 157.801 172.709 158.584 167.715C159.368 162.717 161.617 161.344 161.617 161.344Z" fill="#396CAA"/>
<path d="M205.191 88.716L214.795 69.652L211.783 67.749L201.828 82.27L205.191 88.716Z" fill="#FFC2B0"/>
<path d="M141.841 68.474L146.513 47.218L150.234 47.259L148.837 64.887L141.841 68.474Z" fill="#FFC2B0"/>
<path d="M181.386 89.084C181.386 89.084 192.128 93.321 201.358 81.678C202.171 80.652 203.841 80.767 204.323 81.873C205.153 83.781 206.193 86.664 204.932 89.37C199.354 101.342 180.321 100.926 175.735 107.637C171.149 114.348 181.386 89.084 181.386 89.084Z" fill="#5793CE"/>
<path d="M160.718 79.5369C160.718 79.5369 151.848 80.219 150.572 72.542C149.915 68.589 149.717 66.228 149.68 64.867C149.655 63.946 148.855 63.2479 147.941 63.3619C145.817 63.6259 142.528 64.2599 142.082 65.6829C141.416 67.8089 140.163 78.2339 148.924 94.2299C154.663 104.71 160.718 79.5369 160.718 79.5369Z" fill="#5793CE"/>
<path d="M146.494 47.271L146.579 44.847C146.609 43.991 146.858 43.158 147.304 42.427L149.761 38.391L150.402 37.584C150.994 36.839 152.052 36.658 152.857 37.165L153.422 37.52C154.142 37.973 154.557 38.784 154.503 39.633L153.232 43.082L154.839 42.77C155.151 42.709 155.453 42.916 155.509 43.229C155.557 43.495 155.411 43.758 155.161 43.859L152.536 44.918L150.153 48.292L146.494 47.271Z" fill="#FFC2B0"/>
<path d="M214.866 69.773L215.99 67.624C216.387 66.865 216.582 66.018 216.556 65.162L216.415 60.439L216.257 59.42C216.111 58.48 215.28 57.8 214.33 57.842L213.663 57.872C212.813 57.91 212.051 58.41 211.679 59.175L211.079 62.801L209.836 61.736C209.594 61.529 209.23 61.56 209.026 61.804C208.853 62.012 208.849 62.312 209.017 62.524L210.775 64.741L211.23 69.361L214.866 69.773Z" fill="#FFC2B0"/>
<path d="M174.381 105.236C173.447 109.493 179.071 141.608 172.818 153.352C175.945 152.085 179.037 149.606 178.868 146.436C178.047 131.022 178.79 117.343 179.923 104.351C185.271 101.641 193.628 100.025 199.539 95.697C193.201 98.034 175.215 101.436 174.381 105.236Z" fill="#396CAA"/>
<path d="M163.869 80.148L165.462 78.512C165.462 78.512 168.082 81.189 170.187 81.654C170.187 81.654 172.721 82.372 173.959 82.434L174.984 85.261C174.984 85.261 166.64 84.663 163.869 80.148Z" fill="white"/>
<path d="M175.333 71.079C175.773 71.071 176.181 70.871 176.431 70.51C176.867 69.88 176.591 66.981 177.933 66.502C180.031 65.754 185.007 68.379 185.539 60.811C185.816 56.878 183.901 55.832 183.91 53.678C183.91 53.678 184.076 54.759 173.955 54.086C163.835 53.413 160.543 62.401 160.304 66.682C160.064 70.963 162.136 78.001 169.053 78.967C170.2 79.127 175.017 75.254 174.893 74.746C174.768 74.238 172.95 74.266 173.213 72.788C173.432 71.554 174.182 71.1 175.333 71.079Z" fill="#173D7A"/>
<path d="M30.14 119.032L4.58096 104.275C4.07496 103.983 3.61796 103.972 3.25996 104.169C3.25996 104.167 3.26196 104.152 3.26196 104.152L0.782959 105.584C0.782959 105.584 1.88096 105.984 2.52496 106.221V124.834C2.52496 126.348 3.44596 128.108 4.58096 128.763L29.011 142.867V145.051L31.516 143.609L31.503 143.604C31.926 143.346 32.198 142.779 32.198 141.965V122.96C32.196 121.447 31.275 119.688 30.14 119.032Z" fill="#5793CE"/>
<path d="M27.615 144.977L2.056 130.22C0.92 129.564 0 127.805 0 126.291V107.286C0 105.772 0.921 105.076 2.056 105.731L27.615 120.488C28.751 121.144 29.672 122.903 29.672 124.417V143.422C29.671 144.936 28.751 145.632 27.615 144.977Z" fill="#D4ECFF"/>
<path d="M27.615 120.488L2.056 105.731C1.41 105.358 0.840989 105.435 0.463989 105.838C0.738989 105.815 1.04399 105.88 1.37099 106.069L26.93 120.826C28.066 121.482 28.986 123.241 28.986 124.755V143.76C28.986 144.414 28.808 144.902 28.522 145.208C29.2 145.152 29.671 144.5 29.671 143.422V124.417C29.671 122.902 28.751 121.143 27.615 120.488Z" fill="white"/>
<path d="M10.6509 123.671C10.6509 124.771 9.87893 125.217 8.92593 124.667C7.97393 124.117 7.20093 122.78 7.20093 121.68C7.20093 120.58 7.97293 120.134 8.92593 120.684C9.87893 121.234 10.6509 122.571 10.6509 123.671Z" fill="white"/>
<path d="M15.8749 126.687C15.8749 127.787 15.1029 128.233 14.1499 127.683C13.1979 127.133 12.4249 125.796 12.4249 124.696C12.4249 123.596 13.1969 123.15 14.1499 123.7C15.1029 124.25 15.8749 125.587 15.8749 126.687Z" fill="white"/>
<path d="M21.0999 129.703C21.0999 130.803 20.3279 131.249 19.3749 130.699C18.4229 130.149 17.6499 128.812 17.6499 127.712C17.6499 126.612 18.4219 126.166 19.3749 126.716C20.3269 127.266 21.0999 128.604 21.0999 129.703Z" fill="white"/>
<path opacity="0.5" d="M17.6509 273.439L0.419922 263.491L17.6499 253.543L34.8809 263.491L17.6509 273.439Z" fill="#C277F8"/>
<path d="M34.8809 250.86L17.6509 260.808V240.913L34.8809 230.965V250.86Z" fill="#6A0DAD"/>
<path d="M17.6509 240.913L0.419922 230.965L17.6499 221.017L34.8809 230.965L17.6509 240.913Z" fill="#8A25D3"/>
<path d="M17.6509 260.808L0.419922 250.86V230.965L17.6509 240.913V260.808Z" fill="#8A25D3"/>
<path d="M11.445 250.06L6.62598 247.278V241.713L11.445 244.495V250.06Z" fill="white"/>
<path opacity="0.5" d="M296.403 284.233L278.464 273.876L296.402 263.519L314.341 273.876L296.403 284.233Z" fill="#C277F8"/>
<path d="M314.341 260.727L296.403 271.084V250.371L314.341 240.014V260.727Z" fill="#173D7A"/>
<path d="M296.403 250.371L278.464 240.014L296.402 229.658L314.341 240.014L296.403 250.371Z" fill="#D4ECFF"/>
<path d="M296.403 271.084L278.464 260.727V240.014L296.403 250.371V271.084Z" fill="#5793CE"/>
<path d="M289.942 259.894L284.925 256.997V251.204L289.942 254.101V259.894Z" fill="white"/>
<path d="M308.031 118.698L283.042 104.271C282.547 103.986 282.1 103.975 281.75 104.167C281.75 104.165 281.752 104.151 281.752 104.151L279.328 105.551C279.328 105.551 280.401 105.942 281.031 106.173V124.371C281.031 125.852 281.931 127.572 283.042 128.213L306.927 142.003V144.138L309.376 142.728L309.363 142.723C309.777 142.471 310.042 141.917 310.042 141.12V122.54C310.041 121.059 309.141 119.339 308.031 118.698Z" fill="#6A0DAD"/>
<path d="M305.563 144.063L280.574 129.636C279.464 128.995 278.564 127.275 278.564 125.795V107.214C278.564 105.734 279.464 105.053 280.574 105.694L305.563 120.121C306.673 120.762 307.573 122.482 307.573 123.963V142.544C307.573 144.024 306.673 144.704 305.563 144.063Z" fill="#8C26D7"/>
<path d="M306.176 119.679L281.187 105.252C280.484 104.846 279.867 104.973 279.508 105.494C279.818 105.413 280.181 105.467 280.574 105.694L305.563 120.121C306.673 120.762 307.574 122.482 307.574 123.963V142.544C307.574 143.087 307.451 143.52 307.243 143.822C307.809 143.674 308.188 143.059 308.188 142.102V123.52C308.186 122.04 307.286 120.32 306.176 119.679Z" fill="white"/>
<path d="M288.977 123.233C288.977 124.308 288.222 124.744 287.291 124.206C286.36 123.668 285.605 122.361 285.605 121.286C285.605 120.211 286.36 119.775 287.291 120.313C288.222 120.85 288.977 122.158 288.977 123.233Z" fill="white"/>
<path d="M294.085 126.182C294.085 127.257 293.33 127.693 292.399 127.155C291.468 126.617 290.713 125.31 290.713 124.235C290.713 123.16 291.468 122.724 292.399 123.262C293.33 123.799 294.085 125.107 294.085 126.182Z" fill="white"/>
<path d="M299.193 129.131C299.193 130.206 298.438 130.642 297.507 130.104C296.576 129.566 295.821 128.259 295.821 127.184C295.821 126.109 296.576 125.673 297.507 126.211C298.438 126.749 299.193 128.055 299.193 129.131Z" fill="white"/>
</svg>
