<svg width="316" height="268" viewBox="0 0 316 268" fill="none" xmlns="http://www.w3.org/2000/svg">
<path d="M248.246 136.05C285.665 136.05 316 105.715 316 68.2957C316 30.8762 285.665 0.541687 248.246 0.541687C210.826 0.541687 180.492 30.8762 180.492 68.2957C180.492 105.715 210.826 136.05 248.246 136.05Z" fill="#E6A2FE"/>
<path d="M101.672 239.129C117.137 223.664 117.137 198.59 101.672 183.125C86.2068 167.66 61.1332 167.66 45.6682 183.125C30.2033 198.59 30.2033 223.664 45.6682 239.129C61.1332 254.594 86.2068 254.594 101.672 239.129Z" fill="#E6A2FE"/>
<path d="M73.1443 23.129C53.1496 23.129 36.9414 39.338 36.9414 59.3326C36.9414 79.3273 53.1504 95.5363 73.1443 95.5363C93.1389 95.5363 109.348 79.3273 109.348 59.3326C109.347 39.338 93.1381 23.129 73.1443 23.129ZM73.1443 82.4789C60.3608 82.4789 49.998 72.1161 49.998 59.3326C49.998 46.5492 60.3608 36.1864 73.1443 36.1864C85.9277 36.1864 96.2905 46.5492 96.2905 59.3326C96.2905 72.1161 85.9269 82.4789 73.1443 82.4789Z" fill="#E6A2FE"/>
<path d="M209.921 254.592C209.921 256.887 208.061 258.747 205.767 258.747H100.718C98.4238 258.747 96.5637 256.887 96.5637 254.592C96.5637 252.298 98.4238 250.438 100.718 250.438H138.01L143.153 240.942H152.055H154.429H163.332L168.475 250.438H205.767C208.061 250.438 209.921 252.298 209.921 254.592Z" fill="#470578"/>
<path d="M160.981 232.337H143.77V237.382H160.981V232.337Z" fill="#FF4D6B"/>
<path d="M160.981 224.027H143.77V229.072H160.981V224.027Z" fill="#FF4D6B"/>
<path d="M289.412 206.955C286.419 208.105 283.167 208.734 279.77 208.734C264.905 208.734 252.854 196.684 252.854 181.819C252.854 166.954 264.904 154.904 279.77 154.904C294.634 154.904 306.684 166.954 306.684 181.819C306.684 185.802 305.819 189.583 304.267 192.984" stroke="#FF4D6B" stroke-width="1.1276" stroke-miterlimit="10" stroke-linecap="round" stroke-linejoin="round"/>
<path d="M213.416 55.4602H209.119C208.227 51.6422 206.725 48.0603 204.714 44.8242L207.752 41.7862C209.062 40.4764 209.062 38.3527 207.752 37.043L201.002 30.2928C199.692 28.9831 197.568 28.9831 196.259 30.2928L193.221 33.33C189.985 31.3192 186.404 29.8176 182.586 28.9262V24.629C182.586 22.7769 181.084 21.2753 179.232 21.2753H169.686C167.834 21.2753 166.332 22.7769 166.332 24.629V28.9262C162.514 29.8176 158.932 31.3199 155.696 33.33L152.658 30.2928C151.349 28.9831 149.225 28.9831 147.915 30.2928L141.166 37.043C139.856 38.3527 139.856 40.4764 141.166 41.7862L144.204 44.8242C142.193 48.0595 140.691 51.6414 139.799 55.4602H135.502C133.65 55.4602 132.148 56.9618 132.148 58.8139V68.3597C132.148 70.2118 133.65 71.7134 135.502 71.7134H139.799C140.69 75.5314 142.193 79.1133 144.203 82.3494L141.166 85.3874C139.856 86.6971 139.856 88.8209 141.166 90.1306L147.915 96.8808C149.225 98.1905 151.349 98.1905 152.658 96.8808L155.696 93.8436C158.932 95.8544 162.514 97.356 166.332 98.2482V102.545C166.332 104.398 167.834 105.899 169.686 105.899H179.232C181.084 105.899 182.586 104.398 182.586 102.545V98.2482C186.404 97.356 189.985 95.8544 193.222 93.8436L196.26 96.8808C197.569 98.1905 199.693 98.1905 201.003 96.8808L207.753 90.1306C209.063 88.8209 209.063 86.6971 207.753 85.3874L204.715 82.3494C206.726 79.1141 208.227 75.5322 209.12 71.7134H213.417C215.269 71.7134 216.77 70.2118 216.77 68.3597V58.8139C216.77 56.961 215.268 55.4602 213.416 55.4602ZM174.459 80.6141C165.056 80.6141 157.432 72.9908 157.432 63.5864C157.432 54.1828 165.056 46.5595 174.459 46.5595C183.863 46.5595 191.487 54.1828 191.487 63.5864C191.487 72.9908 183.864 80.6141 174.459 80.6141Z" fill="#289DF2"/>
<path d="M34.9969 221.76C29.9971 221.76 25.9438 217.707 25.9438 212.706V71.0218C25.9438 66.0212 29.9971 61.968 34.9977 61.968H271.488C276.488 61.968 280.542 66.0212 280.542 71.021V212.705C280.542 217.705 276.488 221.759 271.488 221.759H34.9969V221.76Z" fill="#4F0188"/>
<path d="M70.7702 81.7368H44.5078V87.5237H70.7702V81.7368Z" fill="#C274FB"/>
<path d="M102.373 81.7368H76.1111V87.5237H102.373V81.7368Z" fill="#C274FB"/>
<path d="M182.496 81.7368H156.233V87.5237H182.496V81.7368Z" fill="#C274FB"/>
<path d="M262.618 81.7368H236.355V87.5237H262.618V81.7368Z" fill="#C274FB"/>
<path d="M152.895 81.7368H105.934V87.5237H152.895V81.7368Z" fill="white"/>
<path d="M232.572 81.7368H185.611V87.5237H232.572V81.7368Z" fill="#180037"/>
<path d="M49.2558 77.1372H44.6562V79.9565H49.2558V77.1372Z" fill="#2889DB"/>
<path d="M92.6549 92.2717H44.6562V95.091H92.6549V92.2717Z" fill="white"/>
<path d="M58.9002 97.2424H44.6562V100.062H58.9002V97.2424Z" fill="white"/>
<path d="M95.4742 201.475H50.9619C47.6429 201.475 44.9531 198.784 44.9531 195.466V114.899C44.9531 111.58 47.6437 108.89 50.9619 108.89H95.4742C98.7932 108.89 101.483 111.58 101.483 114.899V195.466C101.483 198.784 98.7932 201.475 95.4742 201.475Z" fill="#C274FB"/>
<path d="M70.9927 122.466H52.075V125.359H70.9927V122.466Z" fill="white"/>
<path d="M70.9927 128.92H52.075V131.813H70.9927V128.92Z" fill="white"/>
<path d="M70.9927 135.374H52.075V138.267H70.9927V135.374Z" fill="white"/>
<path d="M63.6481 162.304H52.075V165.198H63.6481V162.304Z" fill="white"/>
<path d="M63.6481 168.758H52.075V171.652H63.6481V168.758Z" fill="white"/>
<path d="M83.5299 168.758H71.9568V171.652H83.5299V168.758Z" fill="white"/>
<path d="M59.3454 154.96H52.075V157.853H59.3454V154.96Z" fill="white"/>
<path d="M87.0906 154.96H83.2332V157.853H87.0906V154.96Z" fill="white"/>
<path d="M81.7497 154.96H61.8672V157.853H81.7497V154.96Z" fill="#FF4D6B"/>
<path d="M54.8571 144.054H52.075V146.948H54.8571V144.054Z" fill="#2889DB"/>
<path d="M54.8571 149.173H52.075V152.066H54.8571V149.173Z" fill="#FF4D6B"/>
<path d="M67.5055 172.245H66.4666L68.9519 168.536H69.9908L67.5055 172.245Z" fill="white"/>
<path d="M95.0295 177.215H52.075V179.664H95.0295V177.215Z" fill="#282E5C"/>
<path d="M95.0295 182.78H52.075V185.228H95.0295V182.78Z" fill="#282E5C"/>
<path d="M301.64 147.17H183.534C180.583 147.17 178.192 144.778 178.192 141.828V109.779C178.192 106.829 180.583 104.438 183.534 104.438H301.64C304.59 104.438 306.982 106.829 306.982 109.779V141.828C306.981 144.778 304.589 147.17 301.64 147.17Z" fill="#289DF2"/>
<path d="M216.473 132.036C216.473 132.036 223.001 116.012 241.696 119.869C260.391 123.727 269.887 144.796 293.924 127.585" stroke="white" stroke-width="1.1276" stroke-miterlimit="10"/>
<path d="M277.009 132.926H274.339V135.597H277.009V132.926Z" fill="#289DF2" stroke="white" stroke-width="1.1276" stroke-miterlimit="10"/>
<path d="M219.738 119.127H253.566" stroke="white" stroke-width="0.5638" stroke-miterlimit="10"/>
<path d="M258.76 135.004H292.589" stroke="white" stroke-width="0.5638" stroke-miterlimit="10"/>
<path d="M236.652 117.792H233.981V120.463H236.652V117.792Z" fill="#289DF2" stroke="white" stroke-width="1.1276" stroke-miterlimit="10"/>
<path d="M200.745 158.15H175.225C173.094 158.15 171.368 156.423 171.368 154.292V116.012C171.368 113.881 173.095 112.154 175.225 112.154H200.745C202.876 112.154 204.603 113.882 204.603 116.012V154.292C204.603 156.423 202.876 158.15 200.745 158.15Z" fill="#C274FB"/>
<path d="M195.478 118.683H176.56V121.291H195.478V118.683Z" fill="white"/>
<path d="M195.478 124.5H176.56V127.109H195.478V124.5Z" fill="white"/>
<path d="M183.682 130.319H176.56V132.927H183.682V130.319Z" fill="white"/>
<path d="M188.876 136.338H176.56V138.946H188.876V136.338Z" fill="#289DF2"/>
<path d="M184.869 142.156H176.56V144.765H184.869V142.156Z" fill="#289DF2"/>
<path d="M184.869 147.974H176.56V150.583H184.869V147.974Z" fill="white"/>
<path d="M286.208 98.6516H299.563" stroke="#284D89" stroke-width="2.2552" stroke-miterlimit="10" stroke-linecap="round" stroke-linejoin="round"/>
<path d="M256.205 174L251.596 177.607L244.983 178.809C244.983 178.809 238.771 178.408 238.17 178.408C237.569 178.408 233.361 175.002 233.361 175.002L225.546 172.197L220.135 174.2L213.723 172.797L204.105 172.196L194.887 175.803L187.273 177.005L180.46 179.21L172.845 179.811L164.63 173.399L157.015 171.996L149.2 176.405L142.988 178.408L135.935 178.208L127.047 183.618H121.748L112.797 186.757" stroke="#FF5C66" stroke-width="1.0152" stroke-miterlimit="10"/>
<path d="M112.931 186.891H256.405" stroke="#F7F7F7" stroke-width="0.2538" stroke-miterlimit="10"/>
<path d="M112.999 185.087H111.529V188.695H112.999V185.087Z" fill="#F7F7F7"/>
<path d="M257.006 185.087H255.537V188.695H257.006V185.087Z" fill="#F7F7F7"/>
<path d="M256.271 186.891V174.801" stroke="#F7F7F7" stroke-width="0.2538" stroke-miterlimit="10"/>
<path d="M257.073 174.2C257.073 174.827 256.564 175.336 255.937 175.336C255.31 175.336 254.802 174.827 254.802 174.2C254.802 173.573 255.31 173.065 255.937 173.065C256.564 173.065 257.073 173.573 257.073 174.2Z" fill="#F7F7F7"/>
<path d="M113.847 196.94V191.033H114.528V193.214H114.585C114.635 193.137 114.704 193.039 114.793 192.92C114.883 192.798 115.012 192.691 115.179 192.597C115.349 192.5 115.577 192.452 115.866 192.452C116.239 192.452 116.568 192.546 116.852 192.732C117.137 192.919 117.359 193.183 117.519 193.525C117.678 193.868 117.758 194.271 117.758 194.737C117.758 195.206 117.678 195.612 117.519 195.957C117.359 196.299 117.138 196.564 116.855 196.753C116.572 196.939 116.247 197.032 115.877 197.032C115.593 197.032 115.365 196.985 115.194 196.891C115.023 196.795 114.891 196.686 114.799 196.565C114.706 196.442 114.635 196.34 114.585 196.26H114.504V196.94H113.847ZM114.516 194.725C114.516 195.06 114.565 195.355 114.663 195.611C114.761 195.864 114.904 196.063 115.093 196.208C115.281 196.35 115.512 196.421 115.785 196.421C116.07 196.421 116.307 196.346 116.497 196.196C116.69 196.044 116.834 195.84 116.93 195.585C117.028 195.327 117.077 195.04 117.077 194.725C117.077 194.414 117.029 194.133 116.933 193.883C116.839 193.631 116.696 193.432 116.503 193.286C116.313 193.138 116.074 193.064 115.785 193.064C115.508 193.064 115.276 193.134 115.087 193.274C114.899 193.413 114.756 193.607 114.66 193.857C114.564 194.105 114.516 194.394 114.516 194.725ZM120.657 197.032C120.23 197.032 119.861 196.938 119.552 196.75C119.244 196.559 119.007 196.294 118.839 195.954C118.674 195.612 118.591 195.214 118.591 194.76C118.591 194.306 118.674 193.906 118.839 193.56C119.007 193.212 119.239 192.941 119.537 192.747C119.837 192.55 120.187 192.452 120.587 192.452C120.818 192.452 121.046 192.491 121.271 192.568C121.496 192.645 121.701 192.77 121.885 192.943C122.07 193.114 122.217 193.341 122.327 193.623C122.436 193.906 122.491 194.254 122.491 194.667V194.956H119.076V194.367H121.799C121.799 194.117 121.749 193.894 121.649 193.698C121.551 193.502 121.41 193.347 121.228 193.234C121.047 193.121 120.833 193.064 120.587 193.064C120.316 193.064 120.082 193.131 119.884 193.266C119.687 193.398 119.537 193.571 119.431 193.785C119.325 193.998 119.272 194.227 119.272 194.471V194.864C119.272 195.198 119.33 195.482 119.445 195.714C119.562 195.945 119.725 196.121 119.933 196.242C120.14 196.361 120.382 196.421 120.657 196.421C120.835 196.421 120.997 196.396 121.141 196.346C121.287 196.294 121.413 196.217 121.519 196.115C121.625 196.011 121.706 195.883 121.764 195.729L122.422 195.913C122.352 196.136 122.236 196.333 122.073 196.502C121.909 196.669 121.707 196.8 121.467 196.894C121.227 196.986 120.957 197.032 120.657 197.032ZM125.453 192.51V193.087H123.157V192.51H125.453ZM123.826 191.449H124.507V195.671C124.507 195.863 124.535 196.008 124.591 196.104C124.648 196.198 124.721 196.261 124.81 196.294C124.9 196.325 124.995 196.34 125.095 196.34C125.17 196.34 125.232 196.336 125.28 196.329C125.328 196.319 125.367 196.311 125.395 196.306L125.534 196.917C125.488 196.934 125.423 196.952 125.341 196.969C125.258 196.988 125.153 196.998 125.026 196.998C124.834 196.998 124.645 196.957 124.461 196.874C124.278 196.791 124.126 196.665 124.005 196.496C123.886 196.327 123.826 196.113 123.826 195.856V191.449ZM127.781 197.044C127.5 197.044 127.245 196.991 127.016 196.885C126.787 196.778 126.606 196.623 126.471 196.421C126.337 196.217 126.269 195.971 126.269 195.683C126.269 195.429 126.319 195.223 126.419 195.065C126.519 194.906 126.653 194.781 126.82 194.69C126.987 194.6 127.172 194.533 127.374 194.489C127.578 194.442 127.783 194.406 127.988 194.379C128.257 194.344 128.476 194.318 128.643 194.301C128.812 194.282 128.935 194.25 129.012 194.206C129.091 194.162 129.13 194.085 129.13 193.975V193.952C129.13 193.668 129.053 193.446 128.897 193.289C128.743 193.131 128.509 193.052 128.196 193.052C127.871 193.052 127.616 193.123 127.432 193.266C127.247 193.408 127.117 193.56 127.042 193.721L126.396 193.491C126.512 193.221 126.665 193.012 126.858 192.862C127.052 192.71 127.263 192.604 127.492 192.545C127.723 192.483 127.95 192.452 128.173 192.452C128.315 192.452 128.479 192.47 128.663 192.504C128.85 192.537 129.029 192.605 129.203 192.709C129.378 192.813 129.523 192.97 129.638 193.179C129.753 193.389 129.811 193.669 129.811 194.021V196.94H129.13V196.34H129.096C129.05 196.436 128.973 196.539 128.865 196.649C128.757 196.758 128.614 196.852 128.435 196.929C128.257 197.006 128.038 197.044 127.781 197.044ZM127.884 196.433C128.154 196.433 128.381 196.38 128.565 196.274C128.752 196.168 128.892 196.032 128.986 195.864C129.082 195.697 129.13 195.521 129.13 195.337V194.714C129.102 194.748 129.038 194.78 128.94 194.809C128.844 194.836 128.732 194.86 128.606 194.881C128.481 194.9 128.358 194.917 128.239 194.933C128.122 194.946 128.027 194.958 127.954 194.967C127.777 194.99 127.611 195.028 127.458 195.08C127.306 195.13 127.183 195.206 127.088 195.308C126.996 195.408 126.95 195.544 126.95 195.717C126.95 195.954 127.037 196.133 127.212 196.254C127.389 196.373 127.613 196.433 127.884 196.433ZM115.681 202.51V203.087H113.385V202.51H115.681ZM114.055 201.449H114.735V205.671C114.735 205.863 114.763 206.008 114.819 206.104C114.877 206.198 114.95 206.261 115.038 206.294C115.128 206.325 115.224 206.34 115.324 206.34C115.399 206.34 115.46 206.336 115.508 206.329C115.556 206.319 115.595 206.311 115.624 206.306L115.762 206.917C115.716 206.934 115.651 206.952 115.569 206.969C115.486 206.988 115.381 206.998 115.254 206.998C115.062 206.998 114.874 206.957 114.689 206.874C114.506 206.791 114.355 206.665 114.233 206.496C114.114 206.327 114.055 206.113 114.055 205.856V201.449ZM118.515 207.032C118.088 207.032 117.72 206.938 117.41 206.75C117.103 206.559 116.865 206.294 116.698 205.954C116.533 205.612 116.45 205.214 116.45 204.76C116.45 204.306 116.533 203.906 116.698 203.56C116.865 203.212 117.098 202.941 117.396 202.747C117.696 202.55 118.046 202.452 118.446 202.452C118.677 202.452 118.904 202.491 119.129 202.568C119.354 202.645 119.559 202.77 119.744 202.943C119.928 203.114 120.075 203.341 120.185 203.623C120.295 203.906 120.349 204.254 120.349 204.667V204.956H116.934V204.367H119.657C119.657 204.117 119.607 203.894 119.507 203.698C119.409 203.502 119.269 203.347 119.086 203.234C118.905 203.121 118.692 203.064 118.446 203.064C118.175 203.064 117.94 203.131 117.742 203.266C117.546 203.398 117.395 203.571 117.289 203.785C117.183 203.998 117.131 204.227 117.131 204.471V204.864C117.131 205.198 117.188 205.482 117.304 205.714C117.421 205.945 117.583 206.121 117.791 206.242C117.999 206.361 118.24 206.421 118.515 206.421C118.694 206.421 118.855 206.396 119 206.346C119.146 206.294 119.272 206.217 119.377 206.115C119.483 206.011 119.565 205.883 119.623 205.729L120.28 205.913C120.211 206.136 120.095 206.333 119.931 206.502C119.768 206.669 119.566 206.8 119.325 206.894C119.085 206.986 118.815 207.032 118.515 207.032ZM124.523 203.502L123.911 203.675C123.873 203.573 123.816 203.474 123.741 203.378C123.668 203.28 123.568 203.199 123.441 203.136C123.314 203.072 123.152 203.041 122.954 203.041C122.683 203.041 122.457 203.103 122.276 203.228C122.097 203.351 122.008 203.508 122.008 203.698C122.008 203.868 122.069 204.001 122.192 204.099C122.315 204.197 122.508 204.279 122.769 204.344L123.427 204.506C123.823 204.602 124.118 204.749 124.312 204.947C124.507 205.143 124.604 205.396 124.604 205.706C124.604 205.96 124.531 206.186 124.384 206.386C124.24 206.586 124.038 206.744 123.779 206.859C123.519 206.975 123.217 207.032 122.873 207.032C122.421 207.032 122.047 206.934 121.751 206.738C121.455 206.542 121.268 206.256 121.189 205.879L121.835 205.717C121.896 205.956 122.013 206.135 122.184 206.254C122.357 206.373 122.583 206.433 122.862 206.433C123.179 206.433 123.431 206.365 123.617 206.231C123.806 206.094 123.9 205.931 123.9 205.74C123.9 205.587 123.846 205.458 123.738 205.354C123.631 205.248 123.465 205.169 123.242 205.117L122.504 204.944C122.098 204.848 121.8 204.699 121.61 204.497C121.421 204.293 121.327 204.039 121.327 203.733C121.327 203.483 121.397 203.262 121.538 203.07C121.68 202.877 121.873 202.726 122.117 202.617C122.364 202.507 122.642 202.452 122.954 202.452C123.392 202.452 123.736 202.548 123.986 202.741C124.238 202.933 124.417 203.187 124.523 203.502ZM127.555 202.51V203.087H125.259V202.51H127.555ZM125.928 201.449H126.609V205.671C126.609 205.863 126.637 206.008 126.693 206.104C126.75 206.198 126.823 206.261 126.912 206.294C127.002 206.325 127.097 206.34 127.197 206.34C127.272 206.34 127.334 206.336 127.382 206.329C127.43 206.319 127.468 206.311 127.497 206.306L127.636 206.917C127.59 206.934 127.525 206.952 127.442 206.969C127.36 206.988 127.255 206.998 127.128 206.998C126.936 206.998 126.747 206.957 126.563 206.874C126.38 206.791 126.228 206.665 126.107 206.496C125.988 206.327 125.928 206.113 125.928 205.856V201.449Z" fill="#F7F7F7"/>
<path d="M235.298 192.101H146.062V193.704H235.298V192.101Z" fill="#28385E"/>
<path d="M200.832 192.101H146.062V193.704H200.832V192.101Z" fill="#FF4D6B"/>
<path d="M189.945 195.173H146.062V196.776H189.945V195.173Z" fill="#28385E"/>
<path d="M118.241 199.949H123.652L124.354 198.446H113.433V200.951H117.24L118.241 199.949Z" fill="#FF4D6B"/>
<path d="M129.455 198.43H128.854V199.031H129.455V198.43Z" fill="#F7F7F7"/>
<path d="M133.186 198.43H132.586V199.031H133.186V198.43Z" fill="#F7F7F7"/>
<path d="M136.919 198.43H136.318V199.031H136.919V198.43Z" fill="#F7F7F7"/>
<path d="M251.713 171.862C251.375 171.862 251.07 171.795 250.799 171.66C250.528 171.526 250.311 171.341 250.147 171.106C249.984 170.872 249.894 170.605 249.879 170.305H250.571C250.598 170.572 250.719 170.793 250.935 170.968C251.152 171.141 251.412 171.228 251.713 171.228C251.956 171.228 252.171 171.171 252.36 171.057C252.55 170.944 252.699 170.788 252.807 170.59C252.916 170.39 252.971 170.164 252.971 169.912C252.971 169.655 252.914 169.425 252.801 169.223C252.689 169.019 252.535 168.859 252.339 168.741C252.143 168.624 251.919 168.564 251.667 168.563C251.487 168.561 251.301 168.589 251.111 168.646C250.92 168.702 250.764 168.774 250.641 168.863L249.971 168.782L250.329 165.874H253.398V166.509H250.929L250.721 168.251H250.756C250.877 168.155 251.029 168.075 251.212 168.012C251.394 167.948 251.585 167.917 251.783 167.917C252.144 167.917 252.466 168.003 252.749 168.176C253.033 168.347 253.257 168.582 253.418 168.88C253.581 169.178 253.663 169.518 253.663 169.901C253.663 170.278 253.579 170.614 253.409 170.91C253.242 171.205 253.011 171.437 252.717 171.608C252.423 171.778 252.088 171.862 251.713 171.862ZM256.736 171.862C256.301 171.862 255.931 171.744 255.625 171.507C255.319 171.269 255.086 170.924 254.924 170.472C254.763 170.018 254.682 169.47 254.682 168.828C254.682 168.19 254.763 167.644 254.924 167.193C255.088 166.739 255.322 166.393 255.628 166.154C255.936 165.914 256.305 165.794 256.736 165.794C257.166 165.794 257.535 165.914 257.84 166.154C258.148 166.393 258.383 166.739 258.544 167.193C258.707 167.644 258.789 168.19 258.789 168.828C258.789 169.47 258.708 170.018 258.547 170.472C258.385 170.924 258.152 171.269 257.846 171.507C257.54 171.744 257.17 171.862 256.736 171.862ZM256.736 171.228C257.166 171.228 257.501 171.02 257.739 170.605C257.978 170.189 258.097 169.597 258.097 168.828C258.097 168.316 258.042 167.881 257.933 167.521C257.825 167.162 257.669 166.888 257.465 166.699C257.263 166.511 257.02 166.417 256.736 166.417C256.309 166.417 255.975 166.627 255.735 167.048C255.494 167.468 255.374 168.061 255.374 168.828C255.374 169.339 255.428 169.774 255.536 170.132C255.643 170.489 255.798 170.761 256 170.948C256.204 171.134 256.449 171.228 256.736 171.228ZM251.794 181.862C251.36 181.862 250.99 181.744 250.684 181.507C250.378 181.269 250.144 180.924 249.983 180.472C249.821 180.018 249.741 179.47 249.741 178.828C249.741 178.19 249.821 177.644 249.983 177.193C250.146 176.739 250.381 176.393 250.687 176.154C250.994 175.914 251.364 175.794 251.794 175.794C252.225 175.794 252.593 175.914 252.899 176.154C253.207 176.393 253.441 176.739 253.603 177.193C253.766 177.644 253.848 178.19 253.848 178.828C253.848 179.47 253.767 180.018 253.606 180.472C253.444 180.924 253.21 181.269 252.905 181.507C252.599 181.744 252.229 181.862 251.794 181.862ZM251.794 181.228C252.225 181.228 252.56 181.02 252.798 180.605C253.036 180.189 253.156 179.597 253.156 178.828C253.156 178.316 253.101 177.881 252.991 177.521C252.884 177.162 252.728 176.888 252.524 176.699C252.322 176.511 252.079 176.417 251.794 176.417C251.367 176.417 251.034 176.627 250.793 177.048C250.553 177.468 250.433 178.061 250.433 178.828C250.433 179.339 250.487 179.774 250.594 180.132C250.702 180.489 250.857 180.761 251.059 180.948C251.263 181.134 251.508 181.228 251.794 181.228Z" fill="#F7F7F7"/>
<path d="M241.711 196.91H240.374L238.237 192.101H239.573L241.711 196.91Z" fill="#28385E"/>
<path d="M245.183 196.91H243.848L241.71 192.101H243.046L245.183 196.91Z" fill="#28385E"/>
<path d="M248.657 196.91H247.321L245.184 192.101H246.519L248.657 196.91Z" fill="#28385E"/>
<path d="M252.13 196.91H250.794L248.656 192.101H249.992L252.13 196.91Z" fill="#28385E"/>
<path d="M255.537 196.91H254.2L252.063 192.101H253.399L255.537 196.91Z" fill="#28385E"/>
<path d="M249.737 31.3342H228.016V35.2248H249.737V31.3342Z" fill="white"/>
<path d="M260.767 38.2959H228.016V42.1857H260.767V38.2959Z" fill="white"/>
<path d="M268.404 45.2576H228.016V49.1482H268.404V45.2576Z" fill="white"/>
<path d="M243.459 52.2193H228.016V56.1099H243.459V52.2193Z" fill="white"/>
<path d="M21.8352 78.2204H0.114014V82.111H21.8352V78.2204Z" fill="#2889DB"/>
<path d="M32.8652 85.1821H0.114014V89.0719H32.8652V85.1821Z" fill="#A9CCEA"/>
<path d="M40.502 92.1431H0.114014V96.0337H40.502V92.1431Z" fill="#A9CCEA"/>
<path d="M15.5564 99.1056H0.114014V102.996H15.5564V99.1056Z" fill="#A9CCEA"/>
<path d="M146.886 214.828H54.3008V226.847H146.886V214.828Z" stroke="#289DF2" stroke-width="1.1276" stroke-miterlimit="10"/>
<path d="M103.412 120.166H98.9607V147.467H103.412V120.166Z" stroke="#289DF2" stroke-width="1.1276" stroke-miterlimit="10"/>
<path d="M282.193 196.961C290.558 195.612 296.245 187.738 294.896 179.373C293.547 171.008 285.673 165.32 277.308 166.669C268.944 168.018 263.257 175.893 264.606 184.257C265.955 192.622 273.829 198.31 282.193 196.961Z" fill="#FF4D6B"/>
<path d="M278.658 180.381L272.565 182.613L278.658 184.828V187.116L269.948 183.803V181.424L278.658 178.112V180.381Z" fill="#F9FBFC"/>
<path d="M280.648 178.111L289.359 181.423V183.802L280.648 187.115V184.827L286.741 182.612L280.648 180.38V178.111Z" fill="#F9FBFC"/>
<path d="M305.349 194.353C305.349 195.459 304.452 196.356 303.346 196.356C302.24 196.356 301.343 195.459 301.343 194.353C301.343 193.247 302.24 192.35 303.346 192.35C304.452 192.35 305.349 193.247 305.349 194.353Z" stroke="#FF4D6B" stroke-width="1.1276" stroke-miterlimit="10"/>
<path d="M121.959 49.243H49.4043V56.8102H121.959V49.243Z" stroke="#289DF2" stroke-width="1.1276" stroke-miterlimit="10"/>
<path d="M97.477 51.6912H52.5195V53.9167H97.477V51.6912Z" fill="#289DF2"/>
<path d="M164.245 108.296H111.127V110.967H164.245V108.296Z" fill="#284D89"/>
<path d="M135.201 108.296H111.127V110.967H135.201V108.296Z" fill="#2889DB"/>
<path d="M164.245 115.195H111.127V117.866H164.245V115.195Z" fill="#284D89"/>
<path d="M148.11 115.195H111.127V117.866H148.11V115.195Z" fill="#FF4D6B"/>
<path d="M164.245 122.095H111.127V124.766H164.245V122.095Z" fill="#284D89"/>
<path d="M121.958 122.095H111.127V124.766H121.958V122.095Z" fill="#1AE5FF"/>
<path d="M112.389 103.622H111.35V104.661H112.389V103.622Z" fill="#284D89"/>
<path d="M115.95 103.622H114.911V104.661H115.95V103.622Z" fill="#284D89"/>
<path d="M119.511 103.622H118.472V104.661H119.511V103.622Z" fill="#284D89"/>
<path d="M211.922 139.999H210.192V141.73H211.922V139.999Z" fill="white"/>
<path d="M217.859 139.999H216.127V141.73H217.859V139.999Z" fill="white"/>
<path d="M223.793 139.999H222.062V141.73H223.793V139.999Z" fill="white"/>
<path d="M238.423 71.2121H235.177V74.4577H238.423V71.2121Z" fill="white"/>
<path d="M249.551 71.2121H246.305V74.4577H249.551V71.2121Z" fill="white"/>
<path d="M260.679 71.2121H257.433V74.4577H260.679V71.2121Z" fill="white"/>
<path d="M192.427 205.342H189.182V208.587H192.427V205.342Z" fill="white"/>
<path d="M203.555 205.342H200.31V208.587H203.555V205.342Z" fill="white"/>
<path d="M214.683 205.342H211.438V208.587H214.683V205.342Z" fill="white"/>
<path d="M54.7452 115.467H53.0146V117.198H54.7452V115.467Z" fill="white"/>
<path d="M60.6806 115.467H58.9492V117.198H60.6806V115.467Z" fill="white"/>
<path d="M66.6159 115.467H64.8845V117.198H66.6159V115.467Z" fill="white"/>
<path d="M295.705 113.341H266.921V116.16H295.705V113.341Z" fill="white"/>
<path d="M275.463 118.311H266.921V121.131H275.463V118.311Z" fill="#287DD1"/>
<path d="M34.7149 119.127H28.4835V112.896H22.6965V119.127H16.4651V124.914H22.6965V131.145H28.4835V124.914H34.7149V119.127Z" fill="#1AE5FF"/>
<path d="M18.0393 136.487H14.2395V132.687H10.7112V136.487H6.91064V140.015H10.7112V143.815H14.2395V140.015H18.0393V136.487Z" fill="#2889DB"/>
<path d="M122.043 133.169C116.661 133.169 112.297 137.532 112.297 142.914C112.297 148.297 116.661 152.66 122.043 152.66C127.426 152.66 131.788 148.296 131.788 142.914C131.788 137.532 127.425 133.169 122.043 133.169ZM122.043 147.993C119.238 147.993 116.965 145.719 116.965 142.914C116.965 140.109 119.239 137.836 122.043 137.836C124.848 137.836 127.122 140.109 127.122 142.914C127.122 145.719 124.847 147.993 122.043 147.993Z" fill="#C274FB"/>
<path d="M115.409 141.954C116.314 141.954 117.108 141.415 117.52 140.608C118.359 138.963 120.069 137.836 122.043 137.836C124.017 137.836 125.727 138.963 126.567 140.608C126.978 141.415 127.772 141.954 128.678 141.954C130.383 141.954 131.55 140.167 130.8 138.635C129.215 135.398 125.89 133.169 122.044 133.169C118.197 133.169 114.872 135.398 113.287 138.635C112.537 140.167 113.703 141.954 115.409 141.954Z" fill="#289DF2"/>
<path d="M138.41 142.914C138.41 148.296 142.774 152.66 148.156 152.66C153.539 152.66 157.901 148.296 157.901 142.914C157.901 137.532 153.538 133.169 148.156 133.169C142.774 133.169 138.41 137.532 138.41 142.914ZM153.235 142.914C153.235 145.719 150.961 147.992 148.156 147.992C145.351 147.992 143.077 145.719 143.077 142.914C143.077 140.109 145.351 137.836 148.156 137.836C150.961 137.836 153.235 140.109 153.235 142.914Z" fill="#284D89"/>
<path d="M147.196 149.548C147.196 148.643 146.657 147.849 145.851 147.437C144.205 146.598 143.078 144.888 143.078 142.914C143.078 140.94 144.205 139.231 145.851 138.391C146.657 137.979 147.196 137.185 147.196 136.279C147.196 134.574 145.409 133.407 143.877 134.157C140.64 135.742 138.41 139.067 138.41 142.914C138.41 146.761 140.64 150.086 143.877 151.671C145.408 152.421 147.196 151.255 147.196 149.548Z" fill="#FF4D6B"/>
<path d="M94.2125 104.439H76.408V147.171H94.2125V104.439Z" stroke="#289DF2" stroke-width="1.1276" stroke-miterlimit="10"/>
<path d="M84.1237 112.673H78.9304V114.208H84.1237V112.673Z" fill="#1AE5FF"/>
<path d="M84.1237 116.097H78.9304V117.632H84.1237V116.097Z" fill="#1AE5FF"/>
<path d="M84.1237 119.521H78.9304V121.056H84.1237V119.521Z" fill="#1AE5FF"/>
<path d="M84.1237 137.326H78.9304V138.861H84.1237V137.326Z" fill="#1AE5FF"/>
<path d="M86.4977 124.543H78.9304V126.078H86.4977V124.543Z" fill="#1AE5FF"/>
<path d="M86.4977 127.967H78.9304V129.502H86.4977V127.967Z" fill="white"/>
<path d="M86.4977 131.391H78.9304V132.926H86.4977V131.391Z" fill="white"/>
<path d="M35.1595 157.853H12.6069V180.406H35.1595V157.853Z" fill="#289DF2"/>
<path d="M23.2904 163.194H0.737793V185.747H23.2904V163.194Z" stroke="#289DF2" stroke-width="1.1276" stroke-miterlimit="10"/>
<path d="M290.364 223.138H280.868V232.634H290.364V223.138Z" stroke="#289DF2" stroke-width="1.1276" stroke-miterlimit="10"/>
<path d="M166.916 208.151H174.928L179.379 212.603H225.672L232.794 205.481H257.721" stroke="white" stroke-width="1.1276" stroke-miterlimit="10"/>
<path d="M164.579 210.6C165.869 210.6 166.916 209.553 166.916 208.263C166.916 206.972 165.869 205.926 164.579 205.926C163.288 205.926 162.242 206.972 162.242 208.263C162.242 209.553 163.288 210.6 164.579 210.6Z" stroke="white" stroke-width="1.1276" stroke-miterlimit="10"/>
<path d="M260.132 207.706C261.422 207.706 262.468 206.66 262.468 205.369C262.468 204.079 261.422 203.032 260.132 203.032C258.841 203.032 257.795 204.079 257.795 205.369C257.795 206.66 258.841 207.706 260.132 207.706Z" stroke="white" stroke-width="1.1276" stroke-miterlimit="10"/>
<path d="M291.55 82.4789C291.55 84.1179 290.221 85.4466 288.582 85.4466C286.943 85.4466 285.615 84.1179 285.615 82.4789C285.615 80.8399 286.943 79.5112 288.582 79.5112C290.221 79.5112 291.55 80.8399 291.55 82.4789Z" fill="#289DF2"/>
<path d="M17.3551 198.211C17.3551 199.85 16.0263 201.179 14.3874 201.179C12.7484 201.179 11.4197 199.85 11.4197 198.211C11.4197 196.572 12.7484 195.243 14.3874 195.243C16.0271 195.243 17.3551 196.572 17.3551 198.211Z" fill="#FF4D6B"/>
<path d="M31.0059 209.19C31.0059 212.059 28.6809 214.384 25.8126 214.384C22.9444 214.384 20.6194 212.059 20.6194 209.19C20.6194 206.322 22.9444 203.997 25.8126 203.997C28.6809 203.997 31.0059 206.322 31.0059 209.19Z" fill="#FF4D6B"/>
<path d="M207.867 226.698H187.095V231.446H207.867V226.698Z" stroke="#289DF2" stroke-width="1.1276" stroke-miterlimit="10"/>
<path d="M232.646 235.6H187.095V240.348H232.646V235.6Z" stroke="#289DF2" stroke-width="1.1276" stroke-miterlimit="10"/>
<path d="M59.8422 231.246L54.8076 236.28" stroke="#F7FBFF" stroke-width="1.1276" stroke-miterlimit="10" stroke-linecap="round" stroke-linejoin="round"/>
<path d="M64.6825 231.246L59.6479 236.28" stroke="#F7FBFF" stroke-width="1.1276" stroke-miterlimit="10" stroke-linecap="round" stroke-linejoin="round"/>
<path d="M69.5236 231.246L64.489 236.28" stroke="#F7FBFF" stroke-width="1.1276" stroke-miterlimit="10" stroke-linecap="round" stroke-linejoin="round"/>
<path d="M74.3642 231.246L69.3296 236.28" stroke="#F7FBFF" stroke-width="1.1276" stroke-miterlimit="10" stroke-linecap="round" stroke-linejoin="round"/>
<path d="M79.2052 231.246L74.1707 236.28" stroke="#F7FBFF" stroke-width="1.1276" stroke-miterlimit="10" stroke-linecap="round" stroke-linejoin="round"/>
</svg>
