<svg width="371" height="319" viewBox="0 0 371 319" fill="none" xmlns="http://www.w3.org/2000/svg">
<g opacity="0.2">
<path d="M90.8098 164.239L85.4888 161.166L90.8098 158.094L96.1308 161.166L90.8098 164.239Z" fill="#AF51F3" fill-opacity="0.43"/>
<path opacity="0.1" d="M101.453 170.383L96.1309 167.311L101.453 164.239L106.774 167.311L101.453 170.383Z" fill="#AF51F3" fill-opacity="0.43"/>
<path opacity="0.4" d="M112.096 176.528L106.775 173.456L112.096 170.383L117.418 173.456L112.096 176.528Z" fill="#AF51F3" fill-opacity="0.43"/>
<path d="M122.739 182.673L117.418 179.6L122.739 176.528L128.06 179.601L122.739 182.673Z" fill="#AF51F3" fill-opacity="0.43"/>
<path opacity="0.4" d="M133.382 188.818L128.061 185.745L133.382 182.673L138.704 185.745L133.382 188.818Z" fill="#AF51F3" fill-opacity="0.43"/>
<path d="M144.025 194.962L138.704 191.89L144.025 188.818L149.347 191.89L144.025 194.962Z" fill="#AF51F3" fill-opacity="0.43"/>
<path d="M154.668 201.107L149.347 198.035L154.668 194.962L159.99 198.035L154.668 201.107Z" fill="#AF51F3" fill-opacity="0.43"/>
<path d="M165.311 207.252L159.99 204.18L165.311 201.107L170.633 204.18L165.311 207.252Z" fill="#AF51F3" fill-opacity="0.43"/>
<path opacity="0.1" d="M175.954 213.397L170.633 210.324L175.954 207.252L181.276 210.324L175.954 213.397Z" fill="#AF51F3" fill-opacity="0.43"/>
<path d="M80.1238 170.408L74.8018 167.336L80.1238 164.264L85.4448 167.336L80.1238 170.408Z" fill="#AF51F3" fill-opacity="0.43"/>
<path d="M90.7668 176.553L85.4448 173.481L90.7668 170.408L96.0878 173.481L90.7668 176.553Z" fill="#AF51F3" fill-opacity="0.43"/>
<path d="M101.41 182.698L96.0879 179.625L101.41 176.553L106.731 179.626L101.41 182.698Z" fill="#AF51F3" fill-opacity="0.43"/>
<path d="M112.053 188.842L106.731 185.77L112.053 182.698L117.374 185.77L112.053 188.842Z" fill="#AF51F3" fill-opacity="0.43"/>
<path d="M122.696 194.987L117.375 191.915L122.696 188.843L128.017 191.915L122.696 194.987Z" fill="#AF51F3" fill-opacity="0.43"/>
<path d="M133.339 201.132L128.018 198.06L133.339 194.987L138.66 198.06L133.339 201.132Z" fill="#AF51F3" fill-opacity="0.43"/>
<path d="M143.982 207.277L138.661 204.204L143.982 201.132L149.304 204.204L143.982 207.277Z" fill="#AF51F3" fill-opacity="0.43"/>
<path d="M154.625 213.422L149.304 210.349L154.625 207.277L159.947 210.349L154.625 213.422Z" fill="#AF51F3" fill-opacity="0.43"/>
<path d="M165.268 219.566L159.947 216.494L165.268 213.422L170.59 216.494L165.268 219.566Z" fill="#AF51F3" fill-opacity="0.43"/>
<path d="M69.4382 176.578L64.1162 173.505L69.4382 170.433L74.7592 173.506L69.4382 176.578Z" fill="#AF51F3" fill-opacity="0.43"/>
<path d="M80.0813 182.723L74.7593 179.65L80.0813 176.578L85.4023 179.65L80.0813 182.723Z" fill="#AF51F3" fill-opacity="0.43"/>
<path d="M90.7243 188.867L85.4023 185.795L90.7243 182.723L96.0453 185.795L90.7243 188.867Z" fill="#AF51F3" fill-opacity="0.43"/>
<path opacity="0.1" d="M101.367 195.012L96.0454 191.94L101.367 188.867L106.688 191.94L101.367 195.012Z" fill="#AF51F3" fill-opacity="0.43"/>
<path opacity="0.4" d="M112.01 201.157L106.688 198.085L112.01 195.012L117.331 198.085L112.01 201.157Z" fill="#AF51F3" fill-opacity="0.43"/>
<path opacity="0.4" d="M122.653 207.302L117.332 204.229L122.653 201.157L127.974 204.229L122.653 207.302Z" fill="#AF51F3" fill-opacity="0.43"/>
<path d="M133.296 213.446L127.974 210.374L133.296 207.302L138.617 210.374L133.296 213.446Z" fill="#AF51F3" fill-opacity="0.43"/>
<path d="M143.939 219.591L138.618 216.519L143.939 213.447L149.26 216.519L143.939 219.591Z" fill="#AF51F3" fill-opacity="0.43"/>
<path d="M154.582 225.736L149.261 222.664L154.582 219.591L159.903 222.664L154.582 225.736Z" fill="#AF51F3" fill-opacity="0.43"/>
<path opacity="0.4" d="M58.7522 182.747L53.4302 179.675L58.7522 176.603L64.0732 179.675L58.7522 182.747Z" fill="#AF51F3" fill-opacity="0.43"/>
<path opacity="0.4" d="M69.3952 188.892L64.0732 185.82L69.3952 182.748L74.7162 185.82L69.3952 188.892Z" fill="#AF51F3" fill-opacity="0.43"/>
<path opacity="0.1" d="M80.0383 195.037L74.7163 191.965L80.0383 188.892L85.3593 191.965L80.0383 195.037Z" fill="#AF51F3" fill-opacity="0.43"/>
<path d="M90.6814 201.182L85.3594 198.109L90.6814 195.037L96.0024 198.109L90.6814 201.182Z" fill="#AF51F3" fill-opacity="0.43"/>
<path d="M101.324 207.327L96.002 204.254L101.324 201.182L106.645 204.254L101.324 207.327Z" fill="#AF51F3" fill-opacity="0.43"/>
<path d="M111.967 213.471L106.645 210.399L111.967 207.327L117.288 210.399L111.967 213.471Z" fill="#AF51F3" fill-opacity="0.43"/>
<path opacity="0.4" d="M122.61 219.616L117.288 216.544L122.61 213.471L127.931 216.544L122.61 219.616Z" fill="#AF51F3" fill-opacity="0.43"/>
<path d="M133.253 225.761L127.931 222.689L133.253 219.616L138.574 222.689L133.253 225.761Z" fill="#AF51F3" fill-opacity="0.43"/>
<path d="M143.896 231.906L138.575 228.833L143.896 225.761L149.217 228.833L143.896 231.906Z" fill="#AF51F3" fill-opacity="0.43"/>
<path d="M48.0651 188.917L42.7441 185.845L48.0651 182.773L53.3871 185.845L48.0651 188.917Z" fill="#AF51F3" fill-opacity="0.43"/>
<path d="M58.7092 195.062L53.3872 191.99L58.7082 188.917L64.0302 191.99L58.7092 195.062Z" fill="#AF51F3" fill-opacity="0.43"/>
<path d="M69.3523 201.207L64.0303 198.134L69.3513 195.062L74.6733 198.134L69.3523 201.207Z" fill="#AF51F3" fill-opacity="0.43"/>
<path d="M79.9953 207.351L74.6733 204.279L79.9943 201.207L85.3163 204.279L79.9953 207.351Z" fill="#AF51F3" fill-opacity="0.43"/>
<path d="M90.6379 213.496L85.3159 210.424L90.6369 207.352L95.9589 210.424L90.6379 213.496Z" fill="#AF51F3" fill-opacity="0.43"/>
<path d="M101.281 219.641L95.959 216.569L101.281 213.496L106.602 216.569L101.281 219.641Z" fill="#AF51F3" fill-opacity="0.43"/>
<path d="M111.924 225.786L106.602 222.713L111.924 219.641L117.245 222.713L111.924 225.786Z" fill="#AF51F3" fill-opacity="0.43"/>
<path d="M122.567 231.931L117.245 228.858L122.567 225.786L127.888 228.858L122.567 231.931Z" fill="#AF51F3" fill-opacity="0.43"/>
<path d="M133.21 238.075L127.888 235.003L133.21 231.931L138.531 235.003L133.21 238.075Z" fill="#AF51F3" fill-opacity="0.43"/>
<path d="M37.3791 195.087L32.0581 192.014L37.3791 188.942L42.7011 192.014L37.3791 195.087Z" fill="#AF51F3" fill-opacity="0.43"/>
<path d="M48.0222 201.232L42.7012 198.159L48.0222 195.087L53.3442 198.159L48.0222 201.232Z" fill="#AF51F3" fill-opacity="0.43"/>
<path opacity="0.4" d="M58.6652 207.376L53.3442 204.304L58.6652 201.232L63.9872 204.304L58.6652 207.376Z" fill="#AF51F3" fill-opacity="0.43"/>
<path d="M69.3093 213.521L63.9873 210.449L69.3083 207.376L74.6303 210.449L69.3093 213.521Z" fill="#AF51F3" fill-opacity="0.43"/>
<path opacity="0.1" d="M79.9519 219.666L74.6299 216.594L79.9509 213.521L85.2729 216.594L79.9519 219.666Z" fill="#AF51F3" fill-opacity="0.43"/>
<path d="M90.5949 225.811L85.2729 222.738L90.5939 219.666L95.9159 222.738L90.5949 225.811Z" fill="#AF51F3" fill-opacity="0.43"/>
<path d="M101.238 231.955L95.916 228.883L101.237 225.811L106.559 228.883L101.238 231.955Z" fill="#AF51F3" fill-opacity="0.43"/>
<path d="M111.881 238.1L106.559 235.028L111.881 231.956L117.202 235.028L111.881 238.1Z" fill="#AF51F3" fill-opacity="0.43"/>
<path d="M122.524 244.245L117.202 241.172L122.524 238.1L127.845 241.173L122.524 244.245Z" fill="#AF51F3" fill-opacity="0.43"/>
<path d="M26.6931 201.256L21.3721 198.184L26.6931 195.112L32.0151 198.184L26.6931 201.256Z" fill="#AF51F3" fill-opacity="0.43"/>
<path d="M37.3361 207.401L32.0151 204.329L37.3361 201.257L42.6581 204.329L37.3361 207.401Z" fill="#AF51F3" fill-opacity="0.43"/>
<path opacity="0.4" d="M47.9792 213.546L42.6582 210.474L47.9792 207.401L53.3012 210.474L47.9792 213.546Z" fill="#AF51F3" fill-opacity="0.43"/>
<path d="M58.6223 219.691L53.3013 216.618L58.6223 213.546L63.9443 216.618L58.6223 219.691Z" fill="#AF51F3" fill-opacity="0.43"/>
<path d="M69.2648 225.836L63.9438 222.763L69.2648 219.691L74.5868 222.763L69.2648 225.836Z" fill="#AF51F3" fill-opacity="0.43"/>
<path opacity="0.1" d="M79.9089 231.98L74.5869 228.908L79.9079 225.836L85.2299 228.908L79.9089 231.98Z" fill="#AF51F3" fill-opacity="0.43"/>
<path opacity="0.4" d="M90.551 238.125L85.23 235.053L90.551 231.98L95.873 235.053L90.551 238.125Z" fill="#AF51F3" fill-opacity="0.43"/>
<path d="M101.195 244.27L95.873 241.197L101.194 238.125L106.516 241.198L101.195 244.27Z" fill="#AF51F3" fill-opacity="0.43"/>
<path opacity="0.1" d="M111.838 250.414L106.516 247.342L111.838 244.27L117.159 247.342L111.838 250.414Z" fill="#AF51F3" fill-opacity="0.43"/>
<path d="M16.007 207.426L10.686 204.354L16.007 201.281L21.328 204.354L16.007 207.426Z" fill="#AF51F3" fill-opacity="0.43"/>
<path opacity="0.4" d="M26.6501 213.571L21.3291 210.498L26.6501 207.426L31.9711 210.499L26.6501 213.571Z" fill="#AF51F3" fill-opacity="0.43"/>
<path d="M37.2932 219.716L31.9722 216.643L37.2932 213.571L42.6152 216.643L37.2932 219.716Z" fill="#AF51F3" fill-opacity="0.43"/>
<path d="M47.9362 225.86L42.6152 222.788L47.9362 219.716L53.2582 222.788L47.9362 225.86Z" fill="#AF51F3" fill-opacity="0.43"/>
<path d="M58.5788 232.005L53.2578 228.933L58.5788 225.86L63.9008 228.933L58.5788 232.005Z" fill="#AF51F3" fill-opacity="0.43"/>
<path d="M69.2219 238.15L63.9009 235.078L69.2219 232.005L74.5439 235.078L69.2219 238.15Z" fill="#AF51F3" fill-opacity="0.43"/>
<path d="M79.8649 244.295L74.5439 241.222L79.8649 238.15L85.1869 241.222L79.8649 244.295Z" fill="#AF51F3" fill-opacity="0.43"/>
<path opacity="0.4" d="M90.508 250.439L85.187 247.367L90.508 244.295L95.83 247.367L90.508 250.439Z" fill="#AF51F3" fill-opacity="0.43"/>
<path d="M101.151 256.584L95.8301 253.512L101.151 250.44L106.473 253.512L101.151 256.584Z" fill="#AF51F3" fill-opacity="0.43"/>
<path d="M5.321 213.596L0 210.523L5.321 207.451L10.642 210.523L5.321 213.596Z" fill="#AF51F3" fill-opacity="0.43"/>
<path opacity="0.1" d="M15.9641 219.741L10.6421 216.668L15.9641 213.596L21.2851 216.668L15.9641 219.741Z" fill="#AF51F3" fill-opacity="0.43"/>
<path d="M26.6071 225.885L21.2861 222.813L26.6071 219.741L31.9281 222.813L26.6071 225.885Z" fill="#AF51F3" fill-opacity="0.43"/>
<path d="M37.2502 232.03L31.9292 228.958L37.2502 225.885L42.5722 228.958L37.2502 232.03Z" fill="#AF51F3" fill-opacity="0.43"/>
<path d="M47.8928 238.175L42.5718 235.102L47.8928 232.03L53.2148 235.103L47.8928 238.175Z" fill="#AF51F3" fill-opacity="0.43"/>
<path d="M58.5359 244.319L53.2148 241.247L58.5359 238.175L63.8578 241.247L58.5359 244.319Z" fill="#AF51F3" fill-opacity="0.43"/>
<path opacity="0.4" d="M69.1789 250.464L63.8579 247.392L69.1789 244.32L74.5009 247.392L69.1789 250.464Z" fill="#AF51F3" fill-opacity="0.43"/>
<path d="M79.822 256.609L74.501 253.537L79.822 250.464L85.144 253.537L79.822 256.609Z" fill="#AF51F3" fill-opacity="0.43"/>
<path d="M90.465 262.754L85.144 259.681L90.465 256.609L95.787 259.681L90.465 262.754Z" fill="#AF51F3" fill-opacity="0.43"/>
<path d="M280.013 164.239L274.691 161.166L280.013 158.094L285.334 161.166L280.013 164.239Z" fill="#AF51F3" fill-opacity="0.43"/>
<path opacity="0.1" d="M290.656 170.383L285.335 167.311L290.656 164.239L295.977 167.311L290.656 170.383Z" fill="#AF51F3" fill-opacity="0.43"/>
<path opacity="0.4" d="M301.299 176.528L295.977 173.456L301.299 170.383L306.62 173.456L301.299 176.528Z" fill="#AF51F3" fill-opacity="0.43"/>
<path d="M311.942 182.673L306.62 179.6L311.942 176.528L317.263 179.601L311.942 182.673Z" fill="#AF51F3" fill-opacity="0.43"/>
<path opacity="0.4" d="M322.585 188.818L317.264 185.745L322.585 182.673L327.907 185.745L322.585 188.818Z" fill="#AF51F3" fill-opacity="0.43"/>
<path d="M333.228 194.962L327.907 191.89L333.228 188.818L338.55 191.89L333.228 194.962Z" fill="#AF51F3" fill-opacity="0.43"/>
<path d="M343.871 201.107L338.55 198.035L343.871 194.962L349.193 198.035L343.871 201.107Z" fill="#AF51F3" fill-opacity="0.43"/>
<path d="M354.514 207.252L349.193 204.18L354.514 201.107L359.836 204.18L354.514 207.252Z" fill="#AF51F3" fill-opacity="0.43"/>
<path opacity="0.1" d="M365.157 213.397L359.836 210.324L365.157 207.252L370.479 210.324L365.157 213.397Z" fill="#AF51F3" fill-opacity="0.43"/>
<path d="M269.327 170.408L264.005 167.336L269.327 164.264L274.648 167.336L269.327 170.408Z" fill="#AF51F3" fill-opacity="0.43"/>
<path d="M279.97 176.553L274.648 173.481L279.97 170.408L285.291 173.481L279.97 176.553Z" fill="#AF51F3" fill-opacity="0.43"/>
<path d="M290.613 182.698L285.291 179.625L290.613 176.553L295.934 179.626L290.613 182.698Z" fill="#AF51F3" fill-opacity="0.43"/>
<path d="M301.256 188.842L295.934 185.77L301.256 182.698L306.577 185.77L301.256 188.842Z" fill="#AF51F3" fill-opacity="0.43"/>
<path d="M311.899 194.987L306.577 191.915L311.899 188.843L317.22 191.915L311.899 194.987Z" fill="#AF51F3" fill-opacity="0.43"/>
<path d="M322.542 201.132L317.22 198.06L322.542 194.987L327.863 198.06L322.542 201.132Z" fill="#AF51F3" fill-opacity="0.43"/>
<path d="M333.185 207.277L327.864 204.204L333.185 201.132L338.506 204.204L333.185 207.277Z" fill="#AF51F3" fill-opacity="0.43"/>
<path d="M343.828 213.422L338.507 210.349L343.828 207.277L349.15 210.349L343.828 213.422Z" fill="#AF51F3" fill-opacity="0.43"/>
<path d="M354.471 219.566L349.15 216.494L354.471 213.422L359.792 216.494L354.471 219.566Z" fill="#AF51F3" fill-opacity="0.43"/>
<path d="M258.641 176.578L253.319 173.505L258.641 170.433L263.962 173.506L258.641 176.578Z" fill="#AF51F3" fill-opacity="0.43"/>
<path d="M269.284 182.723L263.962 179.65L269.284 176.578L274.605 179.65L269.284 182.723Z" fill="#AF51F3" fill-opacity="0.43"/>
<path d="M279.927 188.867L274.605 185.795L279.927 182.723L285.248 185.795L279.927 188.867Z" fill="#AF51F3" fill-opacity="0.43"/>
<path opacity="0.1" d="M290.57 195.012L285.248 191.94L290.57 188.867L295.891 191.94L290.57 195.012Z" fill="#AF51F3" fill-opacity="0.43"/>
<path opacity="0.4" d="M301.213 201.157L295.891 198.085L301.213 195.012L306.534 198.085L301.213 201.157Z" fill="#AF51F3" fill-opacity="0.43"/>
<path opacity="0.4" d="M311.856 207.302L306.534 204.229L311.856 201.157L317.177 204.229L311.856 207.302Z" fill="#AF51F3" fill-opacity="0.43"/>
<path d="M322.499 213.446L317.177 210.374L322.499 207.302L327.82 210.374L322.499 213.446Z" fill="#AF51F3" fill-opacity="0.43"/>
<path d="M333.142 219.591L327.821 216.519L333.142 213.447L338.463 216.519L333.142 219.591Z" fill="#AF51F3" fill-opacity="0.43"/>
<path d="M343.785 225.736L338.464 222.664L343.785 219.591L349.106 222.664L343.785 225.736Z" fill="#AF51F3" fill-opacity="0.43"/>
<path opacity="0.4" d="M247.955 182.747L242.633 179.675L247.954 176.603L253.276 179.675L247.955 182.747Z" fill="#AF51F3" fill-opacity="0.43"/>
<path opacity="0.4" d="M258.598 188.892L253.276 185.82L258.597 182.748L263.919 185.82L258.598 188.892Z" fill="#AF51F3" fill-opacity="0.43"/>
<path opacity="0.1" d="M269.241 195.037L263.919 191.965L269.24 188.892L274.562 191.965L269.241 195.037Z" fill="#AF51F3" fill-opacity="0.43"/>
<path d="M279.884 201.182L274.562 198.109L279.883 195.037L285.205 198.109L279.884 201.182Z" fill="#AF51F3" fill-opacity="0.43"/>
<path d="M290.527 207.327L285.205 204.254L290.527 201.182L295.848 204.254L290.527 207.327Z" fill="#AF51F3" fill-opacity="0.43"/>
<path d="M301.17 213.471L295.848 210.399L301.17 207.327L306.491 210.399L301.17 213.471Z" fill="#AF51F3" fill-opacity="0.43"/>
<path opacity="0.4" d="M311.813 219.616L306.491 216.544L311.813 213.471L317.134 216.544L311.813 219.616Z" fill="#AF51F3" fill-opacity="0.43"/>
<path d="M322.456 225.761L317.134 222.689L322.456 219.616L327.777 222.689L322.456 225.761Z" fill="#AF51F3" fill-opacity="0.43"/>
<path d="M333.099 231.906L327.777 228.833L333.099 225.761L338.42 228.833L333.099 231.906Z" fill="#AF51F3" fill-opacity="0.43"/>
<path d="M237.268 188.917L231.947 185.845L237.268 182.773L242.59 185.845L237.268 188.917Z" fill="#AF51F3" fill-opacity="0.43"/>
<path d="M247.912 195.062L242.59 191.99L247.911 188.917L253.233 191.99L247.912 195.062Z" fill="#AF51F3" fill-opacity="0.43"/>
<path d="M258.555 201.207L253.233 198.134L258.554 195.062L263.876 198.134L258.555 201.207Z" fill="#AF51F3" fill-opacity="0.43"/>
<path d="M269.198 207.351L263.876 204.279L269.197 201.207L274.519 204.279L269.198 207.351Z" fill="#AF51F3" fill-opacity="0.43"/>
<path d="M279.841 213.496L274.519 210.424L279.84 207.352L285.162 210.424L279.841 213.496Z" fill="#AF51F3" fill-opacity="0.43"/>
<path d="M290.484 219.641L285.162 216.569L290.483 213.496L295.805 216.569L290.484 219.641Z" fill="#AF51F3" fill-opacity="0.43"/>
<path d="M301.127 225.786L295.805 222.713L301.127 219.641L306.448 222.713L301.127 225.786Z" fill="#AF51F3" fill-opacity="0.43"/>
<path d="M311.77 231.931L306.448 228.858L311.77 225.786L317.091 228.858L311.77 231.931Z" fill="#AF51F3" fill-opacity="0.43"/>
<path d="M322.413 238.075L317.091 235.003L322.413 231.931L327.734 235.003L322.413 238.075Z" fill="#AF51F3" fill-opacity="0.43"/>
<path d="M226.582 195.087L221.261 192.014L226.582 188.942L231.904 192.014L226.582 195.087Z" fill="#AF51F3" fill-opacity="0.43"/>
<path d="M237.225 201.232L231.904 198.159L237.225 195.087L242.547 198.159L237.225 201.232Z" fill="#AF51F3" fill-opacity="0.43"/>
<path opacity="0.4" d="M247.868 207.376L242.547 204.304L247.868 201.232L253.19 204.304L247.868 207.376Z" fill="#AF51F3" fill-opacity="0.43"/>
<path d="M258.511 213.521L253.19 210.449L258.511 207.376L263.833 210.449L258.511 213.521Z" fill="#AF51F3" fill-opacity="0.43"/>
<path opacity="0.1" d="M269.154 219.666L263.833 216.594L269.154 213.521L274.476 216.594L269.154 219.666Z" fill="#AF51F3" fill-opacity="0.43"/>
<path d="M279.797 225.811L274.476 222.738L279.797 219.666L285.119 222.738L279.797 225.811Z" fill="#AF51F3" fill-opacity="0.43"/>
<path d="M290.441 231.955L285.119 228.883L290.44 225.811L295.762 228.883L290.441 231.955Z" fill="#AF51F3" fill-opacity="0.43"/>
<path d="M301.084 238.1L295.762 235.028L301.083 231.956L306.405 235.028L301.084 238.1Z" fill="#AF51F3" fill-opacity="0.43"/>
<path d="M311.727 244.245L306.405 241.172L311.727 238.1L317.048 241.173L311.727 244.245Z" fill="#AF51F3" fill-opacity="0.43"/>
<path d="M215.896 201.256L210.575 198.184L215.896 195.112L221.218 198.184L215.896 201.256Z" fill="#AF51F3" fill-opacity="0.43"/>
<path d="M226.539 207.401L221.218 204.329L226.539 201.257L231.861 204.329L226.539 207.401Z" fill="#AF51F3" fill-opacity="0.43"/>
<path opacity="0.4" d="M237.182 213.546L231.861 210.474L237.182 207.401L242.504 210.474L237.182 213.546Z" fill="#AF51F3" fill-opacity="0.43"/>
<path d="M247.825 219.691L242.504 216.618L247.825 213.546L253.147 216.618L247.825 219.691Z" fill="#AF51F3" fill-opacity="0.43"/>
<path d="M258.468 225.836L253.147 222.763L258.468 219.691L263.79 222.763L258.468 225.836Z" fill="#AF51F3" fill-opacity="0.43"/>
<path opacity="0.1" d="M269.111 231.98L263.79 228.908L269.111 225.836L274.433 228.908L269.111 231.98Z" fill="#AF51F3" fill-opacity="0.43"/>
<path opacity="0.4" d="M279.754 238.125L274.433 235.053L279.754 231.98L285.076 235.053L279.754 238.125Z" fill="#AF51F3" fill-opacity="0.43"/>
<path d="M290.397 244.27L285.076 241.197L290.397 238.125L295.719 241.198L290.397 244.27Z" fill="#AF51F3" fill-opacity="0.43"/>
<path opacity="0.1" d="M301.041 250.414L295.719 247.342L301.04 244.27L306.362 247.342L301.041 250.414Z" fill="#AF51F3" fill-opacity="0.43"/>
<path d="M205.21 207.426L199.888 204.354L205.21 201.281L210.531 204.354L205.21 207.426Z" fill="#AF51F3" fill-opacity="0.43"/>
<path opacity="0.4" d="M215.853 213.571L210.532 210.498L215.853 207.426L221.175 210.499L215.853 213.571Z" fill="#AF51F3" fill-opacity="0.43"/>
<path d="M226.496 219.716L221.175 216.643L226.496 213.571L231.818 216.643L226.496 219.716Z" fill="#AF51F3" fill-opacity="0.43"/>
<path d="M237.139 225.86L231.818 222.788L237.139 219.716L242.46 222.788L237.139 225.86Z" fill="#AF51F3" fill-opacity="0.43"/>
<path d="M247.782 232.005L242.461 228.933L247.782 225.86L253.104 228.933L247.782 232.005Z" fill="#AF51F3" fill-opacity="0.43"/>
<path d="M258.425 238.15L253.104 235.078L258.425 232.005L263.747 235.078L258.425 238.15Z" fill="#AF51F3" fill-opacity="0.43"/>
<path d="M269.068 244.295L263.747 241.222L269.068 238.15L274.39 241.222L269.068 244.295Z" fill="#AF51F3" fill-opacity="0.43"/>
<path opacity="0.4" d="M279.711 250.439L274.39 247.367L279.711 244.295L285.033 247.367L279.711 250.439Z" fill="#AF51F3" fill-opacity="0.43"/>
<path d="M290.354 256.584L285.033 253.512L290.354 250.44L295.676 253.512L290.354 256.584Z" fill="#AF51F3" fill-opacity="0.43"/>
<path d="M194.524 213.596L189.202 210.523L194.524 207.451L199.845 210.523L194.524 213.596Z" fill="#AF51F3" fill-opacity="0.43"/>
<path opacity="0.1" d="M205.167 219.741L199.845 216.668L205.167 213.596L210.488 216.668L205.167 219.741Z" fill="#AF51F3" fill-opacity="0.43"/>
<path d="M215.81 225.885L210.489 222.813L215.81 219.741L221.131 222.813L215.81 225.885Z" fill="#AF51F3" fill-opacity="0.43"/>
<path d="M226.453 232.03L221.131 228.958L226.453 225.885L231.774 228.958L226.453 232.03Z" fill="#AF51F3" fill-opacity="0.43"/>
<path d="M237.096 238.175L231.775 235.102L237.096 232.03L242.417 235.103L237.096 238.175Z" fill="#AF51F3" fill-opacity="0.43"/>
<path d="M247.739 244.319L242.418 241.247L247.739 238.175L253.06 241.247L247.739 244.319Z" fill="#AF51F3" fill-opacity="0.43"/>
<path opacity="0.4" d="M258.382 250.464L253.061 247.392L258.382 244.32L263.703 247.392L258.382 250.464Z" fill="#AF51F3" fill-opacity="0.43"/>
<path d="M269.025 256.609L263.704 253.537L269.025 250.464L274.347 253.537L269.025 256.609Z" fill="#AF51F3" fill-opacity="0.43"/>
<path d="M279.668 262.754L274.347 259.681L279.668 256.609L284.99 259.681L279.668 262.754Z" fill="#AF51F3" fill-opacity="0.43"/>
<path d="M185.644 108.737L180.322 105.664L185.644 102.592L190.965 105.664L185.644 108.737Z" fill="#AF51F3" fill-opacity="0.43"/>
<path opacity="0.1" d="M196.287 114.882L190.965 111.809L196.287 108.737L201.608 111.809L196.287 114.882Z" fill="#AF51F3" fill-opacity="0.43"/>
<path opacity="0.4" d="M206.93 121.026L201.608 117.954L206.93 114.882L212.251 117.954L206.93 121.026Z" fill="#AF51F3" fill-opacity="0.43"/>
<path d="M217.573 127.171L212.251 124.099L217.573 121.026L222.894 124.099L217.573 127.171Z" fill="#AF51F3" fill-opacity="0.43"/>
<path opacity="0.4" d="M228.216 133.316L222.894 130.243L228.216 127.171L233.537 130.243L228.216 133.316Z" fill="#AF51F3" fill-opacity="0.43"/>
<path d="M238.859 139.46L233.538 136.388L238.859 133.316L244.18 136.388L238.859 139.46Z" fill="#AF51F3" fill-opacity="0.43"/>
<path d="M249.502 145.605L244.18 142.533L249.502 139.461L254.823 142.533L249.502 145.605Z" fill="#AF51F3" fill-opacity="0.43"/>
<path d="M260.145 151.75L254.824 148.678L260.145 145.605L265.466 148.678L260.145 151.75Z" fill="#AF51F3" fill-opacity="0.43"/>
<path opacity="0.1" d="M270.788 157.895L265.467 154.822L270.788 151.75L276.11 154.822L270.788 157.895Z" fill="#AF51F3" fill-opacity="0.43"/>
<path d="M174.958 114.906L169.636 111.834L174.957 108.762L180.279 111.834L174.958 114.906Z" fill="#AF51F3" fill-opacity="0.43"/>
<path d="M185.601 121.051L180.279 117.979L185.601 114.906L190.922 117.979L185.601 121.051Z" fill="#AF51F3" fill-opacity="0.43"/>
<path d="M196.244 127.196L190.922 124.124L196.244 121.051L201.565 124.124L196.244 127.196Z" fill="#AF51F3" fill-opacity="0.43"/>
<path d="M206.887 133.341L201.565 130.268L206.887 127.196L212.208 130.268L206.887 133.341Z" fill="#AF51F3" fill-opacity="0.43"/>
<path d="M217.53 139.485L212.208 136.413L217.53 133.341L222.851 136.413L217.53 139.485Z" fill="#AF51F3" fill-opacity="0.43"/>
<path d="M228.173 145.63L222.851 142.558L228.173 139.486L233.494 142.558L228.173 145.63Z" fill="#AF51F3" fill-opacity="0.43"/>
<path d="M238.816 151.775L233.494 148.703L238.816 145.63L244.137 148.703L238.816 151.775Z" fill="#AF51F3" fill-opacity="0.43"/>
<path d="M249.459 157.92L244.137 154.847L249.459 151.775L254.78 154.847L249.459 157.92Z" fill="#AF51F3" fill-opacity="0.43"/>
<path d="M260.102 164.064L254.78 160.992L260.102 157.92L265.423 160.992L260.102 164.064Z" fill="#AF51F3" fill-opacity="0.43"/>
<path d="M164.272 121.076L158.95 118.004L164.271 114.931L169.593 118.004L164.272 121.076Z" fill="#AF51F3" fill-opacity="0.43"/>
<path d="M174.915 127.221L169.593 124.148L174.914 121.076L180.236 124.148L174.915 127.221Z" fill="#AF51F3" fill-opacity="0.43"/>
<path d="M185.558 133.365L180.236 130.293L185.558 127.221L190.879 130.293L185.558 133.365Z" fill="#AF51F3" fill-opacity="0.43"/>
<path opacity="0.1" d="M196.201 139.51L190.879 136.438L196.2 133.366L201.522 136.438L196.201 139.51Z" fill="#AF51F3" fill-opacity="0.43"/>
<path opacity="0.4" d="M206.844 145.655L201.522 142.583L206.844 139.51L212.165 142.583L206.844 145.655Z" fill="#AF51F3" fill-opacity="0.43"/>
<path opacity="0.4" d="M217.487 151.8L212.165 148.727L217.487 145.655L222.808 148.727L217.487 151.8Z" fill="#AF51F3" fill-opacity="0.43"/>
<path d="M228.13 157.945L222.808 154.872L228.13 151.8L233.451 154.872L228.13 157.945Z" fill="#AF51F3" fill-opacity="0.43"/>
<path d="M238.773 164.089L233.451 161.017L238.773 157.945L244.094 161.017L238.773 164.089Z" fill="#AF51F3" fill-opacity="0.43"/>
<path d="M249.416 170.234L244.094 167.162L249.416 164.089L254.737 167.162L249.416 170.234Z" fill="#AF51F3" fill-opacity="0.43"/>
<path opacity="0.4" d="M153.585 127.246L148.264 124.173L153.585 121.101L158.907 124.173L153.585 127.246Z" fill="#AF51F3" fill-opacity="0.43"/>
<path opacity="0.4" d="M164.228 133.39L158.907 130.318L164.228 127.246L169.55 130.318L164.228 133.39Z" fill="#AF51F3" fill-opacity="0.43"/>
<path opacity="0.1" d="M174.871 139.535L169.55 136.463L174.871 133.391L180.193 136.463L174.871 139.535Z" fill="#AF51F3" fill-opacity="0.43"/>
<path d="M185.515 145.68L180.193 142.607L185.514 139.535L190.836 142.608L185.515 145.68Z" fill="#AF51F3" fill-opacity="0.43"/>
<path d="M196.158 151.825L190.836 148.752L196.157 145.68L201.479 148.752L196.158 151.825Z" fill="#AF51F3" fill-opacity="0.43"/>
<path d="M206.801 157.969L201.479 154.897L206.8 151.825L212.122 154.897L206.801 157.969Z" fill="#AF51F3" fill-opacity="0.43"/>
<path opacity="0.4" d="M217.444 164.114L212.122 161.042L217.444 157.969L222.765 161.042L217.444 164.114Z" fill="#AF51F3" fill-opacity="0.43"/>
<path d="M228.087 170.259L222.765 167.187L228.087 164.114L233.408 167.187L228.087 170.259Z" fill="#AF51F3" fill-opacity="0.43"/>
<path d="M238.73 176.404L233.408 173.331L238.73 170.259L244.051 173.331L238.73 176.404Z" fill="#AF51F3" fill-opacity="0.43"/>
<path d="M142.899 133.415L137.578 130.343L142.899 127.271L148.221 130.343L142.899 133.415Z" fill="#AF51F3" fill-opacity="0.43"/>
<path d="M153.542 139.56L148.221 136.488L153.542 133.415L158.864 136.488L153.542 139.56Z" fill="#AF51F3" fill-opacity="0.43"/>
<path d="M164.185 145.705L158.864 142.632L164.185 139.56L169.507 142.633L164.185 145.705Z" fill="#AF51F3" fill-opacity="0.43"/>
<path d="M174.828 151.85L169.507 148.777L174.828 145.705L180.15 148.777L174.828 151.85Z" fill="#AF51F3" fill-opacity="0.43"/>
<path d="M185.472 157.994L180.15 154.922L185.471 151.85L190.793 154.922L185.472 157.994Z" fill="#AF51F3" fill-opacity="0.43"/>
<path d="M196.114 164.139L190.793 161.067L196.114 157.994L201.436 161.067L196.114 164.139Z" fill="#AF51F3" fill-opacity="0.43"/>
<path d="M206.757 170.284L201.436 167.212L206.757 164.139L212.079 167.212L206.757 170.284Z" fill="#AF51F3" fill-opacity="0.43"/>
<path d="M217.401 176.429L212.079 173.356L217.4 170.284L222.722 173.356L217.401 176.429Z" fill="#AF51F3" fill-opacity="0.43"/>
<path d="M228.044 182.573L222.722 179.501L228.043 176.429L233.365 179.501L228.044 182.573Z" fill="#AF51F3" fill-opacity="0.43"/>
<path d="M132.213 139.585L126.892 136.512L132.213 133.44L137.534 136.513L132.213 139.585Z" fill="#AF51F3" fill-opacity="0.43"/>
<path d="M142.856 145.73L137.535 142.657L142.856 139.585L148.178 142.657L142.856 145.73Z" fill="#AF51F3" fill-opacity="0.43"/>
<path opacity="0.4" d="M153.499 151.874L148.178 148.802L153.499 145.73L158.821 148.802L153.499 151.874Z" fill="#AF51F3" fill-opacity="0.43"/>
<path d="M164.142 158.019L158.821 154.947L164.142 151.874L169.464 154.947L164.142 158.019Z" fill="#AF51F3" fill-opacity="0.43"/>
<path opacity="0.1" d="M174.785 164.164L169.464 161.092L174.785 158.019L180.107 161.092L174.785 164.164Z" fill="#AF51F3" fill-opacity="0.43"/>
<path d="M185.428 170.309L180.107 167.236L185.428 164.164L190.75 167.236L185.428 170.309Z" fill="#AF51F3" fill-opacity="0.43"/>
<path d="M196.071 176.454L190.75 173.381L196.071 170.309L201.393 173.381L196.071 176.454Z" fill="#AF51F3" fill-opacity="0.43"/>
<path d="M206.715 182.598L201.393 179.526L206.714 176.454L212.036 179.526L206.715 182.598Z" fill="#AF51F3" fill-opacity="0.43"/>
<path d="M217.358 188.743L212.036 185.671L217.357 182.598L222.679 185.671L217.358 188.743Z" fill="#AF51F3" fill-opacity="0.43"/>
<path d="M121.527 145.755L116.205 142.682L121.527 139.61L126.848 142.682L121.527 145.755Z" fill="#AF51F3" fill-opacity="0.43"/>
<path d="M132.17 151.899L126.849 148.827L132.17 145.755L137.491 148.827L132.17 151.899Z" fill="#AF51F3" fill-opacity="0.43"/>
<path opacity="0.4" d="M142.813 158.044L137.492 154.972L142.813 151.899L148.134 154.972L142.813 158.044Z" fill="#AF51F3" fill-opacity="0.43"/>
<path d="M153.456 164.189L148.135 161.117L153.456 158.044L158.778 161.117L153.456 164.189Z" fill="#AF51F3" fill-opacity="0.43"/>
<path d="M164.099 170.334L158.778 167.261L164.099 164.189L169.421 167.261L164.099 170.334Z" fill="#AF51F3" fill-opacity="0.43"/>
<path opacity="0.1" d="M174.742 176.478L169.421 173.406L174.742 170.334L180.064 173.406L174.742 176.478Z" fill="#AF51F3" fill-opacity="0.43"/>
<path opacity="0.4" d="M185.385 182.623L180.064 179.551L185.385 176.479L190.707 179.551L185.385 182.623Z" fill="#AF51F3" fill-opacity="0.43"/>
<path d="M196.028 188.768L190.707 185.695L196.028 182.623L201.35 185.696L196.028 188.768Z" fill="#AF51F3" fill-opacity="0.43"/>
<path opacity="0.1" d="M206.671 194.913L201.35 191.84L206.671 188.768L211.993 191.84L206.671 194.913Z" fill="#AF51F3" fill-opacity="0.43"/>
<path d="M110.841 151.924L105.519 148.852L110.841 145.779L116.162 148.852L110.841 151.924Z" fill="#AF51F3" fill-opacity="0.43"/>
<path opacity="0.4" d="M121.484 158.069L116.162 154.997L121.484 151.924L126.805 154.997L121.484 158.069Z" fill="#AF51F3" fill-opacity="0.43"/>
<path d="M132.127 164.214L126.806 161.141L132.127 158.069L137.448 161.141L132.127 164.214Z" fill="#AF51F3" fill-opacity="0.43"/>
<path d="M142.77 170.359L137.448 167.286L142.77 164.214L148.091 167.286L142.77 170.359Z" fill="#AF51F3" fill-opacity="0.43"/>
<path d="M153.413 176.503L148.092 173.431L153.413 170.359L158.734 173.431L153.413 176.503Z" fill="#AF51F3" fill-opacity="0.43"/>
<path d="M164.056 182.648L158.735 179.576L164.056 176.503L169.377 179.576L164.056 182.648Z" fill="#AF51F3" fill-opacity="0.43"/>
<path d="M174.699 188.793L169.378 185.72L174.699 182.648L180.021 185.721L174.699 188.793Z" fill="#AF51F3" fill-opacity="0.43"/>
<path opacity="0.4" d="M185.342 194.937L180.021 191.865L185.342 188.793L190.664 191.865L185.342 194.937Z" fill="#AF51F3" fill-opacity="0.43"/>
<path d="M195.985 201.082L190.664 198.01L195.985 194.938L201.307 198.01L195.985 201.082Z" fill="#AF51F3" fill-opacity="0.43"/>
<path d="M100.155 158.094L94.833 155.021L100.155 151.949L105.476 155.021L100.155 158.094Z" fill="#AF51F3" fill-opacity="0.43"/>
<path opacity="0.1" d="M110.798 164.239L105.476 161.166L110.798 158.094L116.119 161.166L110.798 164.239Z" fill="#AF51F3" fill-opacity="0.43"/>
<path d="M121.441 170.383L116.119 167.311L121.441 164.239L126.762 167.311L121.441 170.383Z" fill="#AF51F3" fill-opacity="0.43"/>
<path d="M132.084 176.528L126.762 173.456L132.084 170.383L137.405 173.456L132.084 176.528Z" fill="#AF51F3" fill-opacity="0.43"/>
<path d="M142.727 182.673L137.405 179.6L142.727 176.528L148.048 179.601L142.727 182.673Z" fill="#AF51F3" fill-opacity="0.43"/>
<path d="M153.37 188.818L148.049 185.745L153.37 182.673L158.691 185.745L153.37 188.818Z" fill="#AF51F3" fill-opacity="0.43"/>
<path opacity="0.4" d="M164.013 194.962L158.692 191.89L164.013 188.818L169.334 191.89L164.013 194.962Z" fill="#AF51F3" fill-opacity="0.43"/>
<path d="M174.656 201.107L169.335 198.035L174.656 194.962L179.978 198.035L174.656 201.107Z" fill="#AF51F3" fill-opacity="0.43"/>
<path d="M185.299 207.252L179.978 204.18L185.299 201.107L190.621 204.18L185.299 207.252Z" fill="#AF51F3" fill-opacity="0.43"/>
<path d="M185.644 219.541L180.322 216.469L185.644 213.397L190.965 216.469L185.644 219.541Z" fill="#AF51F3" fill-opacity="0.43"/>
<path opacity="0.1" d="M196.287 225.686L190.965 222.614L196.287 219.542L201.608 222.614L196.287 225.686Z" fill="#AF51F3" fill-opacity="0.43"/>
<path opacity="0.4" d="M206.93 231.831L201.608 228.759L206.93 225.686L212.251 228.759L206.93 231.831Z" fill="#AF51F3" fill-opacity="0.43"/>
<path d="M217.573 237.976L212.251 234.903L217.573 231.831L222.894 234.903L217.573 237.976Z" fill="#AF51F3" fill-opacity="0.43"/>
<path opacity="0.4" d="M228.216 244.12L222.894 241.048L228.216 237.976L233.537 241.048L228.216 244.12Z" fill="#AF51F3" fill-opacity="0.43"/>
<path d="M238.859 250.265L233.538 247.193L238.859 244.121L244.18 247.193L238.859 250.265Z" fill="#AF51F3" fill-opacity="0.43"/>
<path d="M249.502 256.41L244.18 253.338L249.502 250.265L254.823 253.338L249.502 256.41Z" fill="#AF51F3" fill-opacity="0.43"/>
<path d="M260.145 262.555L254.824 259.482L260.145 256.41L265.466 259.482L260.145 262.555Z" fill="#AF51F3" fill-opacity="0.43"/>
<path opacity="0.1" d="M270.788 268.699L265.467 265.627L270.788 262.555L276.11 265.627L270.788 268.699Z" fill="#AF51F3" fill-opacity="0.43"/>
<path d="M174.958 225.711L169.636 222.639L174.957 219.566L180.279 222.639L174.958 225.711Z" fill="#AF51F3" fill-opacity="0.43"/>
<path d="M185.601 231.856L180.279 228.783L185.601 225.711L190.922 228.784L185.601 231.856Z" fill="#AF51F3" fill-opacity="0.43"/>
<path d="M196.244 238L190.922 234.928L196.244 231.856L201.565 234.928L196.244 238Z" fill="#AF51F3" fill-opacity="0.43"/>
<path d="M206.887 244.145L201.565 241.073L206.887 238.001L212.208 241.073L206.887 244.145Z" fill="#AF51F3" fill-opacity="0.43"/>
<path d="M217.53 250.29L212.208 247.218L217.53 244.145L222.851 247.218L217.53 250.29Z" fill="#AF51F3" fill-opacity="0.43"/>
<path d="M228.173 256.435L222.851 253.362L228.173 250.29L233.494 253.362L228.173 256.435Z" fill="#AF51F3" fill-opacity="0.43"/>
<path d="M238.816 262.58L233.494 259.507L238.816 256.435L244.137 259.507L238.816 262.58Z" fill="#AF51F3" fill-opacity="0.43"/>
<path d="M249.459 268.724L244.137 265.652L249.459 262.58L254.78 265.652L249.459 268.724Z" fill="#AF51F3" fill-opacity="0.43"/>
<path d="M260.102 274.869L254.78 271.797L260.102 268.724L265.423 271.797L260.102 274.869Z" fill="#AF51F3" fill-opacity="0.43"/>
<path d="M164.272 231.881L158.95 228.808L164.271 225.736L169.593 228.808L164.272 231.881Z" fill="#AF51F3" fill-opacity="0.43"/>
<path d="M174.915 238.025L169.593 234.953L174.914 231.881L180.236 234.953L174.915 238.025Z" fill="#AF51F3" fill-opacity="0.43"/>
<path d="M185.558 244.17L180.236 241.098L185.558 238.026L190.879 241.098L185.558 244.17Z" fill="#AF51F3" fill-opacity="0.43"/>
<path opacity="0.1" d="M196.201 250.315L190.879 247.243L196.2 244.17L201.522 247.243L196.201 250.315Z" fill="#AF51F3" fill-opacity="0.43"/>
<path opacity="0.4" d="M206.844 256.46L201.522 253.387L206.844 250.315L212.165 253.387L206.844 256.46Z" fill="#AF51F3" fill-opacity="0.43"/>
<path opacity="0.4" d="M217.487 262.604L212.165 259.532L217.487 256.46L222.808 259.532L217.487 262.604Z" fill="#AF51F3" fill-opacity="0.43"/>
<path d="M228.13 268.749L222.808 265.677L228.13 262.605L233.451 265.677L228.13 268.749Z" fill="#AF51F3" fill-opacity="0.43"/>
<path d="M238.773 274.894L233.451 271.822L238.773 268.749L244.094 271.822L238.773 274.894Z" fill="#AF51F3" fill-opacity="0.43"/>
<path d="M249.416 281.039L244.094 277.966L249.416 274.894L254.737 277.966L249.416 281.039Z" fill="#AF51F3" fill-opacity="0.43"/>
<path opacity="0.4" d="M153.585 238.05L148.264 234.978L153.585 231.906L158.907 234.978L153.585 238.05Z" fill="#AF51F3" fill-opacity="0.43"/>
<path opacity="0.4" d="M164.228 244.195L158.907 241.123L164.228 238.05L169.55 241.123L164.228 244.195Z" fill="#AF51F3" fill-opacity="0.43"/>
<path opacity="0.1" d="M174.871 250.34L169.55 247.267L174.871 244.195L180.193 247.267L174.871 250.34Z" fill="#AF51F3" fill-opacity="0.43"/>
<path d="M185.515 256.485L180.193 253.412L185.514 250.34L190.836 253.412L185.515 256.485Z" fill="#AF51F3" fill-opacity="0.43"/>
<path d="M196.158 262.629L190.836 259.557L196.157 256.485L201.479 259.557L196.158 262.629Z" fill="#AF51F3" fill-opacity="0.43"/>
<path d="M206.801 268.774L201.479 265.702L206.8 262.629L212.122 265.702L206.801 268.774Z" fill="#AF51F3" fill-opacity="0.43"/>
<path opacity="0.4" d="M217.444 274.919L212.122 271.846L217.444 268.774L222.765 271.847L217.444 274.919Z" fill="#AF51F3" fill-opacity="0.43"/>
<path d="M228.087 281.064L222.765 277.991L228.087 274.919L233.408 277.991L228.087 281.064Z" fill="#AF51F3" fill-opacity="0.43"/>
<path d="M238.73 287.208L233.408 284.136L238.73 281.064L244.051 284.136L238.73 287.208Z" fill="#AF51F3" fill-opacity="0.43"/>
<path d="M142.899 244.22L137.578 241.147L142.899 238.075L148.221 241.148L142.899 244.22Z" fill="#AF51F3" fill-opacity="0.43"/>
<path d="M153.542 250.365L148.221 247.292L153.542 244.22L158.864 247.292L153.542 250.365Z" fill="#AF51F3" fill-opacity="0.43"/>
<path d="M164.185 256.509L158.864 253.437L164.185 250.365L169.507 253.437L164.185 256.509Z" fill="#AF51F3" fill-opacity="0.43"/>
<path d="M174.828 262.654L169.507 259.582L174.828 256.509L180.15 259.582L174.828 262.654Z" fill="#AF51F3" fill-opacity="0.43"/>
<path d="M185.472 268.799L180.15 265.727L185.471 262.654L190.793 265.727L185.472 268.799Z" fill="#AF51F3" fill-opacity="0.43"/>
<path d="M196.114 274.944L190.793 271.871L196.114 268.799L201.436 271.871L196.114 274.944Z" fill="#AF51F3" fill-opacity="0.43"/>
<path d="M206.757 281.089L201.436 278.016L206.757 274.944L212.079 278.016L206.757 281.089Z" fill="#AF51F3" fill-opacity="0.43"/>
<path d="M217.401 287.233L212.079 284.161L217.4 281.089L222.722 284.161L217.401 287.233Z" fill="#AF51F3" fill-opacity="0.43"/>
<path d="M228.044 293.378L222.722 290.306L228.043 287.233L233.365 290.306L228.044 293.378Z" fill="#AF51F3" fill-opacity="0.43"/>
<path d="M132.213 250.39L126.892 247.317L132.213 244.245L137.534 247.317L132.213 250.39Z" fill="#AF51F3" fill-opacity="0.43"/>
<path d="M142.856 256.534L137.535 253.462L142.856 250.39L148.178 253.462L142.856 256.534Z" fill="#AF51F3" fill-opacity="0.43"/>
<path opacity="0.4" d="M153.499 262.679L148.178 259.607L153.499 256.534L158.821 259.607L153.499 262.679Z" fill="#AF51F3" fill-opacity="0.43"/>
<path d="M164.142 268.824L158.821 265.751L164.142 262.679L169.464 265.752L164.142 268.824Z" fill="#AF51F3" fill-opacity="0.43"/>
<path opacity="0.1" d="M174.785 274.969L169.464 271.896L174.785 268.824L180.107 271.896L174.785 274.969Z" fill="#AF51F3" fill-opacity="0.43"/>
<path d="M185.428 281.113L180.107 278.041L185.428 274.969L190.75 278.041L185.428 281.113Z" fill="#AF51F3" fill-opacity="0.43"/>
<path d="M196.071 287.258L190.75 284.186L196.071 281.113L201.393 284.186L196.071 287.258Z" fill="#AF51F3" fill-opacity="0.43"/>
<path d="M206.715 293.403L201.393 290.331L206.714 287.258L212.036 290.331L206.715 293.403Z" fill="#AF51F3" fill-opacity="0.43"/>
<path d="M217.358 299.548L212.036 296.475L217.357 293.403L222.679 296.475L217.358 299.548Z" fill="#AF51F3" fill-opacity="0.43"/>
<path d="M121.527 256.559L116.205 253.487L121.527 250.414L126.848 253.487L121.527 256.559Z" fill="#AF51F3" fill-opacity="0.43"/>
<path d="M132.17 262.704L126.849 259.632L132.17 256.559L137.491 259.632L132.17 262.704Z" fill="#AF51F3" fill-opacity="0.43"/>
<path opacity="0.4" d="M142.813 268.849L137.492 265.776L142.813 262.704L148.134 265.776L142.813 268.849Z" fill="#AF51F3" fill-opacity="0.43"/>
<path d="M153.456 274.993L148.135 271.921L153.456 268.849L158.778 271.921L153.456 274.993Z" fill="#AF51F3" fill-opacity="0.43"/>
<path d="M164.099 281.138L158.778 278.066L164.099 274.994L169.421 278.066L164.099 281.138Z" fill="#AF51F3" fill-opacity="0.43"/>
<path opacity="0.1" d="M174.742 287.283L169.421 284.211L174.742 281.138L180.064 284.211L174.742 287.283Z" fill="#AF51F3" fill-opacity="0.43"/>
<path opacity="0.4" d="M185.385 293.428L180.064 290.355L185.385 287.283L190.707 290.355L185.385 293.428Z" fill="#AF51F3" fill-opacity="0.43"/>
<path d="M196.028 299.573L190.707 296.5L196.028 293.428L201.35 296.5L196.028 299.573Z" fill="#AF51F3" fill-opacity="0.43"/>
<path opacity="0.1" d="M206.671 305.717L201.35 302.645L206.671 299.573L211.993 302.645L206.671 305.717Z" fill="#AF51F3" fill-opacity="0.43"/>
<path d="M110.841 262.729L105.519 259.656L110.841 256.584L116.162 259.656L110.841 262.729Z" fill="#AF51F3" fill-opacity="0.43"/>
<path opacity="0.4" d="M121.484 268.874L116.162 265.801L121.484 262.729L126.805 265.801L121.484 268.874Z" fill="#AF51F3" fill-opacity="0.43"/>
<path d="M132.127 275.018L126.806 271.946L132.127 268.874L137.448 271.946L132.127 275.018Z" fill="#AF51F3" fill-opacity="0.43"/>
<path d="M142.77 281.163L137.448 278.091L142.77 275.018L148.091 278.091L142.77 281.163Z" fill="#AF51F3" fill-opacity="0.43"/>
<path d="M153.413 287.308L148.092 284.236L153.413 281.163L158.734 284.236L153.413 287.308Z" fill="#AF51F3" fill-opacity="0.43"/>
<path d="M164.056 293.453L158.735 290.38L164.056 287.308L169.377 290.38L164.056 293.453Z" fill="#AF51F3" fill-opacity="0.43"/>
<path d="M174.699 299.597L169.378 296.525L174.699 293.453L180.021 296.525L174.699 299.597Z" fill="#AF51F3" fill-opacity="0.43"/>
<path opacity="0.4" d="M185.342 305.742L180.021 302.67L185.342 299.598L190.664 302.67L185.342 305.742Z" fill="#AF51F3" fill-opacity="0.43"/>
<path d="M195.985 311.887L190.664 308.815L195.985 305.742L201.307 308.815L195.985 311.887Z" fill="#AF51F3" fill-opacity="0.43"/>
<path d="M100.155 268.898L94.833 265.826L100.155 262.754L105.476 265.826L100.155 268.898Z" fill="#AF51F3" fill-opacity="0.43"/>
<path opacity="0.1" d="M110.798 275.043L105.476 271.971L110.798 268.899L116.119 271.971L110.798 275.043Z" fill="#AF51F3" fill-opacity="0.43"/>
<path d="M121.441 281.188L116.119 278.116L121.441 275.043L126.762 278.116L121.441 281.188Z" fill="#AF51F3" fill-opacity="0.43"/>
<path d="M132.084 287.333L126.762 284.26L132.084 281.188L137.405 284.26L132.084 287.333Z" fill="#AF51F3" fill-opacity="0.43"/>
<path d="M142.727 293.478L137.405 290.405L142.727 287.333L148.048 290.405L142.727 293.478Z" fill="#AF51F3" fill-opacity="0.43"/>
<path d="M153.37 299.622L148.049 296.55L153.37 293.478L158.691 296.55L153.37 299.622Z" fill="#AF51F3" fill-opacity="0.43"/>
<path opacity="0.4" d="M164.013 305.767L158.692 302.695L164.013 299.622L169.334 302.695L164.013 305.767Z" fill="#AF51F3" fill-opacity="0.43"/>
<path d="M174.656 311.912L169.335 308.839L174.656 305.767L179.978 308.84L174.656 311.912Z" fill="#AF51F3" fill-opacity="0.43"/>
<path d="M185.299 318.057L179.978 314.984L185.299 311.912L190.621 314.984L185.299 318.057Z" fill="#AF51F3" fill-opacity="0.43"/>
</g>
<path opacity="0.4" d="M266.541 161.995L63.3638 207.132L113.606 236.139L125.862 282.725L153.385 259.106L188.361 279.299L266.541 161.995Z" fill="#8D23DA"/>
<path d="M121.557 240.577L319.255 70.9128L138.781 194.999L121.557 240.577Z" fill="#37065A"/>
<path d="M319.255 70.9128L104.332 175.11L33.7271 134.345L319.255 70.9128Z" fill="url(#paint0_linear_2109_806)"/>
<path d="M319.255 70.9128L138.781 194.999L209.387 235.763L319.255 70.9128Z" fill="url(#paint1_linear_2109_806)"/>
<path d="M138.781 194.999L319.255 70.9128L104.332 175.11L121.557 240.577L138.781 194.999Z" fill="url(#paint2_linear_2109_806)"/>
<path d="M101.191 173.296L319.255 70.9128L104.332 175.11L101.191 173.296Z" fill="white"/>
<path d="M138.781 194.999L319.255 70.9128L141.603 196.628L138.781 194.999Z" fill="white"/>
<path d="M175.378 143.314C175.378 143.314 174.62 145.587 174.689 146.133C174.758 146.679 176.321 148.83 176.429 148.895C176.537 148.96 177.862 150.65 179.346 151.46C180.832 152.271 180.946 152.674 181.084 152.691C181.222 152.709 181.443 152.566 181.443 152.566C181.443 152.566 181.663 151.011 181.01 150.257C180.358 149.504 181.333 148.385 181.333 148.385L179.649 143.991L175.378 143.314Z" fill="#FCD1C5"/>
<path d="M191.528 191.924C191.528 191.924 188.892 192.538 186.347 192.625C183.801 192.712 176.857 194.025 176.991 196.512C177.126 199.01 180.681 202.596 185.191 203.136C189.7 203.676 195.526 202.441 198.469 202.526C201.411 202.611 203.485 199.724 202.393 196.947C201.307 194.184 191.528 191.924 191.528 191.924Z" fill="#160A5B"/>
<path d="M206.904 185.292C206.904 185.292 207.835 186.803 207.341 187.723C206.846 188.645 205.531 190.935 201.452 188.696C197.385 186.464 189.486 183.253 189.486 183.253C189.486 183.253 184.955 180.878 185.254 178.099C185.551 175.334 189.759 175.77 189.759 175.77L206.904 185.292Z" fill="#160A5B"/>
<path d="M161.504 85.4318C161.504 85.4318 158.814 85.4668 157.628 84.9308C156.443 84.3958 152.998 83.2648 152.784 83.1518C152.571 83.0388 150.672 82.9138 149.803 82.3558C149.803 82.3558 148.833 82.8298 149.599 83.6148C150.366 84.4008 151.816 84.6568 151.816 84.6568L153.181 85.4518C153.181 85.4518 150.417 86.8698 150.168 86.9758C149.918 87.0818 147.604 88.8428 147.37 88.9508C147.136 89.0598 146.104 89.8638 146.504 90.5768C146.504 90.5768 146.544 90.7378 147.06 90.8488C147.06 90.8488 145.581 91.5208 145.946 92.2478C146.311 92.9768 147.248 92.6608 147.248 92.6608C147.248 92.6608 147.604 93.9658 149.389 92.9548C149.389 92.9548 149.597 94.5738 153.557 92.8818C153.557 92.8818 155.157 92.4608 156.328 92.5418C157.499 92.6238 160.687 91.7998 162.396 90.5968C164.102 89.3978 161.504 85.4318 161.504 85.4318Z" fill="#FCD1C5"/>
<path d="M156.33 92.5428C157.501 92.6248 160.689 91.8008 162.398 90.5978C163.546 89.7898 162.741 87.7278 162.095 86.4678C161.288 86.0758 160.577 85.7548 160.577 85.7548C160.577 85.7548 160.697 89.6788 160.609 90.2678C160.52 90.8578 156.976 91.5578 154.704 91.8908C152.429 92.2238 149.446 93.1048 149.444 93.1058C149.62 93.4638 150.38 94.2408 153.56 92.8828C153.56 92.8828 155.159 92.4618 156.33 92.5428Z" fill="#E2B1A6"/>
<path d="M192.67 77.8088C192.67 77.8088 187.071 78.7888 185.164 79.3968C183.315 79.9858 167.266 83.1618 161.387 84.6008C161.016 84.6918 160.729 84.9928 160.64 85.3758C160.569 85.6828 160.523 86.0488 160.599 86.3538C160.764 87.0178 161.328 93.6638 164.588 92.5778C165.567 92.2518 168.444 91.6508 170.744 91.3478C173.041 91.0448 182.853 90.2908 182.853 90.2908L199.448 80.7928L192.67 77.8088Z" fill="#8D23DA"/>
<path d="M180.654 145.422C180.654 145.422 182.137 163.738 185.785 170.652C189.476 177.647 190.291 190.355 191.038 192.774C191.788 195.202 194.174 198.69 198.021 199.439C201.87 200.188 202.555 197.658 202.398 196.135C202.241 194.616 201.222 192.154 201.243 190.503C201.264 188.857 201.677 188.087 201.753 187.33C201.753 187.33 206.155 188.611 206.904 185.292C206.904 185.292 206.567 184.323 206.52 183.828C206.472 183.333 207.187 171.261 207.329 169.794C207.47 168.331 206.838 160.379 205.688 156.44C204.545 152.528 205.139 144.202 205.139 144.202L192.399 142.343L180.654 145.422Z" fill="#AF51F3"/>
<path d="M201.331 145.498C201.331 145.498 201.217 148.359 199.947 150.753C199.947 150.753 199.768 160.456 198.646 165.344C198.646 165.344 200.083 175.145 201.05 178.225C202.022 181.321 201.753 187.33 201.753 187.33C201.753 187.33 202.253 187.513 202.976 187.542C203.699 187.571 204.014 175.654 202.946 173.537C201.882 171.428 201.241 162.058 201.722 159.198C202.201 156.353 202.233 148.175 202.819 146.733C203.403 145.295 202.171 144.517 202.171 144.517L201.331 145.498Z" fill="#160A5B"/>
<path d="M191.822 77.9608C191.822 77.9608 187.993 80.6168 188.101 85.3038L190.917 84.7478C190.917 84.7478 190.177 79.5488 191.822 77.9608Z" fill="#160A5B"/>
<path d="M191.947 149.412C200.402 149.736 205.041 146.116 205.041 146.116C205.085 144.957 205.139 144.201 205.139 144.201L192.399 142.342L180.654 145.422C180.654 145.422 180.948 149.048 181.597 153.683C183.672 153.918 185.798 148.959 185.798 148.959L191.604 149.367C191.604 149.367 183.48 149.088 191.947 149.412Z" fill="#160A5B"/>
<path d="M182.288 145.71C182.288 145.71 200.563 153.198 209.754 139.365C210.016 138.97 210.145 138.485 210.14 137.995L210.104 134.736C210.099 134.321 210.17 133.911 210.311 133.529C210.616 132.703 210.701 131.803 210.556 130.924C209.952 127.263 208.31 117.27 207.934 114.487C207.474 111.089 209.613 97.4777 212.837 91.5887C216.023 85.7717 208.498 72.3877 208.498 72.3877C208.498 72.3877 206.639 69.2447 202.835 70.2467C202.835 70.2467 206.385 72.8207 204.356 75.4377C202.315 78.0697 196.354 80.0987 196.354 80.0987C196.354 80.0987 185.299 85.5667 181.438 92.3567C181.438 92.3567 180.094 95.8897 179.911 100.373C179.726 104.895 180.064 115.716 179.85 117.211C179.636 118.711 178.9 128.937 178.953 129.414C179.007 129.894 182.288 145.71 182.288 145.71Z" fill="#8D23DA"/>
<path d="M187.855 147.261C187.855 147.261 199.293 118.565 198.99 108.001C198.693 97.6438 182.647 128.631 182.647 128.631L182.288 145.71C182.288 145.71 185.751 146.994 187.855 147.261Z" fill="#24126A"/>
<path d="M182.547 113.087C182.983 110.714 183.254 108.326 183.32 105.936C183.436 101.772 184.739 94.8628 192.364 96.1768C203.112 98.0288 198.201 112.848 196.972 115.421C195.737 118.008 190.825 129.638 190.566 130.297C190.323 130.916 182.677 145.332 179.983 148.769C179.737 149.083 179.312 149.128 179.019 148.879C177.963 147.983 175.589 145.844 175.294 144.5C174.914 142.771 176.553 136.514 176.553 136.514C176.553 136.514 180.978 120.807 181.342 120.075C181.616 119.527 181.841 116.929 182.547 113.087Z" fill="#8D23DA"/>
<path d="M192.002 78.3038C192.002 78.3038 191.176 76.3407 189.187 76.1067C187.198 75.8717 186.076 75.3027 185.888 74.5657C185.7 73.8287 185.705 72.9407 185.24 71.8377C184.776 70.7377 184.412 68.0438 184.42 67.9788C184.428 67.9138 182.918 67.4328 182.854 66.7658C182.791 66.0998 183.617 63.7348 183.534 63.5498C183.451 63.3648 182.658 61.8907 182.787 60.7557C182.915 59.6237 183.089 57.9827 183.72 56.5987C184.349 55.2197 188.744 46.8167 199.709 51.4037C210.745 56.0197 202.089 65.1837 203.059 71.2237C203.059 71.2237 204.017 72.5057 202.166 74.6237C200.306 76.7507 195.051 77.1318 192.002 78.3038Z" fill="#FCD1C5"/>
<path d="M202.166 74.6228C204.017 72.5048 203.059 71.2228 203.059 71.2228C202.924 70.3848 202.98 69.4838 203.138 68.5438L198.777 69.2948C198.777 69.2948 192.463 63.4818 192.862 66.5448C193.264 69.6268 191.694 70.1288 191.694 70.1288L192.98 71.8208C193.31 72.2548 193.1 72.7558 192.816 73.2218C190.927 76.3248 186.494 75.3088 186.484 75.3098C187.033 75.6788 187.939 75.9578 189.186 76.1048C191.175 76.3398 192.001 78.3018 192.001 78.3018C195.051 77.1318 200.306 76.7508 202.166 74.6228Z" fill="#E2B1A6"/>
<path d="M183.295 53.3698C183.295 53.3698 182.485 55.6218 183.72 56.5978C184.957 57.5758 186.075 58.4967 186.075 58.4967L186.021 61.3628C186.013 61.7758 186.125 62.1818 186.344 62.5308L187.874 64.9738C188.169 65.4458 188.323 65.9948 188.317 66.5558L188.304 67.7238C188.3 68.0668 188.549 68.3578 188.882 68.4008L189.293 68.4537C189.656 68.5007 189.987 68.2388 190.033 67.8678L190.234 66.2487C190.234 66.2487 191.081 64.9588 192.862 66.5448L194.472 67.2378C194.921 67.4308 195.271 67.8067 195.432 68.2767C195.862 69.5307 196.786 72.0057 197.503 72.4257C198.473 72.9937 202.308 71.1037 202.833 70.2467C203.358 69.3917 204.762 63.6368 205.617 60.8918C206.467 58.1618 206.152 51.3458 197.974 49.4438C189.812 47.5448 184.468 50.9208 183.295 53.3698Z" fill="#AA8383"/>
<path d="M202.835 70.2478C203.36 69.3928 204.764 63.6378 205.619 60.8928C205.619 60.8928 202.407 62.9438 198.284 63.4958C194.152 64.0498 186.062 59.2628 186.062 59.2628L186.022 61.3628C186.014 61.7758 186.126 62.1818 186.345 62.5308L187.875 64.9738C188.17 65.4458 188.324 65.9948 188.318 66.5558L188.305 67.7238C188.301 68.0668 188.55 68.3578 188.883 68.4008L189.294 68.4538C189.657 68.5008 189.988 68.2388 190.034 67.8678L190.235 66.2487C190.235 66.2487 191.082 64.9588 192.863 66.5448L195.192 67.5468C195.192 67.5468 196.535 71.8578 197.505 72.4248C198.475 72.9938 202.31 71.1038 202.835 70.2478Z" fill="#936D6D"/>
<path d="M202.99 70.5237C202.99 70.5237 206.123 72.5277 204.481 75.2627C202.83 78.0147 191.232 82.7557 190.649 83.4757C190.649 83.4757 190.27 79.3347 191.822 77.9607C191.822 77.9607 200.671 76.3977 202.086 74.1807C203.494 71.9737 202.99 70.5237 202.99 70.5237Z" fill="#F0F6FF"/>
<path d="M202.99 70.5237C202.99 70.5237 203.494 71.9737 202.086 74.1807C201.016 75.8577 195.693 77.1607 193.162 77.6957C193.162 77.6957 194.089 78.2387 195.603 80.9137C199.177 79.1467 203.518 76.8687 204.481 75.2627C206.123 72.5267 202.99 70.5237 202.99 70.5237Z" fill="#C4CCD6"/>
<path d="M197.05 98.5928C199.853 107.62 192.118 121.422 190.971 125.448C189.815 129.508 178.197 148.149 178.194 148.153C178.507 148.438 178.794 148.688 179.02 148.88C179.313 149.129 179.738 149.084 179.984 148.77C182.677 145.333 190.323 130.917 190.567 130.298C190.826 129.639 195.738 118.008 196.973 115.422C197.959 113.357 201.321 103.375 197.05 98.5928Z" fill="#24126A"/>
<path d="M204.944 79.3937C204.944 79.3937 199.765 82.2277 197.245 83.5047C194.717 84.7857 191.955 86.4957 191.955 86.4957L191.014 85.5327L189.819 88.0217C189.819 88.0217 185.846 90.3027 183.972 92.2247C182.091 94.1547 180.657 96.6857 180.449 97.2647C180.449 97.2647 185.463 90.9677 189.364 89.1317L190.414 88.6267L191.039 86.6517L191.97 87.6627C191.97 87.6627 203.348 81.1047 204.944 79.3937Z" fill="#24126A"/>
<path opacity="0.2" d="M106.205 153.356C121.002 153.356 132.998 146.43 132.998 137.887C132.998 129.343 121.002 122.418 106.205 122.418C91.4077 122.418 79.4121 129.343 79.4121 137.887C79.4121 146.43 91.4077 153.356 106.205 153.356Z" fill="#0B0244"/>
<path opacity="0.2" d="M191.822 205.117C206.619 205.117 218.615 198.191 218.615 189.648C218.615 181.104 206.619 174.179 191.822 174.179C177.025 174.179 165.029 181.104 165.029 189.648C165.029 198.191 177.025 205.117 191.822 205.117Z" fill="#0B0244"/>
<path d="M121.897 80.0008C121.897 80.0008 123.826 80.3298 124.533 79.9688C125.239 79.6088 127.084 79.3658 129.22 80.1288C131.359 80.8928 131.181 80.7768 132.025 80.8588C132.869 80.9418 134.24 81.0288 134.686 81.3108C135.132 81.5938 135.979 82.1308 135.194 83.2508C134.408 84.3738 131.47 83.3178 130.992 83.2298C130.514 83.1418 129.99 83.9888 130.228 84.7508C130.466 85.5138 134.896 90.3578 135.59 90.8398C136.285 91.3218 139.279 93.3238 139.408 94.1138C139.538 94.9048 139.371 95.0168 139.371 95.0168C139.371 95.0168 140.244 95.8068 139.935 96.5388C139.626 97.2718 138.267 96.1488 138.016 96.3178C138.016 96.3178 138.237 97.1318 137.905 97.2818C137.573 97.4318 135.63 96.6768 135.397 96.4428C135.397 96.4428 135.172 97.0688 134.062 96.4218C132.954 95.7748 128.705 93.3598 128.207 92.9048C127.709 92.4498 126.037 90.9018 125.349 90.4888C124.661 90.0758 123.473 88.6668 122.881 88.1138C122.289 87.5608 119.653 86.2258 118.646 86.0318C117.64 85.8368 121.897 80.0008 121.897 80.0008Z" fill="#FCD1C5"/>
<path d="M125.282 88.7558C124.306 86.9728 121.033 85.5928 121.033 85.5928C121.254 84.1418 123.34 80.1367 123.34 80.1367C122.618 80.1237 121.896 80.0008 121.896 80.0008C121.896 80.0008 117.639 85.8368 118.646 86.0308C119.653 86.2248 122.29 87.5598 122.881 88.1128C123.473 88.6658 124.66 90.0748 125.349 90.4878C126.038 90.9008 127.71 92.4488 128.207 92.9038C128.705 93.3598 132.954 95.7748 134.062 96.4208C135.171 97.0678 135.397 96.4418 135.397 96.4418C135.631 96.6758 137.573 97.4298 137.905 97.2808C138.237 97.1308 138.016 96.3168 138.016 96.3168C138.016 96.3168 136.651 95.5418 135.246 95.0478C133.843 94.5558 126.261 90.5438 125.282 88.7558Z" fill="#E2B1A6"/>
<path d="M118.717 73.5757C118.717 73.5757 119.134 75.7527 118.983 77.5247C118.831 79.3017 115.269 76.9787 115.403 76.6717C115.536 76.3647 117.094 73.6877 117.094 73.6877L118.717 73.5757Z" fill="#FCD1C5"/>
<path d="M103.178 20.0127C103.178 20.0127 105.154 19.9227 107.558 23.8707C109.874 27.6727 113.947 41.2777 116.082 46.4967C116.271 46.9597 116.411 47.4397 116.496 47.9347C117.19 52.0057 120.442 71.1577 120.591 73.4607C120.591 73.4607 118.111 75.1097 116.518 75.5177L113.017 74.3567L109.569 39.6387L103.984 21.3057L103.178 20.0127Z" fill="#8D23DA"/>
<path d="M91.9818 134.25C91.9818 134.25 91.3128 137.462 91.6788 138.084C92.0448 138.707 96.2208 143.426 96.6628 144.06C97.1048 144.695 99.2568 148.557 103.214 149.5C107.177 150.444 109.871 150.199 110.408 148.338C110.943 146.483 108.618 143.401 107.542 142.406C106.468 141.413 101.946 136.032 101.119 135.252C100.293 134.473 99.0968 134.35 99.0968 134.35L93.9368 135.247L91.9818 134.25Z" fill="#160A5B"/>
<path d="M107.991 124.64C107.991 124.64 111.939 126.17 114.003 126.69C116.069 127.211 120.991 130.888 120.937 132.735C120.883 134.588 118.459 135.866 115.997 135.683C113.535 135.5 110.611 133.929 110.134 133.511C109.658 133.094 107.97 132.17 105.954 131.542C103.94 130.914 100.694 130.606 100.158 129.532C99.6229 128.459 99.5449 126.243 99.5449 126.243L107.991 124.64Z" fill="#160A5B"/>
<path d="M99.0719 123.972C99.1019 123.783 99.2379 123.464 99.2619 123.332C99.4409 122.354 99.2719 118.384 99.2719 118.384L98.4019 119.574C98.4019 119.574 99.0139 123.55 100.203 129.766C100.504 131.342 101.33 132.969 101.452 133.863C101.814 136.524 100.234 137.044 100.234 137.044C97.0249 139.459 94.2839 138.001 93.2979 137.224C92.3129 136.448 91.9789 135.202 90.6119 130.72C89.2549 126.272 88.0749 116.871 88.3679 114.637C88.6259 112.665 89.3439 107.16 89.3079 103.376C89.2729 99.6148 86.3799 87.5938 86.3799 87.5938L98.3429 85.2718L106.509 81.0428L112.741 81.9828C112.741 81.9828 113.529 79.3508 114.352 87.5448C115.186 95.8568 110.15 110.565 110.15 110.565C108.822 117.848 108.483 126.223 107.729 127.357C106.973 128.494 103.995 131.173 101.239 129.09C100.733 128.707 100.155 128.307 99.8519 127.896L99.0719 123.972Z" fill="#8D23DA"/>
<path d="M98.4019 119.574C98.4019 119.574 102.336 108.865 104.201 98.4848C106.034 88.2858 109.21 86.8508 110.53 85.0198C110.53 85.0198 112.518 85.9318 113.571 86.1108C113.699 86.1328 113.814 86.1438 113.909 86.1408C114.786 86.1128 109.511 92.6808 108.563 94.3648C107.613 96.0548 102.158 110.507 101.779 112.502C101.398 114.503 101.011 128.444 101.453 129.244C101.896 130.045 99.9429 128.641 99.9429 128.641C99.9429 128.641 98.7409 125.558 98.4019 119.574Z" fill="#160A5B"/>
<path d="M108.613 81.3608L106.509 81.0438L98.3429 85.2728L86.3799 87.5948C86.3799 87.5948 89.2719 99.6158 89.3079 103.377C89.3439 107.162 88.6269 112.667 88.3679 114.638C88.0769 116.853 89.2549 126.273 90.6119 130.721C91.2039 132.663 91.6029 133.997 91.9449 134.95C92.4839 137.481 94.3969 137.887 94.3969 137.887C94.3969 137.887 89.7069 123.36 90.1189 114.863C90.5249 106.486 91.7269 99.5128 91.5099 97.8928C91.5099 97.8928 105.133 93.7048 107.686 84.9118C108.084 83.5398 108.386 82.3658 108.613 81.3608Z" fill="#160A5B"/>
<path d="M85.0157 21.8807C85.0157 21.8807 84.0467 22.6958 83.8377 23.5258C83.6287 24.3578 82.4307 27.3097 82.4307 27.3097C82.4307 27.3097 76.7347 34.8687 75.7097 37.1847C74.6797 39.5097 74.3477 41.2468 74.3477 41.2468L89.4317 59.8218C89.4317 59.8218 84.1517 78.0308 85.6247 84.6728C87.1147 91.3918 89.0557 93.8928 91.4297 94.6188C93.8067 95.3458 106.494 90.1248 107.371 83.4738C108.238 76.8988 107.885 76.0628 107.885 76.0628C107.885 76.0628 113.81 77.6447 114.18 76.1327C114.55 74.6257 113.434 63.7707 113.129 62.2187C112.825 60.6707 111.913 43.5467 111.913 43.5467C111.913 43.5467 108.303 27.7508 108.097 26.9728C107.891 26.1958 105.65 20.2598 102.765 19.9268C99.8817 19.5938 96.2887 24.1788 96.2887 24.1788L85.0157 21.8807Z" fill="#AF51F3"/>
<path d="M85.6927 21.3098C85.6927 21.3098 85.0967 21.7098 84.9697 22.3668C84.8427 23.0248 84.3507 24.3248 85.4237 25.6818C86.4997 27.0428 95.1857 34.1308 98.7017 40.0908C102.256 46.1158 106.654 52.8328 107.024 54.2248C107.024 54.2248 108.626 44.6898 107.178 40.3008C105.741 35.9468 101.135 27.0748 100.162 26.4148C99.1897 25.7558 93.2137 25.1908 93.2137 25.1908L85.6927 21.3098Z" fill="#F0F6FF"/>
<path d="M94.6655 30.8967C94.6655 30.8967 94.1945 31.6737 94.0555 32.2737C94.0555 32.2737 91.5315 30.9857 90.4775 30.5107L94.3505 33.2027C94.3505 33.2027 94.5785 31.7937 94.7725 31.5827C94.7725 31.5827 96.9825 33.2717 97.2945 34.0227C97.6075 34.7737 101.691 45.0387 101.691 45.0387L103.837 48.5437L104.39 47.6947L100.878 38.1307C100.878 38.1307 98.8995 35.1197 98.8725 35.0487C98.8455 34.9787 97.5075 31.7447 97.5075 31.7447L94.6655 30.8967Z" fill="#C4CCD6"/>
<path d="M94.6655 30.8968C94.6655 30.8968 95.9505 28.4958 98.4375 28.5888C98.4375 28.5888 99.1525 31.5518 99.3525 32.7558C99.3525 32.7558 97.7475 33.4458 97.1015 32.8858C96.4565 32.3248 94.6655 30.8968 94.6655 30.8968Z" fill="#160A5B"/>
<path d="M98.977 32.1148C98.977 32.1148 105.371 39.9988 107.603 49.5158L107.138 54.4248L103.774 48.4298C103.774 48.4298 98.264 34.6618 96.983 32.1408C95.707 29.6298 98.977 32.1148 98.977 32.1148Z" fill="#160A5B"/>
<path d="M88.3816 63.7388C87.9536 65.4228 87.4506 67.5158 86.9766 69.7618C86.9806 69.7678 96.4436 82.1188 105.682 87.1508C106.581 85.9998 107.201 84.7638 107.371 83.4738C107.829 79.9988 107.947 78.1308 107.955 77.1388L97.2106 68.9928L88.3816 63.7388Z" fill="#24126A"/>
<path d="M87.7388 45.5918C87.7388 45.5918 90.4748 49.3248 91.2038 49.6628C91.9328 50.0008 97.8498 60.3768 99.0488 62.3318C100.252 64.2938 103.44 67.0408 103.44 67.0408L100.426 67.3338L88.6318 51.5178L87.7388 45.5918Z" fill="#24126A"/>
<path d="M89.4118 48.8828C88.2258 45.8958 86.3658 43.2718 83.9728 41.2698C81.2508 38.9928 77.6838 36.7728 75.7938 38.7708C72.4718 42.2818 73.8858 48.8948 78.5028 55.0848C83.1708 61.3438 90.5278 70.2538 92.2658 71.7518C93.9338 73.1898 108.204 83.9258 116.385 87.9378C116.993 88.2358 117.705 88.0078 118.068 87.4098C119.197 85.5468 121.535 81.6628 122.372 80.0658C122.542 79.7408 122.44 79.3278 122.138 79.1338C119.148 77.2128 104.215 67.6108 99.7938 64.6288C99.1178 64.1728 98.5648 63.5438 98.1838 62.7998C96.8908 60.2778 93.5688 54.0718 90.6438 50.9028C90.1228 50.3378 89.7238 49.6668 89.4368 48.9418C89.4268 48.9218 89.4198 48.9028 89.4118 48.8828Z" fill="#AF51F3"/>
<path d="M100.394 23.2938L105.618 28.5748L104.27 29.0428L105.991 30.0428C105.991 30.0428 110.17 39.9138 109.259 51.0948C109.259 51.0948 111.334 42.3028 106.839 29.8388L105.448 29.1348L106.387 28.8368L100.394 23.2938Z" fill="#24126A"/>
<path d="M85.5836 20.4148C85.6786 20.6188 85.7306 20.8418 85.7116 21.0688C85.6726 21.5358 85.6176 22.3268 85.6606 22.6638C85.7236 23.1588 88.9976 28.6738 95.6906 28.7228C95.6906 28.7228 96.4936 27.5268 96.6526 27.2928C96.6526 27.2928 99.3606 27.1668 100.488 26.1788C101.613 25.1928 100.921 23.4668 100.921 23.4668L101.084 21.3998C101.104 21.1488 101.214 20.9168 101.395 20.7458C101.634 20.5198 101.947 20.1868 102.004 19.9438C102.062 19.6958 101.904 19.2668 101.774 18.9748C101.686 18.7758 101.649 18.5608 101.674 18.3438C101.734 17.8218 101.786 16.7088 101.417 15.3238C101.311 14.9248 101.307 14.5038 101.409 14.1018C101.576 13.4438 101.811 12.4698 101.839 12.1228C101.882 11.5808 100.963 10.1398 100.922 9.57277C100.881 9.00577 100.091 7.08377 100.091 7.08377C100.091 7.08377 95.1156 -2.15523 87.0826 1.84477C78.9896 5.87377 83.2086 14.5208 84.2086 16.9718C84.2086 16.9718 85.1746 18.9668 85.3446 19.4108C85.4866 19.7818 85.3836 19.9838 85.5836 20.4148Z" fill="#FCD1C5"/>
<path d="M100.801 8.05675C100.871 8.71075 100.623 9.35375 100.13 9.79075C99.1577 10.6508 97.2177 12.0628 94.6577 12.4028C92.8547 12.6418 91.8707 12.7328 91.3357 12.7618C90.9747 12.7818 90.6887 13.0738 90.6687 13.4388C90.6317 14.1098 90.5647 15.1318 90.4697 15.8188C90.4317 16.0948 90.3507 16.3608 90.2317 16.6128L89.6617 17.8228C89.5197 18.1238 89.2107 18.3058 88.8857 18.2808L88.7537 18.2708C88.3907 18.2428 88.0997 17.9638 88.0507 17.5978L88.0437 17.5458C87.9177 16.5998 87.3627 15.7527 86.5157 15.3527C86.0877 15.1517 85.6017 15.0608 85.1177 15.2598C83.7327 15.8288 84.3077 17.1738 84.3077 17.1738C84.3077 17.1738 82.6267 15.1558 81.8687 12.4688C81.1147 9.79475 81.2897 4.95875 84.7857 2.42975C88.2657 -0.0872462 92.8117 -1.10724 96.6907 1.62076C99.8947 3.87476 100.644 6.59275 100.801 8.05675Z" fill="#AA8383"/>
<path d="M87.5607 19.3828C87.3847 19.1698 87.6087 21.0168 85.7117 21.0688C85.6727 21.5358 85.6177 22.3268 85.6607 22.6638C85.7237 23.1588 88.9977 28.6738 95.6907 28.7228C95.6907 28.7228 96.4937 27.5278 96.6527 27.2928C96.6527 27.2928 90.5097 24.3098 89.4217 22.9548C88.3367 21.6038 87.7367 19.5958 87.5607 19.3828Z" fill="#E2B1A6"/>
<path d="M98.438 28.5887C98.438 28.5887 100.26 28.7977 101.111 29.2517C101.111 29.2517 101.352 28.3077 100.866 27.2867C100.866 27.2867 101.411 27.7247 101.405 29.8997C101.405 29.8997 98.731 29.0307 98.53 28.9737L98.438 28.5887Z" fill="#C4CCD6"/>
<path d="M118.79 85.9427C118.79 85.9427 103.295 77.0347 98.0427 73.4837C92.8257 69.9557 78.1436 54.9787 75.1396 49.2137C75.9106 51.1387 77.0466 53.1327 78.5026 55.0847C83.1706 61.3437 90.5276 70.2537 92.2656 71.7517C93.9336 73.1897 108.204 83.9258 116.385 87.9378C116.993 88.2358 117.705 88.0078 118.068 87.4098C118.287 87.0488 118.552 86.6098 118.843 86.1278C118.81 86.0138 118.79 85.9427 118.79 85.9427Z" fill="#24126A"/>
<path d="M83.1519 27.7768L90.2309 37.8438L92.0519 37.1978L92.1519 39.1188C92.1519 39.1188 100.624 45.4298 106.96 58.5398C106.96 58.5398 98.5739 45.0368 91.8969 40.5428L91.2899 38.6138L89.8699 38.9398L83.1519 27.7768Z" fill="#24126A"/>
<path d="M82.5159 13.7697C82.4389 13.7427 82.3669 13.7238 82.2949 13.7048C83.1239 15.7508 84.3059 17.1738 84.3059 17.1738C84.3059 17.1738 83.7319 15.8288 85.1159 15.2598C85.5999 15.0608 86.0859 15.1507 86.5139 15.3527C87.3619 15.7517 87.9159 16.5987 88.0419 17.5457L88.0489 17.5977C88.0979 17.9637 88.3889 18.2428 88.7519 18.2708L88.8839 18.2807C89.2089 18.3057 89.5179 18.1227 89.6599 17.8227L90.2309 16.6127C90.3499 16.3607 90.4309 16.0947 90.4689 15.8187C90.5639 15.1317 90.6309 14.1108 90.6679 13.4388C90.6679 13.4388 85.9459 14.9667 82.5159 13.7697Z" fill="#936D6D"/>
<defs>
<linearGradient id="paint0_linear_2109_806" x1="-74.0399" y1="7.42945" x2="190.667" y2="114.468" gradientUnits="userSpaceOnUse">
<stop stop-color="#C0BFF6"/>
<stop offset="0.2938" stop-color="#C5C4F7"/>
<stop offset="0.6399" stop-color="#D3D2F9"/>
<stop offset="1" stop-color="#E9E9FD"/>
</linearGradient>
<linearGradient id="paint1_linear_2109_806" x1="300.545" y1="294.265" x2="227.39" y2="129.283" gradientUnits="userSpaceOnUse">
<stop stop-color="#C0BFF6"/>
<stop offset="0.2938" stop-color="#C5C4F7"/>
<stop offset="0.6399" stop-color="#D3D2F9"/>
<stop offset="1" stop-color="#E9E9FD"/>
</linearGradient>
<linearGradient id="paint2_linear_2109_806" x1="169.497" y1="134.043" x2="367.205" y2="218.324" gradientUnits="userSpaceOnUse">
<stop stop-color="#C0BFF6"/>
<stop offset="0.2938" stop-color="#C5C4F7"/>
<stop offset="0.6399" stop-color="#D3D2F9"/>
<stop offset="1" stop-color="#E9E9FD"/>
</linearGradient>
</defs>
</svg>
