<svg width="255" height="257" viewBox="0 0 255 257" fill="none" xmlns="http://www.w3.org/2000/svg">
<path d="M241.273 175.535C217.601 232.088 154.544 263.769 99.8616 255.223C90.9636 253.833 66.5696 249.69 44.9721 230.148C3.39529 192.528 -5.49621 118.035 28.0425 65.5379C52.4528 27.3293 96.2107 5.67013 137.789 6.75355C146.745 6.98687 181.069 8.42514 211.233 33.6617C215.663 37.3684 225.435 46.1767 234.242 60.1504C254.922 92.9632 256.7 138.679 241.273 175.535Z" fill="url(#paint0_linear_2112_1047)"/>
<path d="M1.40485 164.982C5.44654 147.731 18.6629 134.189 35.4881 130.048C47.0555 127.201 58.1534 128.729 67.5338 133.342C70.6451 134.872 74.3423 133.14 75.2043 129.714C83.4964 96.759 112.68 72.4128 147.412 72.4128C188.595 72.4128 221.981 106.644 221.981 148.871C221.981 149.992 221.959 151.523 221.94 152.992C222.086 156.15 223.43 157.49 225.438 157.827C241.573 159.549 254.254 173.188 254.958 190.01C255.766 209.326 240.433 225.328 221.577 225.328H47.1647C17.3078 225.329 -6.06947 196.883 1.40485 164.982Z" fill="#4F0188"/>
<path opacity="0.21" d="M14.913 171.447C18.5217 156.045 30.3223 143.953 45.3449 140.255C55.6731 137.713 65.5821 139.077 73.9576 143.197C76.7355 144.563 80.0366 143.016 80.8062 139.958C88.21 110.533 114.267 88.7949 145.278 88.7949C182.049 88.7949 211.859 119.359 211.859 157.062C211.859 158.063 211.839 159.43 211.822 160.742C211.952 163.561 213.153 164.758 214.945 165.059C229.352 166.596 240.674 178.774 241.302 193.794C242.024 211.04 228.334 225.329 211.498 225.329H55.7706C29.1123 225.329 8.23949 199.931 14.913 171.447Z" fill="#CA80FF"/>
<path d="M35.1635 245.993C35.1635 247.406 36.3211 248.563 37.736 248.563H176.851C178.266 248.563 179.424 247.406 179.424 245.993L180.581 166.047C180.581 164.634 178.916 161.874 175.864 162.081L39.9051 158.564C38.1298 158.518 36.4133 159.201 35.1561 160.454C33.8989 161.707 33.2111 163.42 33.253 165.194L35.1635 245.993Z" fill="#360A56"/>
<path d="M37.7035 243.527C37.7035 244.866 38.7987 245.961 40.1373 245.961H173.496C174.835 245.961 175.93 244.866 175.93 243.527L177.023 170.952C176.894 166.584 173.065 165.015 170.744 165.107L40.44 161.612C39.1928 161.578 37.9869 162.059 37.1035 162.94C36.2201 163.821 35.7343 165.027 35.7656 166.274L37.7035 243.527Z" fill="#BB75EE"/>
<path d="M174.489 209.049C174.487 209.049 174.486 209.049 174.486 209.049C174.287 209.046 174.129 208.884 174.132 208.687L174.219 202.801C174.222 202.606 174.381 202.45 174.575 202.45C174.577 202.45 174.579 202.45 174.579 202.45C174.778 202.453 174.935 202.615 174.932 202.812L174.846 208.698C174.843 208.893 174.684 209.049 174.489 209.049Z" fill="white"/>
<path d="M174.701 194.626C174.701 194.626 174.697 194.626 174.696 194.626C174.499 194.623 174.341 194.461 174.344 194.264L174.675 171.721C174.669 170.382 174.263 169.313 173.467 168.551C171.982 167.128 169.624 167.201 169.525 167.205L127.877 166.088C127.68 166.084 127.525 165.919 127.53 165.722C127.535 165.526 127.687 165.358 127.896 165.376L169.52 166.493C169.779 166.477 172.289 166.434 173.96 168.036C174.901 168.937 175.381 170.178 175.388 171.725L175.057 194.274C175.054 194.469 174.895 194.626 174.701 194.626Z" fill="white"/>
<path d="M24.3961 255.2H187.371C187.656 255.2 187.889 254.966 187.889 254.681V248.693C187.889 248.408 187.656 248.175 187.371 248.175H24.3961C24.1111 248.175 23.8779 248.408 23.8779 248.693V254.681C23.878 254.966 24.1112 255.2 24.3961 255.2Z" fill="#4F0188"/>
<path d="M95.5607 242.421H44.2141C42.3209 242.421 40.7861 240.886 40.7861 238.993V171.97C40.7861 170.025 42.402 168.47 44.3451 168.544L95.6916 170.509C97.5325 170.58 98.9885 172.092 98.9885 173.935V238.993C98.9885 240.886 97.4539 242.421 95.5607 242.421Z" fill="#9544D0"/>
<path opacity="0.51" d="M85.3477 199.357H51.3364C51.0665 199.357 50.8477 199.138 50.8477 198.868V195.325C50.8477 195.055 51.0665 194.837 51.3364 194.837H85.3477C85.6177 194.837 85.8364 195.055 85.8364 195.325V198.868C85.8365 199.138 85.6177 199.357 85.3477 199.357Z" fill="white"/>
<path opacity="0.51" d="M85.4165 206.575H51.4052C51.1354 206.575 50.9165 206.356 50.9165 206.086V202.543C50.9165 202.274 51.1354 202.055 51.4052 202.055H85.4165C85.6865 202.055 85.9053 202.274 85.9053 202.543V206.086C85.9054 206.356 85.6865 206.575 85.4165 206.575Z" fill="white"/>
<path opacity="0.51" d="M85.6216 213.944H51.6103C51.3404 213.944 51.1216 213.725 51.1216 213.456V209.913C51.1216 209.643 51.3404 209.424 51.6103 209.424H85.6216C85.8916 209.424 86.1103 209.643 86.1103 209.913V213.456C86.1103 213.725 85.8916 213.944 85.6216 213.944Z" fill="white"/>
<path opacity="0.51" d="M85.6904 221.162H51.6792C51.4092 221.162 51.1904 220.944 51.1904 220.674V217.131C51.1904 216.861 51.4093 216.642 51.6792 216.642H85.6904C85.9604 216.642 86.1792 216.861 86.1792 217.131V220.674C86.1792 220.944 85.9603 221.162 85.6904 221.162Z" fill="white"/>
<path opacity="0.51" d="M159.938 199.351H110.612C110.342 199.351 110.123 199.132 110.123 198.863V195.32C110.123 195.05 110.342 194.831 110.612 194.831H159.938C160.208 194.831 160.426 195.05 160.426 195.32V198.863C160.426 199.132 160.208 199.351 159.938 199.351Z" fill="white"/>
<path opacity="0.51" d="M160.093 206.575H110.767C110.497 206.575 110.278 206.356 110.278 206.086V202.543C110.278 202.274 110.497 202.055 110.767 202.055H160.093C160.363 202.055 160.582 202.274 160.582 202.543V206.086C160.582 206.356 160.363 206.575 160.093 206.575Z" fill="white"/>
<path opacity="0.51" d="M139.597 213.944H110.767C110.497 213.944 110.278 213.725 110.278 213.456V209.913C110.278 209.643 110.497 209.424 110.767 209.424H139.597C139.867 209.424 140.086 209.643 140.086 209.913V213.456C140.086 213.725 139.867 213.944 139.597 213.944Z" fill="white"/>
<g opacity="0.51">
<path d="M136.827 177.985H136.06C135.68 177.985 135.371 177.676 135.371 177.296V174.677C135.371 173.739 134.611 172.98 133.674 172.98H128.926C127.989 172.98 127.229 173.739 127.229 174.677V177.296C127.229 177.676 126.92 177.985 126.54 177.985H125.774C125.393 177.985 125.085 177.676 125.085 177.296V174.677C125.085 172.555 126.805 170.835 128.926 170.835H133.674C135.796 170.835 137.516 172.555 137.516 174.677V177.296C137.515 177.676 137.207 177.985 136.827 177.985Z" fill="white"/>
<path d="M137.776 178.603H124.824C124.03 178.603 123.386 179.246 123.386 180.04V189.981C123.386 190.774 124.03 191.418 124.824 191.418H137.776C138.57 191.418 139.213 190.774 139.213 189.981V180.04C139.213 179.246 138.57 178.603 137.776 178.603ZM133.153 188.211C133.234 188.546 132.98 188.868 132.635 188.868H129.965C129.62 188.868 129.366 188.546 129.447 188.211L130.07 185.616C129.334 185.176 128.853 184.354 128.903 183.424C128.966 182.219 129.943 181.233 131.147 181.158C132.542 181.072 133.701 182.178 133.701 183.554C133.701 184.431 133.231 185.197 132.53 185.616L133.153 188.211Z" fill="white"/>
</g>
<path d="M174.53 61.9343C174.48 61.9343 174.428 61.9219 174.381 61.8954C174.232 61.8125 174.178 61.6249 174.261 61.476C174.46 61.1187 174.652 60.7589 174.839 60.3967C174.917 60.2455 175.102 60.1864 175.255 60.2641C175.406 60.3421 175.465 60.5283 175.387 60.6799C175.197 61.0475 175.002 61.4127 174.8 61.7754C174.744 61.877 174.639 61.9343 174.53 61.9343Z" fill="#DF91FA"/>
<path d="M138.438 83.1776C138.256 83.1776 138.074 83.1764 137.892 83.174C137.721 83.1716 137.585 83.0318 137.587 82.8612C137.59 82.6925 137.727 82.5569 137.896 82.5569H137.9C138.698 82.5677 139.504 82.5545 140.301 82.5183C140.46 82.5075 140.615 82.6421 140.623 82.8126C140.631 82.9828 140.499 83.1269 140.329 83.1347C139.702 83.1631 139.066 83.1776 138.438 83.1776ZM133.973 82.9368C133.962 82.9368 133.951 82.9362 133.939 82.935C133.133 82.8477 132.321 82.7358 131.525 82.6023C131.357 82.574 131.244 82.4149 131.272 82.2471C131.3 82.079 131.46 81.9645 131.627 81.9937C132.412 82.1254 133.212 82.2356 134.006 82.3215C134.175 82.3398 134.298 82.4921 134.279 82.6613C134.262 82.8196 134.128 82.9368 133.973 82.9368ZM144.228 82.7714C144.077 82.7714 143.945 82.6599 143.923 82.506C143.899 82.3373 144.017 82.1812 144.185 82.1574C144.975 82.0462 145.771 81.91 146.552 81.7528C146.718 81.7193 146.882 81.8275 146.916 81.9944C146.949 82.1613 146.841 82.3241 146.674 82.3578C145.881 82.5175 145.073 82.6555 144.272 82.7685C144.257 82.7705 144.242 82.7714 144.228 82.7714ZM127.736 81.7741C127.709 81.7741 127.682 81.7708 127.656 81.7636C126.874 81.5548 126.088 81.3201 125.321 81.0661C125.159 81.0127 125.071 80.838 125.125 80.6762C125.178 80.5147 125.352 80.4273 125.515 80.4804C126.271 80.7305 127.045 80.9619 127.815 81.1676C127.98 81.2116 128.077 81.3806 128.033 81.5452C127.997 81.6831 127.872 81.7741 127.736 81.7741ZM150.425 81.405C150.293 81.405 150.17 81.3191 150.13 81.186C150.081 81.0229 150.173 80.8506 150.336 80.8012C151.1 80.5696 151.866 80.3125 152.613 80.0375C152.772 79.9787 152.95 80.0604 153.009 80.2204C153.068 80.3804 152.986 80.5575 152.826 80.6166C152.068 80.8959 151.291 81.1568 150.515 81.3918C150.485 81.4008 150.455 81.405 150.425 81.405ZM121.75 79.6702C121.708 79.6702 121.666 79.6617 121.625 79.644C120.884 79.3171 120.144 78.9642 119.426 78.5957C119.274 78.518 119.214 78.3318 119.292 78.1802C119.37 78.0293 119.556 77.969 119.708 78.0468C120.415 78.4099 121.144 78.7572 121.874 79.0793C122.03 79.1481 122.101 79.3303 122.032 79.486C121.981 79.6014 121.868 79.6702 121.75 79.6702ZM156.338 79.101C156.223 79.101 156.113 79.0368 156.06 78.9262C155.986 78.7729 156.05 78.5885 156.204 78.5143C156.922 78.1688 157.639 77.7967 158.336 77.4083C158.486 77.3257 158.673 77.3791 158.756 77.5279C158.839 77.6767 158.785 77.8648 158.636 77.9476C157.928 78.3417 157.2 78.7195 156.471 79.0705C156.428 79.0913 156.383 79.101 156.338 79.101ZM116.161 76.6701C116.104 76.6701 116.046 76.6544 115.995 76.6213C115.314 76.1844 114.637 75.7216 113.983 75.2461C113.846 75.1458 113.815 74.953 113.915 74.8149C114.016 74.6773 114.209 74.6471 114.347 74.7471C114.99 75.2156 115.657 75.6712 116.328 76.1017C116.471 76.1936 116.513 76.3846 116.421 76.5281C116.362 76.6201 116.263 76.6701 116.161 76.6701ZM161.825 75.9117C161.727 75.9117 161.63 75.8654 161.57 75.7786C161.474 75.6382 161.509 75.4459 161.649 75.3492C162.305 74.8964 162.957 74.4182 163.586 73.9277C163.72 73.8232 163.914 73.847 164.019 73.9813C164.124 74.1157 164.1 74.3097 163.966 74.4146C163.327 74.9121 162.666 75.3974 162 75.8572C161.946 75.894 161.885 75.9117 161.825 75.9117ZM111.103 72.8445C111.03 72.8445 110.957 72.8189 110.898 72.7671C110.295 72.2326 109.696 71.6715 109.121 71.0993C109 70.9791 109 70.7839 109.12 70.6631C109.24 70.5426 109.436 70.5417 109.556 70.6619C110.123 71.2253 110.712 71.7782 111.307 72.3049C111.435 72.4179 111.447 72.6128 111.334 72.7406C111.273 72.8093 111.188 72.8445 111.103 72.8445ZM166.76 71.9183C166.679 71.9183 166.597 71.8858 166.536 71.8217C166.419 71.6976 166.425 71.5023 166.549 71.3853C167.129 70.8376 167.701 70.2666 168.247 69.6878C168.364 69.5643 168.56 69.5589 168.683 69.6752C168.807 69.7924 168.813 69.9876 168.696 70.1115C168.141 70.6987 167.561 71.2784 166.972 71.8343C166.913 71.8903 166.836 71.9183 166.76 71.9183ZM106.685 68.2892C106.596 68.2892 106.508 68.2513 106.447 68.1781C105.93 67.5574 105.424 66.9123 104.942 66.2609C104.841 66.1238 104.87 65.9307 105.007 65.8291C105.145 65.7279 105.338 65.7575 105.439 65.8939C105.913 66.536 106.412 67.1717 106.921 67.7834C107.031 67.9141 107.013 68.1088 106.882 68.2178C106.824 68.2657 106.754 68.2892 106.685 68.2892ZM171.031 67.2263C170.965 67.2263 170.898 67.2052 170.842 67.1612C170.707 67.0566 170.683 66.8626 170.788 66.7283C171.279 66.097 171.756 65.4453 172.206 64.7912C172.304 64.6508 172.496 64.6152 172.636 64.7116C172.776 64.8083 172.812 65.0006 172.715 65.1407C172.258 65.805 171.774 66.4667 171.275 67.1073C171.214 67.1853 171.123 67.2263 171.031 67.2263ZM103.009 63.1168C102.904 63.1168 102.801 63.0635 102.744 62.9671C102.325 62.2708 101.924 61.5555 101.551 60.8411C101.472 60.6902 101.53 60.5037 101.682 60.4247C101.832 60.3461 102.019 60.4042 102.098 60.5555C102.466 61.259 102.861 61.9634 103.273 62.6494C103.361 62.7955 103.313 62.985 103.167 63.0728C103.117 63.1026 103.062 63.1168 103.009 63.1168ZM100.172 57.4404C100.05 57.4404 99.935 57.3678 99.8861 57.2479C99.5809 56.4961 99.295 55.7275 99.0361 54.9634C98.9816 54.8022 99.068 54.6269 99.2296 54.5724C99.3896 54.5179 99.5658 54.6044 99.6207 54.7659C99.8756 55.5182 100.157 56.275 100.458 57.0159C100.522 57.1738 100.446 57.3536 100.288 57.4179C100.25 57.4332 100.211 57.4404 100.172 57.4404Z" fill="#DF91FA"/>
<path d="M98.2416 51.3779C98.1015 51.3779 97.975 51.2822 97.9415 51.1399C97.8469 50.7362 97.758 50.3315 97.6755 49.926C97.6415 49.7591 97.7493 49.5961 97.9162 49.5624C98.0828 49.5287 98.2461 49.6356 98.2799 49.8031C98.3612 50.2027 98.4488 50.6013 98.5423 50.999C98.5812 51.1651 98.4782 51.331 98.3124 51.3699C98.2886 51.3752 98.2652 51.3779 98.2416 51.3779Z" fill="#DF91FA"/>
<path d="M103.473 19.9149C103.416 19.9149 103.36 19.8995 103.309 19.8673C103.165 19.7765 103.121 19.5858 103.212 19.4419C103.432 19.0923 103.658 18.745 103.89 18.4006C103.985 18.2593 104.177 18.2211 104.318 18.3166C104.46 18.4118 104.497 18.6034 104.402 18.7447C104.174 19.0843 103.951 19.4263 103.734 19.7709C103.676 19.864 103.575 19.9149 103.473 19.9149Z" fill="#DF91FA"/>
<path d="M178.041 30.2507C177.907 30.2507 177.784 30.1636 177.744 30.0289C177.509 29.2247 177.244 28.4175 176.959 27.6294C176.902 27.4693 176.984 27.2925 177.145 27.2344C177.304 27.1759 177.482 27.2594 177.54 27.4197C177.829 28.2194 178.097 29.0388 178.337 29.8554C178.385 30.019 178.291 30.1904 178.127 30.2384C178.098 30.2467 178.069 30.2507 178.041 30.2507ZM175.65 24.0231C175.535 24.0231 175.424 23.9585 175.371 23.8483C175.007 23.0914 174.616 22.3376 174.207 21.6079C174.124 21.4593 174.177 21.2714 174.326 21.1879C174.475 21.1053 174.663 21.158 174.746 21.3065C175.16 22.0471 175.558 22.8124 175.927 23.5807C176.001 23.7344 175.937 23.9188 175.783 23.9925C175.74 24.0134 175.695 24.0231 175.65 24.0231ZM172.28 18.2653C172.183 18.2653 172.087 18.2195 172.027 18.1336C171.547 17.4482 171.039 16.7676 170.516 16.1111C170.41 15.9776 170.432 15.7835 170.566 15.6775C170.699 15.5708 170.893 15.5934 170.999 15.7266C171.529 16.3934 172.045 17.0839 172.533 17.78C172.63 17.9195 172.597 18.1117 172.457 18.2096C172.403 18.2472 172.341 18.2653 172.28 18.2653ZM106.621 15.5726C106.552 15.5726 106.482 15.5494 106.425 15.5014C106.294 15.3927 106.276 15.198 106.384 15.0669C106.926 14.4149 107.496 13.7686 108.08 13.1465C108.197 13.022 108.392 13.016 108.517 13.1326C108.641 13.2496 108.647 13.4448 108.53 13.5689C107.955 14.182 107.392 14.8187 106.859 15.4611C106.798 15.5346 106.71 15.5726 106.621 15.5726ZM168.028 13.1245C167.948 13.1245 167.867 13.0932 167.807 13.0309C167.226 12.4316 166.616 11.8408 165.995 11.2746C165.869 11.1598 165.86 10.9646 165.975 10.8387C166.09 10.7121 166.285 10.7034 166.411 10.8185C167.041 11.3934 167.66 11.9929 168.25 12.6013C168.368 12.7236 168.365 12.9188 168.243 13.0376C168.183 13.0956 168.106 13.1245 168.028 13.1245ZM111.28 10.7976C111.194 10.7976 111.108 10.7618 111.047 10.6921C110.935 10.5637 110.948 10.3688 111.077 10.2567C111.719 9.69605 112.385 9.14856 113.058 8.6294C113.194 8.52575 113.387 8.55077 113.491 8.68512C113.595 8.82012 113.57 9.01385 113.435 9.11805C112.772 9.62933 112.115 10.1687 111.483 10.7213C111.424 10.7726 111.352 10.7976 111.28 10.7976ZM163.015 8.72829C162.951 8.72829 162.886 8.7084 162.831 8.66744C162.158 8.16761 161.462 7.68281 160.76 7.22605C160.617 7.13322 160.577 6.94196 160.67 6.79908C160.763 6.65658 160.953 6.61588 161.097 6.70899C161.809 7.17271 162.516 7.66475 163.199 8.1721C163.336 8.27364 163.364 8.4671 163.263 8.60383C163.202 8.68521 163.109 8.72829 163.015 8.72829ZM116.641 6.82438C116.538 6.82438 116.437 6.77287 116.379 6.67885C116.289 6.53423 116.333 6.34407 116.478 6.25398C117.199 5.80474 117.945 5.37145 118.695 4.96684C118.845 4.88519 119.032 4.9421 119.113 5.09157C119.194 5.24159 119.138 5.42873 118.988 5.50974C118.25 5.90839 117.515 6.335 116.804 6.77764C116.753 6.80935 116.697 6.82438 116.641 6.82438ZM157.356 5.1998C157.309 5.1998 157.261 5.18899 157.215 5.16544C156.471 4.7819 155.705 4.41643 154.938 4.07899C154.782 4.01063 154.711 3.82862 154.78 3.67255C154.848 3.51648 155.03 3.44509 155.186 3.51437C155.965 3.85666 156.743 4.22755 157.498 4.61713C157.65 4.69512 157.709 4.88134 157.631 5.03264C157.576 5.13895 157.468 5.1998 157.356 5.1998ZM122.573 3.76951C122.452 3.76951 122.337 3.69812 122.288 3.57944C122.222 3.42218 122.297 3.24173 122.454 3.17602C123.238 2.85032 124.044 2.54386 124.851 2.26609C125.012 2.21092 125.187 2.29587 125.243 2.45707C125.298 2.61828 125.213 2.79396 125.052 2.8494C124.258 3.12324 123.463 3.42484 122.691 3.74605C122.653 3.762 122.612 3.76951 122.573 3.76951ZM151.201 2.63422C151.17 2.63422 151.137 2.62936 151.106 2.61919C150.309 2.36094 149.494 2.12413 148.682 1.91509C148.517 1.87257 148.417 1.70422 148.46 1.53935C148.502 1.3742 148.673 1.27514 148.836 1.31729C149.66 1.52972 150.488 1.77011 151.296 2.0323C151.458 2.08472 151.547 2.25885 151.494 2.42096C151.452 2.55137 151.331 2.63422 151.201 2.63422ZM128.92 1.71769C128.78 1.71769 128.653 1.62192 128.62 1.47996C128.581 1.31427 128.684 1.14794 128.85 1.1088C129.679 0.913234 130.524 0.741493 131.361 0.598437C131.533 0.57131 131.689 0.682474 131.717 0.850366C131.746 1.01853 131.633 1.1779 131.465 1.2065C130.641 1.34754 129.809 1.5168 128.991 1.70962C128.968 1.71503 128.944 1.71769 128.92 1.71769ZM144.712 1.09524C144.696 1.09524 144.68 1.09405 144.665 1.09158C143.836 0.964465 142.993 0.861731 142.158 0.785758C141.989 0.770362 141.864 0.620065 141.879 0.450432C141.895 0.280799 142.041 0.155154 142.214 0.1711C143.061 0.248265 143.917 0.352829 144.758 0.481773C144.926 0.507708 145.042 0.66497 145.016 0.833412C144.993 0.986183 144.861 1.09524 144.712 1.09524ZM135.516 0.716751C135.355 0.716751 135.22 0.592297 135.209 0.429904C135.196 0.259721 135.325 0.112355 135.494 0.100625C136.342 0.0409642 137.203 0.00723989 138.055 0H138.058C138.227 0 138.365 0.136459 138.366 0.305817C138.368 0.476367 138.231 0.615574 138.06 0.617041C137.221 0.62428 136.372 0.657456 135.538 0.715833C135.53 0.716475 135.523 0.716751 135.516 0.716751Z" fill="#DF91FA"/>
<path d="M179.214 35.5034C179.064 35.5034 178.933 35.3946 178.909 35.2425C178.846 34.8396 178.778 34.4374 178.702 34.0358C178.671 33.8683 178.782 33.7071 178.949 33.6758C179.116 33.6468 179.278 33.7553 179.309 33.9226C179.385 34.3302 179.455 34.7385 179.519 35.1474C179.545 35.3158 179.43 35.4737 179.261 35.4999C179.245 35.5022 179.229 35.5034 179.214 35.5034Z" fill="#DF91FA"/>
<path d="M170.126 40.6659C170.142 40.4552 170.023 40.2571 169.829 40.1729L164.298 37.7702C163.871 34.9867 162.997 32.2512 161.665 29.6773L164.717 24.4811C164.824 24.2988 164.804 24.0688 164.666 23.9081L159.964 18.4117C159.827 18.251 159.603 18.1953 159.406 18.2727L153.8 20.4833C151.463 18.7688 148.896 17.4813 146.213 16.6281L144.696 10.7917C144.642 10.5872 144.465 10.4389 144.255 10.4225L137.043 9.86063C136.832 9.84423 136.634 9.96328 136.55 10.1572L134.148 15.6881C131.364 16.1154 128.629 16.9896 126.055 18.3216L120.858 15.2694C120.676 15.1623 120.446 15.1826 120.285 15.3201L114.789 20.0221C114.628 20.1594 114.573 20.3836 114.65 20.5803L116.861 26.1866C115.146 28.5232 113.859 31.09 113.005 33.7738L107.169 35.2908C106.964 35.3441 106.816 35.5212 106.8 35.7318L106.238 42.9431C106.221 43.1539 106.34 43.3518 106.534 43.436L112.065 45.8387C112.492 48.6222 113.367 51.3577 114.699 53.9316L111.646 59.1279C111.539 59.3101 111.56 59.5402 111.697 59.7008L116.399 65.1974C116.536 65.3581 116.761 65.4137 116.957 65.3362L122.564 63.1256C124.9 64.8403 127.467 66.1277 130.151 66.9808L131.668 72.8171C131.721 73.0217 131.898 73.17 132.109 73.1864L139.32 73.7483C139.531 73.7647 139.729 73.6456 139.813 73.4517L142.216 67.9209C144.999 67.4937 147.735 66.6194 150.309 65.2873L155.505 68.3397C155.687 68.4467 155.917 68.4263 156.078 68.2889L161.575 63.5871C161.735 63.4497 161.791 63.2255 161.714 63.0288L159.503 57.4225C161.218 55.086 162.505 52.5189 163.358 49.8353L169.194 48.3182C169.399 48.2651 169.547 48.088 169.564 47.8771L170.126 40.6659Z" fill="#DF91FA"/>
<path opacity="0.7" d="M138.167 48.6916C136.755 48.6918 135.38 48.2571 134.204 47.4249C131.105 45.2318 130.368 40.9263 132.561 37.8271C133.624 36.3257 135.207 35.3282 137.02 35.0179C138.833 34.7085 140.658 35.1222 142.159 36.1842C143.66 37.2469 144.658 38.8303 144.968 40.6428C145.279 42.4557 144.864 44.281 143.802 45.782C142.74 47.2834 141.156 48.281 139.343 48.5913C138.951 48.6584 138.557 48.6916 138.167 48.6916ZM138.194 35.843C137.857 35.843 137.516 35.872 137.176 35.9301C135.607 36.1985 134.236 37.0621 133.317 38.3616C131.418 41.044 132.056 44.7711 134.739 46.6693C136.038 47.5892 137.617 47.9469 139.187 47.679C140.757 47.4106 142.127 46.547 143.047 45.2475C143.966 43.948 144.325 42.3683 144.056 40.7991C143.788 39.2299 142.924 37.8593 141.625 36.9397C140.607 36.2193 139.417 35.843 138.194 35.843Z" fill="white"/>
<path opacity="0.7" d="M138.057 59.7227C137.585 59.7227 137.111 59.7043 136.636 59.6673C131.865 59.2957 127.524 57.0881 124.414 53.4515C121.612 50.1773 120.11 46.0974 120.11 41.8343C120.11 41.3624 120.129 40.8888 120.166 40.4134C120.538 35.6423 122.745 31.3015 126.382 28.1906C130.018 25.08 134.648 23.5714 139.42 23.9432C144.191 24.3147 148.532 26.5223 151.642 30.1589C152.473 31.1297 153.2 32.1876 153.802 33.3027L152.988 33.7426C152.417 32.685 151.727 31.6817 150.939 30.7607C147.989 27.3117 143.873 25.2183 139.348 24.8657C134.823 24.5162 130.432 25.9441 126.983 28.8938C123.535 31.8441 121.441 35.9607 121.088 40.4853C121.053 40.936 121.036 41.3853 121.036 41.8328C121.036 45.8755 122.46 49.7449 125.117 52.85C128.067 56.2987 132.183 58.3921 136.708 58.7446C141.236 59.0974 145.624 57.6666 149.073 54.7165C151.413 52.7141 153.165 50.1202 154.137 47.2155L155.015 47.5096C153.989 50.5731 152.142 53.3086 149.674 55.4198C146.4 58.2208 142.32 59.7227 138.057 59.7227Z" fill="white"/>
<path d="M209.331 72.062C209.277 72.062 209.223 72.0482 209.174 72.019C209.027 71.9322 208.979 71.7429 209.066 71.5962C209.273 71.2461 209.471 70.8885 209.655 70.533C209.733 70.3817 209.918 70.3226 210.07 70.4004C210.222 70.4783 210.281 70.6646 210.203 70.8161C210.014 71.1823 209.81 71.5504 209.596 71.9107C209.539 72.0082 209.436 72.062 209.331 72.062Z" fill="#DF91FA"/>
<path d="M189.418 82.3882C189.41 82.3882 189.402 82.3879 189.394 82.3872C188.557 82.3213 187.716 82.2055 186.895 82.0435C186.728 82.0103 186.619 81.8479 186.652 81.681C186.685 81.5138 186.848 81.4047 187.014 81.4379C187.812 81.5958 188.629 81.7081 189.442 81.772C189.612 81.7856 189.738 81.9341 189.725 82.1038C189.713 82.2655 189.577 82.3882 189.418 82.3882ZM193.453 82.3228C193.298 82.3228 193.165 82.2062 193.147 82.0486C193.128 81.8793 193.25 81.7265 193.419 81.7075C194.231 81.6165 195.044 81.4773 195.834 81.2936C195.999 81.2532 196.166 81.3577 196.205 81.524C196.243 81.6901 196.14 81.8558 195.974 81.8944C195.16 82.0839 194.324 82.2273 193.488 82.321C193.476 82.3222 193.465 82.3228 193.453 82.3228ZM183.087 80.8937C183.048 80.8937 183.009 80.8865 182.97 80.8711C182.195 80.5559 181.429 80.1907 180.694 79.7858C180.545 79.7035 180.49 79.5158 180.572 79.3667C180.655 79.2176 180.842 79.1637 180.991 79.2453C181.706 79.6385 182.45 79.9931 183.203 80.2992C183.361 80.3634 183.437 80.5435 183.373 80.7014C183.324 80.8211 183.208 80.8937 183.087 80.8937ZM199.731 80.6169C199.613 80.6169 199.5 80.5488 199.449 80.4343C199.379 80.2785 199.449 80.0962 199.605 80.0267C200.349 79.6944 201.081 79.3141 201.78 78.8968C201.925 78.8091 202.115 78.857 202.203 79.0035C202.29 79.1499 202.242 79.3391 202.096 79.4265C201.376 79.8565 200.623 80.2478 199.857 80.5901C199.816 80.6084 199.773 80.6169 199.731 80.6169ZM177.512 77.5457C177.443 77.5457 177.373 77.5222 177.315 77.474C176.674 76.9386 176.055 76.3577 175.477 75.7479C175.36 75.6241 175.365 75.4288 175.488 75.3116C175.612 75.1946 175.808 75.1995 175.925 75.323C176.486 75.916 177.087 76.48 177.71 77.0004C177.841 77.1094 177.859 77.3041 177.749 77.4349C177.689 77.508 177.601 77.5457 177.512 77.5457ZM205.191 77.0805C205.106 77.0805 205.021 77.0456 204.961 76.9775C204.847 76.8504 204.858 76.6551 204.985 76.5418L205.167 76.3782C205.709 75.8832 206.231 75.355 206.718 74.8082C206.831 74.6801 207.026 74.6687 207.153 74.7826C207.281 74.8959 207.292 75.0908 207.179 75.218C206.678 75.7812 206.141 76.325 205.583 76.8344L205.396 77.0022C205.337 77.0545 205.264 77.0805 205.191 77.0805ZM173.211 72.6668C173.11 72.6668 173.01 72.6168 172.951 72.5246C172.499 71.8189 172.084 71.0786 171.718 70.3236C171.643 70.1702 171.707 69.9858 171.86 69.9113C172.014 69.8372 172.198 69.9011 172.273 70.0541C172.628 70.7872 173.032 71.5064 173.471 72.1918C173.562 72.3352 173.521 72.526 173.377 72.6179C173.326 72.6511 173.268 72.6668 173.211 72.6668Z" fill="#DF91FA"/>
<path d="M170.587 66.701C170.45 66.701 170.326 66.6098 170.289 66.4715C170.182 66.0704 170.087 65.6604 170.004 65.2533C169.97 65.0865 170.077 64.9237 170.245 64.8897C170.412 64.8557 170.575 64.9632 170.608 65.1304C170.689 65.5257 170.782 65.9237 170.885 66.3137C170.929 66.4782 170.831 66.6472 170.666 66.6909C170.64 66.6977 170.613 66.701 170.587 66.701Z" fill="#DF91FA"/>
<path d="M173.128 49.9574C173.072 49.9574 173.015 49.942 172.964 49.9097C172.82 49.819 172.776 49.6286 172.867 49.4843C173.089 49.1324 173.324 48.7829 173.565 48.4452C173.664 48.3069 173.857 48.2746 173.996 48.3735C174.134 48.4727 174.166 48.6652 174.067 48.8038C173.833 49.1318 173.605 49.4715 173.389 49.8134C173.331 49.9064 173.231 49.9574 173.128 49.9574Z" fill="#DF91FA"/>
<path d="M210.607 52.958C210.487 52.958 210.373 52.8875 210.323 52.7699C210.01 52.0329 209.65 51.3062 209.253 50.6099C209.169 50.462 209.22 50.2734 209.368 50.189C209.516 50.1046 209.705 50.1564 209.789 50.3043C210.198 51.0215 210.568 51.7698 210.891 52.5288C210.957 52.6855 210.884 52.8669 210.727 52.9334C210.688 52.9501 210.647 52.958 210.607 52.958ZM207.24 47.5147C207.153 47.5147 207.066 47.4779 207.005 47.4063C206.848 47.2212 206.687 47.0384 206.522 46.8573C206.145 46.4448 205.748 46.0426 205.341 45.6617C205.216 45.5452 205.21 45.3499 205.326 45.2255C205.443 45.1008 205.638 45.0945 205.762 45.211C206.181 45.603 206.59 46.017 206.977 46.4415C207.147 46.6275 207.313 46.8157 207.475 47.0062C207.585 47.136 207.57 47.3307 207.44 47.4412C207.382 47.4906 207.311 47.5147 207.24 47.5147ZM176.418 45.9323C176.337 45.9323 176.256 45.9004 176.195 45.8368C176.078 45.7132 176.082 45.518 176.205 45.4005C176.33 45.2814 176.457 45.1634 176.584 45.0464C177.066 44.6065 177.574 44.1838 178.093 43.79C178.228 43.6866 178.422 43.7128 178.525 43.849C178.628 43.9846 178.602 44.178 178.466 44.2811C177.962 44.6641 177.469 45.0748 177.001 45.502C176.876 45.6159 176.753 45.731 176.631 45.8469C176.571 45.9039 176.495 45.9323 176.418 45.9323ZM202.41 43.3158C202.353 43.3158 202.297 43.3004 202.245 43.2683C201.568 42.8401 200.859 42.4475 200.138 42.101C199.984 42.0272 199.919 41.8431 199.993 41.6894C200.067 41.5357 200.25 41.47 200.405 41.5448C201.147 41.9016 201.878 42.3059 202.575 42.7463C202.719 42.8376 202.762 43.0281 202.671 43.1721C202.612 43.2649 202.512 43.3158 202.41 43.3158ZM181.653 42.2501C181.54 42.2501 181.431 42.1874 181.377 42.079C181.301 41.9262 181.363 41.7413 181.516 41.6653C182.253 41.2989 183.021 40.9714 183.799 40.6912C183.96 40.6339 184.136 40.7168 184.194 40.8772C184.252 41.0375 184.168 41.2143 184.008 41.2719C183.252 41.544 182.506 41.8622 181.791 42.2179C181.746 42.2399 181.7 42.2501 181.653 42.2501ZM196.547 40.7566C196.521 40.7566 196.494 40.7533 196.467 40.7463C195.694 40.5408 194.899 40.3781 194.106 40.2627C193.937 40.2383 193.82 40.0816 193.845 39.9132C193.87 39.7442 194.025 39.6233 194.195 39.6523C195.011 39.7709 195.829 39.9382 196.626 40.1497C196.79 40.1934 196.889 40.3624 196.845 40.5272C196.808 40.6653 196.683 40.7566 196.547 40.7566ZM187.75 40.3052C187.601 40.3052 187.469 40.1968 187.446 40.045C187.419 39.8765 187.534 39.7186 187.702 39.6921C188.515 39.5635 189.345 39.4806 190.171 39.4457C190.342 39.4421 190.486 39.5704 190.493 39.741C190.5 39.9112 190.368 40.0549 190.197 40.0622C189.395 40.0959 188.588 40.1766 187.798 40.3014C187.782 40.304 187.766 40.3052 187.75 40.3052Z" fill="#DF91FA"/>
<path d="M212.035 57.9646C211.885 57.9646 211.754 57.8558 211.73 57.7037C211.668 57.305 211.593 56.9032 211.508 56.5087C211.473 56.3421 211.578 56.1779 211.745 56.1421C211.914 56.1062 212.076 56.2123 212.112 56.3786C212.199 56.7844 212.276 57.1985 212.34 57.6085C212.366 57.7769 212.251 57.9347 212.083 57.961C212.067 57.9634 212.051 57.9646 212.035 57.9646Z" fill="#DF91FA"/>
<path d="M207.367 60.4665C207.375 60.3583 207.314 60.2565 207.215 60.2133L204.373 58.9791C204.154 57.5493 203.705 56.1441 203.021 54.8219L204.589 52.1527C204.644 52.0591 204.633 51.9409 204.563 51.8583L202.147 49.0349C202.077 48.9524 201.961 48.9238 201.861 48.9636L198.981 50.0991C197.78 49.2184 196.462 48.557 195.083 48.1188L194.304 45.1208C194.277 45.0157 194.186 44.9396 194.077 44.9311L190.373 44.6426C190.265 44.6341 190.163 44.6953 190.12 44.7949L188.886 47.6359C187.456 47.8554 186.051 48.3045 184.729 48.9888L182.059 47.4208C181.966 47.3658 181.847 47.3763 181.765 47.4469L178.942 49.8622C178.859 49.9328 178.83 50.0479 178.87 50.149L180.006 53.0288C179.125 54.2291 178.464 55.5477 178.025 56.9263L175.027 57.7055C174.922 57.7328 174.846 57.8238 174.838 57.9321L174.549 61.6364C174.541 61.7446 174.602 61.8464 174.701 61.8896L177.542 63.1238C177.762 64.5536 178.211 65.9588 178.895 67.281L177.327 69.9502C177.272 70.0438 177.283 70.162 177.353 70.2445L179.769 73.068C179.839 73.1505 179.954 73.1791 180.055 73.1393L182.935 72.0038C184.136 72.8846 185.454 73.5459 186.833 73.9841L187.612 76.9821C187.639 77.0872 187.73 77.1633 187.839 77.1719L191.543 77.4604C191.651 77.4689 191.753 77.4077 191.796 77.3081L193.03 74.4671C194.46 74.2476 195.865 73.7984 197.188 73.1142L199.857 74.6821C199.95 74.737 200.069 74.7266 200.151 74.656L202.974 72.2408C203.057 72.1702 203.086 72.0551 203.046 71.9541L201.91 69.0743C202.791 67.874 203.452 66.5554 203.891 65.1768L206.889 64.3976C206.994 64.3703 207.07 64.2793 207.078 64.171L207.367 60.4665Z" fill="#DF91FA"/>
<path opacity="0.7" d="M190.95 64.8144C190.178 64.8144 189.427 64.5769 188.785 64.1223C187.092 62.924 186.689 60.5715 187.887 58.8782C188.468 58.0578 189.333 57.5127 190.323 57.3433C191.314 57.1737 192.311 57.4003 193.131 57.9806C193.952 58.5612 194.497 59.4262 194.666 60.4166C194.836 61.4073 194.609 62.4046 194.029 63.2247C193.448 64.0451 192.583 64.5902 191.593 64.7595C191.378 64.7963 191.163 64.8144 190.95 64.8144ZM190.962 58.2159C190.072 58.2159 189.195 58.6326 188.643 59.4127C187.74 60.6896 188.043 62.4633 189.32 63.3666C189.938 63.8044 190.692 63.9752 191.436 63.8472C192.183 63.7194 192.836 63.3085 193.273 62.6901C193.711 62.0716 193.881 61.3195 193.754 60.5729C193.626 59.826 193.215 59.1737 192.597 58.7362C192.1 58.3846 191.528 58.2159 190.962 58.2159Z" fill="white"/>
<path opacity="0.7" d="M190.894 70.4808C190.646 70.4808 190.396 70.4712 190.146 70.4516C187.636 70.256 185.351 69.0942 183.714 67.1804C182.197 65.407 181.454 63.2274 181.455 61.058C181.455 58.3961 182.573 55.7492 184.75 53.8872C188.7 50.5072 194.664 50.9721 198.043 54.923C198.07 54.9537 198.096 54.9851 198.122 55.0161C198.489 55.456 198.815 55.9279 199.094 56.4223C199.095 56.4244 199.096 56.4263 199.097 56.4281C199.101 56.4356 199.106 56.4428 199.11 56.4501C199.117 56.463 199.124 56.476 199.131 56.4887C199.135 56.4959 199.139 56.5032 199.143 56.51C199.155 56.5323 199.167 56.5549 199.18 56.5772L198.365 57.0171C198.08 56.488 197.735 55.9861 197.34 55.5245C195.182 53.002 191.856 52.0562 188.834 52.7995C187.587 53.1063 186.392 53.7007 185.351 54.5904C183.389 56.2699 182.38 58.6568 182.38 61.0575C182.38 63.0138 183.049 64.9795 184.417 66.5791C187.465 70.1413 192.843 70.561 196.406 67.5131C197.577 66.5112 198.453 65.2133 198.94 63.7595L199.818 64.0536C199.278 65.6662 198.306 67.1055 197.007 68.2164C195.285 69.6902 193.137 70.4808 190.894 70.4808Z" fill="white"/>
<path d="M130.815 103.582C131.576 102.87 132.604 102.515 133.642 102.609C144.747 103.607 165.466 98.2583 179.007 84.4034C179.948 83.4413 181.661 83.9851 182.739 84.7905C197.799 96.0459 222.762 98.3767 231.427 98.8532C233.22 98.9518 234.674 100.342 234.859 102.128C242.74 178.243 193.183 205.824 182.904 210.692C181.781 211.225 180.458 211.147 179.403 210.49C128.176 178.582 130.367 137.086 129.659 106.34C129.635 105.298 130.054 104.294 130.815 103.582Z" fill="#B060EA"/>
<path opacity="0.61" d="M181.518 205.164C181.289 205.164 181.06 205.1 180.861 204.972C161.222 192.418 148.422 177.409 141.73 159.088C135.753 142.726 135.46 126.064 135.202 111.364L135.167 109.404C135.161 109.077 135.284 108.768 135.513 108.535C135.744 108.3 136.053 108.17 136.384 108.17H136.385C148.547 108.17 166.802 102.8 180.191 90.8025C180.602 90.4341 181.211 90.3899 181.672 90.6957C196.384 100.457 217.369 103.299 228.568 104.125C229.164 104.169 229.634 104.633 229.687 105.23C232.29 134.928 226.113 160.042 211.327 179.873C200.283 194.683 187.189 202.4 182.071 205.031C181.898 205.12 181.708 205.164 181.518 205.164ZM181.843 204.587C186.93 201.973 199.946 194.302 210.927 179.575C225.637 159.845 231.782 134.846 229.19 105.273C229.159 104.922 228.882 104.648 228.532 104.622C217.283 103.793 196.202 100.935 181.397 91.111C181.125 90.9308 180.766 90.9567 180.524 91.1741C167.037 103.259 148.642 108.669 136.395 108.669H136.395C136.188 108.669 136.005 108.745 135.869 108.884C135.734 109.021 135.662 109.202 135.666 109.394L135.701 111.354C135.958 126.016 136.25 142.633 142.198 158.918C148.852 177.132 161.586 192.059 181.13 204.552C181.344 204.689 181.618 204.703 181.843 204.587Z" fill="white"/>
<path opacity="0.61" d="M199.425 132.314H197.108C195.958 132.314 195.025 131.382 195.025 130.231V122.313C195.025 119.479 192.728 117.182 189.894 117.182H175.54C172.705 117.182 170.408 119.479 170.408 122.313V130.231C170.408 131.382 169.475 132.314 168.325 132.314H166.009C164.858 132.314 163.926 131.382 163.926 130.231V122.313C163.926 115.899 169.125 110.7 175.54 110.7H189.894C196.308 110.7 201.507 115.899 201.507 122.313V130.231C201.508 131.382 200.575 132.314 199.425 132.314Z" fill="white"/>
<path opacity="0.61" d="M202.296 134.183H163.137C160.738 134.183 158.792 136.128 158.792 138.528V168.58C158.792 170.98 160.738 172.925 163.137 172.925H202.296C204.696 172.925 206.641 170.98 206.641 168.58V138.528C206.641 136.128 204.696 134.183 202.296 134.183ZM188.319 163.229C188.563 164.241 187.795 165.215 186.754 165.215H178.679C177.638 165.215 176.871 164.241 177.114 163.229L178.998 155.386C176.774 154.056 175.32 151.571 175.469 148.758C175.661 145.116 178.613 142.134 182.253 141.908C186.472 141.646 189.975 144.99 189.975 149.152C189.975 151.801 188.555 154.118 186.435 155.386L188.319 163.229Z" fill="white"/>
<path d="M32.6145 124.359C32.6145 124.359 35.7861 124.526 36.175 131.051C36.175 131.051 28.8208 137.644 18.8866 139.213C18.1408 139.331 19.9292 134.122 20.198 133.417C21.4773 130.059 25.5061 127.897 32.6145 124.359Z" fill="url(#paint1_linear_2112_1047)"/>
<path d="M68.3327 116.686H61.6399C61.6399 116.686 41.0982 94 27.6254 91.7112C27.6254 91.7112 18.247 103.683 28.1248 126.051C28.9195 127.85 31.1418 128.649 32.7996 127.591C33.2954 127.274 33.6514 126.85 33.8677 126.318L33.0734 107.219C33.0734 107.219 50.5956 122.544 53.6413 125.501C56.6869 128.459 72.1683 126.656 68.3327 116.686Z" fill="#B153F7"/>
<path d="M3.62807 164.318C6.43266 161.86 10.9013 159.103 17.3524 158.312L19.5341 159.646C19.5341 159.646 18.1429 161.699 15.6014 163.866C13.2656 165.223 9.65881 167.06 6.66855 167.459C3.76141 167.846 3.3327 166.089 3.62807 164.318Z" fill="url(#paint2_linear_2112_1047)"/>
<path d="M20.1981 133.417C21.9259 133.976 22.6859 136.424 27.07 134.805C31.3118 133.239 34.465 131.219 36.0873 130.055C36.1235 130.37 36.154 130.7 36.175 131.051C36.175 131.051 28.4207 138.427 18.4866 139.996C17.7408 140.114 17.1496 139.369 17.4186 138.664C17.9009 137.398 18.7707 135.478 20.1981 133.417Z" fill="#91B3FA"/>
<path d="M1.51524 166.417C2.06813 165.788 2.77379 165.066 3.6281 164.318C3.33264 166.089 3.76144 167.846 6.66867 167.459C9.65883 167.06 13.2657 165.223 15.6015 163.866C12.6739 166.363 8.21956 169.013 2.59747 168.857C1.34863 168.823 0.690073 167.354 1.51524 166.417Z" fill="#91B3FA"/>
<path d="M68.0878 121.529L36.7463 121.868C36.7463 121.868 18.848 136.677 15.6015 159.257C15.6015 159.257 15.0627 160.918 18.298 161.202C18.298 161.202 29.1191 154.134 36.175 141.639C44.8266 126.318 61.9664 133.214 61.9664 133.214C70.2008 135.032 76.7548 134.355 81.5511 126.975L68.0878 121.529Z" fill="#B153F7"/>
<path d="M67.3476 96.2819C67.3476 96.2819 63.9735 113.191 47.4421 119.88L41.5617 119.187L40.1741 121.4L53.9677 121.839C53.9677 121.839 65.7584 117.169 72.0054 104.444C72.2118 104.023 75.6518 96.9204 67.3476 96.2819Z" fill="url(#paint3_linear_2112_1047)"/>
<path d="M65.5396 121.253C65.5396 121.253 69.3762 110.823 70.2009 100.689C70.2009 100.689 67.394 98.277 65.6395 97.2363C65.0714 96.8992 64.8569 96.1864 65.1441 95.5914C66.434 92.9194 74.2345 82.4273 74.8187 82.2815C77.9947 81.4888 91.02 75.2957 100.194 87.8438C104.131 93.2291 99.4125 109.807 81.551 126.975C75.8035 127.91 70.4302 126.254 65.5396 121.253Z" fill="url(#paint4_linear_2112_1047)"/>
<path d="M80.3238 102.975C80.3238 102.975 69.6641 115.596 56.0355 117.442C56.0355 117.442 52.5133 114.23 49.8942 115.377C47.2751 116.523 43.6838 121.584 43.6838 121.584H61.1829C61.1829 121.584 77.729 121.001 85.9971 110.967C85.3318 107.456 83.3394 105.359 80.3238 102.975Z" fill="url(#paint5_linear_2112_1047)"/>
<path d="M86.5424 73.4286L88.8748 81.2077C88.9817 81.5641 88.8497 81.9501 88.5427 82.1603C87.4197 82.9293 84.4848 84.4588 80.4587 82.9725C79.9982 82.8025 79.6827 82.3725 79.6428 81.8833L79.0898 75.1065L86.5424 73.4286Z" fill="url(#paint6_linear_2112_1047)"/>
<path d="M72.8848 67.1288C72.8848 67.1288 74.0315 75.1926 77.1292 77.6724C80.2268 80.1522 86.262 78.2851 88.3004 72.2058L84.2388 61.8116L72.8848 67.1288Z" fill="url(#paint7_linear_2112_1047)"/>
<path d="M84.6965 68.5379C84.4609 68.6138 84.2142 68.4628 84.1775 68.218C84.0656 67.4736 83.7865 66.0005 83.2213 64.997C83.2213 64.997 83.517 63.9391 80.5476 65.5372C77.5782 67.1354 73.1185 69.4832 70.4926 68.0851C67.9326 66.7221 65.3394 59.8625 72.1052 61.1334C72.3626 61.1818 72.5993 60.9767 72.5801 60.7154C72.4969 59.588 72.6088 56.9943 75.2354 56.1618C77.6933 55.3827 79.039 56.4922 79.5934 57.162C79.7565 57.359 80.0592 57.3551 80.2149 57.152C80.9512 56.1907 82.9508 54.1448 85.8945 55.442C88.319 56.5106 88.6962 58.0039 88.6562 58.9346C88.6432 59.2361 88.9492 59.4404 89.2233 59.3142C89.9658 58.9721 91.1602 58.7944 92.3044 60.228C93.8861 62.2098 91.6258 63.9284 90.9477 64.3791C90.8366 64.4529 90.7675 64.5753 90.7667 64.7087C90.7603 65.7393 90.5998 70.2351 88.3465 72.7711C88.1514 72.9907 87.7908 72.9262 87.6772 72.6554L85.9422 68.5217C85.8617 68.3297 85.6476 68.2314 85.4495 68.2953L84.6965 68.5379Z" fill="url(#paint8_linear_2112_1047)"/>
<path d="M84.6599 69.3771C84.6599 69.3771 85.7193 65.062 87.3287 66.463C88.938 67.8639 86.9091 70.9476 85.0655 71.5353L84.6599 69.3771Z" fill="url(#paint9_linear_2112_1047)"/>
<path d="M44.5648 122.563L36.7078 96.3606C36.3873 95.2917 35.4376 94.5332 34.3243 94.4571L23.7162 93.7313C22.6379 93.6576 21.8358 94.7108 22.1939 95.7306L30.9773 120.754C31.2603 121.56 31.984 122.13 32.834 122.216L43.2802 123.376L44.5648 122.563Z" fill="#4F0188"/>
<path d="M30.0743 105.241C30.6609 106.425 31.6739 107.119 32.337 106.791C33 106.462 33.062 105.236 32.4754 104.052C31.8887 102.868 30.8758 102.174 30.2127 102.503C29.5497 102.831 29.4877 104.057 30.0743 105.241Z" fill="#91B3FA"/>
<path d="M43.2803 123.375C43.2973 123.375 43.3144 123.375 43.3315 123.374L65.5899 122.249C66.1402 122.221 66.5637 121.753 66.5359 121.203C66.5081 120.652 66.0374 120.22 65.4891 120.257L43.2307 121.382C42.6805 121.409 42.257 121.878 42.2847 122.428C42.3118 122.961 42.7524 123.375 43.2803 123.375Z" fill="#2E044D"/>
<path d="M70.2007 100.844C70.1158 100.844 70.0468 100.775 70.0465 100.69C70.031 95.9911 71.839 89.7726 71.8573 89.7102C71.8812 89.6289 71.9666 89.5818 72.0487 89.6057C72.1306 89.6295 72.1774 89.7154 72.1534 89.797C72.1351 89.8588 70.3396 96.0354 70.355 100.689C70.3552 100.774 70.2864 100.843 70.2012 100.844H70.2007Z" fill="url(#paint10_linear_2112_1047)"/>
<path d="M80.3235 103.129C80.2901 103.129 80.2563 103.118 80.228 103.096C80.1613 103.043 80.1498 102.946 80.2025 102.879C80.2512 102.817 85.0893 96.6669 86.7452 92.4708C86.7764 92.3915 86.8654 92.3512 86.9454 92.384C87.0247 92.4153 87.0636 92.5048 87.0324 92.584C85.3596 96.8224 80.4938 103.008 80.4449 103.07C80.4143 103.109 80.3692 103.129 80.3235 103.129Z" fill="url(#paint11_linear_2112_1047)"/>
<path d="M87.182 112.586L86.3018 111.341C86.2526 111.271 86.2691 111.175 86.3387 111.126C86.408 111.076 86.5044 111.093 86.5537 111.163L87.2896 112.203C94.1547 109.194 98.4048 100.981 98.4471 100.898C98.4857 100.822 98.5783 100.791 98.6546 100.831C98.7305 100.869 98.7606 100.962 98.722 101.038C98.6789 101.123 94.3328 109.524 87.2968 112.537L87.182 112.586Z" fill="url(#paint12_linear_2112_1047)"/>
<defs>
<linearGradient id="paint0_linear_2112_1047" x1="273.287" y1="258.933" x2="88.9735" y2="97.6593" gradientUnits="userSpaceOnUse">
<stop stop-color="#DAE3FE"/>
<stop offset="1" stop-color="#E9EFFD"/>
</linearGradient>
<linearGradient id="paint1_linear_2112_1047" x1="29.4098" y1="130.561" x2="17.9123" y2="142.569" gradientUnits="userSpaceOnUse">
<stop stop-color="#09005D"/>
<stop offset="1" stop-color="#1A0F91"/>
</linearGradient>
<linearGradient id="paint2_linear_2112_1047" x1="14.1576" y1="160.702" x2="-7.59044" y2="176.664" gradientUnits="userSpaceOnUse">
<stop stop-color="#09005D"/>
<stop offset="1" stop-color="#1A0F91"/>
</linearGradient>
<linearGradient id="paint3_linear_2112_1047" x1="49.2939" y1="101.71" x2="64.0586" y2="119.268" gradientUnits="userSpaceOnUse">
<stop stop-color="#FEBBBA"/>
<stop offset="1" stop-color="#FF928E"/>
</linearGradient>
<linearGradient id="paint4_linear_2112_1047" x1="122.503" y1="58.4946" x2="78.0743" y2="104.774" gradientUnits="userSpaceOnUse">
<stop stop-color="#FF928E"/>
<stop offset="1" stop-color="#FE7062"/>
</linearGradient>
<linearGradient id="paint5_linear_2112_1047" x1="66.5103" y1="117.686" x2="36.998" y2="77.3117" gradientUnits="userSpaceOnUse">
<stop stop-color="#FEBBBA"/>
<stop offset="1" stop-color="#FF928E"/>
</linearGradient>
<linearGradient id="paint6_linear_2112_1047" x1="84.5638" y1="84.228" x2="83.4767" y2="74.4443" gradientUnits="userSpaceOnUse">
<stop stop-color="#FEBBBA"/>
<stop offset="1" stop-color="#FF928E"/>
</linearGradient>
<linearGradient id="paint7_linear_2112_1047" x1="78.7655" y1="75.6937" x2="83.5569" y2="59.8905" gradientUnits="userSpaceOnUse">
<stop stop-color="#FEBBBA"/>
<stop offset="1" stop-color="#FF928E"/>
</linearGradient>
<linearGradient id="paint8_linear_2112_1047" x1="83.0893" y1="46.6763" x2="78.6346" y2="72.0849" gradientUnits="userSpaceOnUse">
<stop stop-color="#09005D"/>
<stop offset="1" stop-color="#1A0F91"/>
</linearGradient>
<linearGradient id="paint9_linear_2112_1047" x1="83.7285" y1="77.1985" x2="88.5199" y2="61.3952" gradientUnits="userSpaceOnUse">
<stop stop-color="#FEBBBA"/>
<stop offset="1" stop-color="#FF928E"/>
</linearGradient>
<linearGradient id="paint10_linear_2112_1047" x1="75.0797" y1="33.618" x2="68.1382" y2="140.518" gradientUnits="userSpaceOnUse">
<stop stop-color="#E1473D"/>
<stop offset="1" stop-color="#E9605A"/>
</linearGradient>
<linearGradient id="paint11_linear_2112_1047" x1="87.7175" y1="34.4387" x2="80.7759" y2="141.339" gradientUnits="userSpaceOnUse">
<stop stop-color="#E1473D"/>
<stop offset="1" stop-color="#E9605A"/>
</linearGradient>
<linearGradient id="paint12_linear_2112_1047" x1="97.1204" y1="35.0492" x2="90.1788" y2="141.949" gradientUnits="userSpaceOnUse">
<stop stop-color="#E1473D"/>
<stop offset="1" stop-color="#E9605A"/>
</linearGradient>
</defs>
</svg>
