<svg width="276" height="157" viewBox="0 0 276 157" fill="none" xmlns="http://www.w3.org/2000/svg">
<path d="M21.1231 156.309C21.1231 156.309 -11.5843 116.839 4.40056 76.2056C14.8198 49.7198 53.9041 35.2069 75.9613 49.7198C85.3559 55.901 115.496 49.9283 131.589 24.3373C162.861 -25.392 272.003 4.80937 252.133 81.1611C242.518 118.11 281.397 119.453 261.586 156.387L21.1231 156.309Z" fill="#E4BEFF"/>
<path d="M45.3337 91.3494C45.3337 91.3494 42.035 87.4942 45.1302 85.0454C45.1302 85.0454 47.3912 83.6743 49.2347 83.7855C49.2347 83.7855 46.6225 88.1736 47.4676 88.6101C48.3127 89.0465 50.0266 83.5101 50.0266 83.5101C50.0266 83.5101 55.1716 83.0103 56.8267 83.8075C56.8267 83.8075 52.4283 87.4133 53.3546 87.6279C54.2809 87.8426 59.0317 84.3035 59.0317 84.3035C59.0317 84.3035 63.8203 85.1198 63.565 88.0462C63.3097 90.9725 61.6597 91.8761 60.9345 91.7985C60.2092 91.7207 55.9671 90.0984 55.8747 90.6936C55.7823 91.2889 58.3359 93.2342 60.124 93.3253C60.124 93.3253 56.748 97.0551 54.5042 95.9786C52.2605 94.9022 52.0689 93.1959 50.6702 92.5559C49.2716 91.9159 48.0777 91.9174 48.655 92.5702C49.2325 93.2228 51.7638 93.8572 52.5637 95.2745C53.3636 96.6919 54.0812 97.6478 51.7597 97.298C49.4383 96.9481 45.6649 95.2464 45.4993 93.2978C45.3337 91.3494 45.3337 91.3494 45.3337 91.3494Z" fill="#A755E1"/>
<path d="M61.2119 88.1252C61.2119 88.1252 48.2057 87.6232 45.3336 91.3494C45.3336 91.3494 44.6984 93.2552 42.7436 94.9906L42.439 95.8225C42.439 95.8225 44.6927 93.4419 45.4992 93.2979C45.4992 93.2979 44.238 88.6815 61.2119 88.1252Z" fill="#A755E1"/>
<path d="M42.7436 94.9906C42.7436 94.9906 39.952 97.0589 39.7581 100.754L40.2647 100.8C40.2647 100.8 41.1563 96.9786 42.7679 95.4844C44.3795 93.9901 42.7436 94.9906 42.7436 94.9906Z" fill="#A755E1"/>
<path d="M33.8004 86.5011C33.8004 86.5011 39.0478 83.5573 36.599 79.5623C36.599 79.5623 34.64 77.1092 32.541 76.4784C32.541 76.4784 33.6605 82.4359 32.541 82.576C31.4216 82.7161 31.7714 75.8475 31.7714 75.8475C31.7714 75.8475 26.2443 73.1842 24.0753 73.3945C24.0753 73.3945 27.5035 79.2118 26.3841 79.0716C25.2647 78.9315 21.4166 73.044 21.4166 73.044C21.4166 73.044 15.7495 71.9926 14.84 75.3569C13.9304 78.7212 15.3996 80.4033 16.2393 80.6136C17.0788 80.8239 22.4661 80.7537 22.3262 81.4547C22.1863 82.1555 18.5481 83.277 16.5192 82.6462C16.5192 82.6462 18.758 88.1832 21.6965 87.9028C24.635 87.6225 25.5446 85.8001 27.3636 85.66C29.1826 85.5199 30.512 86.0104 29.6025 86.5011C28.6929 86.9917 25.6146 86.6618 24.1452 87.9132C22.676 89.1645 21.4866 89.9355 24.2153 90.4962C26.9439 91.0569 31.8413 90.7064 32.8208 88.6037C33.8004 86.5011 33.8004 86.5011 33.8004 86.5011Z" fill="#A755E1"/>
<path d="M17.4287 76.4083C17.4287 76.4083 32.1212 81.1743 33.8003 86.5011C33.8003 86.5011 33.7304 88.8841 35.1996 91.6177V92.669C35.1996 92.669 33.6605 89.0944 32.8209 88.6037C32.8209 88.6037 36.1091 83.9778 17.4287 76.4083Z" fill="#A755E1"/>
<path d="M35.1996 91.6176C35.1996 91.6176 37.4654 95.0645 36.1737 99.2603L35.5908 99.1034C35.5908 99.1034 36.1566 94.4819 34.9711 92.1576C33.7856 89.8333 35.1996 91.6176 35.1996 91.6176Z" fill="#A755E1"/>
<path d="M42.1484 82.4413C42.1484 82.4413 35.2314 78.561 38.4593 73.2947C38.4593 73.2947 41.0417 70.0611 43.8084 69.2296C43.8084 69.2296 42.3328 77.0828 43.8084 77.2675C45.284 77.4522 44.8229 68.3981 44.8229 68.3981C44.8229 68.3981 52.1087 64.8872 54.9678 65.1644C54.9678 65.1644 50.4487 72.8328 51.9243 72.648C53.3999 72.4633 58.4724 64.7024 58.4724 64.7024C58.4724 64.7024 65.9427 63.3166 67.1417 67.7513C68.3407 72.1859 66.404 74.4034 65.2972 74.6805C64.1905 74.9577 57.0891 74.8652 57.2735 75.7892C57.4579 76.7131 62.2538 78.1913 64.9283 77.3598C64.9283 77.3598 61.9771 84.6587 58.1036 84.2891C54.23 83.9196 53.0311 81.5174 50.6333 81.3326C48.2354 81.1478 46.4831 81.7945 47.682 82.4413C48.881 83.0881 52.9389 82.6533 54.8757 84.3026C56.8124 85.9521 58.3802 86.9683 54.7834 87.7074C51.1866 88.4466 44.7307 87.9846 43.4396 85.213C42.1484 82.4413 42.1484 82.4413 42.1484 82.4413Z" fill="#C97DFF"/>
<path d="M63.7293 69.1371C63.7293 69.1371 44.3619 75.4197 42.1485 82.4413C42.1485 82.4413 42.2407 85.5826 40.304 89.1857V90.5717C40.304 90.5717 42.3329 85.8597 43.4397 85.2129C43.4397 85.2129 39.1051 79.1152 63.7293 69.1371Z" fill="#C97DFF"/>
<path d="M40.3038 89.1857C40.3038 89.1857 37.317 93.7294 39.0198 99.2603L39.7881 99.0534C39.7881 99.0534 39.0422 92.9615 40.6048 89.8977C42.1676 86.8338 40.3038 89.1857 40.3038 89.1857Z" fill="#C97DFF"/>
<path d="M41.9152 111.254C49.3982 111.254 55.4644 105.177 55.4644 97.681H28.366C28.366 105.177 34.4322 111.254 41.9152 111.254Z" fill="#C97DFF"/>
<path d="M55.6515 111.945H28.179C28.179 111.02 28.9274 110.27 29.8506 110.27H53.9799C54.9031 110.27 55.6515 111.02 55.6515 111.945Z" fill="#C97DFF"/>
<path d="M55.7726 97.6808H27.9207V98.0971H55.7726V97.6808Z" fill="#9730E1"/>
<path d="M111.83 156.026L111.897 156.025C112.444 156.015 112.867 155.567 112.815 155.051L109.163 118.511L105.976 118.796L111.221 155.533C111.262 155.82 111.524 156.032 111.83 156.026Z" fill="#CF8CFF"/>
<path d="M76.6616 156.026L76.5946 156.025C76.0472 156.015 75.6243 155.567 75.6759 155.051L79.3282 118.511L82.5151 118.796L77.2708 155.533C77.2298 155.82 76.9678 156.032 76.6616 156.026Z" fill="#CF8CFF"/>
<path d="M137.596 156.026L137.663 156.025C138.21 156.015 138.633 155.567 138.581 155.051L134.929 118.511L131.742 118.796L136.987 155.533C137.028 155.82 137.29 156.032 137.596 156.026Z" fill="#CF8CFF"/>
<path d="M77.7494 113.196L71.2663 81.1239C70.4342 76.7816 74.026 72.811 78.6898 72.9178L91.1926 73.2038C95.5058 73.3025 99.256 76.1944 100.455 80.3461L109.94 113.196H77.7494Z" fill="#CF8CFF"/>
<path d="M81.6714 113.196L75.1885 81.1239C74.3563 76.7816 77.9481 72.811 82.6119 72.9178L95.1147 73.2038C99.4279 73.3025 103.178 76.1944 104.377 80.3461L113.862 113.196H81.6714Z" fill="#CF8CFF"/>
<path d="M79.5564 119.045H129.023C130.017 119.045 130.83 118.231 130.83 117.235V115.006C130.83 114.01 130.017 113.196 129.023 113.196H77.7495V117.235C77.7495 118.231 78.5626 119.045 79.5564 119.045Z" fill="#CF8CFF"/>
<path d="M102.77 119.045H134.304C135.104 119.045 135.759 118.389 135.759 117.587V114.654C135.759 113.852 135.104 113.196 134.304 113.196H102.77C101.969 113.196 101.314 113.852 101.314 114.654V117.587C101.314 118.389 101.969 119.045 102.77 119.045Z" fill="#CF8CFF"/>
<path d="M62.9899 112.778V113.872C62.9899 114.255 62.8661 114.568 62.715 114.568H22.8569C22.7058 114.568 22.582 114.255 22.582 113.872V112.778C22.582 112.396 22.7058 112.082 22.8569 112.082H62.715C62.8661 112.082 62.9899 112.396 62.9899 112.778Z" fill="#4F0188"/>
<path d="M62.9898 112.778V113.872C62.9898 114.255 62.8761 114.568 62.7376 114.568H31.0945C30.9559 114.568 30.8423 114.255 30.8423 113.872V112.778C30.8423 112.396 30.9559 112.082 31.0945 112.082H62.7376C62.8762 112.082 62.9898 112.396 62.9898 112.778Z" fill="#8923D2"/>
<path d="M52.9019 114.569H24.605V155.886H52.9019V114.569Z" fill="#9876B0"/>
<path d="M60.8318 114.569H32.5349V155.886H60.8318V114.569Z" fill="#DFEBFD"/>
<path d="M59.3115 153.605H34.0557V115.736H59.3115V153.605ZM34.3284 153.332H59.0387V116.009H34.3284V153.332Z" fill="#4F0188"/>
<path d="M59.1751 128.263H34.1921V128.536H59.1751V128.263Z" fill="#4F0188"/>
<path d="M59.1751 141.035H34.1921V141.308H59.1751V141.035Z" fill="#4F0188"/>
<path d="M49.2435 118.178H44.6075C44.3826 118.178 44.1985 117.993 44.1985 117.768C44.1985 117.543 44.3826 117.358 44.6075 117.358H49.2435C49.4685 117.358 49.6525 117.543 49.6525 117.768C49.6525 117.993 49.4684 118.178 49.2435 118.178Z" fill="#4F0188"/>
<path d="M49.2435 130.667H44.6075C44.3826 130.667 44.1985 130.483 44.1985 130.257C44.1985 130.032 44.3826 129.848 44.6075 129.848H49.2435C49.4685 129.848 49.6525 130.032 49.6525 130.257C49.6525 130.483 49.4684 130.667 49.2435 130.667Z" fill="#4F0188"/>
<path d="M49.2435 143.686H44.6075C44.3826 143.686 44.1985 143.502 44.1985 143.277C44.1985 143.051 44.3826 142.867 44.6075 142.867H49.2435C49.4685 142.867 49.6525 143.051 49.6525 143.277C49.6525 143.502 49.4684 143.686 49.2435 143.686Z" fill="#4F0188"/>
<path d="M174.075 40.2794H156.139C155.315 40.2794 154.642 39.6045 154.642 38.7797V21.4375C154.642 20.6126 155.315 19.9378 156.139 19.9378H174.075C174.898 19.9378 175.572 20.6126 175.572 21.4375V38.7797C175.572 39.6046 174.898 40.2794 174.075 40.2794Z" fill="#932FDB"/>
<path d="M173.298 39.3982H156.916C156.164 39.3982 155.549 38.7818 155.549 38.0284V22.1887C155.549 21.4353 156.164 20.819 156.916 20.819H173.298C174.05 20.819 174.665 21.4353 174.665 22.1887V38.0284C174.665 38.7818 174.05 39.3982 173.298 39.3982Z" fill="#DFEBFD"/>
<path d="M165.107 23.1099C165.347 23.1099 165.541 22.9154 165.541 22.6756C165.541 22.4357 165.347 22.2412 165.107 22.2412C164.868 22.2412 164.674 22.4357 164.674 22.6756C164.674 22.9154 164.868 23.1099 165.107 23.1099Z" fill="#4F0188"/>
<path d="M168.172 23.2894C168.288 23.0798 168.552 23.0043 168.762 23.1208C168.971 23.2373 169.046 23.5018 168.93 23.7114C168.814 23.9211 168.55 23.9967 168.34 23.8801C168.131 23.7636 168.055 23.4991 168.172 23.2894Z" fill="#4F0188"/>
<path d="M171.169 25.6748C171.37 25.5447 171.639 25.6028 171.768 25.8044C171.898 26.0059 171.84 26.2748 171.639 26.4048C171.438 26.5348 171.17 26.4768 171.04 26.2752C170.91 26.0736 170.968 25.8048 171.169 25.6748Z" fill="#4F0188"/>
<path d="M172.654 29.367C172.893 29.367 173.087 29.5614 173.087 29.8013C173.087 30.0412 172.893 30.2356 172.654 30.2356C172.414 30.2356 172.22 30.0412 172.22 29.8013C172.22 29.5614 172.414 29.367 172.654 29.367Z" fill="#4F0188"/>
<path d="M171.896 33.6517C172.065 33.8213 172.065 34.0963 171.896 34.266C171.726 34.4356 171.452 34.4356 171.283 34.266C171.113 34.0963 171.113 33.8214 171.283 33.6517C171.452 33.4821 171.726 33.4821 171.896 33.6517Z" fill="#4F0188"/>
<path d="M169.173 36.3863C169.342 36.5559 169.342 36.8309 169.173 37.0005C169.004 37.1701 168.729 37.1701 168.56 37.0005C168.391 36.8309 168.391 36.5559 168.56 36.3863C168.729 36.2167 169.004 36.2167 169.173 36.3863Z" fill="#4F0188"/>
<path d="M164.674 37.7958C164.674 37.5559 164.868 37.3614 165.107 37.3614C165.347 37.3614 165.541 37.5558 165.541 37.7958C165.541 38.0356 165.347 38.2301 165.107 38.2301C164.868 38.2301 164.674 38.0356 164.674 37.7958Z" fill="#4F0188"/>
<path d="M162.028 23.2894C161.912 23.0798 161.648 23.0043 161.439 23.1208C161.229 23.2373 161.154 23.5018 161.27 23.7114C161.387 23.9211 161.651 23.9967 161.86 23.8801C162.069 23.7636 162.145 23.4991 162.028 23.2894Z" fill="#4F0188"/>
<path d="M159.031 25.6748C158.83 25.5447 158.561 25.6028 158.432 25.8044C158.302 26.0059 158.36 26.2748 158.561 26.4048C158.762 26.5348 159.03 26.4768 159.16 26.2752C159.29 26.0736 159.232 25.8049 159.031 25.6748Z" fill="#4F0188"/>
<path d="M157.547 29.367C157.307 29.367 157.113 29.5615 157.113 29.8013C157.113 30.0412 157.307 30.2356 157.547 30.2356C157.786 30.2356 157.98 30.0412 157.98 29.8013C157.98 29.5615 157.786 29.367 157.547 29.367Z" fill="#4F0188"/>
<path d="M158.304 33.6517C158.135 33.8213 158.135 34.0964 158.304 34.266C158.474 34.4356 158.748 34.4356 158.918 34.266C159.087 34.0964 159.087 33.8214 158.918 33.6517C158.748 33.4821 158.474 33.4821 158.304 33.6517Z" fill="#4F0188"/>
<path d="M161.027 36.3863C160.858 36.5559 160.858 36.8309 161.027 37.0005C161.196 37.1701 161.471 37.1701 161.64 37.0005C161.81 36.8309 161.81 36.5559 161.64 36.3863C161.471 36.2167 161.196 36.2167 161.027 36.3863Z" fill="#4F0188"/>
<path d="M164.99 29.8013C164.99 29.5614 165.184 29.367 165.424 29.367C165.663 29.367 165.857 29.5614 165.857 29.8013C165.857 30.0412 165.663 30.2356 165.424 30.2356C165.184 30.2356 164.99 30.0412 164.99 29.8013Z" fill="#4F0188"/>
<path d="M165.483 24.3753H165.364V29.8012H165.483V24.3753Z" fill="#4F0188"/>
<path d="M168.133 27.3906L165.262 29.6488L165.481 29.9287L168.353 27.6705L168.133 27.3906Z" fill="#4F0188"/>
<path d="M120.843 106.484C118.166 111.15 114.801 112.951 114.801 112.951H100.798C100.798 112.951 122.884 102.925 120.843 106.484Z" fill="#233862"/>
<path d="M138.113 152.839C137.962 154.311 140.006 154.691 142.376 154.835C144.746 154.979 144.024 155.458 147.267 156.082C150.51 156.707 151.822 155.83 152.062 155.393C152.276 155.005 150.771 154.378 149.169 153.671C148.967 153.583 148.765 153.492 148.563 153.401C146.76 152.583 145.76 150.944 144.363 149.42C143.041 147.975 141.819 143.384 141.819 143.384L137.413 142.392C137.413 142.392 138.609 146.525 139.021 148.289C139.263 149.326 138.877 150.479 138.536 151.356C138.352 151.833 138.166 152.321 138.113 152.839Z" fill="#FFB27D"/>
<path d="M142.376 154.835C144.746 154.979 144.024 155.458 147.267 156.082C150.51 156.707 151.822 155.83 152.062 155.393C152.276 155.005 150.772 154.378 149.169 153.671L149.143 153.698C149.143 153.698 146.85 154.451 144.221 153.704C142.077 153.096 140.012 151.787 138.536 151.356C138.352 151.833 138.166 152.321 138.114 152.839C137.962 154.311 140.006 154.691 142.376 154.835Z" fill="#0F2549"/>
<path d="M131.439 101.705C129.068 100.037 113.386 97.0639 105.383 96.204L96.537 88.5118C96.537 88.5118 89.0078 99.6836 88.9481 108.23C88.9203 112.215 90.7525 112.611 90.7529 112.612C90.7529 112.612 119.109 112.823 120.352 112.951C122.387 113.161 125.071 118.239 125.741 122.863C126.412 127.488 138.237 146.297 138.237 146.297C138.237 146.297 140.702 147.089 141.843 147.022C143.069 146.95 143.637 146.538 143.637 146.538C143.637 146.538 136.785 105.466 131.439 101.705Z" fill="#8821D2"/>
<path d="M130.779 152.839C130.627 154.311 132.671 154.691 135.041 154.835C137.411 154.979 136.689 155.458 139.932 156.082C143.176 156.707 144.487 155.83 144.727 155.393C144.941 155.005 143.437 154.378 141.834 153.671C141.632 153.583 141.43 153.492 141.228 153.401C139.425 152.583 138.425 150.944 137.029 149.42C135.706 147.975 134.484 143.384 134.484 143.384L130.078 142.392C130.078 142.392 131.274 146.525 131.686 148.289C131.928 149.326 131.542 150.479 131.201 151.356C131.017 151.833 130.832 152.321 130.779 152.839Z" fill="#FFB27D"/>
<path d="M135.041 154.835C137.411 154.979 136.689 155.458 139.932 156.082C143.176 156.707 144.487 155.83 144.727 155.393C144.941 155.005 143.437 154.378 141.834 153.671L141.809 153.698C141.809 153.698 139.515 154.451 136.886 153.704C134.742 153.096 132.678 151.787 131.201 151.356C131.017 151.833 130.832 152.321 130.779 152.839C130.627 154.311 132.671 154.691 135.041 154.835Z" fill="#233862"/>
<path d="M124.039 101.705C121.979 100.256 115.785 99.1326 108.947 98.2989C107.056 98.0685 105.504 96.6914 105.042 94.8404L89.1373 88.5118C89.1373 88.5118 81.6081 99.6836 81.5484 108.23C81.5206 112.215 83.3529 112.611 83.3533 112.612C83.3533 112.612 111.71 112.823 112.953 112.951C114.987 113.161 117.671 118.239 118.342 122.863C119.012 127.488 130.837 146.297 130.837 146.297C130.837 146.297 133.303 147.089 134.443 147.022C135.67 146.95 136.237 146.538 136.237 146.538C136.237 146.538 129.385 105.466 124.039 101.705Z" fill="#B145FF"/>
<path d="M102.756 42.0951C100.57 40.9453 97.2449 40.7899 96.7046 40.7171C90.2394 39.8466 86.3482 49.258 86.1192 52.1097C85.6975 57.3661 82.9218 58.1675 79.0148 61.4593C71.181 68.0598 73.4782 75.7298 77.7619 78.5796C80.332 80.2895 84.8621 78.5793 84.8621 78.5793C84.9262 78.6242 97.2515 71.6769 103.327 68.3257C112.435 67.0287 108.326 45.025 102.756 42.0951Z" fill="#233862"/>
<path d="M101.408 65.0881C101.436 65.1027 98.535 66.4245 96.4407 65.7313C94.4707 65.081 92.7354 62.1097 92.7633 62.1053C93.6184 61.9811 94.4876 61.1361 94.7302 56.1285L95.1089 56.224L101.476 57.836C101.476 57.836 101.224 59.8566 101.12 61.767C101.032 63.3711 101.05 64.8977 101.408 65.0881Z" fill="#FFB27D"/>
<path d="M101.476 57.8361C101.476 57.8361 101.476 58.2519 101.238 60.1317C97.6369 59.2219 96.0491 58.0257 94.9294 56.6567L101.476 57.8361Z" fill="#ED975D"/>
<path d="M102.834 58.0905C102.834 58.0905 94.4144 59.4638 93.6415 54.1982C92.8686 48.9326 91.2614 45.5636 96.6041 44.4642C101.947 43.3648 103.289 45.2198 103.973 46.9146C104.658 48.6093 105.004 57.5976 102.834 58.0905Z" fill="#FFB27D"/>
<path d="M102.842 44.2437C102.842 44.2437 99.0185 50.2897 95.6054 51.7216C92.1922 53.1535 90.5154 52.4266 90.5154 52.4266C90.5154 52.4266 92.0682 50.068 92.4727 46.9011C92.5919 45.9676 93.1991 45.1672 94.0712 44.8173C96.5205 43.8346 101.258 42.285 102.842 44.2437Z" fill="#233862"/>
<path d="M99.4834 44.8281C99.4834 44.8281 101.724 45.979 102.647 47.0577C103.538 48.0987 104.567 50.9231 104.493 52.1916C104.493 52.1916 105.599 46.1127 103.296 44.0231C100.855 41.8073 99.4834 44.8281 99.4834 44.8281Z" fill="#233862"/>
<path d="M108.143 77.952C107.888 95.096 108.073 91.5135 106.201 93.1402C105.75 93.5318 104.482 93.7653 102.813 93.8757C97.5654 94.2247 88.3409 93.3586 87.99 92.3871C86.7796 89.0256 87.6342 87.9812 86.6242 82.8348C86.5189 82.2876 86.3887 81.695 86.2358 81.0499C85.3938 77.5151 84.5743 76.3127 87.5615 70.634C90.2705 65.4901 93.4562 61.3114 93.7092 61.462C100.856 65.7121 101.101 62.1495 101.101 62.1495C101.101 62.1495 108.268 69.5896 108.143 77.952Z" fill="white"/>
<path d="M101.101 62.1495C101.101 62.1495 108.416 63.3916 109.279 66.5637C110.143 69.7356 115.225 88.3831 115.225 88.3831C115.225 88.3831 111.486 89.0559 109.759 87.3257C108.032 85.5955 103.749 71.2736 103.749 71.2736L101.101 62.1495Z" fill="white"/>
<path d="M102.813 93.8757C97.5655 94.2247 88.3409 93.3586 87.99 92.3871C86.7797 89.0256 87.6342 87.9812 86.6243 82.8348L89.1553 75.6951C89.1553 75.6951 88.7368 83.6456 91.0774 85.7369C93.4155 87.828 100.66 89.7737 101.798 91.5209C102.347 92.3594 102.708 93.2004 102.813 93.8757Z" fill="#EBF3FF"/>
<path d="M96.8008 90.5318C96.8008 90.5318 101.978 89.377 102.813 89.8373C103.649 90.2976 105.69 91.9738 105.946 92.5569C106.201 93.1402 104.086 92.1141 103.398 91.9293C102.952 91.8096 101.779 92.218 101.199 92.4119C98.7555 93.2278 97.2583 92.808 97.2583 92.808L96.8008 90.5318Z" fill="#FFB27D"/>
<path d="M93.7092 61.462C93.7092 61.462 86.3821 61.8909 83.9756 65.2533C80.5882 69.9862 73.8683 90.1574 77.7195 92.8475C82.0566 95.8772 97.4585 93.6402 97.4585 93.6402C97.4585 93.6402 97.9712 91.2402 97.2579 90.0793C96.5448 88.9183 84.9561 87.0429 84.4212 86.5072C83.8864 85.9714 91.107 76.0589 91.107 74.4514C91.1071 72.8439 93.7092 61.462 93.7092 61.462Z" fill="white"/>
<path d="M103.064 91.2808C103.064 91.2808 104.148 92.6825 104.504 92.8498C104.86 93.0171 105.089 92.9753 105.089 92.9753L104.358 91.6573L103.064 91.2808Z" fill="#FFB27D"/>
<path d="M102.813 89.8373L105.967 91.3715C105.967 91.3715 105.833 91.5915 105.444 91.5736C105.056 91.5559 104.076 91.1971 104.076 91.1971L102.813 89.8373Z" fill="#FFB27D"/>
<path d="M114.431 93.4745H99.7832C99.7832 92.8285 100.306 92.3047 100.951 92.3047H114.431V93.4745Z" fill="#ED7D2B"/>
<path d="M114.388 77.4936H137.034L131.602 93.4745H108.81L114.388 77.4936Z" fill="#ED7D2B"/>
<path d="M137.368 77.4933L131.936 93.4744H109.143L114.722 77.4933H137.368Z" fill="#F99746"/>
<path d="M125.159 85.3362C125.018 85.9468 124.41 86.4418 123.8 86.4418C123.191 86.4418 122.811 85.9468 122.951 85.3362C123.092 84.7256 123.7 84.2307 124.31 84.2307C124.919 84.2307 125.299 84.7256 125.159 85.3362Z" fill="white"/>
<path d="M94.7206 97.0697H193.962C194.379 97.0697 194.718 96.7308 194.718 96.3127V94.2314C194.718 93.8133 194.38 93.4743 193.962 93.4743H94.7206C94.3032 93.4743 93.9648 93.8133 93.9648 94.2314V96.3127C93.9648 96.7308 94.3032 97.0697 94.7206 97.0697Z" fill="#182D4F"/>
<path d="M196.392 156.294L196.434 156.289C196.943 156.226 197.303 155.771 197.238 155.273L188.395 95.3036L185.157 95.3966L195.562 155.691C195.629 156.077 195.995 156.343 196.392 156.294Z" fill="#182D4F"/>
<path d="M91.3971 156.294L91.3546 156.289C90.8462 156.226 90.4861 155.771 90.5504 155.273L99.394 95.3036L102.632 95.3966L92.2264 155.691C92.1598 156.077 91.794 156.343 91.3971 156.294Z" fill="#182D4F"/>
<path d="M111.871 156.294L111.828 156.289C111.32 156.226 110.96 155.771 111.024 155.273L119.867 95.3036L123.105 95.3966L112.7 155.691C112.633 156.077 112.267 156.343 111.871 156.294Z" fill="#182D4F"/>
<path d="M275.228 156.788H0.37577C0.169116 156.788 0 156.619 0 156.411V156.104C0 155.897 0.169116 155.727 0.37577 155.727H275.228C275.435 155.727 275.604 155.897 275.604 156.104V156.411C275.604 156.619 275.435 156.788 275.228 156.788Z" fill="#3B254B"/>
<path d="M164.044 156.245H181.593C182.437 155.213 182.126 151.406 181.999 150.163C181.972 149.912 181.954 149.766 181.954 149.766C181.954 149.766 175.961 144.964 175.138 148.641C175.113 148.757 175.083 148.869 175.049 148.981C174.013 152.42 169.361 153.983 166.675 154.418C164.928 154.702 164.283 155.611 164.044 156.245Z" fill="#233862"/>
<path d="M211.929 99.1206C211.296 99.1206 181.869 104.656 177.001 110.692C174.57 113.707 174.208 148.531 174.208 148.531C174.208 148.531 177.217 152.268 183.714 150.098C183.714 150.098 188.477 126.272 188.126 119.045C188.028 117.047 208.232 118.756 211.929 117.797C215.627 116.839 224.662 108.78 222.671 104.854C220.681 100.929 211.929 99.1206 211.929 99.1206Z" fill="#7D0DCD"/>
<path d="M177.127 90.593C177.127 90.593 171.191 90.6733 169.788 91.276C168.384 91.8788 165.536 93.2622 166.298 93.4745C167.06 93.6867 170.697 93.387 171.482 93.5075C172.268 93.628 173.237 93.4743 173.718 93.4744C174.199 93.4745 176.444 93.4744 176.444 93.4744L177.127 90.593Z" fill="#FFB27D"/>
<path d="M170.187 76.3227C170.187 76.3227 168.164 74.8739 166.198 74.5926C165.078 74.4322 163.988 74.2322 163.329 73.9997C161.516 73.3596 157.887 70.0915 158.162 69.708C159.042 68.4794 163.278 71.0794 164.017 70.8003C164.756 70.5212 162.596 68.9823 163.347 68.441C163.74 68.1584 164.658 69.5752 165.409 69.7174C166.424 69.91 167.218 71.3463 167.523 71.4213C168.118 71.5672 170.724 73.5088 170.724 73.5088L170.187 76.3227Z" fill="#FFB27D"/>
<path d="M208.998 59.4044C208.998 59.4044 204.48 60.8073 200.028 73.0885C195.576 85.3696 193.885 86.0326 192.267 86.5147C190.649 86.9969 176.445 89.8295 176.445 89.8295V93.4743H198.331C198.331 93.4743 206.538 85.6537 208.998 80.3888C211.459 75.124 208.998 59.4044 208.998 59.4044Z" fill="#ED7D2B"/>
<path d="M156.289 156.245H173.838C174.682 155.213 174.371 151.406 174.243 150.163C174.217 149.912 174.199 149.766 174.199 149.766C174.199 149.766 168.206 144.964 167.383 148.641C167.358 148.757 167.327 148.869 167.294 148.981C166.257 152.42 161.605 153.983 158.919 154.418C157.173 154.702 156.527 155.611 156.289 156.245Z" fill="#1B3051"/>
<path d="M203.258 99.1206C202.624 99.1206 173.197 104.656 168.33 110.692C165.898 113.707 165.537 148.531 165.537 148.531C165.537 148.531 168.545 152.268 175.042 150.098C175.042 150.098 179.806 126.272 179.454 119.045C179.357 117.047 199.56 118.756 203.258 117.797C206.956 116.839 215.991 108.78 214 104.854C212.009 100.929 203.258 99.1206 203.258 99.1206Z" fill="#9420E8"/>
<path d="M205.099 63.2966C207.216 63.1215 209.436 62.5562 211.354 61.9326C213.752 61.1532 215.685 60.0139 214.44 57.8182C213.292 55.7947 211.434 51.2742 211.559 47.5293L207.097 51.1317L204.066 53.5784C204.066 53.5784 204.079 55.0208 204.41 57.5488C204.47 58.0096 204.541 58.5071 204.625 59.0387C204.692 59.4682 204.495 59.8971 204.126 60.1262C204.104 60.1405 204.081 60.1547 204.058 60.169C202.552 61.1171 203.326 63.4432 205.099 63.2966Z" fill="#FFB27D"/>
<path d="M204.066 52.9829C204.066 52.9829 203.911 53.5067 204.177 55.4407C206.879 54.9991 209.406 52.8399 209.406 52.8399C208.03 52.4615 207.529 50.9723 206.505 51.1112L204.066 52.9829Z" fill="#ED975D"/>
<path d="M201.566 53.424C201.566 53.424 211.961 55.1539 212.937 48.6527C213.912 42.1514 215.911 37.9963 209.316 36.6169C202.721 35.2375 201.056 37.5236 200.203 39.6143C199.351 41.7048 198.888 52.8064 201.566 53.424Z" fill="#FFB27D"/>
<path d="M198.674 36.7372C198.228 38.3027 199.422 40.2096 201.428 40.8373C204.404 41.7691 203.747 45.4269 205.086 45.3772C206.426 45.3275 206.966 43.2747 208.162 44.9148C209.183 46.3137 207.313 47.9723 207.442 48.7394C207.663 50.0565 209.722 52.7511 211.578 52.6159C213.434 52.4807 216.906 43.6452 216.212 40.9118C215.517 38.1784 212.739 35.2958 210.11 34.8982C207.48 34.5007 203.829 35.638 202.985 35.638C202.142 35.638 198.916 35.8916 198.674 36.7372Z" fill="#2B478B"/>
<path d="M222.81 68.4274C221.308 62.3698 217.155 56.0135 214.348 56.0189C209.563 56.0281 202.686 57.2927 199.909 64.1551C197.864 69.2094 195.135 98.2829 198.219 100.351C205.267 105.078 221.603 114.726 224.505 104.886C227.165 95.8703 225.417 78.941 222.81 68.4274Z" fill="#F99746"/>
<path d="M211.19 62.3994C209.825 58.8427 205.423 57.6131 202.421 59.9529C200.797 61.2184 198.808 63.0206 196.407 65.5828C187.478 75.1074 185.664 75.0482 183.987 74.8515C182.31 74.6548 168.143 71.6426 168.143 71.6426C168.143 71.6426 167.417 72.1786 166.99 73.0453C166.42 74.2028 166.707 74.9916 166.707 74.9916C166.152 74.6323 171.729 78.4833 174.505 80.019C178.171 82.0467 183.695 83.9478 185.895 84.6697C186.518 84.8744 187.191 84.8641 187.808 84.6412C191.074 83.462 202.04 79.1654 210.967 71.7098C213.32 69.7453 212.455 65.6971 211.19 62.3994Z" fill="#F99746"/>
<path d="M214.829 56.0772L213.746 53.6326C213.746 53.6326 204.05 54.4247 202.42 59.9528C202.42 59.9528 209.936 56.1957 214.829 56.0772Z" fill="white"/>
<path d="M238.369 156.026L238.436 156.025C238.983 156.015 239.406 155.567 239.355 155.051L235.702 118.511L232.515 118.796L237.76 155.533C237.801 155.82 238.063 156.032 238.369 156.026Z" fill="#C16BFF"/>
<path d="M219.57 156.026L219.637 156.025C220.184 156.015 220.607 155.567 220.556 155.051L216.904 118.511L213.717 118.796L218.961 155.533C219.002 155.82 219.264 156.032 219.57 156.026Z" fill="#C16BFF"/>
<path d="M184.278 156.026L184.212 156.025C183.664 156.015 183.241 155.567 183.293 155.051L186.945 118.511L190.132 118.796L184.888 155.533C184.847 155.82 184.585 156.032 184.278 156.026Z" fill="#A84AEB"/>
<path d="M237.337 113.335L240.803 82.816C241.258 78.4178 239.789 74.1116 233.454 73.7783L222.308 73.0982C215.702 72.8251 212.72 78.3328 211.884 82.5728L205.267 116.121L237.337 113.335Z" fill="#C16BFF"/>
<path d="M235.474 119.045H186.008C185.014 119.045 184.201 118.231 184.201 117.235V115.006C184.201 114.01 185.014 113.196 186.008 113.196H237.281V117.235C237.281 118.231 236.468 119.045 235.474 119.045Z" fill="#A84AEB"/>
<path d="M235.878 119.045H206.67C205.898 119.045 205.267 118.413 205.267 117.639V114.602C205.267 113.828 205.898 113.196 206.67 113.196H237.281V117.639C237.281 118.413 236.65 119.045 235.878 119.045Z" fill="#C16BFF"/>
</svg>
