<svg width="34" height="34" viewBox="0 0 34 34" fill="none" xmlns="http://www.w3.org/2000/svg">
<path d="M3.35681 1.09054C4.35188 0.427933 5.54864 0.234673 6.70507 0.0414129C6.96056 0.0138043 7.21605 0.0138043 7.47153 0C7.92873 0.151847 8.15732 0.634998 8.41281 1.00771C9.51545 3.02314 10.5105 5.10759 11.788 7.01259C12.0972 7.50954 12.4469 8.19976 12.0569 8.75193C10.9812 10.4637 8.93724 11.2505 7.92873 13.0175L7.90183 13.0589C7.92873 13.1417 7.98251 13.2935 7.99596 13.3764C8.35902 14.3979 8.95068 15.2952 9.47511 16.2339C10.9677 18.7601 12.8637 21.0516 15.1631 22.8323C16.4943 23.9091 17.9735 24.7649 19.4257 25.6346C19.9502 25.9245 20.6629 26.2006 21.1873 25.7312C22.4244 24.7373 23.1371 23.2326 24.3204 22.1835C24.5893 21.9765 24.8583 21.7142 25.2079 21.6866C25.302 21.7004 25.4096 21.6866 25.5171 21.6866C26.2567 21.797 26.808 22.363 27.4266 22.7357C29.0806 23.7848 30.8152 24.6545 32.496 25.676C32.886 25.9383 33.4373 26.2696 33.3163 26.8632C33.3028 27.0012 33.2894 27.2497 33.276 27.3739C33.2491 27.4706 33.2222 27.5672 33.2222 27.6638C33.0877 29.1133 32.6574 30.7146 31.4606 31.6257C29.9143 32.8404 28.0855 33.7929 26.1357 33.9724C25.8937 33.9862 25.6382 34 25.3961 34H25.3423C25.06 33.9862 24.7776 33.9862 24.4817 33.9724C24.3473 33.9586 24.1994 33.9448 24.0649 33.9034C23.9708 33.862 23.8901 33.8482 23.7825 33.8482C22.1554 33.6135 20.6763 32.8819 19.1434 32.3435C16.6423 31.4324 14.316 30.052 12.2855 28.3126C10.524 26.9322 8.99102 25.2619 7.4312 23.6468C6.03273 22.0593 4.74183 20.389 3.65264 18.5668C2.36175 16.4409 1.64907 14.0114 0.801919 11.6784C0.573324 10.9054 0.317834 10.1186 0.277494 9.2903C0.290941 9.16606 0.264047 9.05562 0.2506 8.94519C0.196813 8.44823 0.183366 7.93748 0.2506 7.44052C0.277494 7.31628 0.290941 7.20585 0.290941 7.09541C0.385068 5.82542 0.896047 4.63825 1.47426 3.5339C2.01213 2.66423 2.53656 1.72554 3.35681 1.09054Z" fill="#323082"/>
</svg>
