<svg width="40" height="26" viewBox="0 0 40 26" fill="none" xmlns="http://www.w3.org/2000/svg">
<path d="M2.18555 0.0514579C3.00732 -0.0185106 3.83456 0.00647819 4.66181 0.00647819C14.8901 0.00647819 25.1129 0.00647819 35.3412 0.00647819C36.1684 0.00148045 36.9902 -0.0185106 37.8174 0.0514579C25.9401 0.0614534 14.0628 0.0564557 2.18555 0.0514579Z" fill="#323082"/>
<path d="M0.871094 0.536051C1.26554 0.286164 1.69834 0.0662628 2.18592 0.0512695C14.0632 0.0562673 25.9405 0.061265 37.8178 0.0512695C38.3273 0.0862538 38.7875 0.31615 39.1874 0.591026C35.4183 3.57968 31.6107 6.52336 27.8416 9.50701C25.2283 11.5361 22.6425 13.5852 20.0238 15.6043C13.6414 10.5815 7.26446 5.55379 0.871094 0.536051Z" fill="#323082"/>
<path d="M0.0653478 2.18042C0.0653478 2.2154 0.0653481 2.25039 0.0708266 2.29037C0.0434343 9.49213 0.0817834 16.6989 0.0489127 23.9006C0.0489127 23.9206 0.0489127 23.9506 0.0489127 23.9706C0.0215204 23.6308 0.00508482 23.2859 0.00508482 22.9461C0.00508482 16.8638 0.00508482 10.7865 0.00508482 4.70428C0.0105633 3.86466 -0.0332645 3.02004 0.0653478 2.18042Z" fill="#323082"/>
<path d="M0.0488281 23.9006C0.0816989 16.6988 0.0433498 9.49204 0.070742 2.29028C0.782942 2.76007 1.41296 3.33481 2.09777 3.84458C5.99296 6.9182 9.8991 9.97682 13.7833 13.0654C9.48273 16.4439 5.20954 19.8474 0.925381 23.2359C0.635023 23.4607 0.355622 23.6956 0.0488281 23.9006Z" fill="#323082"/>
<path d="M39.8781 2.39506C39.911 2.37507 39.9494 2.36008 39.9877 2.34009C40.0041 9.51186 40.0041 16.6886 39.9932 23.8604C39.9494 23.8404 39.911 23.8204 39.8672 23.8004L39.8727 23.7754C39.9932 22.6859 39.9384 21.5914 39.9439 20.4969C39.9494 14.9144 39.9384 9.33694 39.9494 3.75445C39.9439 3.30965 39.9275 2.86485 39.8781 2.42505V2.39506Z" fill="#323082"/>
<path d="M36.2625 5.24402C37.4732 4.30944 38.6401 3.32989 39.8783 2.42529C39.9276 2.86509 39.944 3.30989 39.9495 3.75469C39.9385 9.33718 39.9495 14.9147 39.944 20.4972C39.9385 21.5917 39.9933 22.6862 39.8728 23.7757C36.1639 20.942 32.4823 18.0782 28.7844 15.2345C27.9024 14.5448 26.9984 13.8751 26.1328 13.1705C29.5185 10.5366 32.8768 7.87784 36.2625 5.24402Z" fill="#323082"/>
<path d="M0.986328 25.5401C5.75259 21.7718 10.5024 17.9835 15.2851 14.2302C16.8739 15.4647 18.4352 16.7341 20.0349 17.9535C21.5634 16.7541 23.0974 15.5596 24.6259 14.3602C29.436 18.0685 34.2515 21.7718 39.0452 25.4952C38.6507 25.7151 38.2398 25.9499 37.7632 25.9549C30.5262 25.935 23.2946 25.9499 16.0576 25.945C11.4502 25.9549 6.8428 25.925 2.24089 25.9599C1.79166 25.915 1.36434 25.76 0.986328 25.5401Z" fill="#323082"/>
<path d="M2.24023 25.9599C6.84214 25.9249 11.4495 25.9549 16.0569 25.9449C23.294 25.9499 30.5255 25.9349 37.7626 25.9549C36.8477 26.0199 35.9273 25.9949 35.0124 25.9949C24.8772 25.9949 14.7421 25.9949 4.60693 25.9949C3.81803 25.9949 3.02365 26.0199 2.24023 25.9599Z" fill="#323082"/>
</svg>
