<svg width="415" height="358" viewBox="0 0 415 358" fill="none" xmlns="http://www.w3.org/2000/svg">
<path d="M213.49 22.2522C246.419 -17.2318 327.997 -4.83482 330.836 64.7612C409.171 58.2012 441.101 117.894 389.59 169.404C408.531 178.867 410.083 207.982 383.181 222.47C420.948 273.099 383.698 332.147 306.122 310.553C298.06 339.045 255.832 351.463 230.122 328.956C207.665 368.706 112.845 371.466 97.2745 310.553C26.1965 324.643 -36.3325 249.029 24.7995 187.896C3.06151 166.158 15.9675 121.225 46.5485 118.639C30.5365 65.1482 73.0845 6.55919 141.188 30.8072C156.022 3.11019 197.495 2.59319 213.49 22.2522Z" fill="#F6DBFF"/>
<mask id="mask0_2116_220" style="mask-type:luminance" maskUnits="userSpaceOnUse" x="0" y="0" width="415" height="358">
<path d="M213.49 22.2522C246.419 -17.2318 327.997 -4.83482 330.836 64.7612C409.171 58.2012 441.101 117.894 389.59 169.404C408.531 178.867 410.083 207.982 383.181 222.47C420.948 273.099 383.698 332.147 306.122 310.553C298.06 339.045 255.832 351.463 230.122 328.956C207.665 368.706 112.845 371.466 97.2745 310.553C26.1965 324.643 -36.3325 249.029 24.7995 187.896C3.06151 166.158 15.9675 121.225 46.5485 118.639C30.5365 65.1482 73.0845 6.55919 141.188 30.8072C156.022 3.11019 197.495 2.59319 213.49 22.2522Z" fill="white"/>
</mask>
<g mask="url(#mask0_2116_220)">
<path d="M294.718 232.662L212.072 150.017H8.44629V148.465H212.715L295.814 231.564L294.718 232.662Z" fill="#4F0188"/>
<path d="M278.247 346.634H276.695V245.978L209.774 179.059H58.8154V177.507H210.417L278.247 245.336V346.634Z" fill="#4F0188"/>
<path d="M256.379 277.338H254.827V350.082H256.379V277.338Z" fill="#4F0188"/>
<path d="M121.617 357.733H120.065V284.812L179.096 225.78L180.194 226.878L121.617 285.455V357.733Z" fill="#4F0188"/>
<path d="M234.708 261.767H233.156V343.873H234.708V261.767Z" fill="#4F0188"/>
<path d="M330.746 322.172H329.194V203.094L229.271 103.17L325.741 6.7002L326.839 7.79819L231.465 103.17L330.746 202.451V322.172Z" fill="#4F0188"/>
<path d="M330.757 35.0081L279.965 85.7998L281.063 86.8972L331.854 36.1055L330.757 35.0081Z" fill="#4F0188"/>
<path d="M352.449 172.694H350.897V322.172H352.449V172.694Z" fill="#4F0188"/>
<path d="M190.524 89.791L153.908 53.474V0.000976562H155.46V52.827L191.618 88.689L190.524 89.791Z" fill="#4F0188"/>
<path d="M179.556 3.10986H178.004V50.4609H179.556V3.10986Z" fill="#4F0188"/>
<path d="M116.941 129.532L60.4473 73.0392V18.1392H61.9993V72.3962L118.038 128.435L116.941 129.532Z" fill="#4F0188"/>
<path d="M36.0818 80.261L34.9844 81.3584L74.4985 120.873L75.596 119.775L36.0818 80.261Z" fill="#4F0188"/>
<path d="M97.0595 322.172H95.5075V272.611L13.6035 190.708L14.7015 189.61L97.0595 271.969V322.172Z" fill="#4F0188"/>
<path d="M72.9031 277.338H71.3511V319.151H72.9031V277.338Z" fill="#4F0188"/>
<path d="M141.963 295.171H140.411V361.118H141.963V295.171Z" fill="#4F0188"/>
<path d="M331.415 177.843H329.863V111.204L378.157 62.9102L379.255 64.0072L331.415 111.847V177.843Z" fill="#4F0188"/>
<path d="M374.685 218.676H373.133V160.196L418.331 114.998L419.429 116.096L374.685 160.839V218.676Z" fill="#4F0188"/>
<path d="M75.0503 163.934H8.44629V165.486H75.0503V163.934Z" fill="#4F0188"/>
<path d="M376.802 218.676C376.802 220.274 375.509 221.569 373.91 221.569C372.313 221.569 371.018 220.274 371.018 218.676C371.018 217.079 372.313 215.784 373.91 215.784C375.509 215.784 376.802 217.079 376.802 218.676Z" fill="#4F0188"/>
<path d="M354.565 172.694C354.565 174.292 353.269 175.586 351.673 175.586C350.074 175.586 348.781 174.292 348.781 172.694C348.781 171.096 350.074 169.802 351.673 169.802C353.269 169.802 354.565 171.097 354.565 172.694Z" fill="#4F0188"/>
<path d="M333.532 177.843C333.532 179.44 332.236 180.735 330.64 180.735C329.041 180.735 327.748 179.441 327.748 177.843C327.748 176.245 329.042 174.951 330.64 174.951C332.236 174.95 333.532 176.245 333.532 177.843Z" fill="#4F0188"/>
<path d="M280.517 89.2391C282.114 89.2391 283.409 87.9443 283.409 86.3471C283.409 84.7499 282.114 83.4551 280.517 83.4551C278.919 83.4551 277.625 84.7499 277.625 86.3471C277.625 87.9443 278.919 89.2391 280.517 89.2391Z" fill="#4F0188"/>
<path d="M181.672 50.4608C181.672 52.0578 180.378 53.3528 178.78 53.3528C177.182 53.3528 175.888 52.0588 175.888 50.4608C175.888 48.8628 177.182 47.5688 178.78 47.5688C180.378 47.5688 181.672 48.8638 181.672 50.4608Z" fill="#4F0188"/>
<path d="M191.071 92.4417C192.668 92.4417 193.963 91.1469 193.963 89.5497C193.963 87.9525 192.668 86.6577 191.071 86.6577C189.474 86.6577 188.179 87.9525 188.179 89.5497C188.179 91.1469 189.474 92.4417 191.071 92.4417Z" fill="#4F0188"/>
<path d="M77.9412 121.225C77.9412 122.823 76.6472 124.117 75.0492 124.117C73.4522 124.117 72.1572 122.823 72.1572 121.225C72.1572 119.627 73.4512 118.333 75.0492 118.333C76.6472 118.333 77.9412 119.628 77.9412 121.225Z" fill="#4F0188"/>
<path d="M77.9412 164.711C77.9412 166.308 76.6472 167.603 75.0492 167.603C73.4522 167.603 72.1572 166.309 72.1572 164.711C72.1572 163.113 73.4512 161.819 75.0492 161.819C76.6472 161.819 77.9412 163.113 77.9412 164.711Z" fill="#4F0188"/>
<path d="M61.7073 178.283C61.7073 179.881 60.4133 181.175 58.8153 181.175C57.2173 181.175 55.9233 179.881 55.9233 178.283C55.9233 176.685 57.2173 175.391 58.8153 175.391C60.4123 175.391 61.7073 176.685 61.7073 178.283Z" fill="#4F0188"/>
<path d="M75.0194 277.338C75.0194 278.936 73.7253 280.231 72.1273 280.231C70.5293 280.231 69.2354 278.936 69.2354 277.338C69.2354 275.741 70.5293 274.446 72.1273 274.446C73.7243 274.446 75.0194 275.741 75.0194 277.338Z" fill="#4F0188"/>
<path d="M141.187 298.063C142.785 298.063 144.079 296.768 144.079 295.171C144.079 293.574 142.785 292.279 141.187 292.279C139.59 292.279 138.295 293.574 138.295 295.171C138.295 296.768 139.59 298.063 141.187 298.063Z" fill="#4F0188"/>
<path d="M236.825 261.239C236.825 262.837 235.532 264.131 233.933 264.131C232.336 264.131 231.04 262.836 231.04 261.239C231.04 259.642 232.336 258.347 233.933 258.347C235.532 258.347 236.825 259.642 236.825 261.239Z" fill="#4F0188"/>
<path d="M258.495 277.338C258.495 278.936 257.201 280.231 255.602 280.231C254.005 280.231 252.71 278.936 252.71 277.338C252.71 275.741 254.005 274.446 255.602 274.446C257.201 274.446 258.495 275.741 258.495 277.338Z" fill="#4F0188"/>
<path d="M298.158 232.113C298.158 233.711 296.864 235.005 295.266 235.005C293.669 235.005 292.373 233.711 292.373 232.113C292.373 230.515 293.669 229.221 295.266 229.221C296.864 229.221 298.158 230.515 298.158 232.113Z" fill="#4F0188"/>
</g>
<path d="M81.6107 233.335C81.6107 252.12 66.3817 267.351 47.5937 267.351C28.8077 267.351 13.5767 252.121 13.5767 233.335C13.5767 214.548 28.8067 199.316 47.5937 199.316C66.3817 199.316 81.6107 214.548 81.6107 233.335Z" fill="white"/>
<path d="M54.2811 252.358H44.1211V227.846L54.2811 222.847V252.358Z" fill="#D49B54"/>
<path d="M44.908 252.358H34.749V227.846L44.908 222.847V252.358Z" fill="#A67942"/>
<path d="M35.536 252.358H25.375V227.846L35.536 222.847V252.358Z" fill="#D49B54"/>
<path d="M61.0107 218.978C61.0107 213.011 57.2637 209.302 51.4587 211.398C46.6207 208.657 36.7837 206.077 33.9617 213.011C29.5267 213.011 29.3657 223.814 39.0417 219.782C44.0397 221.074 49.3627 221.396 51.7817 217.204C54.1997 218.17 56.5147 214.481 61.0107 218.978Z" fill="#DBDAF2"/>
<path d="M64.9805 232.664L63.1325 222.042H64.1175V220.43H57.8275V222.042H58.8885L57.0405 232.664H64.9805Z" fill="#7571B8"/>
<path d="M70.4868 231.395H54.2808V252.358H70.4868V231.395Z" fill="#4F0188"/>
<path d="M68.3477 241.948H64.1177V252.388H68.3477V241.948Z" fill="white"/>
<path d="M58.8156 239.659H56.4966V241.98H58.8156V239.659Z" fill="white"/>
<path d="M62.3835 239.659H60.0645V241.98H62.3835V239.659Z" fill="white"/>
<path d="M58.8156 243.326H56.4966V245.647H58.8156V243.326Z" fill="white"/>
<path d="M62.3835 243.326H60.0645V245.647H62.3835V243.326Z" fill="white"/>
<path d="M58.8156 246.995H56.4966V249.313H58.8156V246.995Z" fill="white"/>
<path d="M62.3835 246.995H60.0645V249.313H62.3835V246.995Z" fill="white"/>
<path d="M73.6398 252.714H22.2598C22.0628 252.714 21.9038 252.555 21.9038 252.359C21.9038 252.163 22.0628 252.004 22.2598 252.004H73.6408C73.8368 252.004 73.9958 252.162 73.9958 252.359C73.9948 252.555 73.8358 252.714 73.6398 252.714Z" fill="#4F0188"/>
<path d="M226.319 303.422C226.319 322.207 211.087 337.437 192.298 337.437C173.511 337.437 158.28 322.208 158.28 303.422C158.28 284.634 173.511 269.402 192.298 269.402C211.088 269.402 226.319 284.634 226.319 303.422Z" fill="white"/>
<path d="M176.871 282.597L166.904 295.784L190.155 313.358L200.122 300.171L176.871 282.597Z" fill="#7571B8"/>
<path d="M188.407 309.744L170.824 296.457C170.673 296.342 170.643 296.126 170.757 295.975C171.101 295.519 171.011 294.871 170.557 294.526C170.405 294.412 170.376 294.198 170.49 294.047L176.173 286.526C176.288 286.374 176.502 286.344 176.654 286.46C177.108 286.805 177.758 286.713 178.1 286.259C178.215 286.108 178.431 286.078 178.582 286.193L196.164 299.482C196.316 299.595 196.346 299.811 196.231 299.962C195.887 300.416 195.978 301.065 196.432 301.409C196.584 301.523 196.614 301.738 196.5 301.89L190.816 309.409C190.703 309.56 190.488 309.592 190.335 309.477C189.882 309.132 189.231 309.223 188.888 309.678C188.773 309.829 188.558 309.858 188.407 309.744ZM171.487 296.094L188.574 309.011C189.089 308.554 189.835 308.451 190.455 308.748L195.765 301.721C195.31 301.207 195.207 300.462 195.502 299.843L178.415 286.926C177.899 287.381 177.154 287.484 176.533 287.187L171.223 294.212C171.679 294.728 171.782 295.473 171.487 296.094Z" fill="#FAEEE1"/>
<path d="M185.807 299.715C184.841 300.993 183.023 301.246 181.745 300.282C180.469 299.315 180.216 297.496 181.182 296.219C182.146 294.944 183.965 294.69 185.244 295.655C186.521 296.619 186.772 298.438 185.807 299.715Z" fill="#FAEEE1"/>
<path d="M195.534 303.454H166.391V319.981H195.534V303.454Z" fill="#4F0188"/>
<path d="M191.982 318.15H169.943C169.753 318.15 169.6 317.997 169.6 317.808C169.6 317.236 169.135 316.773 168.565 316.773C168.376 316.773 168.223 316.618 168.223 316.428V307.005C168.223 306.814 168.376 306.661 168.565 306.661C169.135 306.661 169.6 306.196 169.6 305.628C169.6 305.438 169.753 305.284 169.943 305.284H191.982C192.173 305.284 192.325 305.437 192.325 305.628C192.325 306.196 192.789 306.661 193.359 306.661C193.548 306.661 193.702 306.813 193.702 307.005V316.428C193.702 316.618 193.549 316.773 193.359 316.773C192.79 316.773 192.325 317.236 192.325 317.808C192.326 317.997 192.173 318.15 191.982 318.15ZM170.253 317.464H191.673C191.81 316.791 192.342 316.258 193.017 316.119V307.313C192.342 307.176 191.812 306.645 191.673 305.971H170.253C170.115 306.645 169.583 307.176 168.909 307.313V316.119C169.583 316.258 170.115 316.791 170.253 317.464Z" fill="#FAEEE1"/>
<path d="M183.861 311.718C183.861 313.32 182.563 314.617 180.962 314.617C179.361 314.617 178.063 313.319 178.063 311.718C178.063 310.118 179.362 308.818 180.962 308.818C182.563 308.817 183.861 310.118 183.861 311.718Z" fill="#FAEEE1"/>
<path d="M216.224 319.02C216.224 320.208 215.261 321.17 214.073 321.17H186.589C185.402 321.17 184.439 320.207 184.439 319.02V286.283C184.439 285.095 185.402 284.133 186.589 284.133H214.073C215.262 284.133 216.224 285.096 216.224 286.283V319.02Z" fill="#9C3A3F"/>
<path d="M215.279 319.02C215.279 320.208 214.316 321.17 213.128 321.17H185.646C184.458 321.17 183.496 320.207 183.496 319.02V286.283C183.496 285.095 184.458 284.133 185.646 284.133H213.128C214.316 284.133 215.279 285.096 215.279 286.283V319.02Z" fill="#C74B50"/>
<path d="M211.991 288.015H186.722V294.169H211.991V288.015Z" fill="#3A3845"/>
<path d="M190.049 297.967H186.786V301.233H190.049V297.967Z" fill="white"/>
<path d="M195.534 297.967H192.268V301.233H195.534V297.967Z" fill="white"/>
<path d="M201.017 297.967H197.753V301.233H201.017V297.967Z" fill="white"/>
<path d="M206.504 297.967H203.238V301.233H206.504V297.967Z" fill="white"/>
<path d="M211.99 297.967H208.723V301.233H211.99V297.967Z" fill="white"/>
<path d="M190.049 303.21H186.786V306.476H190.049V303.21Z" fill="white"/>
<path d="M195.534 303.21H192.268V306.476H195.534V303.21Z" fill="white"/>
<path d="M201.017 303.21H197.753V306.476H201.017V303.21Z" fill="white"/>
<path d="M206.504 303.21H203.238V306.476H206.504V303.21Z" fill="white"/>
<path d="M211.99 303.21H208.723V306.476H211.99V303.21Z" fill="white"/>
<path d="M190.049 308.454H186.786V311.718H190.049V308.454Z" fill="white"/>
<path d="M195.534 308.454H192.268V311.718H195.534V308.454Z" fill="white"/>
<path d="M201.017 308.454H197.753V311.718H201.017V308.454Z" fill="white"/>
<path d="M206.504 308.454H203.238V311.718H206.504V308.454Z" fill="white"/>
<path d="M190.049 313.696H186.786V316.96H190.049V313.696Z" fill="white"/>
<path d="M195.534 313.696H192.268V316.96H195.534V313.696Z" fill="white"/>
<path d="M201.017 313.696H197.753V316.96H201.017V313.696Z" fill="white"/>
<path d="M206.504 313.696H203.238V316.96H206.504V313.696Z" fill="white"/>
<path d="M211.99 308.454H208.723V316.96H211.99V308.454Z" fill="white"/>
<path d="M274.338 52.1571C274.338 70.9441 259.109 86.1741 240.317 86.1741C221.531 86.1741 206.305 70.9441 206.305 52.1571C206.305 33.3691 221.531 18.1401 240.317 18.1401C259.108 18.1391 274.338 33.3691 274.338 52.1571Z" fill="white"/>
<path d="M253.426 70.3989C253.426 70.7439 253.147 71.0229 252.801 71.0229H223.207C222.863 71.0229 222.582 70.7439 222.582 70.3989V30.5229C222.582 30.1789 222.863 29.8999 223.207 29.8999H252.801C253.147 29.8999 253.426 30.1789 253.426 30.5229V70.3989Z" fill="#D49B54"/>
<path d="M258.768 76.0561C258.768 76.4001 258.492 76.6801 258.146 76.6801H228.55C228.204 76.6801 227.928 76.4001 227.928 76.0561V36.1811C227.928 35.8351 228.204 35.5571 228.55 35.5571H258.147C258.493 35.5571 258.769 35.8361 258.769 36.1811V76.0561H258.768Z" fill="#4F0188"/>
<path d="M256.485 42.5571H235.091C234.895 42.5571 234.736 42.3981 234.736 42.2021C234.736 42.0051 234.895 41.8481 235.091 41.8481H256.485C256.681 41.8481 256.84 42.0061 256.84 42.2021C256.841 42.3991 256.682 42.5571 256.485 42.5571Z" fill="white"/>
<path d="M256.485 46.0889H230.328C230.135 46.0889 229.974 45.9299 229.974 45.7349C229.974 45.5379 230.134 45.3789 230.328 45.3789H256.485C256.681 45.3789 256.84 45.5379 256.84 45.7349C256.841 45.9299 256.682 46.0889 256.485 46.0889Z" fill="white"/>
<path d="M256.485 49.6202H230.328C230.135 49.6202 229.974 49.4602 229.974 49.2642C229.974 49.0682 230.134 48.9092 230.328 48.9092H256.485C256.681 48.9092 256.84 49.0692 256.84 49.2642C256.841 49.4612 256.682 49.6202 256.485 49.6202Z" fill="white"/>
<path d="M241.946 53.1509H230.328C230.135 53.1509 229.974 52.9909 229.974 52.7959C229.974 52.6009 230.134 52.4409 230.328 52.4409H241.946C242.142 52.4409 242.3 52.6009 242.3 52.7959C242.3 52.9909 242.142 53.1509 241.946 53.1509Z" fill="white"/>
<path d="M256.485 56.6812H235.091C234.895 56.6812 234.736 56.5222 234.736 56.3272C234.736 56.1312 234.895 55.9712 235.091 55.9712H256.485C256.681 55.9712 256.84 56.1312 256.84 56.3272C256.841 56.5232 256.682 56.6812 256.485 56.6812Z" fill="white"/>
<path d="M256.485 60.2119H230.328C230.135 60.2119 229.974 60.0549 229.974 59.8579C229.974 59.6619 230.134 59.5029 230.328 59.5029H256.485C256.681 59.5029 256.84 59.6629 256.84 59.8579C256.841 60.0549 256.682 60.2119 256.485 60.2119Z" fill="white"/>
<path d="M256.485 63.7432H230.328C230.135 63.7432 229.974 63.5842 229.974 63.3882C229.974 63.1922 230.134 63.0332 230.328 63.0332H256.485C256.681 63.0332 256.84 63.1922 256.84 63.3882C256.841 63.5852 256.682 63.7432 256.485 63.7432Z" fill="white"/>
<path d="M256.485 67.2739H230.328C230.135 67.2739 229.974 67.1149 229.974 66.9189C229.974 66.7219 230.134 66.5649 230.328 66.5649H256.485C256.681 66.5649 256.84 66.7229 256.84 66.9189C256.841 67.1159 256.682 67.2739 256.485 67.2739Z" fill="white"/>
<path d="M249.422 70.8062H230.328C230.135 70.8062 229.974 70.6472 229.974 70.4512C229.974 70.2542 230.134 70.0952 230.328 70.0952H249.422C249.62 70.0952 249.779 70.2542 249.779 70.4512C249.779 70.6472 249.62 70.8062 249.422 70.8062Z" fill="white"/>
<path d="M374.023 263.289C374.023 282.075 358.795 297.306 340.006 297.306C321.22 297.306 305.988 282.076 305.988 263.289C305.988 244.502 321.219 229.271 340.006 229.271C358.796 229.271 374.023 244.502 374.023 263.289Z" fill="white"/>
<path d="M314.359 249.735C314.359 248.597 315.281 247.676 316.419 247.676H352.125C353.261 247.676 354.182 248.597 354.182 249.735V276.285C354.182 277.424 353.261 278.345 352.125 278.345H316.419C315.281 278.345 314.359 277.424 314.359 276.285V249.735Z" fill="#6A3C73"/>
<path d="M355.525 239.288L352.401 240.749L353.402 241.447L344.517 254.359L335.987 250.317C335.753 250.209 335.476 250.277 335.327 250.486L321.993 268.905L311.882 262.992C311.625 262.844 311.302 262.931 311.154 263.183C311.005 263.436 311.09 263.763 311.344 263.911L321.87 270.069C321.955 270.118 322.049 270.141 322.14 270.141C322.305 270.141 322.469 270.064 322.572 269.921L335.93 251.468L344.473 255.516C344.707 255.627 344.99 255.551 345.138 255.336L354.275 242.057L355.226 242.722L355.525 239.288Z" fill="#ACA9D9"/>
<path d="M365.153 245.657H360.134V277.877H365.153V245.657Z" fill="#C74B50"/>
<path d="M356.694 250.735H351.674V277.933H356.694V250.735Z" fill="#D49B54"/>
<path d="M348.231 261.239H343.213V277.977H348.231V261.239Z" fill="#C74B50"/>
<path d="M331.31 266.602H326.291V277.977H331.31V266.602Z" fill="#C74B50"/>
<path d="M339.77 256.677H334.751V277.984H339.77V256.677Z" fill="#D49B54"/>
<path d="M368.409 278.403H311.613C311.318 278.403 311.082 278.166 311.082 277.871C311.082 277.577 311.318 277.338 311.613 277.338H368.409C368.704 277.338 368.94 277.577 368.94 277.871C368.94 278.166 368.704 278.403 368.409 278.403Z" fill="#C74B50"/>
<path d="M396.66 118.64C396.66 137.427 381.431 152.656 362.642 152.656C343.856 152.656 328.625 137.426 328.625 118.64C328.625 99.853 343.855 84.623 362.642 84.623C381.431 84.623 396.66 99.852 396.66 118.64Z" fill="white"/>
<path d="M368.514 113.554C368.514 106.74 363.835 101.349 356.206 101.349C349.389 101.349 344.305 102.243 340.948 108.468C339.697 110.787 338.632 114.201 338.715 118.343C336.37 122.81 333.115 126.779 339.119 125.354C339.574 129.443 340.338 132.047 341.101 133.439C342.575 136.135 348.879 134.356 351.169 133.439C352.305 135.42 353.459 137.941 355.289 140.917C360.936 140.917 364.341 138.781 367.393 135.729C365.31 132.482 363.456 129.584 362.436 126.855C367.319 122.784 368.514 118.741 368.514 113.554Z" fill="#4F0188"/>
<path d="M384.919 112.746C384.919 105.931 380.24 100.54 372.611 100.54C365.795 100.54 360.711 101.433 357.353 107.659C356.102 109.979 355.038 113.392 355.121 117.534C352.776 122.001 349.52 125.969 355.524 124.545C355.979 128.634 356.745 131.238 357.507 132.631C358.98 135.328 365.287 133.548 367.576 132.631C368.713 134.612 369.864 137.133 371.695 140.108C377.341 140.108 380.749 137.972 383.8 134.92C381.714 131.673 379.86 128.775 378.84 126.045C383.724 121.976 384.919 117.933 384.919 112.746Z" fill="#9F53AE"/>
<path d="M140.161 72.7192C140.161 91.5052 124.93 106.735 106.143 106.735C87.3564 106.735 72.1274 91.5052 72.1274 72.7192C72.1274 53.9302 87.3564 38.7021 106.143 38.7021C124.931 38.7021 140.161 53.9302 140.161 72.7192Z" fill="white"/>
<path d="M122.289 71.8073C122.289 70.2363 123.323 68.9083 124.745 68.4613C124.493 66.8033 124.06 65.2063 123.463 63.6893C122.007 64.0223 120.444 63.3913 119.654 62.0343C118.864 60.6773 119.086 59.0113 120.09 57.9103C119.034 56.6033 117.831 55.4173 116.508 54.3793C115.421 55.3993 113.759 55.6463 112.391 54.8763C111.023 54.1063 110.37 52.5533 110.68 51.0953C109.255 50.5573 107.758 50.1603 106.21 49.9263C105.762 51.3493 104.435 52.3803 102.864 52.3803C101.294 52.3803 99.9654 51.3493 99.5194 49.9263C97.8624 50.1773 96.2634 50.6123 94.7484 51.2083C95.0804 52.6653 94.4504 54.2253 93.0924 55.0193C91.7374 55.8063 90.0694 55.5853 88.9664 54.5813C87.6594 55.6383 86.4744 56.8373 85.4364 58.1603C86.4564 59.2473 86.7044 60.9103 85.9354 62.2803C85.1634 63.6503 83.6124 64.3003 82.1514 63.9903C81.6144 65.4153 81.2174 66.9133 80.9834 68.4613C82.4064 68.9073 83.4394 70.2363 83.4394 71.8073C83.4394 73.3763 82.4084 74.7043 80.9844 75.1523C81.2354 76.8103 81.6704 78.4103 82.2684 79.9253C83.7234 79.5903 85.2874 80.2203 86.0774 81.5803C86.8674 82.9353 86.6434 84.6013 85.6394 85.7033C86.6964 87.0123 87.8974 88.1953 89.2204 89.2343C90.3074 88.2143 91.9714 87.9673 93.3404 88.7373C94.7084 89.5073 95.3604 91.0613 95.0504 92.5193C96.4764 93.0583 97.9714 93.4553 99.5214 93.6893C99.9674 92.2663 101.296 91.2333 102.866 91.2333C104.437 91.2333 105.766 92.2663 106.212 93.6873C107.869 93.4363 109.468 93.0013 110.983 92.4033C110.651 90.9493 111.279 89.3873 112.639 88.5953C113.994 87.8063 115.661 88.0293 116.762 89.0333C118.071 87.9773 119.256 86.7763 120.294 85.4513C119.273 84.3653 119.026 82.7023 119.795 81.3343C120.567 79.9653 122.119 79.3133 123.578 79.6243C124.118 78.1983 124.514 76.7013 124.748 75.1523C123.324 74.7063 122.289 73.3763 122.289 71.8073ZM102.864 84.6753C95.7574 84.6753 89.9944 78.9153 89.9944 71.8073C89.9944 64.6993 95.7574 58.9373 102.864 58.9373C109.972 58.9373 115.734 64.6993 115.734 71.8073C115.734 78.9153 109.972 84.6753 102.864 84.6753Z" fill="#4F0188"/>
<path d="M109.445 71.808C109.445 75.443 106.499 78.3891 102.864 78.3891C99.2302 78.3891 96.2832 75.443 96.2832 71.808C96.2832 68.173 99.2302 65.2271 102.864 65.2271C106.498 65.2271 109.445 68.173 109.445 71.808Z" fill="#4F0188"/>
<path d="M117.629 61.3481C114.997 65.5921 109.411 70.2101 103.021 72.0841C103.021 77.7831 104.739 91.7471 117.629 96.4731C130.518 91.7471 132.237 77.7841 132.237 72.0841C125.846 70.2101 120.259 65.5921 117.629 61.3481Z" fill="#D49B54"/>
<path d="M117.628 95.3143C105.78 90.7183 104.247 77.8653 104.113 72.8763C110.002 70.9353 114.894 66.9043 117.628 63.2603C120.36 66.9033 125.252 70.9343 131.142 72.8763C131.009 77.8663 129.475 90.7193 117.628 95.3143Z" fill="#632966"/>
<path d="M117.573 89.5502C116.919 89.5502 116.382 89.3563 115.961 88.9673C115.54 88.5783 115.331 88.0553 115.331 87.4023C115.331 86.7413 115.537 86.2163 115.95 85.8273C116.362 85.4383 116.903 85.2442 117.574 85.2442C118.242 85.2442 118.781 85.4443 119.19 85.8443C119.599 86.2453 119.802 86.7653 119.802 87.4023C119.802 88.0403 119.592 88.5582 119.172 88.9552C118.75 89.3502 118.218 89.5502 117.573 89.5502ZM116.533 83.8882L115.739 78.0972V72.0732H119.394V78.0972L118.635 83.8882H116.533Z" fill="#D49B54"/>
<path d="M203.837 121.225H108.206V252.589H203.837V121.225Z" fill="#422247"/>
<path d="M185.448 121.225H89.8174V252.589H185.448V121.225Z" fill="#4F0188"/>
<path d="M89.8174 129.002V252.59H185.448V224.634L89.8174 129.002Z" fill="#5F05A0"/>
<path d="M177.207 139.954H98.0596V158.527H177.207V139.954Z" fill="white"/>
<path d="M176.173 140.989H99.0947V157.493H176.173V140.989Z" fill="#D49B54"/>
<path d="M112.725 149.241C112.725 151.057 111.251 152.53 109.435 152.53C107.618 152.53 106.144 151.057 106.144 149.241C106.144 147.423 107.618 145.95 109.435 145.95C111.252 145.95 112.725 147.424 112.725 149.241Z" fill="white"/>
<path d="M124.13 149.241C124.13 151.057 122.656 152.53 120.839 152.53C119.022 152.53 117.55 151.057 117.55 149.241C117.55 147.423 119.022 145.95 120.839 145.95C122.656 145.95 124.13 147.424 124.13 149.241Z" fill="white"/>
<path d="M135.535 149.241C135.535 151.057 134.062 152.53 132.245 152.53C130.428 152.53 128.955 151.057 128.955 149.241C128.955 147.423 130.428 145.95 132.245 145.95C134.061 145.95 135.535 147.424 135.535 149.241Z" fill="white"/>
<path d="M177.207 163.408H98.0596V181.981H177.207V163.408Z" fill="white"/>
<path d="M176.173 164.443H99.0947V180.946H176.173V164.443Z" fill="#D49B54"/>
<path d="M112.725 172.695C112.725 174.511 111.251 175.984 109.435 175.984C107.618 175.984 106.144 174.511 106.144 172.695C106.144 170.877 107.618 169.404 109.435 169.404C111.252 169.404 112.725 170.877 112.725 172.695Z" fill="white"/>
<path d="M124.13 172.695C124.13 174.511 122.656 175.984 120.839 175.984C119.022 175.984 117.55 174.511 117.55 172.695C117.55 170.877 119.022 169.404 120.839 169.404C122.656 169.404 124.13 170.877 124.13 172.695Z" fill="white"/>
<path d="M135.535 172.695C135.535 174.511 134.062 175.984 132.245 175.984C130.428 175.984 128.955 174.511 128.955 172.695C128.955 170.877 130.428 169.404 132.245 169.404C134.061 169.404 135.535 170.877 135.535 172.695Z" fill="white"/>
<path d="M177.207 186.862H98.0596V205.439H177.207V186.862Z" fill="white"/>
<path d="M176.173 187.896H99.0947V204.404H176.173V187.896Z" fill="#D49B54"/>
<path d="M112.725 196.153C112.725 197.967 111.251 199.441 109.435 199.441C107.618 199.441 106.144 197.967 106.144 196.153C106.144 194.334 107.618 192.86 109.435 192.86C111.252 192.86 112.725 194.334 112.725 196.153Z" fill="white"/>
<path d="M124.13 196.153C124.13 197.967 122.656 199.441 120.839 199.441C119.022 199.441 117.55 197.967 117.55 196.153C117.55 194.334 119.022 192.86 120.839 192.86C122.656 192.86 124.13 194.334 124.13 196.153Z" fill="white"/>
<path d="M135.535 196.153C135.535 197.967 134.062 199.441 132.245 199.441C130.428 199.441 128.955 197.967 128.955 196.153C128.955 194.334 130.428 192.86 132.245 192.86C134.061 192.86 135.535 194.334 135.535 196.153Z" fill="white"/>
<path d="M177.207 210.318H98.0596V228.892H177.207V210.318Z" fill="white"/>
<path d="M176.173 211.353H99.0947V227.858H176.173V211.353Z" fill="#D49B54"/>
<path d="M112.725 219.606C112.725 221.421 111.251 222.894 109.435 222.894C107.618 222.894 106.144 221.421 106.144 219.606C106.144 217.788 107.618 216.314 109.435 216.314C111.252 216.314 112.725 217.788 112.725 219.606Z" fill="white"/>
<path d="M124.13 219.606C124.13 221.421 122.656 222.894 120.839 222.894C119.022 222.894 117.55 221.421 117.55 219.606C117.55 217.788 119.022 216.314 120.839 216.314C122.656 216.314 124.13 217.788 124.13 219.606Z" fill="white"/>
<path d="M135.535 219.606C135.535 221.421 134.062 222.894 132.245 222.894C130.428 222.894 128.955 221.421 128.955 219.606C128.955 217.788 130.428 216.314 132.245 216.314C134.061 216.314 135.535 217.788 135.535 219.606Z" fill="white"/>
<path d="M251.109 218.677H209.132V247.993H251.109V218.677Z" fill="#2A162E"/>
<path d="M319.056 219.367C319.056 221.082 317.666 222.471 315.952 222.471H144.292C142.578 222.471 141.188 221.081 141.188 219.367V102.444C141.188 100.729 142.578 99.3403 144.292 99.3403H315.952C317.666 99.3403 319.056 100.729 319.056 102.444V219.367Z" fill="#5F05A0"/>
<path d="M141.188 109.847V219.367C141.188 221.082 142.578 222.471 144.292 222.471H305.06L141.188 109.847Z" fill="#4F0188"/>
<path d="M314.451 103.945H145.792V204.313H314.451V103.945Z" fill="#FAEBD7"/>
<path d="M258.748 247.993C258.748 247.422 258.285 246.959 257.714 246.959H202.53C201.959 246.959 201.495 247.422 201.495 247.993V251.556C201.495 252.127 201.959 252.59 202.53 252.59H257.714C258.285 252.59 258.748 252.127 258.748 251.556V247.993Z" fill="#522F59"/>
<path d="M176.266 214.022C176.266 214.593 175.803 215.056 175.231 215.056H155.719C155.148 215.056 154.684 214.593 154.684 214.022V212.904C154.684 212.333 155.147 211.87 155.719 211.87H175.231C175.802 211.87 176.266 212.333 176.266 212.904V214.022Z" fill="white"/>
<path d="M286.685 188.583C286.685 189.154 286.222 189.617 285.65 189.617H174.593C174.021 189.617 173.558 189.154 173.558 188.583V119.673C173.558 119.102 174.021 118.638 174.593 118.638H285.65C286.222 118.638 286.685 119.102 286.685 119.673V188.583Z" fill="#4F0188"/>
<path d="M283.187 130.122H176.266V185.22H283.187V130.122Z" fill="white"/>
<path d="M182.449 124.474C182.449 125.689 181.465 126.673 180.25 126.673C179.035 126.673 178.051 125.689 178.051 124.474C178.051 123.26 179.035 122.275 180.25 122.275C181.465 122.275 182.449 123.26 182.449 124.474Z" fill="#D49B54"/>
<path d="M191.072 124.474C191.072 125.689 190.088 126.673 188.873 126.673C187.658 126.673 186.674 125.689 186.674 124.474C186.674 123.26 187.658 122.275 188.873 122.275C190.087 122.275 191.072 123.26 191.072 124.474Z" fill="#D49B54"/>
<path d="M199.694 124.474C199.694 125.689 198.71 126.673 197.495 126.673C196.281 126.673 195.296 125.689 195.296 124.474C195.296 123.26 196.28 122.275 197.495 122.275C198.71 122.275 199.694 123.26 199.694 124.474Z" fill="#D49B54"/>
<path d="M193.521 173.172V142.545H212.188V147.801H199.543V167.915H212.394V173.171L193.521 173.172ZM197.929 160.135V154.879H210.118V160.135H197.929Z" fill="#4F0188"/>
<path d="M217.815 173.172V143.062C218.656 142.882 219.523 142.724 220.412 142.586C221.302 142.447 222.225 142.344 223.185 142.275C224.143 142.207 225.147 142.172 226.196 142.172C230.28 142.172 233.336 142.986 235.363 144.614C237.392 146.242 238.407 148.704 238.407 152.001C238.407 154.153 237.92 155.961 236.947 157.423C235.973 158.885 234.597 159.989 232.819 160.734C231.038 161.479 228.934 161.851 226.508 161.851C225.942 161.851 225.459 161.845 225.059 161.831C224.659 161.818 224.25 161.796 223.838 161.77V173.172H217.815ZM226.465 157.01C228.521 157.01 230.059 156.621 231.081 155.841C232.101 155.062 232.61 153.782 232.61 152.002C232.61 150.857 232.4 149.912 231.98 149.167C231.559 148.422 230.931 147.866 230.096 147.501C229.261 147.135 228.217 146.953 226.961 146.953C226.313 146.953 225.747 146.977 225.264 147.025C224.782 147.074 224.306 147.138 223.837 147.221V156.885C224.154 156.913 224.447 156.936 224.716 156.958C224.985 156.978 225.258 156.992 225.532 157C225.81 157.007 226.119 157.01 226.465 157.01ZM234.122 173.172L225.244 159.1H231.639L240.683 173.172H234.122Z" fill="#4F0188"/>
<path d="M245.275 173.172V143.062C246.531 142.786 247.838 142.569 249.198 142.409C250.556 142.252 251.975 142.172 253.45 142.172C257.603 142.172 260.721 143.058 262.805 144.832C264.886 146.605 265.929 149.408 265.929 153.244C265.929 156.844 264.905 159.579 262.855 161.448C260.806 163.318 257.803 164.252 253.844 164.252C253.373 164.252 252.952 164.242 252.58 164.221C252.209 164.2 251.808 164.183 251.38 164.169V173.172H245.275ZM253.928 159.286C255.969 159.286 257.487 158.82 258.479 157.89C259.473 156.958 259.97 155.437 259.97 153.327C259.97 151.148 259.483 149.571 258.511 148.598C257.537 147.625 256.037 147.138 254.01 147.138C253.485 147.138 253.02 147.152 252.612 147.18C252.207 147.208 251.796 147.263 251.382 147.346V159.142C251.796 159.197 252.202 159.235 252.603 159.255C253.002 159.276 253.444 159.286 253.928 159.286Z" fill="#4F0188"/>
</svg>
