<svg width="29" height="44" viewBox="0 0 29 44" fill="none" xmlns="http://www.w3.org/2000/svg">
<path d="M15.5489 0.0562229C15.4697 0.0562229 15.3707 0.0375636 15.2716 0.0375636C14.4199 0.0189039 13.5484 0.0189038 12.6967 0.000244141C12.6175 0.0189038 12.5185 0.0189039 12.4392 0.0375636C11.9837 0.130862 11.5083 0.2055 11.0329 0.298798C10.3991 0.429416 9.7851 0.653331 9.15128 0.821268L9.11166 0.839928C9.01263 0.877247 8.91359 0.914566 8.81456 0.951885L8.77494 0.970546C8.73533 1.02652 8.6561 1.06384 8.57687 1.06384C8.55707 1.06384 8.51745 1.0825 8.49765 1.0825C8.47784 1.15714 8.43823 1.19446 8.359 1.1758C8.33919 1.1758 8.27977 1.1758 8.25996 1.1758C8.24016 1.25044 8.20054 1.28776 8.12131 1.28776C8.00247 1.28776 7.92324 1.34374 7.86382 1.43704C7.84402 1.51168 7.78459 1.53033 7.70537 1.51167C7.68556 1.51167 7.62614 1.49302 7.58652 1.49302C7.62614 1.56765 7.60633 1.60497 7.5073 1.62363C7.42807 1.66095 7.32903 1.69827 7.26961 1.75425C7.24981 1.82889 7.19039 1.84755 7.13097 1.84755H7.09135C7.03193 1.88487 6.97251 1.90353 6.91309 1.94085C6.85367 1.95951 6.79425 2.01549 6.73483 2.0528C6.16042 2.48198 5.58602 2.94847 5.01162 3.3963C4.81355 3.54558 4.61548 3.71351 4.45702 3.91877C4.3778 4.03073 4.27876 4.12402 4.19953 4.21732C4.1005 4.32928 3.98166 4.44124 3.90243 4.57186C3.88262 4.66515 3.8232 4.73979 3.74397 4.75845L3.72416 4.77711C3.40725 5.20628 3.12996 5.67277 2.79324 6.08329C2.71401 6.25122 2.61498 6.4005 2.55555 6.56844L2.53575 6.60576C2.51594 6.68039 2.49613 6.73637 2.43671 6.77369L2.41691 6.81101C2.3971 6.88565 2.37729 6.94163 2.31787 6.99761C2.31787 7.01627 2.29806 7.07225 2.29806 7.09091C2.29806 7.16554 2.25845 7.22152 2.19903 7.2775C2.19903 7.29616 2.17922 7.35214 2.17922 7.35214C2.17922 7.42678 2.15942 7.4641 2.08019 7.50142C2.08019 7.52008 2.06038 7.57606 2.04057 7.59472C2.02076 7.66936 1.98115 7.76265 1.96135 7.83729C1.96135 7.85595 1.94154 7.91193 1.94154 7.93059C1.92173 8.00523 1.88212 8.04255 1.80289 8.00523C1.80289 8.07987 1.8227 8.15451 1.8227 8.22915C1.8425 8.30378 1.80289 8.3411 1.72366 8.35976C1.70386 8.4344 1.70386 8.49038 1.68405 8.56502C1.70386 8.65832 1.66424 8.73296 1.60482 8.78893C1.58501 8.80759 1.58501 8.84491 1.56521 8.86357C1.52559 8.99419 1.50579 9.10615 1.46617 9.23676C1.46617 9.25542 1.44636 9.3114 1.44636 9.33006C1.44636 9.36738 1.42656 9.44202 1.42656 9.47934C1.34733 10.431 1.12945 11.3826 1.16907 12.3529C1.18887 13.006 1.2681 13.6404 1.30772 14.2749V14.3122C1.34733 14.4988 1.38694 14.6854 1.42656 14.872C1.44637 14.9466 1.44637 15.0026 1.46617 15.0772C1.46617 15.0959 1.48598 15.1519 1.48598 15.1705C1.50579 15.2825 1.5454 15.4131 1.56521 15.5251C1.58501 15.5624 1.58501 15.637 1.60482 15.6743C1.62463 15.7676 1.66424 15.8796 1.68405 15.9729C1.70386 16.0102 1.72366 16.0849 1.72366 16.1222C1.76328 16.1968 1.80289 16.2715 1.80289 16.3461C1.80289 16.4207 1.8227 16.4767 1.8425 16.5327C1.86231 16.6073 1.90192 16.7006 1.92173 16.7753C1.94154 16.7939 1.94154 16.8499 1.96135 16.8686C1.98115 16.9432 2.02076 17.0365 2.04057 17.1111C2.04057 17.1298 2.06038 17.1858 2.06038 17.2044C2.08019 17.2791 2.1198 17.3724 2.13961 17.447C2.15941 17.4657 2.15941 17.5216 2.15941 17.5403C2.19903 17.6149 2.21884 17.7082 2.25845 17.7829C2.27826 17.8015 2.27826 17.8389 2.29806 17.8575C2.33768 17.9322 2.37729 18.0068 2.37729 18.1001C2.37729 18.1188 2.3971 18.1747 2.3971 18.1934C2.45652 18.268 2.47633 18.3427 2.49613 18.436L2.51594 18.4919C2.55555 18.5666 2.59517 18.6599 2.61498 18.7345L2.63478 18.7718C2.99131 19.6488 3.46667 20.5072 3.8232 21.4028C3.8232 21.4215 3.84301 21.4775 3.84301 21.4961C3.92224 21.4775 3.96185 21.5148 3.94204 21.6081C3.94204 21.6454 3.92223 21.7014 3.92223 21.7387C4.00146 21.7201 4.04108 21.7387 4.06089 21.8134C4.06089 21.832 4.08069 21.888 4.08069 21.9253C4.15992 21.944 4.17973 22 4.17973 22.0559C4.17973 22.0746 4.17973 22.1306 4.17973 22.1492C4.25895 22.1492 4.29857 22.2052 4.29857 22.2799C4.29857 22.2985 4.31837 22.3545 4.31837 22.3732C4.3976 22.3918 4.43722 22.4291 4.41741 22.5038C4.41741 22.5224 4.43722 22.5784 4.43722 22.5971C4.51644 22.6157 4.55606 22.653 4.53625 22.7277C4.53625 22.7463 4.53625 22.8023 4.53625 22.821C4.61548 22.8396 4.65509 22.877 4.65509 22.9516C4.65509 22.9703 4.6749 23.0076 4.6749 23.0262C4.73432 23.0636 4.77393 23.1382 4.77393 23.2128L4.79374 23.2502C4.85316 23.2875 4.89278 23.3621 4.89278 23.4181L4.91258 23.4554C5.40776 24.2764 5.92274 25.0975 6.33869 25.9745C6.3783 26.0491 6.41791 26.1424 6.51695 26.1984C6.59618 26.217 6.61598 26.273 6.59617 26.3477C6.59617 26.3663 6.57637 26.4223 6.57637 26.4596C6.6556 26.4223 6.69521 26.441 6.71502 26.5343C6.77444 26.7022 6.83386 26.8701 6.99231 26.9634C7.07154 26.9821 7.09135 27.0381 7.07154 27.1127C7.07154 27.1314 7.05174 27.1873 7.05174 27.2247C7.13096 27.1873 7.17058 27.206 7.19038 27.2806C7.21019 27.2993 7.23 27.3553 7.23 27.3739C7.74498 28.2136 8.29958 29.016 8.73533 29.893L8.75514 29.9303C8.83436 29.949 8.87398 29.9863 8.87398 30.0423C8.91359 30.2102 8.99282 30.3595 9.13147 30.4528C9.2107 30.4714 9.2305 30.5274 9.2107 30.6021C9.2107 30.6207 9.19089 30.6767 9.19089 30.714C9.27012 30.6767 9.30973 30.6954 9.32954 30.7886C9.36915 30.8633 9.40877 30.9566 9.48799 31.0126C9.56722 31.0312 9.58703 31.0872 9.56722 31.1618C9.56722 31.1805 9.54742 31.2365 9.54742 31.2738C9.62664 31.2365 9.66626 31.2551 9.68606 31.3484C9.70587 31.4231 9.74548 31.4791 9.7851 31.535C10.3001 32.2814 10.8349 33.0465 11.231 33.8488C11.2508 33.8675 11.2508 33.9048 11.2706 33.9235C11.3498 33.9421 11.3697 33.9981 11.3697 34.0541C11.3697 34.1474 11.4489 34.2034 11.5281 34.2407C11.6073 34.2593 11.6271 34.3153 11.6073 34.39C11.6073 34.4086 11.5875 34.4646 11.5875 34.5019C11.6668 34.4833 11.7064 34.5206 11.7064 34.5952V34.6699C11.7856 34.6512 11.8252 34.6699 11.845 34.7445C11.9044 34.9124 11.9639 35.0617 12.0827 35.1737C12.1619 35.1923 12.2015 35.2483 12.1817 35.3043C12.1817 35.3229 12.2015 35.3603 12.2015 35.3789C12.6769 36.0507 13.0929 36.7411 13.489 37.4501C13.5088 37.4688 13.5286 37.5061 13.5286 37.5248C13.6078 37.5434 13.6277 37.5994 13.6277 37.6554C13.6277 37.7487 13.7069 37.8047 13.7861 37.842C13.8653 37.8793 13.8851 37.9166 13.8455 37.9913C13.8257 38.0286 13.8059 38.0846 13.8059 38.1032C13.9446 38.1032 14.0832 38.1032 14.2417 38.1032C14.3011 37.9353 14.3803 37.8047 14.4199 37.6367C14.4199 37.5621 14.4595 37.5248 14.5388 37.5061C14.5586 37.4875 14.5586 37.4501 14.5784 37.4315C14.9943 36.7224 15.3707 35.9574 15.9253 35.3229L15.9055 35.2856C15.8658 35.2296 15.8856 35.1737 15.9649 35.1363C16.1233 35.0244 16.1828 34.8565 16.2224 34.7072C16.2422 34.6325 16.2818 34.5952 16.361 34.6325V34.5579C16.3412 34.4646 16.3808 34.4459 16.4799 34.4646C16.4799 34.4459 16.46 34.39 16.46 34.3526C16.4402 34.278 16.46 34.2407 16.5393 34.2034C16.6185 34.1474 16.6977 34.1101 16.6977 34.0168C16.6977 33.9421 16.7175 33.9048 16.7968 33.8862C16.7968 33.8675 16.8166 33.8302 16.8364 33.8115C17.2523 33.0091 17.7871 32.2628 18.2823 31.4977C18.3219 31.4417 18.3615 31.3671 18.3813 31.3111C18.4011 31.2365 18.4606 31.1992 18.52 31.2365C18.52 31.2178 18.5002 31.1618 18.5002 31.1245C18.4804 31.0499 18.5002 31.0126 18.5794 30.9752C18.6586 30.9193 18.6982 30.8446 18.7378 30.7513C18.7577 30.6767 18.8171 30.6394 18.8765 30.6767C18.8765 30.6394 18.8567 30.5834 18.8567 30.5647C18.8369 30.4901 18.8567 30.4528 18.9359 30.4155C19.0944 30.3035 19.1538 30.1356 19.1934 29.9863C19.2132 29.9116 19.2528 29.8743 19.3321 29.9116V29.8557C19.3321 29.781 19.3717 29.7064 19.4113 29.6504C19.5697 29.3892 19.7282 29.1279 19.9065 28.8854L19.9263 28.8667C20.2234 28.3442 20.5403 27.8218 20.8572 27.318L20.877 27.2806C20.8968 27.206 20.9562 27.1873 21.0355 27.2247C21.0157 27.206 21.0157 27.1314 20.9958 27.1127C20.976 27.0381 20.9958 27.0007 21.0751 26.9634C21.2137 26.8515 21.2929 26.6835 21.3524 26.5343C21.3722 26.4596 21.4118 26.4223 21.491 26.4596C21.4712 26.441 21.4712 26.385 21.4712 26.3477C21.4514 26.273 21.4712 26.2357 21.5504 26.1984C21.5702 26.1797 21.5901 26.1611 21.6099 26.1424C21.7089 25.9745 21.8277 25.7879 21.9268 25.6013L21.9466 25.564C22.3625 24.6869 22.9171 23.8659 23.3727 23.0076C23.3925 22.9889 23.3925 22.9329 23.4123 22.9143C23.4321 22.8396 23.4717 22.8023 23.5509 22.8396C23.5509 22.821 23.5311 22.765 23.5311 22.7277C23.5113 22.653 23.5311 22.6157 23.6104 22.5971C23.6104 22.5784 23.6302 22.5224 23.6302 22.5038C23.6302 22.4291 23.6698 22.3918 23.749 22.3918C23.749 22.3732 23.749 22.3172 23.749 22.2985C23.749 22.2239 23.7688 22.1866 23.848 22.1679C23.848 22.1492 23.848 22.0933 23.8679 22.0746C23.8679 22 23.8877 21.9626 23.9669 21.944C23.9669 21.9253 23.9669 21.8693 23.9867 21.8507C23.9867 21.776 24.0065 21.7387 24.0857 21.7201C24.0857 21.7014 24.0857 21.6454 24.1055 21.6268C24.1055 21.5521 24.1253 21.5148 24.2046 21.4961C24.2046 21.4775 24.2244 21.4215 24.2244 21.4215C24.2244 21.3469 24.264 21.2909 24.3036 21.2349L24.3234 21.2163C24.6601 20.4139 25.0563 19.6115 25.393 18.8092L25.4128 18.7718C25.4326 18.6972 25.4722 18.6039 25.5118 18.5293L25.5316 18.4733C25.5514 18.3986 25.5713 18.324 25.6307 18.2494C25.6307 18.2307 25.6505 18.1747 25.6505 18.1561C25.6703 18.0628 25.6901 17.9881 25.7495 17.9322C25.7693 17.9135 25.7693 17.8575 25.7891 17.8389C25.7891 17.7642 25.8287 17.6709 25.8882 17.6149L25.908 17.5776C25.908 17.503 25.9476 17.447 25.9872 17.391C26.007 17.3164 26.0268 17.2604 26.0466 17.2044C26.0664 17.1111 26.0862 17.0365 26.1258 16.9619C26.1258 16.9432 26.1457 16.8872 26.1457 16.8872C26.1655 16.7939 26.2051 16.7193 26.2249 16.6446C26.2447 16.5887 26.2447 16.5327 26.2447 16.458C26.2249 16.3834 26.2645 16.3088 26.3437 16.2714C26.3635 16.1968 26.3833 16.1408 26.4031 16.0849C26.423 15.9916 26.4428 15.9169 26.4626 15.8423C26.4824 15.7676 26.4824 15.7117 26.5022 15.6557C26.522 15.5437 26.5616 15.4131 26.5814 15.3011C26.5814 15.2638 26.6012 15.1892 26.621 15.1519C26.621 15.1146 26.6408 15.0399 26.6408 15.0026C26.6804 14.816 26.7201 14.6107 26.7399 14.4241C26.7597 14.2562 26.7993 14.0883 26.8191 13.9203C26.8191 13.883 26.8389 13.8084 26.8389 13.7711C26.8587 13.6778 26.8587 13.6031 26.8587 13.5098C26.8785 12.6888 26.8983 11.8491 26.8785 11.0281C26.8785 10.9721 26.8587 10.8975 26.8587 10.8415C26.8191 10.6176 26.7795 10.3937 26.7597 10.1511C26.7597 10.1324 26.7399 10.0951 26.7399 10.0764C26.7003 9.92717 26.6606 9.7779 26.621 9.62862C26.621 9.5913 26.6012 9.53532 26.6012 9.498C26.6012 9.46068 26.5814 9.36738 26.5814 9.33006C26.5616 9.21811 26.522 9.12481 26.5022 9.03151C26.4824 9.01285 26.4824 8.95687 26.4626 8.93821C26.423 8.86357 26.3833 8.78893 26.3833 8.69564C26.3833 8.621 26.3635 8.56502 26.3635 8.49038C26.2843 8.47172 26.2447 8.4344 26.2645 8.35976C26.2843 8.28512 26.2843 8.21049 26.2843 8.13585C26.2051 8.17317 26.1655 8.15451 26.1457 8.06121C26.1258 8.04255 26.1258 7.98657 26.1258 7.96791C26.106 7.87461 26.0664 7.79997 26.0466 7.72533C26.0466 7.70667 26.0268 7.6507 26.0268 7.63204C25.9476 7.61338 25.9278 7.5574 25.9278 7.48276C25.9278 7.4641 25.908 7.40812 25.908 7.38946C25.8684 7.31482 25.8287 7.25884 25.8089 7.1842L25.7891 7.14689C25.7297 7.09091 25.6901 7.03493 25.6901 6.96029L25.6703 6.92297C25.6109 6.86699 25.5713 6.81101 25.5713 6.73637L25.5514 6.69905C25.4722 6.54978 25.393 6.4005 25.3138 6.25122L25.294 6.23256C24.9572 5.80339 24.6799 5.35556 24.363 4.92639L24.3432 4.90773C24.264 4.87041 24.2046 4.79577 24.1848 4.72113C24.1055 4.59052 23.9867 4.47856 23.8877 4.3666C23.7688 4.25464 23.65 4.12402 23.5509 3.99341C23.4519 3.86279 23.3331 3.75083 23.1944 3.65753C22.6794 3.26568 22.2041 2.83651 21.6891 2.426C21.5504 2.3327 21.4316 2.2394 21.2929 2.1461C21.2731 2.12744 21.2137 2.10878 21.1741 2.10878C21.0949 2.10878 21.0553 2.07146 21.0355 2.01549C20.9166 1.90353 20.7384 1.82889 20.5799 1.77291C20.5007 1.75425 20.4611 1.71693 20.5007 1.64229C20.4809 1.66095 20.4016 1.66095 20.3818 1.66095C20.3026 1.67961 20.263 1.66095 20.2234 1.58631L20.164 1.54899C20.0847 1.51167 20.0649 1.47436 20.1045 1.39972C20.0649 1.39972 20.0055 1.41838 19.9857 1.41838C19.9065 1.43704 19.8668 1.41838 19.8272 1.34374C19.8074 1.32508 19.748 1.30642 19.7084 1.30642C19.6292 1.28776 19.5895 1.23178 19.6292 1.1758C19.6094 1.1758 19.5499 1.19446 19.5103 1.19446C19.4311 1.21312 19.3915 1.19446 19.3519 1.11982C19.233 1.04518 19.0944 0.989205 18.9359 0.951885C17.7673 0.504054 16.6779 0.18684 15.5489 0.0562229ZM14.4001 7.35214C14.4001 7.38946 14.4001 7.44544 14.4001 7.48276C14.519 7.48276 14.618 7.50142 14.717 7.52008C14.8161 7.50142 14.9151 7.48276 15.0141 7.4641C15.0339 7.50142 15.0934 7.57606 15.0934 7.61338L15.1528 7.63204C15.232 7.52008 15.4697 7.57606 15.4301 7.70668L15.4895 7.72533C15.5489 7.61338 15.7668 7.68802 15.7272 7.79997L15.7668 7.81863C15.8262 7.72533 16.0045 7.81863 15.9649 7.91193C15.9847 7.93059 16.0441 7.93059 16.0639 7.94925C16.1629 7.89327 16.2026 7.93059 16.2224 8.02389C16.262 8.02389 16.3214 8.00523 16.3412 8.00523C16.4402 8.02389 16.46 8.07987 16.4006 8.15451C16.4799 8.19183 16.5591 8.22914 16.6383 8.28512C16.6779 8.28512 16.7572 8.28512 16.7968 8.30378C16.8364 8.35976 16.876 8.41574 16.9156 8.47172C17.0543 8.56502 17.1929 8.67698 17.2919 8.80759C17.7475 9.10615 18.0446 9.5913 18.2229 10.0951C18.2229 10.1138 18.2427 10.1511 18.2427 10.1697C18.3813 10.3377 18.4606 10.5616 18.4407 10.7669C18.4407 10.8042 18.4606 10.8602 18.4606 10.8975C18.4804 10.9161 18.5398 10.9535 18.5794 10.9721C18.5596 11.0654 18.5596 11.2707 18.5596 11.364C18.5992 11.6812 18.5794 11.9984 18.5596 12.3156C18.5398 12.4649 18.52 12.6328 18.4804 12.7821C18.4606 12.8567 18.4407 12.9127 18.4011 12.9687C18.52 13.0247 18.4606 13.2299 18.3219 13.1926C18.3219 13.2113 18.3021 13.2486 18.3021 13.2672C18.2625 13.7151 17.9654 14.1069 17.6881 14.4615C17.4504 14.76 17.1929 15.0399 16.8562 15.2265C16.8166 15.2452 16.777 15.2825 16.7175 15.3011C16.7373 15.3944 16.5987 15.5064 16.4997 15.4318C16.4402 15.4877 16.3808 15.5437 16.2818 15.5437C16.3214 15.637 16.2818 15.6743 16.1828 15.6557L16.1431 15.6743C15.7272 15.9356 15.2518 16.0849 14.7765 16.1035C14.7566 16.1408 14.7566 16.1968 14.7368 16.2341C14.2219 16.2341 13.7267 16.2341 13.2315 16.2341C13.2117 16.1968 13.1919 16.1408 13.1919 16.1035C12.6373 16.0849 12.0827 15.8983 11.647 15.581C11.5677 15.5437 11.5083 15.5064 11.4489 15.4691C11.3498 15.4131 11.2706 15.3571 11.1716 15.2825C11.1518 15.2638 11.132 15.2452 11.1122 15.2452C10.518 14.9466 10.1416 14.3868 9.86433 13.827L9.84452 13.7897C9.72568 13.6404 9.66626 13.4725 9.64645 13.3046C9.64645 13.2672 9.62664 13.2113 9.62664 13.1926C9.54741 13.2672 9.40876 13.118 9.46819 13.0433C9.46819 13.0247 9.48799 12.9687 9.48799 12.95C9.48799 12.9127 9.46819 12.8567 9.46819 12.8194C9.42857 12.7075 9.40877 12.5768 9.38896 12.4462C9.34935 12.1103 9.38896 11.7931 9.42857 11.4573C9.40877 11.3826 9.36915 11.2893 9.34935 11.196C9.40877 11.0841 9.46819 10.9721 9.52761 10.8602C9.52761 10.8415 9.54742 10.8042 9.54742 10.7855C9.52761 10.7109 9.5078 10.6176 9.5078 10.5429C9.52761 10.5429 9.60684 10.5429 9.62664 10.5429C9.62664 10.5243 9.64645 10.487 9.64645 10.4683C9.62664 10.3937 9.62664 10.3004 9.60684 10.2257C9.62664 10.2257 9.68606 10.2257 9.72568 10.2257C9.72568 10.2071 9.74549 10.1697 9.74549 10.1511C9.90394 9.62862 10.2407 9.12481 10.716 8.80759C10.8151 8.69564 10.9141 8.60234 11.0329 8.5277C11.1122 8.45306 11.2112 8.39708 11.3102 8.3411C11.3895 8.28512 11.4687 8.24781 11.5479 8.22915C11.4885 8.15451 11.5281 8.09853 11.6271 8.07987C11.6668 8.07987 11.7262 8.09853 11.746 8.09853C11.7658 8.00523 11.8252 7.96791 11.9044 8.02389C11.9243 8.00523 11.9837 8.00523 12.0233 7.98657C11.9639 7.89327 12.0035 7.85595 12.1025 7.85595C12.1421 7.85595 12.2015 7.85595 12.2412 7.85595C12.2214 7.74399 12.4392 7.70668 12.4788 7.79997L12.5383 7.78131C12.4987 7.6507 12.7363 7.57606 12.7958 7.68802L12.8552 7.66936C12.875 7.63204 12.9146 7.5574 12.9344 7.53874C13.0334 7.5574 13.1523 7.5574 13.2513 7.57606C13.3504 7.5574 13.4494 7.52008 13.5484 7.52008C13.8257 7.35214 14.1228 7.3708 14.4001 7.35214Z" fill="#323082"/>
<path d="M23.2929 32.6923C22.7582 32.5617 22.2234 32.3378 21.649 32.3005C21.6094 32.4124 21.5697 32.5057 21.5301 32.599C21.5103 32.6737 21.4707 32.6923 21.3915 32.6737C21.3915 32.6923 21.4113 32.7483 21.4113 32.7856C21.4311 32.8603 21.4113 32.8976 21.3321 32.9349C21.2528 32.9909 21.2132 33.0655 21.1736 33.1588C21.1538 33.2335 21.0944 33.2708 21.035 33.2335C21.035 33.2708 21.0548 33.3267 21.0746 33.3641C21.0944 33.4387 21.0746 33.476 20.9953 33.5133C20.9359 33.532 20.8765 33.5693 20.8171 33.588L20.8369 33.6253C20.9359 33.6999 20.8369 33.7932 20.7775 33.8306C20.52 34.2597 20.2823 34.7076 20.0248 35.1181C20.0842 35.1181 20.2031 35.1367 20.2823 35.1367C20.3813 35.1367 20.4606 35.1554 20.5398 35.2114C20.5992 35.23 20.6784 35.2487 20.7379 35.2674C20.8369 35.286 20.9161 35.3047 20.9953 35.342C21.0151 35.342 21.0746 35.3606 21.0944 35.3606C21.1736 35.3793 21.2726 35.4166 21.3519 35.4353C21.3717 35.4353 21.4113 35.4539 21.4311 35.4539C21.5103 35.4726 21.6094 35.5099 21.6886 35.5286C21.7084 35.5286 21.748 35.5472 21.7678 35.5472C21.847 35.5659 21.9461 35.6032 22.0253 35.6219C22.0451 35.6219 22.1045 35.6405 22.1243 35.6405C22.2036 35.6405 22.2828 35.7152 22.2432 35.7898C22.2828 35.7898 22.3422 35.7712 22.362 35.7712C22.4412 35.7525 22.5007 35.7898 22.5601 35.8458C22.5799 35.8645 22.6195 35.8831 22.6393 35.8831C23.0751 36.0511 23.5306 36.2377 23.8872 36.5549C24.006 36.6668 24.1446 36.7601 24.2635 36.8907C24.5804 37.1893 24.6794 37.6931 24.3823 38.029C24.1843 38.2529 23.9466 38.4581 23.7089 38.6447C23.1147 39.1112 22.362 39.4098 21.6094 39.5964L21.5697 39.615C21.4707 39.6337 21.3717 39.671 21.2726 39.7083C21.2528 39.7083 21.2132 39.727 21.1934 39.727C21.1142 39.7457 21.0151 39.783 20.9359 39.8016C20.9161 39.8203 20.8567 39.8203 20.8369 39.839C20.7577 39.8763 20.6784 39.9136 20.5992 39.9136C20.52 39.9136 20.4606 39.9323 20.4011 39.9509C20.3021 39.9696 20.2229 39.9882 20.1436 40.0256C20.0644 40.0442 20.005 40.0629 19.9456 40.0815C19.8663 40.1002 19.7673 40.1189 19.6881 40.1375C19.6089 40.1562 19.5098 40.1748 19.4306 40.1935C19.3117 40.2122 19.1731 40.2308 19.0543 40.2681C18.975 40.2868 18.9156 40.2868 18.8364 40.2868C18.6779 40.3055 18.4997 40.3428 18.3412 40.3614C18.262 40.3801 18.1629 40.3801 18.0837 40.3988C17.9253 40.4174 17.747 40.4547 17.5885 40.4734C17.5093 40.4921 17.4103 40.492 17.3311 40.5107C17.1132 40.548 16.8755 40.5667 16.6576 40.5853C16.5586 40.604 16.4595 40.604 16.3605 40.6227C16.103 40.6413 15.8257 40.66 15.5682 40.6786C15.3702 40.6786 15.1721 40.6973 14.9938 40.6973C14.3402 40.716 13.7064 40.716 13.0527 40.6973C12.6962 40.6786 12.3595 40.6786 12.0228 40.6413C11.9039 40.6227 11.8049 40.6227 11.6861 40.6227C11.5078 40.604 11.3295 40.604 11.1513 40.5667C10.9928 40.548 10.8146 40.5294 10.6363 40.5107C10.5769 40.492 10.4976 40.4921 10.4382 40.4734C10.2798 40.4547 10.1015 40.4361 9.94305 40.3988C9.86382 40.3801 9.76479 40.3614 9.68556 40.3614C9.56672 40.3428 9.42807 40.3055 9.30923 40.2868C9.21019 40.2681 9.09135 40.2681 8.99232 40.2495C8.87347 40.2308 8.73483 40.2122 8.61598 40.1935C8.53676 40.1748 8.47734 40.1748 8.41791 40.1562C8.31888 40.1375 8.20004 40.1002 8.101 40.0815C8.06139 40.0629 7.98216 40.0629 7.96235 40.0442C7.84351 40.0256 7.74448 39.9882 7.64544 39.9696C7.60583 39.9509 7.54641 39.9509 7.50679 39.9509C7.42756 39.9509 7.32853 39.9136 7.26911 39.8763C7.2295 39.8576 7.15027 39.839 7.11065 39.8203C7.03142 39.8016 6.93239 39.783 6.85316 39.7457C6.83335 39.7457 6.77393 39.727 6.75413 39.727C6.6749 39.7083 6.57586 39.671 6.49664 39.6524C6.47683 39.6524 6.41741 39.6337 6.3976 39.6337C6.29857 39.5964 6.19953 39.5591 6.1005 39.5404L6.06088 39.5217C5.40725 39.3165 4.77343 39.0553 4.25845 38.6261C4.08019 38.4768 3.90192 38.3275 3.72366 38.1409C3.34733 37.7864 3.40675 37.1706 3.82269 36.8534C3.88212 36.7788 3.94154 36.7228 4.02076 36.6668C4.33768 36.3683 4.73382 36.163 5.12996 35.9951L5.16957 35.9764C5.22899 35.9204 5.28841 35.9018 5.36764 35.9018C5.38745 35.9018 5.44687 35.8831 5.46667 35.8831C5.52609 35.8271 5.58552 35.8085 5.66474 35.7898C5.68455 35.7898 5.74397 35.7712 5.76378 35.7712C5.80339 35.7152 5.88262 35.6779 5.94204 35.6779C5.96185 35.6779 6.00146 35.6592 6.02127 35.6592C6.1005 35.6405 6.19953 35.6032 6.27876 35.5846C6.29857 35.5659 6.35799 35.5659 6.3778 35.5472C6.45702 35.5286 6.55606 35.4913 6.63529 35.4726C6.65509 35.4539 6.69471 35.4539 6.71451 35.4539C6.79374 35.4166 6.89278 35.398 6.972 35.3793C6.99181 35.3793 7.05123 35.3606 7.07104 35.3606C7.15027 35.342 7.2493 35.3047 7.32853 35.286C7.40776 35.2674 7.46718 35.2487 7.5266 35.23C7.60583 35.1927 7.68505 35.1554 7.78409 35.1554C7.84351 35.1554 7.96235 35.1554 8.04158 35.1367C7.8237 34.7822 7.64544 34.4277 7.44737 34.0731L7.42757 34.0358C7.34834 34.0172 7.32853 33.9612 7.34834 33.8865C7.34834 33.8679 7.36814 33.8119 7.36814 33.7746C7.26911 33.8119 7.18988 33.7186 7.18988 33.6253C7.17007 33.5693 7.13046 33.5133 7.09084 33.476C7.01162 33.4574 6.99181 33.4014 7.01162 33.3268C7.01162 33.3081 7.03143 33.2521 7.03143 33.2148C6.9522 33.2521 6.91258 33.2335 6.89277 33.1402C6.85316 33.0655 6.81355 32.9722 6.73432 32.9162C6.65509 32.8976 6.63528 32.8416 6.65509 32.767C6.6749 32.7483 6.6749 32.6737 6.69471 32.655C6.61548 32.6923 6.57587 32.6737 6.53625 32.599L6.51644 32.5617C6.43722 32.4497 6.37779 32.3378 6.29857 32.2258C5.78358 32.3751 5.28841 32.5617 4.77343 32.6737C4.63478 32.711 4.51594 32.767 4.4169 32.8416C4.37729 32.9162 4.33768 32.9349 4.25845 32.9162C4.23864 32.9162 4.17922 32.8976 4.13961 32.8976C4.15941 32.9722 4.13961 33.0095 4.06038 33.0282C4.04057 33.0282 3.98115 33.0469 3.94154 33.0469C3.92173 33.1215 3.86231 33.1588 3.80289 33.1402C3.78308 33.1402 3.72366 33.1588 3.70385 33.1588C3.68405 33.2335 3.62463 33.2521 3.56521 33.2335C3.52559 33.2335 3.46617 33.2148 3.42655 33.2148C3.46617 33.2894 3.44636 33.3267 3.36714 33.3641L3.30771 33.4014C3.28791 33.476 3.22849 33.4947 3.14926 33.476C3.10964 33.476 3.05022 33.4574 3.03042 33.4574C3.07003 33.532 3.05022 33.5693 2.971 33.6066C2.89177 33.6253 2.83235 33.6626 2.77293 33.7186C2.71351 33.7559 2.65408 33.7932 2.59466 33.8306C2.53524 33.8679 2.47582 33.9052 2.4164 33.9425C2.35698 33.9798 2.29756 34.0172 2.23814 34.0545C2.1391 34.1105 2.04007 34.1664 1.96084 34.2411C1.48547 34.6702 1.01011 35.1367 0.59416 35.6405C0.475318 35.9018 0.336669 36.1444 0.237634 36.4056L0.217826 36.4429C0.198019 36.5175 0.158406 36.6108 0.138599 36.6855C0.118792 36.7601 0.0791777 36.8161 0.0791777 36.8907C0.0593707 37.1333 0.0395649 37.3572 -4.9002e-05 37.5998C-4.9002e-05 37.6558 -4.9002e-05 37.7118 -4.9002e-05 37.7677C0.019758 38.0103 0.0395637 38.2342 0.0791777 38.4768C0.0989847 38.5141 0.118792 38.5888 0.138599 38.6261C0.178213 38.7007 0.217826 38.794 0.217826 38.8687L0.237634 38.906C0.415897 39.3352 0.693193 39.7457 0.950683 40.1375C1.22798 40.4734 1.5647 40.7906 1.92123 41.0518C2.39659 41.3504 2.85215 41.6489 3.32752 41.9288C3.40675 41.9848 3.50578 42.0221 3.60482 42.0595C3.68405 42.0781 3.72366 42.1341 3.68405 42.1901C3.70385 42.1714 3.76328 42.1714 3.80289 42.1714C3.88212 42.1528 3.92173 42.1714 3.96135 42.2461C4.08019 42.3394 4.23864 42.3953 4.3971 42.3953C4.47633 42.3953 4.51594 42.414 4.53575 42.5073C4.55555 42.5073 4.61497 42.5073 4.63478 42.5073C4.71401 42.4886 4.75362 42.5259 4.77343 42.6006C4.79324 42.6006 4.85266 42.6192 4.87246 42.6192C4.9715 42.6192 5.05073 42.6379 5.11015 42.6939C5.12995 42.7125 5.18938 42.7125 5.20918 42.7312C5.28841 42.7312 5.34783 42.7685 5.40725 42.8245C5.44687 42.8432 5.52609 42.8432 5.56571 42.8618C5.64494 42.8618 5.72416 42.8991 5.80339 42.9365L5.84301 42.9551C5.96185 42.9924 6.06088 43.0298 6.17973 43.0484L6.21934 43.0671C6.33818 43.0857 6.45702 43.1231 6.57587 43.1604C6.59567 43.1604 6.63528 43.179 6.65509 43.179C7.92274 43.4776 9.21019 43.6828 10.5175 43.8694C10.6165 43.8881 10.7353 43.8881 10.8344 43.9068C11.1513 43.9068 11.488 43.9441 11.8049 43.9814C11.9039 43.9814 12.0822 44.0001 12.1812 44.0001C13.4687 44.0001 14.7561 44.0001 16.0436 44.0001C16.2219 43.9814 16.3803 43.9814 16.5388 43.9627C16.9151 43.9254 17.2716 43.8881 17.648 43.8508C17.8262 43.8321 18.0243 43.7948 18.2026 43.7761C19.3514 43.6455 20.5002 43.3843 21.6292 43.1604L21.6688 43.1417C21.7876 43.1044 21.9065 43.0671 22.0253 43.0298C22.0451 43.0111 22.1045 43.0111 22.1243 42.9924C22.2036 42.9551 22.2828 42.9178 22.3818 42.9178C22.4016 42.9178 22.4611 42.8991 22.4809 42.8991C22.5601 42.8432 22.6393 42.8245 22.7185 42.8058C22.7384 42.8058 22.7978 42.7872 22.8176 42.7872C22.877 42.7312 22.9364 42.6939 23.0157 42.7125C23.0355 42.7125 23.1147 42.7125 23.1345 42.7312C23.1147 42.6566 23.1939 42.5633 23.2731 42.6006C23.3326 42.6006 23.4316 42.6192 23.4712 42.6192C23.4514 42.5446 23.4712 42.5073 23.5504 42.4886C23.8079 42.4513 24.0456 42.358 24.2437 42.2274C24.2833 42.1528 24.3229 42.1341 24.4021 42.1528C24.4219 42.1714 24.5012 42.1714 24.521 42.1901C24.4814 42.1154 24.5012 42.0781 24.6002 42.0408L24.6596 42.0221C24.7191 41.9848 24.7785 41.9475 24.8379 41.9475L24.8775 41.9288C25.3529 41.6676 25.7886 41.3691 26.2442 41.0892C26.6007 40.7906 26.9572 40.4734 27.2543 40.1375C27.5118 39.727 27.7891 39.2978 28.007 38.8687C28.0268 38.7567 28.0466 38.6447 28.0862 38.5328C28.0862 38.5141 28.106 38.4581 28.106 38.4395C28.1259 38.3462 28.1457 38.2342 28.1655 38.1409C28.1853 38.0103 28.1853 37.8797 28.2051 37.7491C28.2051 37.6931 28.2051 37.6371 28.2051 37.5811C28.1853 37.3386 28.1655 37.1147 28.1258 36.8721C28.1258 36.7974 28.106 36.7415 28.0862 36.6855C27.908 36.2003 27.6703 35.7152 27.3336 35.3233C26.9969 34.9315 26.6007 34.5583 26.1848 34.2038C26.1253 34.1478 26.0659 34.1105 26.0065 34.0731C25.9075 33.9985 25.8084 33.9425 25.6896 33.8679L25.65 33.8492C25.5311 33.7746 25.4123 33.6999 25.2736 33.644L25.234 33.6253C25.1548 33.6066 25.135 33.5507 25.1548 33.4947H25.0756C24.9963 33.5133 24.9567 33.476 24.9765 33.3827C24.9567 33.3827 24.8973 33.4014 24.8577 33.4014C24.7785 33.42 24.7389 33.3827 24.7191 33.3081C24.6992 33.3081 24.6398 33.2894 24.62 33.2894C24.5408 33.2894 24.5012 33.2521 24.5012 33.1775C24.4814 33.1775 24.4219 33.1775 24.4021 33.1775C24.3229 33.1961 24.2833 33.1588 24.2437 33.0842C24.2239 33.0842 24.1645 33.0655 24.1248 33.0469C24.0456 33.0282 24.006 32.9909 24.0456 32.9162C24.0258 32.9162 23.9664 32.9349 23.9268 32.9349C23.8475 32.9536 23.8079 32.9349 23.7683 32.8603C23.5504 32.7856 23.4316 32.7296 23.2929 32.6923Z" fill="#323082"/>
</svg>
