<svg width="405" height="208" viewBox="0 0 405 208" fill="none" xmlns="http://www.w3.org/2000/svg">
<path d="M388.031 137.829C386.827 137.829 385.623 137.519 384.549 136.898L372.813 130.122C372.131 129.728 371.726 129.025 371.726 128.239C371.726 127.453 372.132 126.75 372.813 126.357L384.55 119.582C386.697 118.341 389.365 118.343 391.513 119.582L403.249 126.358C403.93 126.751 404.336 127.455 404.336 128.241C404.336 129.026 403.93 129.73 403.25 130.123L391.512 136.898C390.439 137.519 389.235 137.829 388.031 137.829ZM388.031 120.512C387.149 120.512 386.267 120.74 385.481 121.194L373.743 127.97C373.608 128.048 373.588 128.173 373.588 128.24C373.588 128.308 373.609 128.433 373.744 128.511L385.48 135.287H385.481C387.052 136.195 389.008 136.195 390.581 135.287L402.319 128.512C402.454 128.434 402.474 128.309 402.474 128.242C402.474 128.174 402.453 128.049 402.318 127.971L390.582 121.195C389.795 120.74 388.913 120.512 388.031 120.512Z" fill="#4F0188"/>
<path d="M332.714 168.997C330.759 168.997 328.804 168.493 327.06 167.486L306.861 155.824C305.9 155.269 305.326 154.275 305.326 153.166C305.326 152.057 305.9 151.063 306.861 150.508L327.059 138.846C330.547 136.832 334.881 136.832 338.37 138.846L358.568 150.508C359.529 151.063 360.103 152.057 360.103 153.166C360.103 154.275 359.529 155.27 358.568 155.824L338.37 167.486C336.625 168.493 334.67 168.997 332.714 168.997ZM327.989 165.875C330.904 167.556 334.522 167.557 337.439 165.875L357.637 154.213C358.182 153.898 358.241 153.376 358.241 153.166C358.241 152.956 358.182 152.435 357.637 152.119L337.439 140.457C334.523 138.775 330.904 138.775 327.988 140.457L307.79 152.119C307.245 152.434 307.186 152.956 307.186 153.166C307.186 153.376 307.245 153.897 307.79 154.213L327.989 165.875Z" fill="#4F0188"/>
<path d="M27.39 135.563C25.434 135.563 23.479 135.06 21.734 134.052L1.535 122.391C0.573996 121.836 0 120.842 0 119.733C0 118.624 0.573996 117.629 1.535 117.075L21.733 105.413C25.221 103.399 29.555 103.399 33.044 105.413L53.243 117.075C54.204 117.63 54.778 118.624 54.778 119.733C54.778 120.842 54.204 121.837 53.243 122.391L33.045 134.052C31.301 135.06 29.345 135.563 27.39 135.563ZM27.389 105.763C25.755 105.763 24.121 106.183 22.664 107.024L2.466 118.686C1.921 119.001 1.862 119.523 1.862 119.733C1.862 119.943 1.921 120.464 2.466 120.78L22.665 132.441C25.58 134.124 29.202 134.123 32.115 132.441L52.313 120.78C52.858 120.465 52.917 119.943 52.917 119.733C52.917 119.523 52.858 119.001 52.313 118.686L32.114 107.024C30.657 106.183 29.023 105.763 27.389 105.763Z" fill="#4F0188"/>
<path d="M91.306 62.4292C88.604 62.4292 85.902 61.7342 83.492 60.3422L54.897 43.8322C53.658 43.1172 52.917 41.8352 52.917 40.4042C52.917 38.9722 53.657 37.6902 54.897 36.9752L83.491 20.4662C88.31 17.6832 94.298 17.6832 99.118 20.4662L127.714 36.9752C128.954 37.6912 129.693 38.9722 129.693 40.4042C129.693 41.8362 128.953 43.1172 127.714 43.8332L99.12 60.3422C96.709 61.7342 94.007 62.4292 91.306 62.4292ZM84.423 58.7312C88.669 61.1802 93.943 61.1822 98.189 58.7312L126.783 42.2222C127.44 41.8422 127.832 41.1632 127.832 40.4052C127.832 39.6472 127.44 38.9672 126.783 38.5882L98.187 22.0792C93.942 19.6292 88.667 19.6282 84.422 22.0792L55.828 38.5882C55.171 38.9672 54.779 39.6472 54.779 40.4052C54.779 41.1632 55.171 41.8432 55.828 42.2212L84.423 58.7312Z" fill="#4F0188"/>
<path opacity="0.6" d="M155.649 205.942L72.4208 157.841C68.3758 155.505 68.8828 151.426 73.5538 148.729L251.673 45.8922C256.344 43.1952 263.41 42.9022 267.455 45.2382L350.683 93.3392C354.728 95.6742 354.221 99.7542 349.55 102.451L171.431 205.288C166.76 207.984 159.695 208.277 155.649 205.942Z" fill="#1C0230"/>
<path d="M346.395 70.9395L346.493 71.0565L267.746 25.5435C263.729 23.2245 256.713 23.5155 252.076 26.1935L75.6618 128.044L69.7788 125.798L71.4308 134.051L71.4388 134.046C71.6578 135.287 72.5268 136.45 74.0868 137.35L155.358 184.32C159.375 186.639 166.391 186.348 171.029 183.67L347.891 81.5585C350.073 80.2985 351.328 78.7355 351.639 77.1905L351.649 77.2025L353.337 69.1705L346.395 70.9395Z" fill="url(#paint0_radial_2116_507)"/>
<path d="M155.649 177.061L72.4208 128.96C68.3758 126.625 68.8828 122.545 73.5538 119.848L251.673 17.0113C256.344 14.3143 263.41 14.0213 267.455 16.3573L350.683 64.4583C354.728 66.7933 354.221 70.8733 349.55 73.5703L171.431 176.406C166.76 179.103 159.695 179.396 155.649 177.061Z" fill="url(#paint1_radial_2116_507)"/>
<path d="M155.758 171.689L79.0808 127.384C75.1288 125.102 75.6238 121.116 80.1878 118.481L251.729 19.4204C256.293 16.7854 263.197 16.4994 267.149 18.7814L344.442 63.4424C348.394 65.7244 347.899 69.7104 343.335 72.3454L171.177 171.049C166.614 173.685 159.71 173.971 155.758 171.689Z" fill="url(#paint2_radial_2116_507)"/>
<path opacity="0.4" d="M155.758 171.689L79.0808 127.384C75.1288 125.102 75.6238 121.116 80.1878 118.481L251.729 19.4204C256.293 16.7854 263.197 16.4994 267.149 18.7814L344.442 63.4424C348.394 65.7244 347.899 69.7104 343.335 72.3454L171.177 171.049C166.614 173.685 159.71 173.971 155.758 171.689Z" fill="#24033E"/>
<path opacity="0.4" d="M298.225 36.7373L295.24 38.4613C292.927 39.7963 292.676 41.8163 294.679 42.9723L296.086 43.7853C298.089 44.9413 301.587 44.7963 303.9 43.4613L306.882 41.7393L298.225 36.7373Z" fill="#24033E"/>
<g opacity="0.2">
<path d="M164.754 114.968L201.297 136.117C205.711 138.644 213.404 138.298 218.48 135.343C223.556 132.388 224.092 127.944 219.678 125.416L183.135 104.266C178.721 101.739 171.028 102.085 165.952 105.04C160.877 107.996 160.34 112.44 164.754 114.968Z" fill="url(#paint3_linear_2116_507)"/>
</g>
<path d="M178.423 113.598L173.299 110.64C172.538 110.201 172.634 109.433 173.512 108.926C174.391 108.419 175.72 108.364 176.481 108.803L181.605 111.761C182.366 112.2 182.271 112.968 181.392 113.475C180.513 113.982 179.184 114.037 178.423 113.598Z" fill="#E8975B"/>
<path d="M197.483 124.602L183.798 116.701C183.037 116.262 183.133 115.494 184.011 114.987C184.89 114.48 186.219 114.425 186.98 114.864L200.665 122.765C201.426 123.204 201.33 123.972 200.452 124.479C199.573 124.986 198.244 125.041 197.483 124.602Z" fill="#E8975B"/>
<path d="M207.863 130.595L202.891 127.724C202.13 127.285 202.225 126.517 203.104 126.01C203.983 125.503 205.312 125.447 206.073 125.887L211.045 128.758C211.806 129.197 211.71 129.965 210.832 130.472C209.953 130.979 208.624 131.034 207.863 130.595Z" fill="#E8975B"/>
<g opacity="0.2">
<path d="M176.339 87.4454L230.693 119.145C235.107 121.672 242.8 121.326 247.876 118.371C252.952 115.416 253.489 110.972 249.074 108.444L194.72 76.7444C190.306 74.2174 182.613 74.5634 177.537 77.5184C172.461 80.4734 171.925 84.9184 176.339 87.4454Z" fill="url(#paint4_linear_2116_507)"/>
</g>
<path d="M199.765 91.7592C198.954 91.2912 197.64 91.2912 196.829 91.7592L195.383 92.6012C194.572 93.0692 194.572 93.8282 195.383 94.2962C196.194 94.7642 197.509 94.7642 198.319 94.2962L199.765 93.4542C200.576 92.9862 200.576 92.2272 199.765 91.7592Z" fill="#E8975B"/>
<path d="M213.493 91.1054C212.682 90.6374 211.368 90.6374 210.557 91.1054L201.675 96.2334C200.864 96.7014 200.864 97.4604 201.675 97.9284C202.486 98.3964 203.801 98.3964 204.611 97.9284L213.493 92.8004C214.304 92.3324 214.304 91.5734 213.493 91.1054Z" fill="#E8975B"/>
<path d="M240.869 111.627C240.058 111.159 238.744 111.159 237.933 111.627L233.135 114.397C232.324 114.865 232.324 115.624 233.135 116.092C233.946 116.56 235.261 116.56 236.071 116.092L240.868 113.322C241.68 112.854 241.68 112.095 240.869 111.627Z" fill="#E8975B"/>
<path d="M233.978 108.34C233.167 107.872 231.852 107.872 231.042 108.34L226.844 110.764C226.033 111.232 226.033 111.991 226.844 112.459C227.655 112.927 228.97 112.927 229.78 112.459L233.978 110.035C234.788 109.567 234.789 108.808 233.978 108.34Z" fill="#E8975B"/>
<path d="M232.369 102.003C231.558 101.535 230.244 101.535 229.433 102.003L220.551 107.131C219.74 107.599 219.74 108.358 220.551 108.826C221.362 109.294 222.677 109.294 223.487 108.826L232.369 103.698C233.18 103.23 233.18 102.472 232.369 102.003Z" fill="#E8975B"/>
<path d="M224.195 99.4574C223.384 98.9894 222.069 98.9894 221.259 99.4574L214.259 103.499C213.448 103.967 213.448 104.726 214.259 105.194C215.07 105.662 216.385 105.662 217.195 105.194L224.195 101.153C225.006 100.684 225.006 99.9254 224.195 99.4574Z" fill="#E8975B"/>
<path d="M215.101 97.4423C214.29 96.9743 212.975 96.9743 212.165 97.4423L207.967 99.8663C207.156 100.334 207.156 101.093 207.967 101.561C208.778 102.029 210.092 102.029 210.903 101.561L215.101 99.1373C215.912 98.6693 215.913 97.9103 215.101 97.4423Z" fill="#E8975B"/>
<path d="M201.28 68.8145L226.034 83.0825C230.448 85.6095 238.141 85.2635 243.217 82.3085C248.293 79.3535 248.83 74.9095 244.415 72.3815L219.661 58.1135C215.247 55.5865 207.554 55.9325 202.478 58.8875C197.402 61.8435 196.866 66.2875 201.28 68.8145Z" fill="url(#paint5_linear_2116_507)"/>
<path d="M349.55 71.4084L171.431 174.245C166.76 176.942 159.694 177.235 155.649 174.9L72.4196 126.799C71.0416 126.003 70.2326 124.998 69.8956 123.921C69.3596 125.781 70.1446 127.647 72.4196 128.96L155.649 177.061C159.694 179.396 166.76 179.103 171.431 176.407L349.55 73.5704C352.63 71.7924 353.858 69.4204 353.207 67.3364C352.79 68.7834 351.594 70.2284 349.55 71.4084Z" fill="white"/>
<path d="M111.335 95.7432L157.38 122.197C161.794 124.724 169.487 124.378 174.563 121.423C179.639 118.468 180.175 114.024 175.761 111.496L129.716 85.0422C125.302 82.5152 117.609 82.8612 112.533 85.8162C107.457 88.7722 106.921 93.2162 111.335 95.7432Z" fill="url(#paint6_linear_2116_507)"/>
<g opacity="0.6">
<path d="M111.335 120.94L157.38 147.395C161.794 149.922 169.487 149.576 174.563 146.621C179.639 143.666 180.175 139.222 175.761 136.694L129.716 110.24C125.302 107.713 117.609 108.059 112.533 111.014C107.457 113.969 106.921 118.413 111.335 120.94Z" fill="#1C0230"/>
</g>
<path d="M142.961 104.911L129.276 97.0103C128.515 96.5713 128.61 95.8033 129.489 95.2963C130.368 94.7893 131.697 94.7343 132.458 95.1733L146.143 103.074C146.904 103.513 146.809 104.281 145.93 104.788C145.051 105.295 143.722 105.35 142.961 104.911Z" fill="white"/>
<path d="M153.341 110.903L148.369 108.032C147.608 107.593 147.704 106.825 148.582 106.318C149.461 105.811 150.79 105.756 151.551 106.195L156.523 109.066C157.284 109.505 157.189 110.273 156.31 110.78C155.431 111.288 154.102 111.343 153.341 110.903Z" fill="white"/>
<path d="M212.041 65.9973L207.957 63.6393C207.196 63.2003 207.292 62.4322 208.17 61.9252C209.049 61.4182 210.378 61.3632 211.139 61.8022L215.223 64.1602C215.984 64.5992 215.889 65.3673 215.01 65.8743C214.131 66.3823 212.802 66.4373 212.041 65.9973Z" fill="white"/>
<path d="M227.93 75.1712L217.162 68.9542C216.401 68.5152 216.497 67.7472 217.375 67.2402C218.254 66.7332 219.583 66.6782 220.344 67.1172L231.112 73.3342C231.873 73.7732 231.778 74.5412 230.899 75.0482C230.02 75.5552 228.691 75.6102 227.93 75.1712Z" fill="white"/>
<path d="M193.602 86.9002C190.209 88.8592 184.707 88.8592 181.314 86.9002C177.921 84.9412 177.92 81.7642 181.314 79.8052C184.707 77.8462 190.209 77.8462 193.602 79.8052C196.996 81.7642 196.996 84.9412 193.602 86.9002Z" fill="#E8975B"/>
<path d="M183.725 83.1144L187.045 81.1974C187.621 80.8644 188.603 81.0074 188.84 81.4574L190.284 84.2084C190.534 84.6844 189.764 85.1294 188.939 84.9844L184.175 84.1504C183.395 84.0134 183.149 83.4464 183.725 83.1144Z" fill="white"/>
<path d="M187.201 2.12116L191.343 4.51215C192.118 4.95915 193.374 4.95915 194.149 4.51215C194.924 4.06415 194.924 3.33915 194.149 2.89215L190.007 0.501152C189.232 0.0541525 187.976 0.0531524 187.201 0.501152C186.427 0.948152 186.427 1.67416 187.201 2.12116Z" fill="#B72BE8"/>
<path opacity="0.6" d="M181.322 5.5153L193.014 12.2653C193.789 12.7123 195.045 12.7123 195.82 12.2653C196.595 11.8183 196.595 11.0923 195.82 10.6453L184.128 3.89531C183.353 3.44831 182.097 3.44831 181.322 3.89531C180.547 4.34331 180.548 5.0683 181.322 5.5153Z" fill="#E8975B"/>
<path opacity="0.6" d="M210.956 14.2164C211.731 13.7694 211.731 13.0434 210.956 12.5964L199.264 5.84637C198.489 5.39937 197.233 5.39837 196.458 5.84637C195.683 6.29337 195.683 7.01937 196.458 7.46637L208.15 14.2164C208.925 14.6634 210.182 14.6634 210.956 14.2164Z" fill="#E8975B"/>
<path d="M220.109 17.8801L219.422 17.4831L216.1 15.5651C215.325 15.1181 214.069 15.1171 213.294 15.5651C212.519 16.0121 212.519 16.7381 213.294 17.1851L216.615 19.1031L217.302 19.5001L220.624 21.4181C221.399 21.8661 222.655 21.8651 223.43 21.4181C224.205 20.9711 224.205 20.2451 223.43 19.7981L220.109 17.8801Z" fill="#E8975B"/>
<path d="M243.108 170.505L259.994 180.254C260.968 180.817 262.548 180.817 263.522 180.254C264.496 179.691 264.496 178.779 263.522 178.217L246.636 168.468C245.662 167.906 244.082 167.905 243.108 168.468C242.133 169.03 242.134 169.942 243.108 170.505Z" fill="#E8975B"/>
<path opacity="0.6" d="M235.715 172.735C234.741 173.298 234.741 174.21 235.715 174.772L261.69 189.769C262.664 190.331 264.244 190.332 265.218 189.769C266.192 189.207 266.192 188.294 265.218 187.732L239.243 172.735C238.269 172.173 236.689 172.173 235.715 172.735Z" fill="#E8975B"/>
<path d="M228.322 179.041L233.53 182.048C234.505 182.611 236.084 182.61 237.058 182.048C238.033 181.485 238.033 180.574 237.058 180.011L231.85 177.004C230.876 176.441 229.296 176.441 228.322 177.004C227.348 177.566 227.348 178.478 228.322 179.041Z" fill="#E8975B"/>
<path d="M220.93 183.309L235.632 191.797C236.606 192.359 238.186 192.36 239.16 191.797C240.134 191.234 240.134 190.322 239.16 189.76L224.458 181.272C223.484 180.71 221.904 180.709 220.93 181.272C219.955 181.834 219.955 182.747 220.93 183.309Z" fill="#B72BE8"/>
<path d="M258.193 194.25C259.168 193.687 259.167 192.775 258.193 192.213L243.491 183.725C242.517 183.163 240.937 183.162 239.963 183.725C238.989 184.287 238.989 185.2 239.963 185.762L254.665 194.25C255.639 194.812 257.219 194.812 258.193 194.25Z" fill="#E8975B"/>
<path opacity="0.6" d="M269.702 198.858L268.838 198.359L264.661 195.948C263.687 195.385 262.107 195.385 261.133 195.948C260.159 196.51 260.159 197.423 261.133 197.985L265.31 200.396L266.174 200.895L270.351 203.306C271.326 203.869 272.905 203.868 273.879 203.306C274.854 202.743 274.854 201.832 273.879 201.269L269.702 198.858Z" fill="#E8975B"/>
<path d="M328.811 64.4031L328.124 64.0061L324.802 62.0881C324.027 61.6411 322.771 61.6401 321.996 62.0881C321.221 62.5351 321.221 63.2611 321.996 63.7081L325.318 65.6261L326.005 66.0231L329.327 67.9411C330.102 68.3881 331.358 68.3881 332.133 67.9411C332.908 67.4941 332.908 66.7681 332.133 66.3211L328.811 64.4031Z" fill="#E8975B"/>
<path d="M266.395 28.2372L265.708 27.8402L262.386 25.9222C261.611 25.4752 260.355 25.4752 259.58 25.9222C258.805 26.3692 258.805 27.0952 259.58 27.5422L262.902 29.4602L263.589 29.8572L266.911 31.7752C267.686 32.2222 268.942 32.2222 269.717 31.7752C270.492 31.3282 270.492 30.6022 269.717 30.1552L266.395 28.2372Z" fill="#E8975B"/>
<path d="M279.395 35.6531L278.708 35.2561L275.386 33.3381C274.611 32.8911 273.355 32.8901 272.58 33.3381C271.805 33.7851 271.805 34.5111 272.58 34.9581L275.902 36.8761L276.589 37.2731L277.649 37.8851C278.424 38.3331 279.68 38.3321 280.455 37.8851C281.23 37.4381 281.23 36.7121 280.455 36.2651L279.395 35.6531Z" fill="#E8975B"/>
<path d="M257.202 56.0333L263.784 52.2333L262.12 51.6763L263.163 51.0723C264.28 51.3943 265.124 51.5413 265.694 51.5103L266.762 52.1273L258.6 56.8403L257.202 56.0333Z" fill="white"/>
<path d="M260.521 57.9494L261.505 57.3815L266.619 56.7305C266.698 56.7195 266.899 56.6954 267.227 56.6584C267.554 56.6214 267.777 56.5934 267.896 56.5724C268.017 56.5534 268.195 56.5195 268.431 56.4725C268.666 56.4245 268.869 56.3685 269.037 56.3045C269.203 56.2405 269.367 56.1624 269.524 56.0724C269.845 55.8864 270.033 55.7125 270.087 55.5495C270.141 55.3875 270.043 55.2414 269.794 55.1134C269.272 54.8394 268.586 54.9475 267.736 55.4375L267.396 55.6335L266.018 54.8374L266.368 54.6364C266.742 54.4194 267.115 54.2495 267.488 54.1255C267.86 54.0015 268.24 53.9225 268.627 53.8885C269.014 53.8545 269.405 53.8825 269.801 53.9745C270.198 54.0665 270.582 54.2204 270.956 54.4364C271.645 54.8344 271.98 55.2444 271.959 55.6624C271.941 56.0814 271.589 56.4875 270.906 56.8815C270.673 57.0165 270.433 57.1314 270.181 57.2254C269.933 57.3214 269.661 57.3974 269.37 57.4554C269.079 57.5144 268.823 57.5595 268.607 57.5905C268.389 57.6195 268.102 57.6544 267.746 57.6954C267.706 57.6984 267.677 57.7024 267.654 57.7054C267.632 57.7084 267.607 57.7114 267.576 57.7144C267.546 57.7174 267.517 57.7205 267.489 57.7245L263.255 58.2305L265.703 59.6434L264.576 60.2935L260.521 57.9494Z" fill="white"/>
<path d="M266.548 60.4855L267.872 59.7205L269.2 60.4875L267.877 61.2525L266.548 60.4855ZM269.88 58.5614L271.21 57.7935L272.539 58.5614L271.209 59.3295L269.88 58.5614Z" fill="white"/>
<path d="M269.883 63.4862C269.155 63.0652 268.819 62.6382 268.874 62.2042C268.929 61.7702 269.325 61.3422 270.06 60.9172L270.351 60.7492L271.747 61.5562L271.52 61.6872C271.114 61.9302 270.865 62.1382 270.771 62.3122C270.677 62.4852 270.773 62.6542 271.058 62.8202C271.182 62.8902 271.312 62.9412 271.445 62.9682C271.579 62.9952 271.705 63.0052 271.824 62.9962C271.944 62.9872 272.077 62.9582 272.22 62.9062C272.365 62.8552 272.502 62.7992 272.63 62.7362C272.757 62.6722 272.905 62.5922 273.077 62.4942C273.51 62.2442 273.77 62.0142 273.855 61.8012C273.94 61.5892 273.816 61.3752 273.487 61.1612C273.473 61.1532 273.438 61.1332 273.381 61.0972C273.323 61.0622 273.289 61.0412 273.278 61.0362L274.449 60.3592C274.555 60.4212 274.619 60.4552 274.643 60.4642C275.014 60.6672 275.36 60.7582 275.683 60.7382C276.006 60.7182 276.373 60.5902 276.783 60.3522C277.144 60.1442 277.361 59.9562 277.431 59.7882C277.502 59.6202 277.397 59.4562 277.12 59.2952C277.001 59.2272 276.878 59.1792 276.752 59.1512C276.627 59.1242 276.503 59.1132 276.386 59.1212C276.267 59.1292 276.142 59.1542 276.006 59.1952C275.872 59.2372 275.745 59.2862 275.625 59.3402C275.505 59.3972 275.372 59.4652 275.224 59.5472L274.948 59.7062L273.551 58.8992L273.93 58.6792C274.626 58.2782 275.35 58.0742 276.102 58.0662C276.852 58.0582 277.568 58.2502 278.248 58.6422C278.934 59.0382 279.273 59.4512 279.27 59.8802C279.264 60.3092 278.915 60.7242 278.223 61.1232C277.76 61.3912 277.275 61.5562 276.767 61.6182C276.257 61.6812 275.789 61.6432 275.363 61.5072C275.593 61.7802 275.639 62.0672 275.499 62.3662C275.359 62.6672 275.021 62.9712 274.486 63.2802C273.709 63.7292 272.93 63.9812 272.152 64.0362C271.375 64.0952 270.617 63.9102 269.883 63.4862Z" fill="white"/>
<path d="M277.097 66.9005C276.298 66.9395 275.558 66.7615 274.87 66.3655C274.186 65.9695 273.876 65.5415 273.946 65.0815C274.013 64.6205 274.41 64.1835 275.132 63.7655L278.722 61.6945C279.466 61.2635 280.229 61.0274 281.011 60.9834C281.792 60.9394 282.536 61.1225 283.245 61.5315C283.947 61.9365 284.261 62.3675 284.188 62.8215C284.113 63.2745 283.706 63.7165 282.965 64.1445L279.375 66.2164C278.655 66.6314 277.895 66.8605 277.097 66.9005ZM276.073 65.6715C276.547 65.9445 277.182 65.8495 277.983 65.3875L281.527 63.3405C281.632 63.2795 281.724 63.2235 281.806 63.1695C281.886 63.1155 281.968 63.0555 282.052 62.9905C282.136 62.9245 282.197 62.8595 282.237 62.7985C282.277 62.7355 282.303 62.6714 282.318 62.6064C282.334 62.5424 282.316 62.4755 282.269 62.4115C282.221 62.3455 282.146 62.2825 282.044 62.2235C281.922 62.1535 281.792 62.1085 281.652 62.0855C281.509 62.0625 281.377 62.0585 281.252 62.0735C281.128 62.0885 280.993 62.1215 280.848 62.1725C280.705 62.2245 280.577 62.2764 280.47 62.3284C280.363 62.3824 280.242 62.4465 280.11 62.5215L276.566 64.5685C275.764 65.0315 275.601 65.3995 276.073 65.6715Z" fill="white"/>
<defs>
<radialGradient id="paint0_radial_2116_507" cx="0" cy="0" r="1" gradientUnits="userSpaceOnUse" gradientTransform="translate(72.696 86.1707) scale(278.275 278.275)">
<stop stop-color="#E39A65"/>
<stop offset="0.2827" stop-color="#A92FFB"/>
<stop offset="0.3347" stop-color="#891CFB"/>
<stop offset="0.3984" stop-color="#6507FA"/>
<stop offset="0.5405" stop-color="#0D0C6F"/>
</radialGradient>
<radialGradient id="paint1_radial_2116_507" cx="0" cy="0" r="1" gradientUnits="userSpaceOnUse" gradientTransform="translate(119.795 5.30504) scale(367.337 367.337)">
<stop stop-color="#E39A65"/>
<stop offset="0.4146" stop-color="#A92FFB"/>
<stop offset="0.5547" stop-color="#891CFB"/>
<stop offset="0.7262" stop-color="#6507FA"/>
<stop offset="0.7367" stop-color="#6308F8"/>
<stop offset="1" stop-color="#3919BB"/>
</radialGradient>
<radialGradient id="paint2_radial_2116_507" cx="0" cy="0" r="1" gradientUnits="userSpaceOnUse" gradientTransform="translate(134.075 14.9245) scale(230.756 230.756)">
<stop stop-color="#6507FA"/>
<stop offset="1" stop-color="#3919BB"/>
</radialGradient>
<linearGradient id="paint3_linear_2116_507" x1="205.452" y1="142.928" x2="178.981" y2="97.4565" gradientUnits="userSpaceOnUse">
<stop stop-color="#E39A65"/>
<stop offset="1" stop-color="#E95F8D"/>
</linearGradient>
<linearGradient id="paint4_linear_2116_507" x1="230.49" y1="128.493" x2="194.923" y2="67.3974" gradientUnits="userSpaceOnUse">
<stop stop-color="#E39A65"/>
<stop offset="1" stop-color="#E95F8D"/>
</linearGradient>
<linearGradient id="paint5_linear_2116_507" x1="233.095" y1="88.2013" x2="212.599" y2="52.9957" gradientUnits="userSpaceOnUse">
<stop stop-color="#7605C9"/>
<stop offset="1" stop-color="#AB4CF0"/>
</linearGradient>
<linearGradient id="paint6_linear_2116_507" x1="159.139" y1="130.403" x2="127.956" y2="76.8378" gradientUnits="userSpaceOnUse">
<stop stop-color="#7300C7"/>
<stop offset="1" stop-color="#AF51F3"/>
</linearGradient>
</defs>
</svg>
