<svg width="678" height="350" viewBox="0 0 678 350" fill="none" xmlns="http://www.w3.org/2000/svg">
<path d="M582.663 195.197C594.249 180.017 601.136 161.057 601.136 140.486C601.136 90.634 560.723 50.222 510.872 50.222C482.359 50.222 456.94 63.447 440.398 84.093C421.053 34.856 373.096 0 316.995 0C261.261 0 213.569 34.405 193.98 83.133C182.2 76.758 168.715 73.131 154.379 73.131C108.35 73.131 71.035 110.445 71.035 156.475C71.035 175.469 77.3929 192.975 88.0919 206.992C39.5429 207.751 0.418945 247.336 0.418945 296.066C0.418945 315.903 6.90495 334.223 17.8689 349.028H79.5379H552.643H658.717C670.59 332.993 677.615 313.152 677.615 291.668C677.616 238.891 635.243 196.019 582.663 195.197Z" fill="#F4E5F8"/>
<path d="M114 282H575" stroke="#631A7C" stroke-width="2" stroke-miterlimit="10"/>
<path d="M182 125L275 282L332 60" stroke="#631A7C" stroke-width="2" stroke-miterlimit="10"/>
<path d="M495 140L275 282" stroke="#631A7C" stroke-width="2" stroke-miterlimit="10"/>
<path d="M573.774 340.839C605.254 340.839 630.774 315.319 630.774 283.839C630.774 252.359 605.254 226.839 573.774 226.839C542.294 226.839 516.774 252.359 516.774 283.839C516.774 315.319 542.294 340.839 573.774 340.839Z" fill="white"/>
<path d="M573.774 230.839C603.045 230.839 626.774 254.568 626.774 283.839C626.774 313.11 603.045 336.839 573.774 336.839C544.503 336.839 520.774 313.11 520.774 283.839C520.774 254.568 544.503 230.839 573.774 230.839ZM573.774 222.839C540.139 222.839 512.774 250.204 512.774 283.839C512.774 317.474 540.139 344.839 573.774 344.839C607.409 344.839 634.774 317.474 634.774 283.839C634.774 250.204 607.409 222.839 573.774 222.839Z" fill="#BB5FDB"/>
<path d="M546.519 294.339V274.839H601.521V294.339" stroke="#BB5FDB" stroke-width="1.9733" stroke-miterlimit="10"/>
<path d="M573.523 251.839V324.339" stroke="#BB5FDB" stroke-width="1.9733" stroke-miterlimit="10"/>
<path d="M539.302 291.403C539.302 295.115 542.312 298.125 546.024 298.125C549.737 298.125 552.746 295.115 552.746 291.403C552.746 287.69 549.737 284.681 546.024 284.681C542.311 284.681 539.302 287.69 539.302 291.403Z" fill="#FF6A81"/>
<path d="M555.501 318.181V306.5C555.501 302.848 552.541 299.888 548.889 299.888H543.159C539.507 299.888 536.547 302.848 536.547 306.5V318.181H555.501Z" fill="#221276"/>
<path d="M594.802 291.403C594.802 295.115 597.812 298.125 601.524 298.125C605.237 298.125 608.246 295.115 608.246 291.403C608.246 287.69 605.237 284.681 601.524 284.681C597.811 284.681 594.802 287.69 594.802 291.403Z" fill="#FF6A81"/>
<path d="M611.001 318.181V306.5C611.001 302.848 608.041 299.888 604.389 299.888H598.659C595.007 299.888 592.047 302.848 592.047 306.5V318.181H611.001Z" fill="#221276"/>
<path d="M566.801 300.903C566.801 304.615 569.81 307.625 573.523 307.625C577.235 307.625 580.245 304.615 580.245 300.903C580.245 297.19 577.235 294.181 573.523 294.181C569.81 294.181 566.801 297.19 566.801 300.903Z" fill="#FF6A81"/>
<path d="M583 327.681V316C583 312.348 580.04 309.388 576.388 309.388H570.658C567.006 309.388 564.046 312.348 564.046 316V327.681H583Z" fill="#221276"/>
<path d="M566.801 241.903C566.801 245.615 569.81 248.625 573.523 248.625C577.235 248.625 580.245 245.615 580.245 241.903C580.245 238.19 577.235 235.181 573.523 235.181C569.81 235.181 566.801 238.19 566.801 241.903Z" fill="#FF6A81"/>
<path d="M583 268.681V257C583 253.348 580.04 250.388 576.388 250.388H570.658C567.006 250.388 564.046 253.348 564.046 257V268.681H583Z" fill="#221276"/>
<path d="M491 197C522.48 197 548 171.48 548 140C548 108.52 522.48 83 491 83C459.52 83 434 108.52 434 140C434 171.48 459.52 197 491 197Z" fill="white"/>
<path d="M491 87C520.271 87 544 110.729 544 140C544 169.271 520.271 193 491 193C461.729 193 438 169.271 438 140C438 110.729 461.729 87 491 87ZM491 79C457.364 79 430 106.365 430 140C430 173.635 457.364 201 491 201C524.636 201 552 173.635 552 140C552 106.365 524.635 79 491 79Z" fill="#BB5FDB"/>
<path d="M504 109.526H459V173H504V109.526Z" fill="#EA7F36"/>
<path d="M513 101H468V164.474H513V101Z" fill="#FFA865"/>
<path d="M512.925 133.89L510.257 136.401L550.925 179.59L553.592 177.078L512.925 133.89Z" fill="#221276"/>
<path d="M554.586 173.642C556.436 175.606 556.343 178.698 554.378 180.548C552.414 182.398 549.322 182.305 547.472 180.34L529.789 161.542C527.939 159.578 528.032 156.486 529.997 154.636C531.961 152.786 535.053 152.879 536.903 154.844L554.586 173.642Z" fill="#FF6A81"/>
<path d="M496.186 149.663C504.215 158.19 517.637 158.594 526.164 150.565C534.691 142.536 535.095 129.114 527.066 120.587C519.037 112.06 505.615 111.656 497.088 119.686C488.56 127.715 488.156 141.136 496.186 149.663Z" fill="#BB5FDB"/>
<mask id="mask0_2115_31" style="mask-type:luminance" maskUnits="userSpaceOnUse" x="492" y="112" width="43" height="44">
<path d="M513.354 155.039C525.065 155.031 534.554 145.53 534.546 133.818C534.537 122.106 525.036 112.618 513.324 112.626C501.613 112.634 492.124 122.135 492.133 133.848C492.141 145.56 501.641 155.048 513.354 155.039Z" fill="white"/>
</mask>
<g mask="url(#mask0_2115_31)">
<path d="M534.848 99.5379L479.575 158.321L487.111 165.408L542.384 106.624L534.848 99.5379Z" fill="white"/>
</g>
<mask id="mask1_2115_31" style="mask-type:luminance" maskUnits="userSpaceOnUse" x="489" y="121" width="44" height="43">
<path d="M511.216 163.529C522.928 163.521 532.416 154.02 532.408 142.308C532.4 130.596 522.899 121.108 511.187 121.116C499.475 121.124 489.987 130.625 489.996 142.338C490.003 154.05 499.503 163.538 511.216 163.529Z" fill="white"/>
</mask>
<g mask="url(#mask1_2115_31)">
<path d="M545.459 108.012L490.186 166.795L493.991 170.373L549.265 111.59L545.459 108.012Z" fill="white"/>
</g>
<mask id="mask2_2115_31" style="mask-type:luminance" maskUnits="userSpaceOnUse" x="498" y="107" width="43" height="44">
<path d="M519.452 150.158C531.163 150.15 540.652 140.649 540.644 128.937C540.636 117.225 531.134 107.737 519.423 107.745C507.711 107.753 498.222 117.254 498.231 128.967C498.239 140.679 507.739 150.167 519.452 150.158Z" fill="white"/>
</mask>
<g mask="url(#mask2_2115_31)">
<path d="M535.109 92.7654L479.836 151.549L481.624 153.23L536.897 94.4464L535.109 92.7654Z" fill="white"/>
</g>
<path d="M527.582 152.071C518.238 160.869 503.478 160.425 494.68 151.082C485.882 141.738 486.326 126.978 495.669 118.18C505.013 109.382 519.773 109.826 528.572 119.169C537.37 128.512 536.926 143.273 527.582 152.071ZM498.506 121.192C490.823 128.426 490.458 140.562 497.693 148.245C504.927 155.928 517.063 156.293 524.746 149.059C532.429 141.825 532.794 129.689 525.56 122.006C518.324 114.322 506.189 113.957 498.506 121.192Z" fill="#221276"/>
<path d="M333 125C364.48 125 390 99.4802 390 68C390 36.5198 364.48 11 333 11C301.52 11 276 36.5198 276 68C276 99.4802 301.52 125 333 125Z" fill="white"/>
<path d="M333 15C362.271 15 386 38.729 386 68C386 97.271 362.271 121 333 121C303.729 121 280 97.271 280 68C280 38.729 303.729 15 333 15ZM333 7C299.364 7 272 34.365 272 68C272 101.635 299.364 129 333 129C366.636 129 394 101.635 394 68C394 34.365 366.635 7 333 7Z" fill="#BB5FDB"/>
<path d="M333.032 27.4611C332.945 27.4601 332.859 27.4541 332.772 27.4541C310.379 27.4541 292.227 45.6071 292.227 67.9991C292.227 90.3911 310.38 108.544 332.772 108.544C332.859 108.544 332.945 108.538 333.032 108.537V27.4611Z" fill="#FF6A81"/>
<path d="M332.967 108.539C333.054 108.54 333.14 108.546 333.227 108.546C355.62 108.546 373.772 90.3931 373.772 68.0011C373.772 45.6091 355.619 27.4561 333.227 27.4561C333.14 27.4561 333.054 27.4621 332.967 27.4631V108.539Z" fill="#FFA865"/>
<path d="M332.967 108.539C333.054 108.54 333.14 108.546 333.227 108.546C355.62 108.546 373.772 90.3931 373.772 68.0011C373.772 67.9571 373.769 67.9151 373.769 67.8711H332.967V108.539Z" fill="#BB5FDB"/>
<path d="M332.967 67.8701V108.539C333.054 108.54 333.14 108.546 333.227 108.546C344.626 108.546 354.92 103.835 362.286 96.2631L332.967 67.8701Z" fill="#6258CC"/>
<path d="M289.382 137.087L344.5 91" stroke="#4F0188" stroke-miterlimit="10"/>
<path d="M344.5 94.5C346.433 94.5 348 92.933 348 91C348 89.067 346.433 87.5 344.5 87.5C342.567 87.5 341 89.067 341 91C341 92.933 342.567 94.5 344.5 94.5Z" fill="white" stroke="#4F0188" stroke-miterlimit="10"/>
<path d="M304.167 139C304.167 141.761 301.928 144 299.167 144H261.667C258.905 144 256.667 141.761 256.667 139V131.5C256.667 128.739 258.905 126.5 261.667 126.5H299.167C301.928 126.5 304.167 128.739 304.167 131.5V139Z" fill="#4F0188"/>
<path d="M263.667 132.497H297.167" stroke="white" stroke-miterlimit="10" stroke-linecap="round" stroke-linejoin="round"/>
<path d="M263.667 137.497H297.167" stroke="white" stroke-miterlimit="10" stroke-linecap="round" stroke-linejoin="round"/>
<path d="M434.211 66.772L363.5 79.5" stroke="#4F0188" stroke-miterlimit="10"/>
<path d="M365.975 81.9748C367.342 80.6078 367.342 78.3918 365.975 77.0248C364.608 75.6578 362.392 75.6578 361.025 77.0248C359.658 78.3918 359.658 80.6078 361.025 81.9748C362.392 83.3418 364.608 83.3418 365.975 81.9748Z" fill="white" stroke="#4F0188" stroke-miterlimit="10"/>
<path d="M462.667 73.5C462.667 76.261 460.428 78.5 457.667 78.5H420.167C417.405 78.5 415.167 76.261 415.167 73.5V66C415.167 63.239 417.405 61 420.167 61H457.667C460.428 61 462.667 63.239 462.667 66V73.5Z" fill="#4F0188"/>
<path d="M422.167 66.9971H455.667" stroke="white" stroke-miterlimit="10" stroke-linecap="round" stroke-linejoin="round"/>
<path d="M422.167 71.9971H455.667" stroke="white" stroke-miterlimit="10" stroke-linecap="round" stroke-linejoin="round"/>
<path d="M418.887 13.5469L361.303 56.5139" stroke="#4F0188" stroke-miterlimit="10"/>
<path d="M364.623 57.6227C365.236 55.7897 364.246 53.8067 362.412 53.1937C360.579 52.5807 358.596 53.5707 357.983 55.4047C357.37 57.2377 358.36 59.2207 360.194 59.8337C362.027 60.4457 364.01 59.4567 364.623 57.6227Z" fill="white" stroke="#4F0188" stroke-miterlimit="10"/>
<path d="M456.667 22.5C456.667 25.261 454.428 27.5 451.667 27.5H414.167C411.405 27.5 409.167 25.261 409.167 22.5V15C409.167 12.239 411.405 10 414.167 10H451.667C454.428 10 456.667 12.239 456.667 15V22.5Z" fill="#4F0188"/>
<path d="M416.167 15.9971H449.667" stroke="white" stroke-miterlimit="10" stroke-linecap="round" stroke-linejoin="round"/>
<path d="M416.167 20.9971H449.667" stroke="white" stroke-miterlimit="10" stroke-linecap="round" stroke-linejoin="round"/>
<path d="M259.58 14.8921L322.358 49.8321" stroke="#4F0188" stroke-miterlimit="10"/>
<path d="M322.011 46.3491C320.088 46.5411 318.684 48.2561 318.876 50.1791C319.068 52.1021 320.783 53.5061 322.706 53.3141C324.629 53.1221 326.033 51.4071 325.841 49.4841C325.649 47.5611 323.934 46.1571 322.011 46.3491Z" fill="white" stroke="#4F0188" stroke-miterlimit="10"/>
<path d="M268.66 21.002C268.66 23.763 266.421 26.002 263.66 26.002H226.16C223.398 26.002 221.16 23.763 221.16 21.002V13.502C221.16 10.741 223.398 8.50195 226.16 8.50195H263.66C266.421 8.50195 268.66 10.741 268.66 13.502V21.002Z" fill="#4F0188"/>
<path d="M228.16 14.499H261.66" stroke="white" stroke-miterlimit="10" stroke-linecap="round" stroke-linejoin="round"/>
<path d="M228.16 19.499H261.66" stroke="white" stroke-miterlimit="10" stroke-linecap="round" stroke-linejoin="round"/>
<path d="M186 182C217.48 182 243 156.48 243 125C243 93.5198 217.48 68 186 68C154.52 68 129 93.5198 129 125C129 156.48 154.52 182 186 182Z" fill="white"/>
<path d="M186 72C215.271 72 239 95.729 239 125C239 154.271 215.271 178 186 178C156.729 178 133 154.271 133 125C133 95.729 156.729 72 186 72ZM186 64C152.364 64 125 91.365 125 125C125 158.635 152.364 186 186 186C219.636 186 247 158.635 247 125C247 91.365 219.635 64 186 64Z" fill="#BB5FDB"/>
<path d="M182.788 103.63L172.403 83.9531L198.639 85.0461L188.801 104.177L182.788 103.63Z" fill="#FFA865"/>
<path d="M177.627 93.8513L182.788 103.631L188.8 104.178L195.594 90.9683C189.586 91.8303 183.589 92.7523 177.627 93.8513Z" fill="#EA7F36"/>
<path d="M194.469 97.9014H177.384V104.526H194.469V97.9014Z" fill="#221276"/>
<path d="M159.021 152.993C159.021 158.77 163.704 163.454 169.481 163.454H201.56C207.337 163.454 212.021 158.771 212.021 152.993V111.151C212.021 105.374 207.338 100.691 201.56 100.691H169.481C163.704 100.691 159.021 105.374 159.021 111.151V152.993Z" fill="#FFA865"/>
<path d="M201.561 155.085H169.482C163.705 155.085 159.022 150.402 159.022 144.624V152.992C159.022 158.769 163.705 163.453 169.482 163.453H201.561C207.338 163.453 212.022 158.77 212.022 152.992V144.624C212.021 150.402 207.338 155.085 201.561 155.085Z" fill="#EA7F36"/>
<path d="M182.965 144.474C182.058 144.474 181.66 144.076 181.66 143.169V141.21H176.692C175.785 141.21 175.387 140.811 175.387 139.905V135.662C175.387 134.756 175.786 134.357 176.692 134.357H186.447C187.063 134.357 187.39 133.886 187.39 133.306C187.39 132.472 187.063 132.145 186.447 132.073L181.007 131.312C177.598 130.804 175.386 129.353 175.386 125.292V121.484C175.386 117.713 177.707 115.537 181.66 115.174V113.143C181.66 112.236 182.059 111.837 182.965 111.837H188.223C189.13 111.837 189.528 112.236 189.528 113.143V115.101H193.046C193.953 115.101 194.351 115.5 194.351 116.406V120.722C194.351 121.628 193.952 122.028 193.046 122.028H184.596C183.98 122.028 183.617 122.463 183.617 123.115C183.617 123.768 183.98 124.203 184.596 124.276L190 125C193.409 125.508 195.657 126.959 195.657 131.02V134.828C195.657 138.527 193.372 140.739 189.528 141.138V143.169C189.528 144.075 189.129 144.474 188.223 144.474H182.965Z" fill="#221276"/>
<path d="M107.752 334C139.232 334 164.752 308.48 164.752 277C164.752 245.52 139.232 220 107.752 220C76.2717 220 50.752 245.52 50.752 277C50.752 308.48 76.2717 334 107.752 334Z" fill="white"/>
<path d="M107.753 224C137.024 224 160.753 247.729 160.753 277C160.753 306.271 137.024 330 107.753 330C78.4819 330 54.7529 306.271 54.7529 277C54.7529 247.729 78.4809 224 107.753 224ZM107.753 216C74.1169 216 46.7529 243.365 46.7529 277C46.7529 310.635 74.1169 338 107.753 338C141.389 338 168.753 310.635 168.753 277C168.753 243.365 141.388 216 107.753 216Z" fill="#BB5FDB"/>
<path d="M87.5 287H74.5V307.5H87.5V287Z" fill="#FFA865"/>
<path d="M105.167 273H92.167V307.5H105.167V273Z" fill="#FF6A81"/>
<path d="M122.833 280.5H109.833V307.5H122.833V280.5Z" fill="#BB5FDB"/>
<path d="M140.5 254H127.5V307.5H140.5V254Z" fill="#6258CC"/>
<path d="M72.002 308H142.002" stroke="#221276" stroke-miterlimit="10" stroke-linecap="round" stroke-linejoin="round"/>
<path d="M119.219 248.408L98.643 265.326L94.071 257.553L69 275.5" stroke="#221276" stroke-width="3.6579" stroke-miterlimit="10"/>
<path d="M109.421 247.466L126.902 240.775L120.122 258.222L117.432 249.773L109.421 247.466Z" fill="#221276"/>
<path d="M397.567 206.264H372.737V260.194H397.567V206.264Z" fill="#FFA865"/>
<path d="M372.737 251.206H377.058C387.511 251.206 396.133 243.466 397.566 233.409V206.264H372.737V251.206Z" fill="#EA7F36"/>
<path d="M375.667 209.134C375.667 218.155 382.98 225.468 392.001 225.468C401.022 225.468 408.335 218.155 408.335 209.134V172.645C408.335 163.624 401.022 156.311 392.001 156.311C382.98 156.311 375.667 163.624 375.667 172.645V209.134Z" fill="#221276"/>
<path d="M397.8 223.205C397.8 234.66 388.514 243.946 377.059 243.946H366.689C355.234 243.946 345.948 234.66 345.948 223.205V173.945C345.948 162.49 355.234 163.574 366.689 163.574H377.059C388.514 163.574 397.8 162.489 397.8 173.945V223.205Z" fill="#FFA865"/>
<path d="M399.531 206.017C404.157 204.921 407.019 200.281 405.923 195.654C404.826 191.027 400.186 188.166 395.56 189.262C390.933 190.359 388.071 194.998 389.168 199.625C390.264 204.252 394.904 207.114 399.531 206.017Z" fill="#FFA865"/>
<path d="M348.885 178.093H397.281C401.239 178.093 404.923 176.965 408.068 175.041C407.054 164.532 402.775 156.315 392 156.315H328.213C328.18 156.703 328.159 157.106 328.152 157.528C328.248 168.901 337.489 178.093 348.885 178.093Z" fill="#221276"/>
<path d="M404.438 178.345C404.438 172.389 404.132 167.56 398.176 167.56H388.783C382.827 167.56 377.998 172.388 377.998 178.345C377.998 184.302 382.827 189.13 388.783 189.13H391.38V202.667H398.002V189.13H398.176C404.132 189.13 406.352 184.302 406.352 178.345H404.438Z" fill="#221276"/>
<path d="M345.5 177.667C355.165 177.667 363 169.832 363 160.167C363 150.502 355.165 142.667 345.5 142.667C335.835 142.667 328 150.502 328 160.167C328 169.832 335.835 177.667 345.5 177.667Z" fill="#221276"/>
<path d="M350.519 199.326C350.519 202.16 352.817 204.458 355.651 204.458C358.485 204.458 360.783 202.16 360.783 199.326" stroke="#0F0B38" stroke-width="1.4911" stroke-miterlimit="10" stroke-linecap="round" stroke-linejoin="round"/>
<path d="M373.186 199.326C373.186 202.16 375.484 204.458 378.318 204.458C381.153 204.458 383.45 202.16 383.45 199.326" stroke="#0F0B38" stroke-width="1.4911" stroke-miterlimit="10" stroke-linecap="round" stroke-linejoin="round"/>
<path d="M367.038 200.181L360.089 214.295H367.038V200.181Z" fill="#EA7F36"/>
<path d="M355.855 218.428C356.072 225.942 362.216 231.97 369.783 231.97C377.349 231.97 383.494 225.942 383.711 218.428H355.855Z" fill="white"/>
<path d="M418.521 259.581H405.435V253.038H366.178V259.581H353.094C341.049 259.581 331.285 269.345 331.285 281.391V349H440.331V281.39C440.331 269.345 430.566 259.581 418.521 259.581Z" fill="#FF6A81"/>
<path d="M366.667 348.667H440.331V299H405.331L366.667 348.667Z" fill="#ED4867"/>
<path d="M347.333 260.355C338.084 262.882 331.284 271.34 331.284 281.39V349H347.333V260.355Z" fill="#ED4867"/>
<path d="M405.435 298.838V321.737H329.647C322.721 321.737 317.107 329.534 317.107 336.46C317.107 343.386 322.721 349 329.647 349H421.793C428.719 349 434.333 343.386 434.333 336.46V298.838H405.435Z" fill="#FFA865"/>
<path d="M434.333 298.838H405.435V305.381H434.333V298.838Z" fill="#EA7F36"/>
<path d="M347.373 321.737H329.647C322.721 321.737 317.107 329.534 317.107 336.46C317.107 343.386 322.721 349 329.647 349H347.373V321.737Z" fill="#EA7F36"/>
<path d="M388.677 340.565H339.114V259.366C339.114 256.454 336.753 254.093 333.841 254.093H212.421C209.509 254.093 207.148 256.454 207.148 259.366V343.728C207.148 346.64 209.509 349.001 212.421 349.001H252.643H333.842H388.678C391.008 349.001 392.896 347.112 392.896 344.783C392.895 342.453 391.006 340.565 388.677 340.565Z" fill="#4F0188"/>
<path d="M388.677 340.565H339.114V259.366C339.114 256.454 336.753 254.093 333.841 254.093H331.307V349.001H333.841H388.677C391.007 349.001 392.895 347.112 392.895 344.783C392.895 342.453 391.006 340.565 388.677 340.565Z" fill="#0F0B38"/>
<path d="M295.393 308.375C295.883 306.591 296.174 304.745 296.259 302.888L292.497 302.717C292.512 302.391 292.52 302.064 292.52 301.736C292.52 300.476 292.41 299.232 292.197 298.016L295.903 297.362C295.58 295.532 295.05 293.736 294.329 292.023L290.864 293.482C290.255 292.034 289.482 290.653 288.556 289.364L291.616 287.174C290.539 285.67 289.293 284.282 287.912 283.049L285.404 285.859C284.216 284.797 282.929 283.882 281.563 283.122L283.389 279.835C281.764 278.933 280.036 278.212 278.255 277.693L277.203 281.305C275.701 280.869 274.143 280.599 272.551 280.503L272.78 276.743C272.271 276.712 271.754 276.696 271.243 276.696C269.386 276.696 267.531 276.901 265.731 277.306L266.557 280.976C265.01 281.322 263.513 281.84 262.09 282.519L260.472 279.126C258.801 279.923 257.214 280.91 255.756 282.058L258.085 285.015C257.429 285.533 256.799 286.092 256.199 286.692C255.677 287.214 255.187 287.758 254.727 288.322L251.806 285.947C250.636 287.387 249.625 288.957 248.802 290.616L252.17 292.287C251.468 293.701 250.928 295.189 250.558 296.729L246.9 295.846C246.467 297.642 246.233 299.494 246.205 301.351L249.972 301.408C249.97 301.517 249.968 301.626 249.968 301.735C249.968 303.219 250.12 304.68 250.415 306.1L246.731 306.869C247.111 308.688 247.695 310.467 248.47 312.156L251.888 310.59C252.541 312.016 253.356 313.372 254.322 314.633L251.33 316.917C252.452 318.388 253.74 319.736 255.158 320.926L257.578 318.041C258.796 319.065 260.111 319.941 261.502 320.659L259.779 324.001C261.431 324.853 263.181 325.52 264.979 325.983L265.918 322.34C267.43 322.728 268.995 322.951 270.589 322.999L270.475 326.764C270.73 326.772 270.988 326.776 271.243 326.776C272.839 326.776 274.439 326.624 275.998 326.324L275.286 322.628C276.845 322.33 278.357 321.86 279.799 321.226L281.311 324.667C283.007 323.922 284.624 322.984 286.117 321.881L283.881 318.855C284.726 318.229 285.53 317.536 286.287 316.779C286.652 316.414 287.002 316.037 287.337 315.651L290.184 318.115C291.397 316.713 292.456 315.174 293.329 313.543L290.015 311.769C290.762 310.376 291.348 308.906 291.765 307.38L295.393 308.375ZM271.232 314.149C264.377 314.149 258.819 308.592 258.819 301.736C258.819 294.88 264.376 289.323 271.232 289.323C278.088 289.323 283.645 294.88 283.645 301.736C283.645 308.592 278.087 314.149 271.232 314.149Z" fill="#DF91FA"/>
</svg>
