<svg width="765" height="617" viewBox="0 0 765 617" fill="none" xmlns="http://www.w3.org/2000/svg">
<g clip-path="url(#clip0_2165_32)">
<path d="M394.057 339.828C453.503 329.309 502.602 320.604 503.166 320.484L504.191 320.267L448.068 253.396C417.2 216.617 391.945 186.383 391.945 186.208C391.945 185.878 449.897 26.0188 450.223 25.4501C450.332 25.2599 489.77 93.4648 545.823 190.783C598.301 281.895 641.567 357.016 641.969 357.72L642.7 359L464.336 358.977L285.973 358.954L394.057 339.828ZM1078.06 323.656C1050.91 321.912 1035.12 306.426 1030.94 277.438C1029.82 269.727 1029.82 269.527 1029.7 219.467L1029.59 171.017H1041.61H1053.63L1053.72 217.881C1053.81 260.117 1053.86 265.07 1054.26 268.041C1055.9 280.099 1059.16 288.208 1064.7 294.029C1069.14 298.687 1074.33 301.415 1081.53 302.862C1084.92 303.545 1094.57 303.546 1097.66 302.865C1104.95 301.258 1110.8 298.08 1115.95 292.918C1121.83 287.034 1126.18 278.687 1128.28 269.248L1128.99 266.067L1129.07 218.807L1129.14 171.546H1141.41H1153.68V245.841V320.135H1141.54H1129.4V308.347C1129.4 300.338 1129.31 296.589 1129.12 296.651C1128.97 296.701 1128.35 297.657 1127.74 298.775C1123.55 306.418 1116.58 313.408 1108.95 317.619C1099.79 322.667 1090.61 324.462 1078.06 323.656ZM1353.64 323.536C1344.06 322.814 1333.96 319.513 1325.72 314.403C1308.33 303.63 1298.05 285.875 1295.03 261.439C1293.99 252.984 1293.87 241.626 1294.74 234.441C1296.68 218.387 1302.98 202.627 1311.95 191.375C1314.24 188.491 1319.46 183.267 1322.34 180.964C1330.11 174.745 1339.21 170.397 1348.87 168.281C1354.49 167.048 1364.4 166.469 1370.38 167.024C1385.39 168.418 1399.15 175.5 1408.51 186.646C1418.01 197.971 1423.23 213.796 1423.9 233.281C1424.01 236.335 1424.03 241.689 1423.96 245.179L1423.82 251.525L1371.23 251.591L1318.64 251.658V254.009C1318.64 261.165 1320.38 269.316 1323.38 276.251C1325.97 282.232 1330.43 288.762 1334.08 291.923C1341.56 298.403 1350.72 302.281 1360.74 303.215C1364.46 303.561 1373.93 303.196 1378.16 302.544C1390.24 300.685 1401.73 295.938 1411.01 288.972C1412.1 288.152 1413.14 287.387 1413.33 287.27C1413.6 287.1 1413.66 289.241 1413.65 298.243L1413.65 309.426L1411.16 310.966C1400.67 317.467 1388.65 321.641 1375.92 323.204C1372.12 323.67 1358.18 323.878 1353.64 323.536ZM1399.41 229.211C1399.41 217.224 1394.37 203.907 1387.23 197.05C1382.14 192.156 1375.98 189.165 1368.66 188.03C1365.2 187.493 1357.9 187.699 1354.25 188.438C1346.53 190.001 1340.15 193.399 1334.58 198.91C1328.72 204.711 1324.33 211.755 1321.56 219.782C1320.57 222.668 1319.41 227.407 1319.05 230.043L1318.88 231.298H1359.14H1399.41V229.211ZM686.031 319.804C686.093 319.622 703.951 272.627 725.717 215.37L765.29 111.266L778.005 111.265L790.721 111.265L791.776 113.975C794.999 122.256 870.999 319.909 870.999 320.011C870.999 320.079 864.912 320.133 857.472 320.132L843.945 320.13L832.991 290.917L822.038 261.704L777.934 261.703L733.829 261.703L733.446 262.694C733.235 263.24 728.555 276.385 723.046 291.905L713.03 320.124L699.475 320.129C688.745 320.133 685.943 320.065 686.031 319.804ZM813.988 239.41C813.988 239.364 806.616 219.346 797.607 194.926C780.752 149.241 779.809 146.492 778.477 139.158C777.853 135.718 777.537 135.623 777.166 138.761C776.901 141.004 775.752 146.024 774.867 148.808C774.427 150.19 766.837 171.057 758 195.181C749.162 219.305 741.932 239.144 741.932 239.268C741.932 239.393 758.144 239.495 777.959 239.495C797.775 239.495 813.988 239.457 813.988 239.41ZM879.181 316.33V312.525L923.122 252.016L967.064 191.507L927.279 191.375L887.495 191.243L887.426 181.13L887.357 171.017H944.899H1002.44V174.433V177.848L958.496 238.687C934.325 272.149 914.549 299.582 914.549 299.651C914.549 299.72 934.088 299.776 957.968 299.776H1001.39V309.955V320.134H940.284H879.181V316.33ZM1201.63 319.958C1201.53 319.861 1201.45 286.31 1201.45 245.399V171.017H1213.46H1225.47V186.352C1225.47 194.786 1225.57 201.687 1225.7 201.687C1225.82 201.687 1226.41 200.306 1227 198.619C1229.7 190.886 1234.38 183.662 1240.41 177.919C1245.85 172.747 1252.06 169.653 1259.39 168.469C1261.45 168.137 1263.19 168.073 1267.31 168.181C1272.48 168.316 1275.18 168.694 1278.33 169.724L1279.32 170.048V182.535V195.022L1276.48 193.599C1271.47 191.086 1266.52 190.091 1260.58 190.401C1256.71 190.603 1254.17 191.1 1251.07 192.263C1244.71 194.656 1239.55 198.879 1235.94 204.644C1230.72 212.989 1226.99 223.716 1225.9 233.576C1225.7 235.345 1225.58 249.755 1225.54 278.162L1225.47 320.134H1213.64C1207.13 320.134 1201.73 320.055 1201.63 319.958ZM180 319.436C180 319.342 206.445 273.357 238.767 217.247L297.533 115.23L366.019 57.6587C403.686 25.9945 434.606 0.0486196 434.73 0.00130066C434.854 -0.0460089 434.358 1.20324 433.628 2.77742C432.899 4.3516 399.434 76.2522 359.263 162.556L286.224 319.473L233.112 319.54C203.9 319.577 180 319.53 180 319.436Z" fill="#0089D6"/>
</g>
<g clip-path="url(#clip1_2165_32)">
<path d="M-264.943 597.828C-205.497 587.309 -156.398 578.604 -155.834 578.484L-154.809 578.267L-210.932 511.396C-241.8 474.617 -267.055 444.383 -267.055 444.208C-267.055 443.878 -209.103 284.019 -208.777 283.45C-208.668 283.26 -169.23 351.465 -113.177 448.783C-60.6989 539.895 -17.4332 615.016 -17.031 615.72L-16.2998 617L-194.664 616.977L-373.027 616.954L-264.943 597.828ZM419.061 581.656C391.911 579.912 376.12 564.426 371.935 535.438C370.822 527.727 370.818 527.527 370.704 477.467L370.594 429.017H382.61H394.626L394.72 475.881C394.806 518.117 394.859 523.07 395.262 526.041C396.898 538.099 400.155 546.208 405.701 552.029C410.139 556.687 415.334 559.415 422.525 560.862C425.918 561.545 435.57 561.546 438.663 560.865C445.954 559.258 451.798 556.08 456.953 550.918C462.828 545.034 467.175 536.687 469.278 527.248L469.987 524.067L470.066 476.807L470.145 429.546H482.413H494.68V503.841V578.135H482.539H470.398V566.347C470.398 558.338 470.31 554.589 470.124 554.651C469.974 554.701 469.351 555.657 468.739 556.775C464.555 564.418 457.584 571.408 449.945 575.619C440.789 580.667 431.607 582.462 419.061 581.656ZM694.641 581.536C685.056 580.814 674.965 577.513 666.717 572.403C649.332 561.63 639.046 543.875 636.034 519.439C634.991 510.984 634.866 499.626 635.736 492.441C637.679 476.387 643.977 460.627 652.945 449.375C655.244 446.491 660.46 441.267 663.339 438.964C671.114 432.745 680.209 428.397 689.865 426.281C695.491 425.048 705.399 424.469 711.376 425.024C726.392 426.418 740.154 433.5 749.508 444.646C759.011 455.971 764.235 471.796 764.902 491.281C765.006 494.335 765.032 499.689 764.958 503.179L764.824 509.525L712.234 509.591L659.644 509.658V512.009C659.644 519.165 661.381 527.316 664.383 534.251C666.973 540.232 671.43 546.762 675.08 549.923C682.563 556.403 691.721 560.281 701.742 561.215C705.458 561.561 714.928 561.196 719.162 560.544C731.244 558.685 742.73 553.938 752.005 546.972C753.097 546.152 754.141 545.387 754.326 545.27C754.597 545.1 754.661 547.241 754.654 556.243L754.646 567.426L752.16 568.966C741.667 575.467 729.647 579.641 716.919 581.204C713.121 581.67 699.183 581.878 694.641 581.536ZM740.41 487.211C740.41 475.224 735.367 461.907 728.23 455.05C723.137 450.156 716.98 447.165 709.661 446.03C706.198 445.493 698.9 445.699 695.249 446.438C687.531 448.001 681.147 451.399 675.58 456.91C669.72 462.711 665.326 469.755 662.563 477.782C661.57 480.668 660.408 485.407 660.047 488.043L659.875 489.298H700.143H740.41V487.211ZM27.0314 577.804C27.093 577.622 44.9515 530.627 66.7169 473.37L106.29 369.266L119.005 369.265L131.721 369.265L132.776 371.975C135.999 380.256 211.999 577.909 211.999 578.011C211.999 578.079 205.912 578.133 198.472 578.132L184.945 578.13L173.991 548.917L163.038 519.704L118.934 519.703L74.8294 519.703L74.4462 520.694C74.2354 521.24 69.5555 534.385 64.0464 549.905L54.0299 578.124L40.4747 578.129C29.7451 578.133 26.9427 578.065 27.0314 577.804ZM154.988 497.41C154.988 497.364 147.616 477.346 138.607 452.926C121.752 407.241 120.809 404.492 119.477 397.158C118.853 393.718 118.537 393.623 118.166 396.761C117.901 399.004 116.752 404.024 115.867 406.808C115.427 408.19 107.837 429.057 98.9996 453.181C90.1621 477.305 82.9315 497.144 82.9315 497.268C82.9315 497.393 99.1441 497.495 118.959 497.495C138.775 497.495 154.988 497.457 154.988 497.41ZM220.181 574.33V570.525L264.122 510.016L308.064 449.507L268.279 449.375L228.495 449.243L228.426 439.13L228.357 429.017H285.899H343.442V432.433V435.848L299.496 496.687C275.325 530.149 255.549 557.582 255.549 557.651C255.549 557.72 275.088 557.776 298.968 557.776H342.386V567.955V578.134H281.284H220.181V574.33ZM542.63 577.958C542.533 577.861 542.454 544.31 542.454 503.399V429.017H554.463H566.472V444.352C566.472 452.786 566.575 459.687 566.7 459.687C566.825 459.687 567.41 458.306 567.999 456.619C570.699 448.886 575.381 441.662 581.414 435.919C586.849 430.747 593.06 427.653 600.389 426.469C602.448 426.137 604.19 426.073 608.307 426.181C613.478 426.316 616.182 426.694 619.327 427.724L620.316 428.048V440.535V453.022L617.479 451.599C612.467 449.086 607.522 448.091 601.577 448.401C597.708 448.603 595.168 449.1 592.075 450.263C585.71 452.656 580.548 456.879 576.941 462.644C571.719 470.989 567.994 481.716 566.896 491.576C566.698 493.345 566.582 507.755 566.536 536.162L566.468 578.134H554.637C548.13 578.134 542.726 578.055 542.63 577.958ZM-479 577.436C-479 577.342 -452.555 531.357 -420.233 475.247L-361.467 373.23L-292.981 315.659C-255.314 283.994 -224.394 258.049 -224.27 258.001C-224.146 257.954 -224.642 259.203 -225.372 260.777C-226.101 262.352 -259.566 334.252 -299.737 420.556L-372.776 577.473L-425.888 577.54C-455.1 577.577 -479 577.53 -479 577.436Z" fill="#0089D6"/>
</g>
<defs>
<clipPath id="clip0_2165_32">
<rect width="479" height="359" fill="white" transform="translate(180)"/>
</clipPath>
<clipPath id="clip1_2165_32">
<rect width="765" height="359" fill="white" transform="translate(0 258)"/>
</clipPath>
</defs>
</svg>
