<svg width="987" height="538" viewBox="0 0 987 538" fill="none" xmlns="http://www.w3.org/2000/svg">
<path d="M570.845 0L662 36.9178V333.072L569.995 370L423.637 224.014L330.802 296.175L294 277.716V92.2842L330.802 74.6681L423.637 147.661L570.845 0ZM330.802 130.045V242.473L386.005 185.421L330.802 130.045ZM474.66 185.421L570.005 260.942V109.9L474.66 185.421Z" fill="#68217A"/>
<path d="M113.303 403.515L64.6244 534.957H47.6674L0 403.515H17.1448L53.5357 507.731C54.6924 511.098 55.5826 514.974 56.1943 519.376H56.5637C57.0543 515.712 58.0596 511.764 59.5918 507.556L96.7155 403.515H113.303Z" fill="#68217A"/>
<path d="M132.24 417.261C129.551 417.261 127.256 416.347 125.367 414.512C123.471 412.677 122.526 410.352 122.526 407.548C122.526 404.744 123.471 402.401 125.367 400.535C127.262 398.67 129.551 397.738 132.24 397.738C134.99 397.738 137.327 398.67 139.253 400.535C141.173 402.407 142.142 404.738 142.142 407.548C142.142 410.236 141.179 412.525 139.253 414.427C137.327 416.316 134.99 417.261 132.24 417.261ZM139.574 534.957H124.543V441.096H139.574V534.957Z" fill="#68217A"/>
<path d="M158.693 531.56V515.428C166.881 521.483 175.893 524.505 185.734 524.505C198.936 524.505 205.537 520.103 205.537 511.304C205.537 508.797 204.974 506.671 203.841 504.933C202.709 503.189 201.183 501.645 199.257 500.301C197.331 498.957 195.072 497.752 192.474 496.68C189.876 495.608 187.078 494.494 184.086 493.331C179.926 491.684 176.28 490.019 173.131 488.335C169.982 486.658 167.36 484.762 165.246 482.655C163.139 480.548 161.552 478.15 160.48 475.461C159.414 472.778 158.875 469.63 158.875 466.02C158.875 461.618 159.886 457.724 161.903 454.333C163.92 450.936 166.609 448.102 169.97 445.807C173.331 443.518 177.164 441.792 181.476 440.63C185.782 439.473 190.227 438.892 194.812 438.892C202.939 438.892 210.212 440.296 216.632 443.106V458.324C209.722 453.8 201.782 451.542 192.795 451.542C189.985 451.542 187.448 451.863 185.189 452.504C182.924 453.14 180.986 454.049 179.369 455.205C177.752 456.362 176.498 457.761 175.614 459.371C174.73 460.994 174.282 462.781 174.282 464.737C174.282 467.177 174.724 469.224 175.614 470.883C176.498 472.524 177.794 473.996 179.508 475.285C181.216 476.563 183.293 477.726 185.74 478.761C188.18 479.803 190.966 480.929 194.079 482.159C198.233 483.751 201.964 485.38 205.265 487.064C208.565 488.747 211.375 490.642 213.701 492.744C216.02 494.857 217.813 497.285 219.066 500.028C220.32 502.784 220.944 506.048 220.944 509.838C220.944 514.483 219.92 518.516 217.873 521.937C215.826 525.359 213.089 528.199 209.673 530.458C206.252 532.722 202.309 534.4 197.846 535.502C193.383 536.604 188.707 537.149 183.82 537.149C174.155 537.155 165.779 535.296 158.693 531.56Z" fill="#68217A"/>
<path d="M314.304 534.957H299.273V520.108H298.904C292.672 531.475 283.012 537.155 269.937 537.155C247.572 537.155 236.387 523.833 236.387 497.188V441.09H251.327V494.802C251.327 514.604 258.903 524.499 274.062 524.499C281.395 524.499 287.433 521.798 292.169 516.384C296.905 510.977 299.273 503.904 299.273 495.166V441.083H314.304V534.957Z" fill="#68217A"/>
<path d="M406.212 534.957H391.18V520.29H390.811C384.27 531.529 374.647 537.155 361.936 537.155C352.585 537.155 345.269 534.684 339.982 529.725C334.695 524.784 332.049 518.213 332.049 510.02C332.049 492.483 342.374 482.28 363.032 479.403L391.174 475.461C391.174 459.517 384.725 451.542 371.831 451.542C360.524 451.542 350.32 455.393 341.218 463.09V447.69C350.441 441.822 361.076 438.892 373.121 438.892C395.183 438.892 406.212 450.567 406.212 473.905V534.957ZM391.174 487.475L368.531 490.594C361.566 491.569 356.309 493.295 352.767 495.771C349.224 498.242 347.449 502.632 347.449 508.924C347.449 513.508 349.085 517.25 352.355 520.151C355.625 523.052 359.979 524.505 365.418 524.505C372.873 524.505 379.038 521.889 383.883 516.669C388.746 511.443 391.174 504.831 391.174 496.825V487.475Z" fill="#68217A"/>
<path d="M443.934 534.957H428.903V396H443.934V534.957Z" fill="#68217A"/>
<path d="M490.905 529.64V511.492C492.976 513.326 495.472 514.974 498.372 516.439C501.273 517.905 504.325 519.14 507.541 520.151C510.745 521.156 513.973 521.938 517.213 522.489C520.453 523.04 523.445 523.318 526.194 523.318C535.66 523.318 542.739 521.562 547.414 518.044C552.09 514.532 554.427 509.475 554.427 502.875C554.427 499.332 553.646 496.244 552.09 493.622C550.527 490.988 548.377 488.596 545.628 486.428C542.878 484.26 539.626 482.183 535.866 480.197C532.111 478.21 528.059 476.115 523.717 473.917C519.139 471.592 514.857 469.242 510.884 466.862C506.911 464.47 503.46 461.848 500.528 458.972C497.597 456.102 495.29 452.85 493.606 449.216C491.923 445.577 491.081 441.314 491.081 436.433C491.081 430.444 492.395 425.23 495.023 420.804C497.652 416.377 501.104 412.72 505.379 409.843C509.661 406.973 514.536 404.835 520.005 403.43C525.473 402.025 531.045 401.317 536.738 401.317C549.692 401.317 559.127 402.873 565.062 405.992V423.311C557.298 417.933 547.336 415.245 535.175 415.245C531.814 415.245 528.453 415.602 525.092 416.298C521.725 417.001 518.733 418.151 516.111 419.732C513.482 421.324 511.345 423.371 509.691 425.878C508.038 428.385 507.214 431.437 507.214 435.046C507.214 438.407 507.844 441.308 509.098 443.754C510.351 446.195 512.198 448.423 514.645 450.44C517.086 452.456 520.071 454.412 523.584 456.307C527.102 458.203 531.148 460.28 535.732 462.539C540.432 464.864 544.901 467.304 549.116 469.872C553.331 472.439 557.032 475.286 560.211 478.392C563.378 481.517 565.904 484.962 567.769 488.753C569.64 492.544 570.567 496.88 570.567 501.766C570.567 508.24 569.295 513.732 566.764 518.219C564.226 522.713 560.804 526.364 556.499 529.18C552.187 531.99 547.227 534.024 541.601 535.272C535.975 536.525 530.052 537.155 523.814 537.155C521.731 537.155 519.163 536.986 516.117 536.653C513.058 536.313 509.94 535.823 506.766 535.187C503.593 534.545 500.583 533.752 497.737 532.801C494.89 531.857 492.607 530.797 490.905 529.64Z" fill="#68217A"/>
<path d="M629.438 534.042C625.896 535.998 621.22 536.973 615.419 536.973C598.976 536.973 590.764 527.805 590.764 509.475V453.927H574.631V441.095H590.764V418.181L605.795 413.325V441.095H629.438V453.927H605.795V506.816C605.795 513.108 606.861 517.595 608.999 520.29C611.137 522.985 614.68 524.323 619.634 524.323C623.419 524.323 626.695 523.281 629.438 521.204V534.042Z" fill="#68217A"/>
<path d="M722.599 534.957H707.568V520.108H707.198C700.967 531.475 691.313 537.155 678.232 537.155C655.867 537.155 644.688 523.833 644.688 497.188V441.09H659.628V494.802C659.628 514.604 667.204 524.499 682.362 524.499C689.696 524.499 695.728 521.798 700.47 516.384C705.2 510.977 707.568 503.904 707.568 495.166V441.083H722.599V534.957Z" fill="#68217A"/>
<path d="M830.245 534.957H815.214V519.007H814.845C807.88 531.105 797.118 537.155 782.578 537.155C770.787 537.155 761.357 532.959 754.296 524.553C747.241 516.148 743.71 504.709 743.71 490.224C743.71 474.704 747.622 462.266 755.447 452.922C763.265 443.566 773.687 438.898 786.708 438.898C799.601 438.898 808.982 443.972 814.845 454.115H815.214V396H830.245V534.957ZM815.214 492.52V478.677C815.214 471.101 812.707 464.682 807.698 459.426C802.69 454.17 796.331 451.542 788.634 451.542C779.465 451.542 772.258 454.902 767.002 461.624C761.745 468.346 759.117 477.635 759.117 489.492C759.117 500.307 761.636 508.845 766.681 515.107C771.719 521.374 778.49 524.505 786.987 524.505C795.362 524.505 802.157 521.483 807.383 515.428C812.598 509.384 815.214 501.748 815.214 492.52Z" fill="#68217A"/>
<path d="M865.565 417.261C862.876 417.261 860.587 416.347 858.691 414.512C856.796 412.677 855.845 410.352 855.845 407.548C855.845 404.744 856.789 402.401 858.691 400.535C860.587 398.67 862.87 397.738 865.565 397.738C868.314 397.738 870.652 398.67 872.578 400.535C874.497 402.407 875.466 404.738 875.466 407.548C875.466 410.236 874.503 412.525 872.578 414.427C870.652 416.316 868.314 417.261 865.565 417.261ZM872.899 534.957H857.867V441.096H872.899V534.957Z" fill="#68217A"/>
<path d="M939.751 537.155C925.877 537.155 914.8 532.771 906.516 524.002C898.237 515.234 894.095 503.607 894.095 489.122C894.095 473.354 898.407 461.043 907.024 452.184C915.642 443.318 927.288 438.892 941.956 438.892C955.951 438.892 966.871 443.197 974.719 451.82C982.574 460.431 986.498 472.385 986.498 487.657C986.498 502.632 982.271 514.622 973.805 523.633C965.338 532.65 953.989 537.155 939.751 537.155ZM940.854 451.548C931.188 451.548 923.557 454.836 917.931 461.4C912.311 467.97 909.495 477.029 909.495 488.577C909.495 499.701 912.342 508.464 918.022 514.889C923.703 521.302 931.315 524.511 940.854 524.511C950.568 524.511 958.041 521.362 963.267 515.064C968.481 508.773 971.098 499.817 971.098 488.208C971.098 476.472 968.481 467.431 963.267 461.079C958.041 454.721 950.562 451.548 940.854 451.548Z" fill="#68217A"/>
</svg>
