<svg width="528" height="594" viewBox="0 0 528 594" fill="none" xmlns="http://www.w3.org/2000/svg">
<path d="M527.111 174.183C527.107 164.221 524.976 155.418 520.668 147.863C516.436 140.434 510.097 134.208 501.596 129.284C431.419 88.8203 361.175 48.4798 291.021 7.9744C272.108 -2.94447 253.77 -2.54641 234.997 8.52921C207.065 25.0024 67.2169 105.124 25.5441 129.262C8.382 139.197 0.0309375 154.402 0.0268125 174.164C0 255.54 0.0268125 336.914 0 418.292C0 428.035 2.04394 436.667 6.16275 444.109C10.3971 451.762 16.8238 458.16 25.5214 463.195C67.1962 487.332 207.063 567.448 234.989 583.925C253.77 595.007 272.108 595.403 291.027 584.48C361.183 543.973 431.432 503.634 501.619 463.17C510.316 458.138 516.743 451.736 520.977 444.088C525.09 436.646 527.138 428.015 527.138 418.27C527.138 418.27 527.138 255.561 527.111 174.183Z" fill="#A179DC"/>
<path d="M264.376 295.436L6.16309 444.109C10.3974 451.763 16.8241 458.161 25.5217 463.195C67.1966 487.333 207.063 567.448 234.989 583.926C253.77 595.008 272.108 595.403 291.027 584.48C361.183 543.973 431.432 503.635 501.619 463.17C510.316 458.138 516.743 451.736 520.978 444.088L264.376 295.436Z" fill="#280068"/>
<path d="M527.111 174.183C527.107 164.221 524.976 155.418 520.667 147.863L264.375 295.435L520.977 444.088C525.089 436.646 527.133 428.015 527.137 418.269C527.137 418.269 527.137 255.561 527.111 174.183Z" fill="#390091"/>
<path d="M416.403 239.856V267.646H444.192V239.856H458.087V267.646H485.877V281.541H458.087V309.33H485.877V323.225H458.087V351.014H444.192V323.225H416.403V351.014H402.508V323.225H374.719V309.33H402.508V281.541H374.719V267.646H402.508V239.856H416.403ZM444.192 281.541H416.403V309.33H444.192V281.541Z" fill="white"/>
<path d="M264.942 100.291C337.426 100.291 400.71 139.656 434.607 198.169L434.276 197.606L348.994 246.711C332.192 218.261 301.389 199.062 266.055 198.667L264.942 198.661C211.058 198.661 167.373 242.343 167.373 296.227C167.373 313.849 172.071 330.366 180.241 344.633C197.059 373.993 228.674 393.796 264.942 393.796C301.433 393.796 333.229 373.742 349.961 344.068L349.554 344.78L434.708 394.111C401.183 452.128 338.766 491.372 267.124 492.154L264.942 492.166C192.229 492.166 128.765 452.558 94.9534 393.736C78.4472 365.02 69.0029 331.728 69.0029 296.227C69.0029 188.016 156.726 100.291 264.942 100.291Z" fill="white"/>
</svg>
