<svg width="445" height="387" viewBox="0 0 445 387" fill="none" xmlns="http://www.w3.org/2000/svg">
<path d="M405.825 221.128C401.401 316.705 316.371 343.915 210.466 345.962C48.9659 349.084 30.1699 297.775 30.1699 202.092C30.1699 106.409 65.3769 7.62108 158.729 14.9051C203.082 18.3661 253.422 91.8751 291.113 116.268C343.172 149.961 409.149 149.331 405.825 221.128Z" fill="#F8D0FF"/>
<path opacity="0.42" d="M27.684 261.163C27.684 261.163 61.322 246.487 76.789 198.629C92.256 150.772 120.294 110.472 173.418 107.765C226.542 105.058 284.003 108.385 302.986 79.864C321.97 51.343 281.399 50.691 280.827 100.731C280.256 150.771 367.684 242.538 372.256 313.798C376.827 385.057 317.799 370.913 244.456 342.271C171.113 313.629 94.554 370.316 46.834 349.115C-0.886971 327.915 1.18403 282.566 27.684 261.163Z" stroke="#4F0188" stroke-miterlimit="10"/>
<path opacity="0.42" d="M34.8252 205.701C45.4787 205.701 54.1152 197.065 54.1152 186.411C54.1152 175.758 45.4787 167.121 34.8252 167.121C24.1716 167.121 15.5352 175.758 15.5352 186.411C15.5352 197.065 24.1716 205.701 34.8252 205.701Z" fill="#4F0188"/>
<path opacity="0.42" d="M52.2349 203.821C61.8511 194.205 61.8511 178.614 52.2349 168.998C42.6187 159.381 27.0278 159.381 17.4116 168.998C7.79545 178.614 7.79545 194.205 17.4116 203.821C27.0278 213.437 42.6187 213.437 52.2349 203.821Z" stroke="#4F0188" stroke-miterlimit="10"/>
<path opacity="0.42" d="M401.205 221.128C413.631 221.128 423.704 211.055 423.704 198.629C423.704 186.203 413.631 176.13 401.205 176.13C388.779 176.13 378.706 186.203 378.706 198.629C378.706 211.055 388.779 221.128 401.205 221.128Z" fill="#4F0188"/>
<path opacity="0.42" d="M244.064 137.944L237.99 147.587H250.921L244.064 137.944Z" stroke="#4F0188" stroke-miterlimit="10"/>
<path opacity="0.42" d="M158.408 48.1519L150.295 61.0339H167.568L158.408 48.1519Z" fill="#4F0188"/>
<path opacity="0.42" d="M219.218 74.1759C232.176 74.1759 242.68 63.6717 242.68 50.714C242.68 37.7562 232.176 27.252 219.218 27.252C206.26 27.252 195.756 37.7562 195.756 50.714C195.756 63.6717 206.26 74.1759 219.218 74.1759Z" fill="#4F0188"/>
<path d="M218.756 47.8088L217.437 45.2848C216.59 43.6638 217.217 41.6628 218.838 40.8148C219.943 40.2378 220.37 38.8738 219.793 37.7688L217.819 33.9918C217.242 32.8868 215.878 32.4588 214.773 33.0368L213.054 33.9348C211.435 34.7808 210.115 36.1058 209.276 37.7288L208.774 38.6998C207.908 40.3728 207.912 42.3638 208.785 44.0328L212.474 51.0908L214.936 55.8028L218.625 62.8608C219.498 64.5308 221.13 65.6708 222.998 65.9148L224.082 66.0568C225.894 66.2938 227.734 65.9668 229.354 65.1208L231.073 64.2228C232.178 63.6458 232.605 62.2818 232.028 61.1768L230.054 57.3998C229.477 56.2948 228.113 55.8668 227.008 56.4448C225.387 57.2918 223.386 56.6648 222.539 55.0438L221.22 52.5198L218.756 47.8088Z" fill="white"/>
<path opacity="0.42" d="M390.827 315.343C390.827 318.025 388.652 320.2 385.97 320.2C383.288 320.2 381.113 318.025 381.113 315.343C381.113 312.66 383.288 310.486 385.97 310.486C388.652 310.486 390.827 312.661 390.827 315.343Z" stroke="#4F0188" stroke-miterlimit="10"/>
<path opacity="0.42" d="M100.449 58.435C105.407 58.435 109.427 54.4154 109.427 49.457C109.427 44.4986 105.407 40.479 100.449 40.479C95.4903 40.479 91.4707 44.4986 91.4707 49.457C91.4707 54.4154 95.4903 58.435 100.449 58.435Z" fill="white"/>
<path opacity="0.42" d="M345.581 183.207C350.539 183.207 354.559 179.187 354.559 174.229C354.559 169.271 350.539 165.251 345.581 165.251C340.622 165.251 336.603 169.271 336.603 174.229C336.603 179.187 340.622 183.207 345.581 183.207Z" stroke="#4F0188" stroke-miterlimit="10"/>
<path opacity="0.42" d="M62.8741 234.365C67.7071 234.365 71.6251 230.447 71.6251 225.614C71.6251 220.781 67.7071 216.863 62.8741 216.863C58.041 216.863 54.123 220.781 54.123 225.614C54.123 230.447 58.041 234.365 62.8741 234.365Z" fill="#4F0188"/>
<path opacity="0.42" d="M401.206 214.149C409.777 214.149 416.726 207.2 416.726 198.629C416.726 190.057 409.777 183.109 401.206 183.109C392.634 183.109 385.686 190.057 385.686 198.629C385.686 207.2 392.634 214.149 401.206 214.149Z" stroke="white" stroke-miterlimit="10"/>
<path opacity="0.42" d="M388.014 51.6162H280.454C275.859 51.6162 272.133 55.3412 272.133 59.9372V124.908C272.133 129.503 275.858 133.229 280.454 133.229H349.049V149.608C349.049 152.349 352.253 153.84 354.35 152.075L376.743 133.229H388.014C392.609 133.229 396.335 129.504 396.335 124.908V59.9372C396.335 55.3412 392.61 51.6162 388.014 51.6162Z" fill="#4F0188"/>
<path d="M415.256 59.7191C415.256 69.4291 412.466 78.4791 407.656 86.0791C406.896 87.2991 406.076 88.4891 405.206 89.6291C396.416 101.169 382.666 108.599 367.216 108.599C359.286 108.599 351.806 106.649 345.216 103.179C329.746 95.0591 319.176 78.6391 319.176 59.7191C319.176 57.5091 319.316 55.3291 319.606 53.1891C322.736 29.2791 342.866 10.8291 367.216 10.8291C393.745 10.8291 415.256 32.7191 415.256 59.7191Z" fill="#790EC6"/>
<path d="M405.206 89.6253C396.416 101.165 382.666 108.595 367.216 108.595C359.286 108.595 351.806 106.645 345.216 103.175C346.116 100.925 348.876 94.9553 353.766 91.6153C359.866 87.4353 378.406 84.9253 391.266 86.0253C398.856 86.6653 403.046 88.3553 405.206 89.6253Z" fill="#C6606C"/>
<path d="M345.58 34.9212L346.083 58.7922C346.083 58.7922 346.841 83.1792 366.688 82.7472C386.535 82.3152 390.728 52.1882 390.728 52.1882L387.606 33.9102C387.606 33.9102 364.407 18.4282 345.58 34.9212Z" fill="white"/>
<path d="M366.822 77.0103C366.822 77.0103 368.296 86.2403 366.072 89.2593C363.847 92.2773 370.489 102.764 370.489 102.764L385.857 88.6663C385.857 88.6663 384.836 78.3313 385.114 69.2803L366.822 77.0103Z" fill="white"/>
<path d="M345.694 40.4049C345.694 40.4049 351.405 42.2229 357.512 41.6879C363.619 41.1519 365.762 38.6879 365.762 38.6879C365.762 38.6879 367.798 39.5449 371.119 39.5449C374.44 39.5449 376.905 37.9379 376.905 37.9379C376.905 37.9379 374.655 41.7949 375.619 46.7239C376.583 51.6529 379.798 52.9379 379.798 52.9379C379.798 52.9379 381.834 48.0089 385.369 48.0089C388.904 48.0089 390.191 51.7589 389.28 56.6879C388.369 61.6159 382.69 62.7949 382.69 62.7949L385.111 69.2799C385.111 69.2799 394.261 59.4739 395.333 48.6519C396.404 37.8309 390.94 34.6159 390.94 34.6159C390.94 34.6159 391.396 26.5799 380.668 23.7949C369.94 21.0099 362.868 21.2239 354.833 25.8309C354.833 25.8309 348.083 20.6879 342.404 23.7949C336.725 26.9019 338.333 33.5449 341.118 35.2589C341.118 35.2589 335.654 36.6519 336.832 43.4019C338.01 50.1519 345.887 49.6239 345.887 49.6239L345.694 40.4049Z" fill="#410071"/>
<path d="M366.688 82.7473C366.688 82.7473 381.113 78.9303 382.542 69.2803C382.542 69.2803 386.119 83.2723 366.688 88.0223C366.688 88.0223 367.262 83.8653 366.688 82.7473Z" fill="#D9D9D9"/>
<path opacity="0.42" d="M440.964 30.0298C442.965 17.7858 434.662 6.2378 422.418 4.23663C410.174 2.23546 398.626 10.5389 396.624 22.7829C394.623 35.0269 402.927 46.5749 415.171 48.5761C427.415 50.5773 438.963 42.2738 440.964 30.0298Z" fill="#4F0188"/>
<path d="M416.263 32.4531L416.182 31.4081C415.941 29.2381 416.665 26.8661 418.674 24.4551C420.483 22.3251 421.488 20.7571 421.488 18.9491C421.488 16.8991 420.202 15.5331 417.671 15.4931C416.224 15.4931 414.616 15.9751 413.611 16.7391L412.646 14.2071C413.972 13.2431 416.263 12.6001 418.393 12.6001C423.015 12.6001 425.105 15.4541 425.105 18.5081C425.105 21.2411 423.577 23.2101 421.648 25.5011C419.879 27.5911 419.238 29.3591 419.358 31.4091L419.398 32.4541L416.263 32.4531ZM415.38 38.0801C415.38 36.5931 416.383 35.5481 417.79 35.5481C419.196 35.5481 420.161 36.5931 420.161 38.0801C420.161 39.4871 419.238 40.5721 417.751 40.5721C416.344 40.5721 415.38 39.4871 415.38 38.0801Z" fill="white"/>
<path d="M380.602 290.499C380.53 290.727 380.441 290.918 380.334 291.073C378.437 293.823 376.433 296.49 374.321 299.076H374.312C305.677 383.422 129.163 383.422 129.163 383.422V282.751H380.334C380.334 282.751 381.3 288.232 380.602 290.499Z" fill="#8C2BD2"/>
<path d="M380.602 290.499C380.53 290.727 380.441 290.918 380.334 291.073C378.437 293.823 376.433 296.49 374.321 299.076H374.312L129.163 326.973V290.5H380.602V290.499Z" fill="#761DB7"/>
<path d="M244.456 211.539L232.306 224.419C232.306 224.419 229.816 221.859 226.836 217.939C225.416 216.059 223.886 213.869 222.476 211.499C220.626 208.399 218.966 204.999 218.016 201.589C214.816 190.139 216.126 165.989 216.126 165.989C216.126 165.989 221.306 166.549 223.076 168.519C233.046 179.619 244.456 211.539 244.456 211.539Z" fill="#FF6A76"/>
<path d="M198.783 253.616H111.779L103.834 186.715C102.921 179.058 108.263 172.084 115.779 171.11L121.013 170.427L187.492 161.787L198.783 253.616Z" fill="#4F0188"/>
<path d="M177.538 163.999C177.538 163.999 149.226 173.104 147.692 175.445C146.158 177.786 159.451 219.278 159.451 219.278L156.895 253.616H214.542L217.447 220.848C217.447 220.848 223.617 214.076 224 202.89C224.383 191.704 216.121 165.99 216.121 165.99L196.007 163.349L177.538 163.999Z" fill="#FF6A76"/>
<path d="M185.642 99.5481C185.642 99.5481 165.907 91.0631 151.899 110.862C137.89 130.661 152.398 161.787 152.398 161.787C152.398 161.787 188.144 157.12 198.039 156.166C207.934 155.212 209.935 155.212 209.935 155.212C209.935 155.212 215.033 123.943 204.154 112.447C193.274 100.949 185.642 99.5481 185.642 99.5481Z" fill="#410071"/>
<path d="M192.984 176.769L176.324 165.349C176.324 165.349 177.694 160.979 177.354 156.609C177.274 155.639 177.114 154.669 176.834 153.749C176.694 153.289 176.524 152.839 176.324 152.399L192.984 151.569C192.984 151.569 193.094 152.919 193.404 154.659C193.654 156.019 194.024 157.619 194.584 159.009C194.984 160.039 195.484 160.949 196.104 161.579C198.655 164.169 192.984 176.769 192.984 176.769Z" fill="white"/>
<path d="M194.586 159.009C192.446 159.079 183.256 159.219 177.356 156.609C177.276 155.639 177.116 154.669 176.836 153.749C176.836 153.749 188.066 155.119 193.406 154.659C193.656 156.019 194.026 157.619 194.586 159.009Z" fill="#D9D9D9"/>
<path d="M202.358 107.063L205.135 130.023C205.135 130.023 208.776 153.682 189.684 155.978C170.592 158.274 164.174 136.205 164.174 136.205L161.918 111.832C161.918 111.832 182.051 93.8171 202.358 107.063Z" fill="white"/>
<path d="M193.654 108.843C193.654 108.843 191.157 114.986 182.942 119.343C175.66 123.206 168.827 124.272 168.827 124.272C168.827 124.272 167.731 130.738 164.043 134.796C164.043 134.796 157.665 122.694 160.268 112.273C162.872 101.853 176.323 96.819 188.125 97.879C199.927 98.939 204.18 103.266 205.742 110.154C207.304 117.042 204.689 126.338 204.689 126.338C204.689 126.338 202.184 110.986 193.654 108.843Z" fill="#410071"/>
<path d="M161.917 129.734C161.917 129.734 159.644 112.273 173.112 103.001C181.882 96.9631 192.919 98.5701 192.919 98.5701C192.919 98.5701 185.956 93.3291 172.244 99.3801C158.532 105.431 157.838 119.113 159.227 129.734H161.917Z" fill="#68A8DE"/>
<path d="M131.624 253.616H111.779L103.834 186.715C102.921 179.058 108.263 172.084 115.779 171.11L121.013 170.427L131.624 253.616Z" fill="#B74AEA"/>
<path d="M180.539 151.771C171.431 151.771 164.67 145.43 164.368 145.142L165.591 143.813C165.664 143.883 173.054 150.783 182.292 149.864L182.467 151.676C181.813 151.741 181.17 151.771 180.539 151.771Z" fill="#375C93"/>
<path d="M406.237 291.074H133.265C125.964 291.074 119.009 288.06 114.15 282.79L99.1576 266.532C93.3416 260.224 97.9716 250.233 106.711 250.233H373.195C382.405 250.233 391.255 253.691 397.88 259.878L413.267 274.249C419.813 280.363 415.337 291.074 406.237 291.074Z" fill="#882EC9"/>
<path d="M281.753 169.835C281.261 170.102 280.49 170.553 279.65 171.054L279.488 170.794C281.984 169.203 285.682 166.718 285.432 166.111C285.057 165.2 283.182 165.676 281.789 166.432C280.985 166.869 279.525 167.737 278.118 168.588L278.016 168.424C280.492 166.859 284.624 164.127 284.361 163.486C283.986 162.575 282.111 163.051 280.718 163.807C279.836 164.286 278.166 165.284 276.641 166.208L276.522 166.017C278.98 164.432 282.183 162.231 281.95 161.664C281.575 160.753 279.7 161.229 278.307 161.985C276.429 163.005 270.975 166.378 270.975 166.378L267.003 167.824C267.86 166.431 270.271 161.288 269.146 161.288C268.021 161.288 264.914 164.877 263.628 168.574C262.665 171.342 262.544 173.81 262.543 174.875L227.736 219.105C227.736 219.105 228.561 220.4 229.806 222.122C233.417 227.117 241.826 228.215 246.681 224.418C250.516 221.419 253.544 217.458 256.508 213.412C262.094 205.788 270.424 185.564 272.382 180.722L280.26 173.338C282.419 171.943 285.171 170.043 284.968 169.55C284.639 168.747 282.983 169.167 281.753 169.835Z" fill="white"/>
<path d="M190.187 260.986C190.187 260.986 194.259 263.986 195.866 268.057C197.473 272.128 187.187 274.75 170.017 268.92C157.524 264.679 178.616 251.665 190.187 260.986Z" fill="#410071"/>
<path d="M183.721 152.867H181.42C180.599 152.867 179.934 152.19 179.934 151.355V149.941C179.934 149.106 180.599 148.429 181.42 148.429H183.721C184.542 148.429 185.207 149.106 185.207 149.941V150.648V151.355C185.207 152.19 184.542 152.867 183.721 152.867Z" fill="#410071"/>
<path d="M171.754 134.912C173.027 141.275 169.715 147.332 164.357 148.442C158.999 149.551 153.624 145.293 152.352 138.93C151.08 132.567 154.391 126.51 159.749 125.4C165.106 124.291 170.482 128.549 171.754 134.912Z" fill="#4F0188"/>
<path d="M166.355 136.03C167.106 139.783 165.152 143.357 161.992 144.011C158.832 144.666 155.661 142.154 154.91 138.4C154.159 134.647 156.113 131.073 159.273 130.419C162.433 129.765 165.604 132.277 166.355 136.03Z" fill="#68A8DE"/>
<path d="M152.355 172.94C152.355 172.94 147.492 173.669 145.519 176.81C137.063 190.272 120.594 231.438 120.594 231.438L136.474 238.462C136.474 238.462 157.353 214.269 159.27 202.759C161.189 191.248 152.355 172.94 152.355 172.94Z" fill="#FF6A76"/>
<path d="M134.973 234.95L167.567 256.151L162.965 266.361C162.965 266.361 133.63 255.826 124.619 248.997C115.608 242.168 120.593 231.438 120.593 231.438C120.593 231.438 125.578 230.853 134.973 234.95Z" fill="white"/>
<path d="M166.609 255.826C166.609 255.826 177.602 255.306 181.564 255.306C185.526 255.306 192.429 261.809 191.662 263.89C190.895 265.971 182.97 259.598 182.97 259.598L182.523 260.443C182.523 260.443 189.553 264.735 189.936 266.361C190.319 267.987 188.722 267.727 186.421 266.751C184.12 265.776 180.669 263.564 180.669 263.564L180.286 264.019C180.286 264.019 186.933 268.116 186.933 269.612C186.933 271.108 182.14 269.417 178.625 267.076L178.178 267.791C178.178 267.791 182.524 270.002 182.843 271.433C183.163 272.864 180.798 272.279 178.178 271.043C175.558 269.807 173.129 269.677 169.742 269.157C166.355 268.637 162.336 266.131 162.336 266.131L166.609 255.826Z" fill="white"/>
<path d="M368.684 196.358L353.053 274.751H237.248L252.789 196.81C253.117 195.163 254.54 193.98 256.191 193.98H366.772C368.005 193.979 368.929 195.128 368.684 196.358Z" fill="#4F0188"/>
<path d="M237.248 274.751L205.434 264.402C204.31 264.036 203.549 262.989 203.549 261.807C203.549 260.3 204.771 259.078 206.278 259.078H240.373L237.248 274.751Z" fill="#410071"/>
<path d="M153.766 176.125C153.766 176.125 160.889 196.266 156.572 210.091C156.572 210.091 171.133 193.906 153.766 176.125Z" fill="#C6606C"/>
<path d="M226.835 217.939C225.415 216.059 223.885 213.869 222.475 211.499C225.415 199.949 218.575 174.229 218.575 174.229C233.565 193.339 229.385 211.089 226.835 217.939Z" fill="#C6606C"/>
<path d="M259.758 198.629L353.053 274.751H246.684L259.758 198.629Z" fill="#691E9F"/>
<path d="M315.831 247.143C320.582 245.189 322.848 239.752 320.893 235.001C318.938 230.249 313.502 227.982 308.751 229.937C304 231.891 301.733 237.328 303.688 242.079C305.643 246.831 311.079 249.098 315.831 247.143Z" fill="#BA68C8"/>
<path d="M177.246 160.754L192.986 176.769C192.986 176.769 190.256 180.631 185.711 180.524C181.166 180.417 178.613 174.64 177.327 171.634C176.041 168.629 173.417 165.349 173.417 165.349L177.246 160.754Z" fill="#FFA9B3"/>
<path d="M192.984 176.769C192.984 176.769 197.04 179.236 201.004 177.522C204.968 175.808 203.897 173.188 202.504 170.426C201.111 167.664 199.611 162.736 199.611 162.736L195.092 160.131C195.092 160.131 195.893 170.659 192.984 176.769Z" fill="#FFA9B3"/>
<path d="M217.254 207.701L177.592 211.538C177.592 211.538 186.485 217.915 200.175 215.986C213.866 214.058 217.254 207.701 217.254 207.701Z" fill="#C6606C"/>
<path opacity="0.42" d="M128.603 78.7422H56.8805C52.3085 78.7422 48.6025 82.4482 48.6025 87.0202V106.031C48.6025 110.603 52.3085 114.309 56.8805 114.309H117.298L136.882 125.629V114.309V108.836V87.0202C136.881 82.4482 133.175 78.7422 128.603 78.7422Z" fill="#4F0188"/>
<path d="M54.1143 87.3433H128.826" stroke="white" stroke-miterlimit="10" stroke-linecap="round" stroke-linejoin="round"/>
<path d="M54.1143 96.4644H128.826" stroke="white" stroke-miterlimit="10" stroke-linecap="round" stroke-linejoin="round"/>
<path d="M54.1143 105.584H128.826" stroke="white" stroke-miterlimit="10" stroke-linecap="round" stroke-linejoin="round"/>
<path d="M132.709 299.792C134.586 284.274 122.338 286.606 113.961 294.792C105.585 302.978 97.3725 298.407 106.664 283.114C115.955 267.821 122.759 263.116 121.472 255.416C120.185 247.716 113.469 251.083 101.85 257.488C90.2305 263.893 101.212 247.172 100.334 231.309C99.4565 215.447 83.7055 223.372 82.3815 236.724C81.0575 250.076 87.0195 265.026 79.3755 262.06C71.7315 259.094 67.1085 241.359 60.1575 249.732C53.2065 258.105 79.7775 286.49 78.8845 295.061C77.9915 303.631 58.8755 277.515 53.3835 286.114C47.8915 294.713 71.6525 352.136 92.2225 350.527C118.356 348.483 130.833 315.31 132.709 299.792Z" fill="#55098B"/>
<path d="M90.3652 238.59C90.3652 238.59 87.0802 256.546 88.3942 279.321C89.7082 302.097 92.6852 359.399 92.6852 359.399" stroke="#AF58EE" stroke-miterlimit="10"/>
<path d="M68.0283 261.163C68.0283 261.163 83.1243 279.079 88.6063 283.033C88.6063 283.033 108.103 264.246 111.826 261.163" stroke="#AF58EE" stroke-miterlimit="10"/>
<path d="M59.1113 297.035C59.1113 297.035 81.8113 319.87 90.6873 321.385L124.089 298.994" stroke="#AF58EE" stroke-miterlimit="10"/>
<path d="M83.3006 341.707C83.3006 341.707 93.1396 319.95 87.8386 308.26C82.5376 296.57 74.9366 303.43 72.5496 312.747C70.1626 322.064 62.4506 322.358 62.4486 307.664C62.4466 292.97 65.2146 286.766 61.0276 281.911C56.8406 277.056 53.5636 282.283 48.1416 291.734C42.7196 301.185 43.2936 284.767 35.9136 274.009C28.5326 263.251 20.8596 275.531 25.6246 285.465C30.3896 295.4 40.9496 303.348 34.3206 304.527C27.6916 305.706 16.8826 295.231 15.5756 304.071C14.2686 312.911 45.0206 321.499 48.0496 327.894C51.0786 334.289 26.5246 324.115 26.3386 332.491C26.1516 340.867 54.7226 355.571 67.6556 353.382C80.5876 351.193 83.3006 341.707 83.3006 341.707Z" fill="#55098B"/>
<path d="M31.458 280.542C31.458 280.542 68.905 340.712 76.789 359.399" stroke="#AF58EE" stroke-miterlimit="10"/>
<path d="M25.3252 309.104L51.6632 313.798L57.0792 291.147" stroke="#AF58EE" stroke-miterlimit="10"/>
<path d="M39.2461 336.127L67.3831 340.997L78.9791 315.455" stroke="#AF58EE" stroke-miterlimit="10"/>
<path d="M66.5693 359.399H114.163L110.075 383.422H71.5333L66.5693 359.399Z" fill="#BA68C8"/>
<path d="M114.745 366.042H66.4259C64.6509 366.042 63.2119 364.603 63.2119 362.828V360.278C63.2119 358.503 64.6509 357.064 66.4259 357.064H114.745C116.52 357.064 117.959 358.503 117.959 360.278V362.828C117.959 364.602 116.52 366.042 114.745 366.042Z" fill="#4F0188"/>
<path opacity="0.42" d="M286.781 386.058C305.031 386.058 319.825 371.264 319.825 353.014C319.825 334.765 305.031 319.97 286.781 319.97C268.532 319.97 253.737 334.765 253.737 353.014C253.737 371.264 268.532 386.058 286.781 386.058Z" fill="#4F0188"/>
<path d="M307.544 340.808H266.018C264.881 340.808 263.959 341.73 263.959 342.867V365.75C263.959 366.887 264.881 367.808 266.018 367.808H307.544C308.681 367.808 309.602 366.887 309.602 365.75V342.867C309.602 341.729 308.68 340.808 307.544 340.808ZM308.159 344.109L288.659 356.859C288.494 356.967 288.302 357.022 288.112 357.022C287.944 357.022 287.775 356.98 287.623 356.894L264.908 344.144C264.426 343.873 264.255 343.264 264.525 342.783C264.795 342.301 265.407 342.13 265.886 342.4L288.072 354.853L307.064 342.435C307.524 342.132 308.146 342.262 308.448 342.725C308.752 343.187 308.622 343.807 308.159 344.109Z" fill="white"/>
<path d="M312.287 349.45C319.05 349.45 324.533 343.967 324.533 337.204C324.533 330.441 319.05 324.958 312.287 324.958C305.524 324.958 300.041 330.441 300.041 337.204C300.041 343.967 305.524 349.45 312.287 349.45Z" fill="#FFA9B3"/>
</svg>
